<svg width="164" height="192" viewBox="0 0 164 192" fill="none" xmlns="http://www.w3.org/2000/svg">
<path d="M2.53392 3.26967C2.53392 5.08616 1.08197 6.53936 -0.733018 6.53936C-2.548 6.53936 -4 5.08616 -4 3.26967C-4 1.45318 -2.548 0 -0.733018 0C1.08197 0 2.53392 1.45318 2.53392 3.26967Z" fill="#FE0000"/>
<path d="M25.6006 3.26967C25.6006 5.08616 24.1486 6.53936 22.3336 6.53936C20.5186 6.53936 19.0666 5.08616 19.0666 3.26967C19.0666 1.45318 20.5186 0 22.3336 0C24.1486 0 25.6006 1.45318 25.6006 3.26967Z" fill="#FE0000"/>
<path d="M48.6671 3.26967C48.6671 5.08616 47.2151 6.53936 45.4002 6.53936C43.5852 6.53936 42.1332 5.08616 42.1332 3.26967C42.1332 1.45318 43.5852 0 45.4002 0C47.2151 0 48.6671 1.45318 48.6671 3.26967Z" fill="#FE0000"/>
<path d="M71.7337 3.26967C71.7337 5.08616 70.2817 6.53936 68.4667 6.53936C66.6517 6.53936 65.1997 5.08616 65.1997 3.26967C65.1997 1.45318 66.6517 0 68.4667 0C70.2817 0 71.7337 1.45318 71.7337 3.26967Z" fill="#FE0000"/>
<path d="M94.8003 3.26967C94.8003 5.08616 93.3483 6.53936 91.5333 6.53936C89.7183 6.53936 88.2663 5.08616 88.2663 3.26967C88.2663 1.45318 89.7183 0 91.5333 0C93.3483 0 94.8003 1.45318 94.8003 3.26967Z" fill="#FE0000"/>
<path d="M117.867 3.26967C117.867 5.08616 116.415 6.53936 114.6 6.53936C112.785 6.53936 111.333 5.08616 111.333 3.26967C111.333 1.45318 112.785 0 114.6 0C116.415 0 117.867 1.45318 117.867 3.26967Z" fill="#FE0000"/>
<path d="M140.933 3.26967C140.933 5.08616 139.481 6.53936 137.666 6.53936C135.851 6.53936 134.399 5.08616 134.399 3.26967C134.399 1.45318 135.851 0 137.666 0C139.481 0 140.933 1.45318 140.933 3.26967Z" fill="#FE0000"/>
<path d="M164 3.26967C164 5.08616 162.548 6.53936 160.733 6.53936C158.918 6.53936 157.466 5.08616 157.466 3.26967C157.466 1.45318 158.918 0 160.733 0C162.548 0 164 1.45318 164 3.26967Z" fill="#FE0000"/>
<path d="M2.53392 26.3417C2.53392 28.1582 1.08197 29.6114 -0.733018 29.6114C-2.548 29.6114 -4 28.1582 -4 26.3417C-4 24.5252 -2.548 23.072 -0.733018 23.072C1.08197 23.072 2.53392 24.5252 2.53392 26.3417Z" fill="#FE0000"/>
<path d="M25.6006 26.3417C25.6006 28.1582 24.1486 29.6114 22.3336 29.6114C20.5186 29.6114 19.0666 28.1582 19.0666 26.3417C19.0666 24.5252 20.5186 23.072 22.3336 23.072C24.1486 23.072 25.6006 24.5252 25.6006 26.3417Z" fill="#FE0000"/>
<path d="M48.6671 26.3417C48.6671 28.1582 47.2151 29.6114 45.4002 29.6114C43.5852 29.6114 42.1332 28.1582 42.1332 26.3417C42.1332 24.5252 43.5852 23.072 45.4002 23.072C47.2151 23.072 48.6671 24.5252 48.6671 26.3417Z" fill="#FE0000"/>
<path d="M71.7337 26.3417C71.7337 28.1582 70.2817 29.6114 68.4667 29.6114C66.6517 29.6114 65.1997 28.1582 65.1997 26.3417C65.1997 24.5252 66.6517 23.072 68.4667 23.072C70.2817 23.072 71.7337 24.5252 71.7337 26.3417Z" fill="#FE0000"/>
<path d="M94.8003 26.3417C94.8003 28.1582 93.3483 29.6114 91.5333 29.6114C89.7183 29.6114 88.2663 28.1582 88.2663 26.3417C88.2663 24.5252 89.7183 23.072 91.5333 23.072C93.3483 23.072 94.8003 24.5252 94.8003 26.3417Z" fill="#FE0000"/>
<path d="M117.867 26.3417C117.867 28.1582 116.415 29.6114 114.6 29.6114C112.785 29.6114 111.333 28.1582 111.333 26.3417C111.333 24.5252 112.785 23.072 114.6 23.072C116.415 23.072 117.867 24.5252 117.867 26.3417Z" fill="#FE0000"/>
<path d="M140.933 26.3417C140.933 28.1582 139.481 29.6114 137.666 29.6114C135.851 29.6114 134.399 28.1582 134.399 26.3417C134.399 24.5252 135.851 23.072 137.666 23.072C139.481 23.072 140.933 24.5252 140.933 26.3417Z" fill="#FE0000"/>
<path d="M164 26.3417C164 28.1582 162.548 29.6114 160.733 29.6114C158.918 29.6114 157.466 28.1582 157.466 26.3417C157.466 24.5252 158.918 23.072 160.733 23.072C162.548 23.072 164 24.5252 164 26.3417Z" fill="#FE0000"/>
<path d="M2.53392 49.4137C2.53392 51.2302 1.08197 52.6834 -0.733018 52.6834C-2.548 52.6834 -4 51.2302 -4 49.4137C-4 47.5972 -2.548 46.144 -0.733018 46.144C1.08197 46.144 2.53392 47.5972 2.53392 49.4137Z" fill="#FE0000"/>
<path d="M25.6006 49.4137C25.6006 51.2302 24.1486 52.6834 22.3336 52.6834C20.5186 52.6834 19.0666 51.2302 19.0666 49.4137C19.0666 47.5972 20.5186 46.144 22.3336 46.144C24.1486 46.144 25.6006 47.5972 25.6006 49.4137Z" fill="#FE0000"/>
<path d="M48.6671 49.4137C48.6671 51.2302 47.2151 52.6834 45.4002 52.6834C43.5852 52.6834 42.1332 51.2302 42.1332 49.4137C42.1332 47.5972 43.5852 46.144 45.4002 46.144C47.2151 46.144 48.6671 47.5972 48.6671 49.4137Z" fill="#FE0000"/>
<path d="M71.7337 49.4137C71.7337 51.2302 70.2817 52.6834 68.4667 52.6834C66.6517 52.6834 65.1997 51.2302 65.1997 49.4137C65.1997 47.5972 66.6517 46.144 68.4667 46.144C70.2817 46.144 71.7337 47.5972 71.7337 49.4137Z" fill="#FE0000"/>
<path d="M94.8003 49.4137C94.8003 51.2302 93.3483 52.6834 91.5333 52.6834C89.7183 52.6834 88.2663 51.2302 88.2663 49.4137C88.2663 47.5972 89.7183 46.144 91.5333 46.144C93.3483 46.144 94.8003 47.5972 94.8003 49.4137Z" fill="#FE0000"/>
<path d="M117.867 49.4137C117.867 51.2302 116.415 52.6834 114.6 52.6834C112.785 52.6834 111.333 51.2302 111.333 49.4137C111.333 47.5972 112.785 46.144 114.6 46.144C116.415 46.144 117.867 47.5972 117.867 49.4137Z" fill="#FE0000"/>
<path d="M140.933 49.4137C140.933 51.2302 139.481 52.6834 137.666 52.6834C135.851 52.6834 134.399 51.2302 134.399 49.4137C134.399 47.5972 135.851 46.144 137.666 46.144C139.481 46.144 140.933 47.5972 140.933 49.4137Z" fill="#FE0000"/>
<path d="M164 49.4137C164 51.2302 162.548 52.6834 160.733 52.6834C158.918 52.6834 157.466 51.2302 157.466 49.4137C157.466 47.5972 158.918 46.144 160.733 46.144C162.548 46.144 164 47.5972 164 49.4137Z" fill="#FE0000"/>
<path d="M2.53392 72.4857C2.53392 74.3022 1.08197 75.7554 -0.733018 75.7554C-2.548 75.7554 -4 74.3022 -4 72.4857C-4 70.6692 -2.548 69.2161 -0.733018 69.2161C1.08197 69.2161 2.53392 70.6692 2.53392 72.4857Z" fill="#FE0000"/>
<path d="M25.6006 72.4857C25.6006 74.3022 24.1486 75.7554 22.3336 75.7554C20.5186 75.7554 19.0666 74.3022 19.0666 72.4857C19.0666 70.6692 20.5186 69.2161 22.3336 69.2161C24.1486 69.2161 25.6006 70.6692 25.6006 72.4857Z" fill="#FE0000"/>
<path d="M48.6671 72.4857C48.6671 74.3022 47.2151 75.7554 45.4002 75.7554C43.5852 75.7554 42.1332 74.3022 42.1332 72.4857C42.1332 70.6692 43.5852 69.2161 45.4002 69.2161C47.2151 69.2161 48.6671 70.6692 48.6671 72.4857Z" fill="#FE0000"/>
<path d="M71.7337 72.4857C71.7337 74.3022 70.2817 75.7554 68.4667 75.7554C66.6517 75.7554 65.1997 74.3022 65.1997 72.4857C65.1997 70.6692 66.6517 69.2161 68.4667 69.2161C70.2817 69.2161 71.7337 70.6692 71.7337 72.4857Z" fill="#FE0000"/>
<path d="M94.8003 72.4857C94.8003 74.3022 93.3483 75.7554 91.5333 75.7554C89.7183 75.7554 88.2663 74.3022 88.2663 72.4857C88.2663 70.6692 89.7183 69.2161 91.5333 69.2161C93.3483 69.2161 94.8003 70.6692 94.8003 72.4857Z" fill="#FE0000"/>
<path d="M117.867 72.4857C117.867 74.3022 116.415 75.7554 114.6 75.7554C112.785 75.7554 111.333 74.3022 111.333 72.4857C111.333 70.6692 112.785 69.2161 114.6 69.2161C116.415 69.2161 117.867 70.6692 117.867 72.4857Z" fill="#FE0000"/>
<path d="M140.933 72.4857C140.933 74.3022 139.481 75.7554 137.666 75.7554C135.851 75.7554 134.399 74.3022 134.399 72.4857C134.399 70.6692 135.851 69.2161 137.666 69.2161C139.481 69.2161 140.933 70.6692 140.933 72.4857Z" fill="#FE0000"/>
<path d="M164 72.4857C164 74.3022 162.548 75.7554 160.733 75.7554C158.918 75.7554 157.466 74.3022 157.466 72.4857C157.466 70.6692 158.918 69.2161 160.733 69.2161C162.548 69.2161 164 70.6692 164 72.4857Z" fill="#FE0000"/>
<path d="M-0.733018 98.8275C1.07128 98.8275 2.53392 97.3636 2.53392 95.5578C2.53392 93.752 1.07128 92.2881 -0.733018 92.2881C-2.53732 92.2881 -4 93.752 -4 95.5578C-4 97.3636 -2.53732 98.8275 -0.733018 98.8275Z" fill="#FE0000"/>
<path d="M22.3336 98.8275C24.1379 98.8275 25.6006 97.3636 25.6006 95.5578C25.6006 93.752 24.1379 92.2881 22.3336 92.2881C20.5293 92.2881 19.0666 93.752 19.0666 95.5578C19.0666 97.3636 20.5293 98.8275 22.3336 98.8275Z" fill="#FE0000"/>
<path d="M45.4002 98.8275C47.2045 98.8275 48.6671 97.3636 48.6671 95.5578C48.6671 93.752 47.2045 92.2881 45.4002 92.2881C43.5959 92.2881 42.1332 93.752 42.1332 95.5578C42.1332 97.3636 43.5959 98.8275 45.4002 98.8275Z" fill="#FE0000"/>
<path d="M68.4667 98.8275C70.271 98.8275 71.7337 97.3636 71.7337 95.5578C71.7337 93.752 70.271 92.2881 68.4667 92.2881C66.6624 92.2881 65.1997 93.752 65.1997 95.5578C65.1997 97.3636 66.6624 98.8275 68.4667 98.8275Z" fill="#FE0000"/>
<path d="M94.8003 95.5578C94.8003 97.3743 93.3483 98.8275 91.5333 98.8275C89.7183 98.8275 88.2663 97.3743 88.2663 95.5578C88.2663 93.7413 89.7183 92.2881 91.5333 92.2881C93.3483 92.2881 94.8003 93.7413 94.8003 95.5578Z" fill="#FE0000"/>
<path d="M114.6 98.8275C116.404 98.8275 117.867 97.3636 117.867 95.5578C117.867 93.752 116.404 92.2881 114.6 92.2881C112.796 92.2881 111.333 93.752 111.333 95.5578C111.333 97.3636 112.796 98.8275 114.6 98.8275Z" fill="#FE0000"/>
<path d="M137.666 98.8275C139.471 98.8275 140.933 97.3636 140.933 95.5578C140.933 93.752 139.471 92.2881 137.666 92.2881C135.862 92.2881 134.399 93.752 134.399 95.5578C134.399 97.3636 135.862 98.8275 137.666 98.8275Z" fill="#FE0000"/>
<path d="M160.733 98.8275C162.537 98.8275 164 97.3636 164 95.5578C164 93.752 162.537 92.2881 160.733 92.2881C158.929 92.2881 157.466 93.752 157.466 95.5578C157.466 97.3636 158.929 98.8275 160.733 98.8275Z" fill="#FE0000"/>
<path d="M-0.733018 121.899C1.07128 121.899 2.53392 120.436 2.53392 118.63C2.53392 116.824 1.07128 115.36 -0.733018 115.36C-2.53732 115.36 -4 116.824 -4 118.63C-4 120.436 -2.53732 121.899 -0.733018 121.899Z" fill="#FE0000"/>
<path d="M22.3336 121.899C24.1379 121.899 25.6006 120.436 25.6006 118.63C25.6006 116.824 24.1379 115.36 22.3336 115.36C20.5293 115.36 19.0666 116.824 19.0666 118.63C19.0666 120.436 20.5293 121.899 22.3336 121.899Z" fill="#FE0000"/>
<path d="M45.4002 121.899C47.2045 121.899 48.6671 120.436 48.6671 118.63C48.6671 116.824 47.2045 115.36 45.4002 115.36C43.5959 115.36 42.1332 116.824 42.1332 118.63C42.1332 120.436 43.5959 121.899 45.4002 121.899Z" fill="#FE0000"/>
<path d="M68.4667 121.899C70.271 121.899 71.7337 120.436 71.7337 118.63C71.7337 116.824 70.271 115.36 68.4667 115.36C66.6624 115.36 65.1997 116.824 65.1997 118.63C65.1997 120.436 66.6624 121.899 68.4667 121.899Z" fill="#FE0000"/>
<path d="M94.8003 118.63C94.8003 120.446 93.3483 121.899 91.5333 121.899C89.7183 121.899 88.2663 120.446 88.2663 118.63C88.2663 116.813 89.7183 115.36 91.5333 115.36C93.3483 115.36 94.8003 116.813 94.8003 118.63Z" fill="#FE0000"/>
<path d="M114.6 121.899C116.404 121.899 117.867 120.436 117.867 118.63C117.867 116.824 116.404 115.36 114.6 115.36C112.796 115.36 111.333 116.824 111.333 118.63C111.333 120.436 112.796 121.899 114.6 121.899Z" fill="#FE0000"/>
<path d="M137.666 121.899C139.471 121.899 140.933 120.436 140.933 118.63C140.933 116.824 139.471 115.36 137.666 115.36C135.862 115.36 134.399 116.824 134.399 118.63C134.399 120.436 135.862 121.899 137.666 121.899Z" fill="#FE0000"/>
<path d="M160.733 121.899C162.537 121.899 164 120.436 164 118.63C164 116.824 162.537 115.36 160.733 115.36C158.929 115.36 157.466 116.824 157.466 118.63C157.466 120.436 158.929 121.899 160.733 121.899Z" fill="#FE0000"/>
<path d="M-0.733018 144.971C1.07128 144.971 2.53392 143.508 2.53392 141.702C2.53392 139.896 1.07128 138.432 -0.733018 138.432C-2.53732 138.432 -4 139.896 -4 141.702C-4 143.508 -2.53732 144.971 -0.733018 144.971Z" fill="#FE0000"/>
<path d="M22.3336 144.971C24.1379 144.971 25.6006 143.508 25.6006 141.702C25.6006 139.896 24.1379 138.432 22.3336 138.432C20.5293 138.432 19.0666 139.896 19.0666 141.702C19.0666 143.508 20.5293 144.971 22.3336 144.971Z" fill="#FE0000"/>
<path d="M45.4002 144.971C47.2045 144.971 48.6671 143.508 48.6671 141.702C48.6671 139.896 47.2045 138.432 45.4002 138.432C43.5959 138.432 42.1332 139.896 42.1332 141.702C42.1332 143.508 43.5959 144.971 45.4002 144.971Z" fill="#FE0000"/>
<path d="M68.4667 144.971C70.271 144.971 71.7337 143.508 71.7337 141.702C71.7337 139.896 70.271 138.432 68.4667 138.432C66.6624 138.432 65.1997 139.896 65.1997 141.702C65.1997 143.508 66.6624 144.971 68.4667 144.971Z" fill="#FE0000"/>
<path d="M94.8003 141.702C94.8003 143.518 93.3483 144.971 91.5333 144.971C89.7183 144.971 88.2663 143.518 88.2663 141.702C88.2663 139.885 89.7183 138.432 91.5333 138.432C93.3483 138.432 94.8003 139.885 94.8003 141.702Z" fill="#FE0000"/>
<path d="M114.6 144.971C116.404 144.971 117.867 143.508 117.867 141.702C117.867 139.896 116.404 138.432 114.6 138.432C112.796 138.432 111.333 139.896 111.333 141.702C111.333 143.508 112.796 144.971 114.6 144.971Z" fill="#FE0000"/>
<path d="M137.666 144.971C139.471 144.971 140.933 143.508 140.933 141.702C140.933 139.896 139.471 138.432 137.666 138.432C135.862 138.432 134.399 139.896 134.399 141.702C134.399 143.508 135.862 144.971 137.666 144.971Z" fill="#FE0000"/>
<path d="M160.733 144.971C162.537 144.971 164 143.508 164 141.702C164 139.896 162.537 138.432 160.733 138.432C158.929 138.432 157.466 139.896 157.466 141.702C157.466 143.508 158.929 144.971 160.733 144.971Z" fill="#FE0000"/>
<path d="M-0.733018 168.043C1.07128 168.043 2.53392 166.58 2.53392 164.774C2.53392 162.968 1.07128 161.504 -0.733018 161.504C-2.53732 161.504 -4 162.968 -4 164.774C-4 166.58 -2.53732 168.043 -0.733018 168.043Z" fill="#FE0000"/>
<path d="M22.3336 168.043C24.1379 168.043 25.6006 166.58 25.6006 164.774C25.6006 162.968 24.1379 161.504 22.3336 161.504C20.5293 161.504 19.0666 162.968 19.0666 164.774C19.0666 166.58 20.5293 168.043 22.3336 168.043Z" fill="#FE0000"/>
<path d="M45.4002 168.043C47.2045 168.043 48.6671 166.58 48.6671 164.774C48.6671 162.968 47.2045 161.504 45.4002 161.504C43.5959 161.504 42.1332 162.968 42.1332 164.774C42.1332 166.58 43.5959 168.043 45.4002 168.043Z" fill="#FE0000"/>
<path d="M68.4667 168.043C70.271 168.043 71.7337 166.58 71.7337 164.774C71.7337 162.968 70.271 161.504 68.4667 161.504C66.6624 161.504 65.1997 162.968 65.1997 164.774C65.1997 166.58 66.6624 168.043 68.4667 168.043Z" fill="#FE0000"/>
<path d="M94.8003 164.774C94.8003 166.59 93.3483 168.043 91.5333 168.043C89.7183 168.043 88.2663 166.59 88.2663 164.774C88.2663 162.957 89.7183 161.504 91.5333 161.504C93.3483 161.504 94.8003 162.957 94.8003 164.774Z" fill="#FE0000"/>
<path d="M114.6 168.043C116.404 168.043 117.867 166.58 117.867 164.774C117.867 162.968 116.404 161.504 114.6 161.504C112.796 161.504 111.333 162.968 111.333 164.774C111.333 166.58 112.796 168.043 114.6 168.043Z" fill="#FE0000"/>
<path d="M137.666 168.043C139.471 168.043 140.933 166.58 140.933 164.774C140.933 162.968 139.471 161.504 137.666 161.504C135.862 161.504 134.399 162.968 134.399 164.774C134.399 166.58 135.862 168.043 137.666 168.043Z" fill="#FE0000"/>
<path d="M160.733 168.043C162.537 168.043 164 166.58 164 164.774C164 162.968 162.537 161.504 160.733 161.504C158.929 161.504 157.466 162.968 157.466 164.774C157.466 166.58 158.929 168.043 160.733 168.043Z" fill="#FE0000"/>
<path d="M-0.733018 191.116C1.07128 191.116 2.53392 189.652 2.53392 187.846C2.53392 186.04 1.07128 184.576 -0.733018 184.576C-2.53732 184.576 -4 186.04 -4 187.846C-4 189.652 -2.53732 191.116 -0.733018 191.116Z" fill="#FE0000"/>
<path d="M22.3336 191.116C24.1379 191.116 25.6006 189.652 25.6006 187.846C25.6006 186.04 24.1379 184.576 22.3336 184.576C20.5293 184.576 19.0666 186.04 19.0666 187.846C19.0666 189.652 20.5293 191.116 22.3336 191.116Z" fill="#FE0000"/>
<path d="M45.4002 191.116C47.2045 191.116 48.6671 189.652 48.6671 187.846C48.6671 186.04 47.2045 184.576 45.4002 184.576C43.5959 184.576 42.1332 186.04 42.1332 187.846C42.1332 189.652 43.5959 191.116 45.4002 191.116Z" fill="#FE0000"/>
<path d="M68.4667 191.116C70.271 191.116 71.7337 189.652 71.7337 187.846C71.7337 186.04 70.271 184.576 68.4667 184.576C66.6624 184.576 65.1997 186.04 65.1997 187.846C65.1997 189.652 66.6624 191.116 68.4667 191.116Z" fill="#FE0000"/>
<path d="M94.8003 187.846C94.8003 189.662 93.3483 191.116 91.5333 191.116C89.7183 191.116 88.2663 189.662 88.2663 187.846C88.2663 186.029 89.7183 184.576 91.5333 184.576C93.3483 184.576 94.8003 186.029 94.8003 187.846Z" fill="#FE0000"/>
<path d="M114.6 191.116C116.404 191.116 117.867 189.652 117.867 187.846C117.867 186.04 116.404 184.576 114.6 184.576C112.796 184.576 111.333 186.04 111.333 187.846C111.333 189.652 112.796 191.116 114.6 191.116Z" fill="#FE0000"/>
<path d="M137.666 191.116C139.471 191.116 140.933 189.652 140.933 187.846C140.933 186.04 139.471 184.576 137.666 184.576C135.862 184.576 134.399 186.04 134.399 187.846C134.399 189.652 135.862 191.116 137.666 191.116Z" fill="#FE0000"/>
<path d="M160.733 191.116C162.537 191.116 164 189.652 164 187.846C164 186.04 162.537 184.576 160.733 184.576C158.929 184.576 157.466 186.04 157.466 187.846C157.466 189.652 158.929 191.116 160.733 191.116Z" fill="#FE0000"/>
</svg>
