<?xml version="1.0" encoding="UTF-8"?><svg id="Capa_2" xmlns="http://www.w3.org/2000/svg" viewBox="0 0 897.9 242"><defs><style>.cls-1{fill:#7b18e7;}.cls-1,.cls-2,.cls-3,.cls-4,.cls-5,.cls-6{stroke-width:0px;}.cls-2{fill:#df0084;}.cls-3{fill:#c014c3;}.cls-4{fill:#fff;}.cls-5{fill:#e71884;}.cls-6{fill:#f7931e;}</style></defs><g id="Capa_1_copia"><path class="cls-4" d="M255.7,171.6c5.2,20.7,22,32.2,45.7,32.2,16.1,0,31.2-5.6,45.3-16.4l18.4,30.2c-19.4,16.1-41,24.3-65,24.3-50.2,1-90-38.1-89-85.1-1-47,38.1-86,85.1-85.1,45,0,76.5,33.2,76.5,75.5,0,7.9-1,16.1-3,24.3l-114,.1h0ZM329.6,140.4c-.3-20-15.8-32.8-35.1-32.8s-33.8,12.8-38.8,32.8h73.9Z"/><rect class="cls-4" x="398.7" y="75.3" width="44.3" height="162.6"/><path class="cls-4" d="M486.2,183.4c14.1,14.8,29.6,22,45.7,22,11.8,0,20.7-4.6,20.7-13.5,0-6.9-4.6-9.5-16.8-14.8l-17.4-7.2c-29.9-12.1-44.3-25.6-44.3-49.6,0-30.5,24.3-48.6,59.8-48.6,24.3,0,43.7,8.2,58.5,24.3l-22.4,27.3c-10.8-10.2-23-15.4-36.5-15.4-10.8,0-17.4,3.9-17.4,11.5,0,6.2,4.3,9.2,17.1,14.5l15.8,6.6c31.5,12.8,45.7,25.6,45.7,49.6,0,16.1-5.9,28.9-18.1,38.1-11.8,9.2-26.9,13.8-45.3,13.8-28.6,0-52.5-11.8-67.3-31.5l22.2-27.1h0Z"/><path class="cls-4" d="M654.3,171.6c5.2,20.7,22,32.2,45.7,32.2,16.1,0,31.2-5.6,45.3-16.4l18.4,30.2c-19.4,16.1-41,24.3-65,24.3-50.2,1-90-38.1-89-85.1-1-47,38.1-86,85.1-85.1,45,0,76.5,33.2,76.5,75.5,0,7.9-1,16.1-3,24.3l-114,.1h0ZM728.2,140.4c-.3-20-15.8-32.8-35.1-32.8s-33.8,12.8-38.8,32.8h73.9Z"/><path class="cls-4" d="M897.9,114.4h-11.9c-26.6,0-43.7,14.4-43.7,42.4v81.1h-44.3V75.3h40.7v19.4c10.8-13.5,26.6-21.3,44.7-21.3,5.6,0,10.2.7,14.5,2v39h0Z"/><path class="cls-2" d="M398.7,40.8v3.4h24.3c5.2-.5,10-2.9,13.5-6.4,4-4,6.5-9.6,6.5-15.6s-2.5-11.6-6.5-15.6S427,.1,420.9.1h-22.2v40.7h0Z"/><path class="cls-3" d="M140.4,144v-68.4h-50c-5.1,0-10,.3-14.8.9v67.5h64.8Z"/><path class="cls-6" d="M0,156.9c0,43.6,31,74.5,75.6,80V76.6C31,82.2,0,113.7,0,156.9Z"/><rect class="cls-1" x="140.4" width="44.3" height="237.9"/><path class="cls-5" d="M184.7,237.9v-93.9h-109.1v93c4.8.6,9.7.9,14.8.9h94.3Z"/><path class="cls-5" d="M184.7,237.9v-98.5h-109.1v97.6c4.8.6,9.7,1,14.8,1l94.3-.1h0Z"/><path class="cls-3" d="M140.4,144v-68.4h-50c-5.1,0-10,.3-14.8.9v67.5h64.8Z"/><path class="cls-6" d="M0,156.9c0,43.6,31,74.5,75.6,80V76.6C31,82.2,0,113.7,0,156.9Z"/><rect class="cls-1" x="140.4" width="44.3" height="237.9"/><path class="cls-5" d="M184.7,237.9v-93.9h-109.1v93c4.8.6,9.7.9,14.8.9h94.3Z"/></g></svg>