<?xml version="1.0" encoding="UTF-8"?>
<svg id="Capa_1" data-name="Capa 1" xmlns="http://www.w3.org/2000/svg" viewBox="0 0 480 180">
  <defs>
    <style>
      .cls-1 {
        fill: #fff;
      }
    </style>
  </defs>
  <g>
    <path class="cls-1" d="m152.17,64.12c0-1.01.82-1.83,1.83-1.83h34.03c1.01,0,1.83.83,1.83,1.83v3.76c0,1.01-.82,1.83-1.83,1.83h-26.11c-1.01,0-1.83.83-1.83,1.83v13.74c0,1.01.82,1.83,1.83,1.83h24.05c1.01,0,1.83.82,1.83,1.83v3.76c0,1.01-.83,1.83-1.83,1.83h-24.05c-1.01,0-1.83.82-1.83,1.83v15.06c0,1.01.82,1.83,1.83,1.83h27.6c1.01,0,1.83.83,1.83,1.83v3.76c0,1.01-.83,1.83-1.83,1.83h-35.52c-1.01,0-1.83-.83-1.83-1.83v-54.74Z"/>
    <path class="cls-1" d="m218.32,86.19c0,1.01-.82,1.83-1.83,1.83h-6.98c-1.01,0-1.83.82-1.83,1.83v14.07c0,1.01,0,2.66.02,3.67,0,0,0,.35.06,1.43.05,1.07.26,2.04.62,2.89.36.85.91,1.54,1.65,2.06.74.52,1.83.78,3.26.78.88,0,1.79-.08,2.72-.25l.93-.16c.89-.41,1.62.08,1.62,1.09v3.1c0,1.01-.76,2.15-1.69,2.54,0,0-.33.14-1.73.33-1.4.19-2.49.29-3.26.29-2.86,0-5.07-.4-6.64-1.2-1.57-.79-2.72-1.83-3.47-3.09-.74-1.27-1.18-2.68-1.32-4.25-.14-1.56-.17-2.91-.17-2.91-.02-1.01-.04-2.66-.04-3.67v-16.71c0-1.01-.82-1.83-1.83-1.83h-4.91c-1.01,0-1.83-.83-1.83-1.83v-2.77c0-1.01.83-1.83,1.83-1.83h4.91c1.01,0,1.83-.82,1.83-1.83v-7.3c0-1.01.83-1.83,1.83-1.83h3.76c1.01,0,1.83.82,1.83,1.83v7.3c0,1.01.82,1.83,1.83,1.83h6.98c1.01,0,1.83.83,1.83,1.83v2.77Z"/>
    <path class="cls-1" d="m224.59,60.16c0-1.01.82-1.83,1.83-1.83h3.76c1.01,0,1.83.83,1.83,1.83v25.62c0,1.01.04,1.83.09,1.83.04,0,.54-.68,1.11-1.52,0,0,1.53-2.26,3.84-3.55,2.31-1.29,4.98-1.94,8-1.94,1.87,0,3.67.29,5.4.86,1.73.58,3.24,1.47,4.54,2.68,1.29,1.21,2.32,2.76,3.1,4.66.77,1.9,1.01,4.89,1.01,4.89.08,1,.15,2.65.15,3.66v21.49c0,1.01-.83,1.83-1.84,1.83h-3.76c-1.01,0-1.83-.83-1.83-1.83v-19.43c0-1.01-.06-2.66-.14-3.66,0,0-.11-1.54-.61-2.83-.49-1.29-1.15-2.34-1.98-3.14-.82-.79-1.77-1.38-2.84-1.73-1.07-.35-2.19-.54-3.34-.54-1.54,0-2.97.25-4.29.74-1.32.5-2.47,1.28-3.47,2.35-.99,1.07-1.76,2.43-2.31,4.08-.55,1.65-.71,4.03-.71,4.03-.07,1.01-.12,2.65-.12,3.66v16.46c0,1.01-.82,1.83-1.83,1.83h-3.76c-1.01,0-1.83-.83-1.83-1.83v-58.7Z"/>
    <path class="cls-1" d="m269.57,81.58h3.76c1.01,0,1.83.82,1.83,1.83v35.43c0,1.01-.82,1.83-1.83,1.83h-3.76c-1.01,0-1.83-.82-1.83-1.83v-35.43c0-1.01.82-1.83,1.83-1.83Z"/>
    <path class="cls-1" d="m312.97,90.74c-.74.68-1.97.68-2.72.02,0,0-1.45-1.3-2.97-2.04-1.51-.74-3.31-1.11-5.4-1.11s-3.81.37-5.32,1.11c-1.51.74-2.78,1.76-3.79,3.05-1.02,1.29-1.79,2.78-2.31,4.45-.52,1.68-.78,3.42-.78,5.24s.3,3.53.91,5.15c.61,1.62,1.46,3.04,2.56,4.25,1.1,1.21,2.42,2.16,3.96,2.85,1.54.69,3.27,1.03,5.2,1.03,2.09,0,3.88-.37,5.36-1.11,1.49-.74,2.8-2,2.8-2,.73-.69,1.91-.68,2.62.03l2.69,2.69c.71.71.68,1.84-.08,2.51,0,0-2.79,2.47-5.35,3.41-2.56.93-5.27,1.4-8.13,1.4-3.03,0-5.79-.49-8.29-1.49-2.5-.99-4.66-2.38-6.47-4.17-1.81-1.79-3.22-3.93-4.21-6.43-.99-2.5-1.48-5.26-1.48-8.29s.49-5.8,1.48-8.33c.99-2.53,2.38-4.7,4.17-6.52,1.79-1.82,3.93-3.23,6.43-4.25,2.5-1.02,5.29-1.53,8.38-1.53,2.86,0,5.59.51,8.21,1.53,2.61,1.02,5.42,3.46,5.42,3.46.76.66.78,1.76.03,2.44l-2.9,2.64Z"/>
    <path class="cls-1" d="m324.49,64.12c0-1.01.82-1.83,1.83-1.83h4.25c1.01,0,1.83.83,1.83,1.83v20.59c0,1.01.82,1.83,1.83,1.83h26.61c1.01,0,1.83-.83,1.83-1.83v-20.59c0-1.01.82-1.83,1.83-1.83h4.25c1.01,0,1.83.83,1.83,1.83v54.74c0,1.01-.82,1.83-1.83,1.83h-4.25c-1.01,0-1.83-.83-1.83-1.83v-23.06c0-1.01-.82-1.83-1.83-1.83h-26.61c-1.01,0-1.83.83-1.83,1.83v23.06c0,1.01-.83,1.83-1.83,1.83h-4.25c-1.01,0-1.83-.83-1.83-1.83v-54.74Z"/>
    <path class="cls-1" d="m411.76,118.85c0,1.01-.83,1.83-1.83,1.83h-3.76c-1.01,0-1.83-.83-1.83-1.83v-2.36c0-1.01-.03-1.83-.08-1.83-.04,0-.54.68-1.11,1.52,0,0-1.53,2.26-3.84,3.55-2.31,1.29-4.98,1.94-8,1.94-1.93,0-3.74-.29-5.45-.86-1.7-.58-3.2-1.47-4.5-2.68-1.29-1.21-2.32-2.76-3.09-4.66-.77-1.9-1.01-4.89-1.01-4.89-.08-1.01-.15-2.65-.15-3.66v-21.49c0-1.01.83-1.83,1.83-1.83h3.76c1.01,0,1.83.82,1.83,1.83v19.43c0,1.01.06,2.65.13,3.66,0,0,.11,1.54.61,2.83.49,1.29,1.15,2.34,1.98,3.14.82.79,1.77,1.37,2.84,1.73,1.07.36,2.19.54,3.34.54,1.54,0,2.97-.25,4.29-.74,1.32-.49,2.47-1.28,3.47-2.35.99-1.07,1.76-2.43,2.31-4.08.55-1.65.7-4.03.7-4.03.07-1.01.12-2.65.12-3.67v-16.46c0-1.01.83-1.83,1.83-1.83h3.76c1.01,0,1.83.82,1.83,1.83v35.43Z"/>
    <path class="cls-1" d="m439.15,114.75c1.98,0,3.77-.34,5.36-1.03,1.6-.69,2.94-1.62,4.04-2.8,1.1-1.18,1.95-2.61,2.56-4.29.61-1.68.91-3.51.91-5.49s-.3-3.81-.91-5.49c-.61-1.68-1.46-3.1-2.56-4.29-1.1-1.18-2.45-2.12-4.04-2.8-1.6-.69-3.38-1.03-5.36-1.03s-3.77.35-5.36,1.03c-1.6.69-2.94,1.62-4.04,2.8-1.1,1.19-1.95,2.61-2.56,4.29-.61,1.68-.91,3.51-.91,5.49s.3,3.81.91,5.49c.61,1.68,1.46,3.11,2.56,4.29,1.1,1.18,2.45,2.12,4.04,2.8,1.59.69,3.38,1.03,5.36,1.03m-20.29-54.59c0-1.01.83-1.83,1.83-1.83h3.76c1.01,0,1.83.83,1.83,1.83v25.21c0,1.01.03,1.83.08,1.83.04,0,.63-.62,1.3-1.38,0,0,2-2.27,4.48-3.45,2.47-1.18,5.12-1.77,7.92-1.77,3.02,0,5.76.52,8.21,1.57,2.45,1.05,4.54,2.49,6.27,4.33,1.73,1.84,3.07,4.01,4,6.52.93,2.5,1.4,5.21,1.4,8.13s-.47,5.61-1.4,8.08c-.93,2.47-2.27,4.65-4,6.52-1.73,1.87-3.82,3.33-6.27,4.37-2.45,1.04-5.19,1.56-8.21,1.56-2.64,0-5.21-.58-7.71-1.73-2.5-1.15-4.66-3.51-4.66-3.51-.68-.74-1.28-1.35-1.32-1.35-.05,0-.08.82-.08,1.83v1.94c0,1.01-.83,1.83-1.83,1.83h-3.76c-1.01,0-1.83-.83-1.83-1.83v-58.7Z"/>
    <path class="cls-1" d="m277.33,65.45c0-.5-.36-1.12-.79-1.37l-3.89-2.25c-.44-.25-1.15-.25-1.59,0l-3.89,2.25c-.44.25-.8.87-.8,1.37v4.49c0,.5.36,1.12.8,1.38l3.89,2.25c.44.25,1.15.25,1.59,0l3.89-2.25c.43-.25.79-.87.79-1.38v-4.49Z"/>
  </g>
  <g>
    <path class="cls-1" d="m20.06,64.43v51.14c0,4.29,2.29,8.25,6,10.39l44.29,25.57c3.71,2.14,8.29,2.14,12,0l44.29-25.57c3.71-2.14,6-6.11,6-10.39v-51.14c0-4.29-2.29-8.25-6-10.39l-44.29-25.57c-3.71-2.14-8.29-2.14-12,0l-44.29,25.57c-3.71,2.14-6,6.11-6,10.39Z"/>
    <polygon points="76.35 90 76.35 90 76.36 90 76.35 90"/>
    <path d="m80.03,54.62l23.65,13.65c1.24.72,2.28,1.69,3.11,2.8l10.59-6.11c-.99-1.38-2.25-2.58-3.77-3.46l-31.19-18.01c-3.75-2.16-8.37-2.16-12.11,0l-4.6,2.66c-.08.04-.08.15,0,.2l14.33,8.27Z"/>
    <path d="m77.53,125.55v12.5c1.67-.16,3.32-.65,4.83-1.52l8.29-4.79v-12.5l-8.29,4.79c-1.5.87-3.15,1.35-4.83,1.52Z"/>
    <path d="m107.96,73.11c.55,1.27.87,2.66.87,4.09v15.01s-.02.08-.06.1l-26.42,15.25c-1.5.87-3.15,1.35-4.83,1.52v11.98c1.67-.16,3.32-.65,4.83-1.52l26.31-15.19c.08-.04.17.01.17.1v16.61c0,.09.09.14.17.1l4.6-2.66c3.75-2.16,6.06-6.16,6.06-10.49v-36.01c0-1.76-.41-3.45-1.11-4.99l-10.59,6.11Z"/>
    <path d="m77.53,90.68v13.88c1.67-.16,3.32-.65,4.83-1.52l8.29-4.79v-9.55c0-1.62-.38-3.33-1.11-4.95l-12,6.93Z"/>
    <path d="m75.18,125.55c-1.67-.16-3.32-.65-4.83-1.52l-25.58-14.77c-.55-.32-.9-.91-.9-1.55,0-1.54,1.67-2.5,3-1.73l23.48,13.55c1.5.87,3.15,1.35,4.83,1.52v-11.98c-1.67-.16-3.32-.65-4.83-1.52l-25.56-14.76c-.57-.33-.92-.93-.92-1.59,0-1.54,1.67-2.5,3-1.73l23.48,13.55c1.5.87,3.15,1.35,4.83,1.52v-13.87l-41.03-23.69c-.69,1.53-1.1,3.2-1.1,4.93v36.14c0,4.29,2.29,8.25,6,10.39l31.3,18.07c1.5.87,3.15,1.35,4.83,1.52v-12.5Z"/>
    <path d="m76.35,88.65l12.03-6.94c-.93-1.32-2.15-2.51-3.7-3.4l-37.32-21.56-8.3,4.79c-1.51.87-2.75,2.06-3.73,3.42l41.03,23.69Z"/>
  </g>
</svg>