<?xml version="1.0" encoding="UTF-8"?>
<svg id="Capa_2" data-name="Capa 2" xmlns="http://www.w3.org/2000/svg" viewBox="0 0 1540.7 511.82">
  <defs>
    <style>
      .cls-1 {
        fill: #fff;
      }
    </style>
  </defs>
  <g id="Capa_1-2" data-name="Capa 1">
    <g>
      <rect class="cls-1" x="1463.5" y="77.14" width="77.2" height="396.73"/>
      <path class="cls-1" d="M917.26,122.45c-82.39,0-151.37,69.13-151.37,151.7v199.71h80.47v-201.63c0-38.4,32.6-71.06,70.91-71.06,40.24,0,72.83,32.66,72.83,71.06v201.63h78.55v-199.71c0-82.57-67.05-151.7-151.38-151.7Z"/>
      <path class="cls-1" d="M175.1,122.03C79.05,122.03,0,201.28,0,297.54v214.27h75.26v-68.94c31.36,20.76,63.1,32.08,98.87,32.08,97.94,0,175.62-79.26,175.62-177.41s-76.71-175.51-174.65-175.51ZM175.05,397.59c-54.61,0-97.94-45.31-97.94-100.04s43.33-98.13,97.94-98.13,99.83,45.28,99.83,98.13-45.22,100.04-99.83,100.04Z"/>
      <path class="cls-1" d="M363.37,0c-43.05,0-78.07,34.1-78.07,76.02s34.29,78.25,78.07,78.25,78.08-34.37,78.08-78.25S406.42,0,363.37,0ZM400.31,76.02c0,20.76-16.23,37.02-36.95,37.02s-36.93-16.26-36.93-37.02c0-19.19,16.57-34.8,36.93-34.8s36.95,15.61,36.95,34.8Z"/>
      <path class="cls-1" d="M555.1,122.83c-96.04,0-174.66,79.26-174.66,175.51s79.36,175.52,175.4,175.52c35.79,0,73.08-11.32,98.17-30.19v28.64h75.26v-173.97c0-96.25-78.12-175.51-174.17-175.51ZM556.08,396.5c-54.62,0-97.93-43.42-97.93-98.16s43.31-98.14,97.93-98.14,97.93,43.41,97.93,98.14-43.31,98.16-97.93,98.16Z"/>
      <path class="cls-1" d="M1266.09,398.53c-29.16,0-54.44-12.99-71.28-35.72l235.9-99.37c-16.2-89.62-83.6-140.28-163.97-140.28-94.61,0-171.08,79.23-171.08,176,0,96.76,76.47,174.7,171.08,174.7,34.1,0,64.06-7.9,88.98-21.81l-29.89-69.57c-18.17,10.81-38.89,16.05-59.73,16.05ZM1266.09,198.5c27.22,0,50.55,11.04,66.11,29.88l-156.83,66.24c1.94-57.15,41.48-96.12,90.72-96.12Z"/>
    </g>
  </g>
</svg>