<svg id="Capa_1" data-name="Capa 1" xmlns="http://www.w3.org/2000/svg" xmlns:xlink="http://www.w3.org/1999/xlink" viewBox="0 0 1014.72 306.24"><defs><style>.cls-1{fill:none;}.cls-2{clip-path:url(#clip-path);}.cls-3,.cls-5{fill:#4b728c;}.cls-4{fill:#fff;}.cls-5{fill-rule:evenodd;}</style><clipPath id="clip-path"><rect class="cls-1" width="1014.72" height="306.24"/></clipPath></defs><title>Mesa de trabajo 1</title><g class="cls-2"><path class="cls-3" d="M174.86,207.12l21.82-3.32a15.89,15.89,0,0,0,5.65,9.6q4.26,3.28,11.92,3.28c5.62,0,9.86-1,12.69-3.08a6.89,6.89,0,0,0,2.87-5.79,5.69,5.69,0,0,0-1.55-4.09q-1.62-1.54-7.28-2.85-26.31-5.79-33.35-10.57a21.1,21.1,0,0,1-9.75-18.44,22.71,22.71,0,0,1,8.43-17.9q8.44-7.25,26.16-7.25,16.88,0,25.08,5.48t11.3,16.2l-20.51,3.78a12.66,12.66,0,0,0-5-7.33q-3.69-2.55-10.49-2.55-8.6,0-12.31,2.39a5.14,5.14,0,0,0-2.47,4.4,4.8,4.8,0,0,0,2.16,3.94q2.94,2.16,20.32,6.09t24.26,9.64q6.81,5.79,6.81,16.13,0,11.26-9.44,19.36t-27.94,8.1q-16.8,0-26.58-6.79a31.24,31.24,0,0,1-12.81-18.43"/><path class="cls-3" d="M308.36,148.56v17.28H293.5v33q0,10,.43,11.69a4.75,4.75,0,0,0,1.93,2.74,6.16,6.16,0,0,0,3.68,1.08c2,0,4.93-.7,8.74-2.09l1.86,16.82A43.35,43.35,0,0,1,293,232.34a27.32,27.32,0,0,1-10.6-2,15.49,15.49,0,0,1-6.93-5.1,20.09,20.09,0,0,1-3.06-8.44q-.69-3.78-.69-15.28V165.84h-10V148.56h10V132.28l21.82-12.65v28.93Z"/><path class="cls-3" d="M344.27,230.49H322.53V148.56h20.19v11.65q5.19-8.25,9.33-10.88a17.17,17.17,0,0,1,9.4-2.62,27.61,27.61,0,0,1,14.32,4.09L369,169.7q-5.51-3.55-10.22-3.55a12.13,12.13,0,0,0-7.74,2.51q-3.16,2.51-5,9.06t-1.82,27.47Z"/><path class="cls-4" d="M378.63,206l13.78-2.16q1.15,8.26,6.46,12.66t14.82,4.39q9.6,0,14.24-3.89t4.65-9.14a8.44,8.44,0,0,0-4.1-7.41q-2.87-1.84-14.24-4.71-15.33-3.86-21.25-6.67a20.18,20.18,0,0,1-12-18.79,21,21,0,0,1,2.51-10.14,22.47,22.47,0,0,1,6.85-7.75,28.52,28.52,0,0,1,8.86-4,42.11,42.11,0,0,1,12-1.66,47.45,47.45,0,0,1,17,2.78q7.32,2.77,10.8,7.52t4.8,12.69l-13.62,1.85a14.85,14.85,0,0,0-5.38-9.88q-4.46-3.54-12.58-3.54-9.6,0-13.7,3.16t-4.1,7.4a7.64,7.64,0,0,0,1.71,4.87,12.26,12.26,0,0,0,5.34,3.7q2.08.77,12.3,3.55,14.79,3.93,20.63,6.44a20.93,20.93,0,0,1,9.17,7.29,20.37,20.37,0,0,1,3.32,11.88,23.26,23.26,0,0,1-4.06,13.08A26.29,26.29,0,0,1,431.11,229a42.94,42.94,0,0,1-17.34,3.35q-16,0-24.42-6.63T378.63,206"/><path class="cls-4" d="M463.53,117.39h13.93v16H463.53Zm0,31.17h13.93v81.93H463.53Z"/><path class="cls-4" d="M493.1,206l13.77-2.16q1.17,8.26,6.47,12.66t14.82,4.39q9.6,0,14.24-3.89t4.64-9.14a8.44,8.44,0,0,0-4.1-7.41q-2.87-1.84-14.24-4.71-15.33-3.86-21.25-6.67a20.22,20.22,0,0,1-12-18.79,21,21,0,0,1,2.52-10.14,22.34,22.34,0,0,1,6.84-7.75,28.48,28.48,0,0,1,8.87-4,42.09,42.09,0,0,1,12-1.66,47.55,47.55,0,0,1,17,2.78q7.3,2.77,10.8,7.52t4.79,12.69l-13.62,1.85a14.85,14.85,0,0,0-5.38-9.88c-3-2.36-7.16-3.54-12.57-3.54q-9.6,0-13.7,3.16c-2.74,2.11-4.1,4.58-4.1,7.4a7.63,7.63,0,0,0,1.7,4.87,12.26,12.26,0,0,0,5.34,3.7q2.09.77,12.3,3.55,14.79,3.93,20.63,6.44a20.93,20.93,0,0,1,9.17,7.29,20.3,20.3,0,0,1,3.33,11.88,23.34,23.34,0,0,1-4.06,13.08A26.27,26.27,0,0,1,545.57,229a42.94,42.94,0,0,1-17.34,3.35q-16,0-24.41-6.63T493.1,206"/><path class="cls-4" d="M608.34,218.07l2,12.27a52,52,0,0,1-10.53,1.23q-7.58,0-11.76-2.39a13.33,13.33,0,0,1-5.88-6.29q-1.71-3.88-1.7-16.39V159.36H570.26v-10.8h10.22V128.27l13.85-8.33v28.62h14v10.8h-14v47.91q0,5.94.73,7.64a5.8,5.8,0,0,0,2.4,2.7,9.29,9.29,0,0,0,4.76,1,45.53,45.53,0,0,0,6.12-.54"/><path class="cls-4" d="M678.22,204.11l14.4,1.77q-3.4,12.57-12.62,19.52t-23.53,6.94q-18,0-28.59-11.07t-10.57-31.05q0-20.67,10.68-32.09t27.71-11.42q16.49,0,26.93,11.18t10.45,31.48c0,.82,0,2.06-.08,3.7H631.71q.76,13.52,7.66,20.68a22.85,22.85,0,0,0,17.18,7.18,21.33,21.33,0,0,0,13.08-4q5.42-4,8.59-12.8m-45.74-22.45h45.9q-.93-10.35-5.27-15.51a21.36,21.36,0,0,0-17.26-8,22.16,22.16,0,0,0-16.13,6.4q-6.54,6.41-7.24,17.13"/><path class="cls-4" d="M710.11,230.49V148.56h12.46v11.49a29.34,29.34,0,0,1,10.29-9.68,29,29,0,0,1,14.63-3.66q9.13,0,15,3.78a20.22,20.22,0,0,1,8.25,10.57q9.75-14.35,25.38-14.35,12.23,0,18.81,6.75t6.58,20.79v56.24H807.62V178.88c0-5.56-.45-9.55-1.35-12a11.64,11.64,0,0,0-4.92-5.9,15.38,15.38,0,0,0-8.35-2.24,19.5,19.5,0,0,0-14.4,5.75q-5.73,5.74-5.73,18.4v47.6H758.94V177.26q0-9.25-3.4-13.89t-11.15-4.63a20.27,20.27,0,0,0-10.87,3.09,17.55,17.55,0,0,0-7.24,9Q724,176.8,724,188v42.51Z"/><path class="cls-4" d="M895.77,220.38a51.74,51.74,0,0,1-14.89,9.26,43.24,43.24,0,0,1-15.37,2.7q-13.54,0-20.82-6.59a21.75,21.75,0,0,1-7.27-16.86,22.25,22.25,0,0,1,2.75-11,22.76,22.76,0,0,1,7.19-8,33.84,33.84,0,0,1,10-4.55,98.14,98.14,0,0,1,12.38-2.08q16.88-2,24.84-4.79c0-1.9.08-3.11.08-3.62q0-8.49-4-12-5.34-4.71-15.86-4.71-9.84,0-14.51,3.44t-6.93,12.15l-13.62-1.86q1.86-8.72,6.11-14.07t12.31-8.26a55,55,0,0,1,18.65-2.89q10.53,0,17.1,2.47t9.68,6.21a21.74,21.74,0,0,1,4.33,9.45,77.06,77.06,0,0,1,.7,12.8v18.52q0,19.36.89,24.49a30.58,30.58,0,0,0,3.52,9.84H898.56a29.42,29.42,0,0,1-2.79-10.11m-1.16-31q-7.59,3.09-22.75,5.25-8.6,1.23-12.15,2.77a12.11,12.11,0,0,0-5.5,4.52,12.25,12.25,0,0,0,2.29,15.85q4.21,3.7,12.34,3.7A28.7,28.7,0,0,0,883.16,218a21.64,21.64,0,0,0,9.21-9.6q2.24-4.71,2.24-13.89Z"/><path class="cls-4" d="M924.72,206l13.77-2.16q1.17,8.26,6.47,12.66t14.82,4.39q9.59,0,14.24-3.89t4.64-9.14a8.44,8.44,0,0,0-4.1-7.41q-2.87-1.84-14.24-4.71-15.33-3.86-21.25-6.67a20.22,20.22,0,0,1-12-18.79,21,21,0,0,1,2.52-10.14,22.27,22.27,0,0,1,6.85-7.75,28.31,28.31,0,0,1,8.86-4,42.09,42.09,0,0,1,12-1.66,47.55,47.55,0,0,1,17,2.78q7.31,2.77,10.79,7.52t4.8,12.69l-13.62,1.85a14.85,14.85,0,0,0-5.38-9.88c-3-2.36-7.16-3.54-12.57-3.54q-9.6,0-13.7,3.16c-2.74,2.11-4.1,4.58-4.1,7.4a7.63,7.63,0,0,0,1.7,4.87,12.26,12.26,0,0,0,5.34,3.7q2.09.77,12.3,3.55,14.79,3.93,20.63,6.44a20.93,20.93,0,0,1,9.17,7.29A20.3,20.3,0,0,1,993,206.42a23.34,23.34,0,0,1-4.06,13.08A26.27,26.27,0,0,1,977.19,229a42.94,42.94,0,0,1-17.34,3.35q-16,0-24.41-6.63T924.72,206"/></g><g class="cls-2"><path class="cls-3" d="M255.22,115.37c.18-.34.34-.69.51-1l.06-.12,0-.06c.22-.46.42-.93.62-1.4l0,0,0-.07h0a33.53,33.53,0,0,0,2.44-10.51l6.75-.8-1.5-12.59-6.74.81-.27-.83h0l-.14-.39h0c-.12-.35-.24-.7-.38-1h0l0-.08h0c-.35-.86-.72-1.7-1.13-2.51h0l0-.1h0c-.11-.23-.23-.45-.35-.67h0l0,0c-.12-.23-.24-.46-.37-.69v0h0a33.89,33.89,0,0,0-4-5.63l4.2-5.33-10-7.83-4.2,5.32a33.84,33.84,0,0,0-10-3.34h0c-1-.18-2.07-.3-3.13-.38h-.09l-.81-6.73-12.59,1.5.8,6.73,0,0c-.83.26-1.65.55-2.45.88l-.08,0a33.66,33.66,0,0,0-4.76,2.4l-.06,0a34.31,34.31,0,0,0-4.63,3.38L197.49,70l-7.84,10L195,84.16a33.66,33.66,0,0,0-3.71,13.26l-6.75.81,1.5,12.58,6.74-.8a31.08,31.08,0,0,0,1.11,3s0,0,0,0a33.6,33.6,0,0,0,3.65,6.47h0l.11.15h0c.26.36.54.73.82,1.09h0c.05.06.11.12.15.18l0,0c.27.34.55.68.84,1h0l-4.19,5.32,10,7.84,4.19-5.33h0l1.11.55.08,0,.22.11h0c.4.18.79.35,1.19.51l.07,0,.17.08h0q.63.26,1.26.48l0,0,.13.05h0l1.31.43h0l.08,0h0l.63.19h0l.77.2h0c.25.06.49.13.74.18h0l.11,0h0c.63.15,1.26.27,1.9.37l.07,0c.65.1,1.29.19,1.94.26h0l.36,0h0l.75.06h.12l.8,6.73,12.6-1.5-.81-6.73.06,0c.83-.26,1.64-.56,2.43-.88l.1,0a32.94,32.94,0,0,0,4.71-2.37l.09-.05c.77-.47,1.53-1,2.26-1.5h0l.06,0,0,0c.79-.57,1.55-1.17,2.29-1.81h0l5.33,4.19,7.84-10-5.32-4.19h0M225.1,122a22.2,22.2,0,1,1,22.2-22.2A22.2,22.2,0,0,1,225.1,122"/><path class="cls-3" d="M182.58,114.81c0-.41.09-.83.11-1.25h0c0-.2,0-.4,0-.61h0c0-.54.06-1.07.07-1.61h0v-.16c0-1.32,0-2.63-.08-3.94v0s0-.11,0-.17h0c0-.37-.06-.73-.09-1.09h0s0,0,0-.06c0-.37-.06-.74-.1-1.12v0h0c0-.32-.08-.63-.12-.94h0c0-.06,0-.12,0-.17h0c-.1-.68-.2-1.35-.32-2h0c0-.08,0-.16,0-.24h0a51.42,51.42,0,0,0-1.63-6.41L189,90.18l-8.9-16.12-8.62,4.76a49,49,0,0,0-15.53-12.43l-.12-.06,2.73-9.45-17.69-5.11-2.73,9.45H138c-.51,0-1-.09-1.54-.12l-.56,0-1.6,0H134a48.28,48.28,0,0,0-7.53.5l-.18,0c-.61.09-1.22.19-1.83.31l-.15,0a48.68,48.68,0,0,0-6.1,1.56l-4.75-8.61L97.34,63.73l4.76,8.61A49,49,0,0,0,89.6,88l-9.46-2.73L75,102.93l9.47,2.73c-.15,1.57-.22,3.13-.22,4.68v.08a49.52,49.52,0,0,0,.43,6.34s0,0,0,.08h0c.1.7.21,1.39.33,2.08h0l0,.17h0c.12.67.25,1.34.41,2h0l.06.25h0c.15.65.31,1.3.49,1.94h0c0,.1.07.21.1.32v0c.17.62.35,1.23.55,1.84h0v0L78.1,130.3,87,146.41l8.62-4.75v0h0c.38.46.78.91,1.19,1.36l.07.09.24.27h0c.42.46.86.91,1.3,1.36l.06.07.2.2v0c.46.45.93.9,1.4,1.33l.06.06.15.14,0,0c.49.45,1,.88,1.51,1.31l0,0,.09.08,0,0,.73.61h0l.91.71h0l.88.67h0l.13.08,0,0c.76.54,1.54,1.06,2.33,1.56l.09.06c.8.5,1.61,1,2.45,1.44l0,0,.46.25h0l1,.51a.71.71,0,0,1,.15.08l-2.73,9.45,17.7,5.1,2.73-9.45h.15c.49.05,1,.08,1.46.11l.65,0,1.53.05h.39a48.94,48.94,0,0,0,5.56-.26h0c.6-.06,1.2-.14,1.8-.22l.27,0c.58-.09,1.17-.19,1.75-.3l.22,0c.62-.12,1.23-.24,1.85-.38h0l.1,0,.08,0c.72-.17,1.43-.36,2.14-.56l.09,0,.18-.06c.54-.16,1.09-.31,1.62-.49h0l4.76,8.61,16.12-8.89L165,148.13h0c.43-.36.86-.73,1.28-1.11l.14-.12.06-.06c.56-.5,1.1-1,1.64-1.53,0,0,0,0,0,0l.08-.08h0a49.15,49.15,0,0,0,9.22-12.68l9.47,2.74,5.11-17.68Zm-49,29.87A34.44,34.44,0,1,1,168,110.24a34.44,34.44,0,0,1-34.44,34.44"/><path class="cls-3" d="M158.38,96.54a28.36,28.36,0,1,0-11.13,38.51,28.38,28.38,0,0,0,11.13-38.51m-24.83,29.54a15.84,15.84,0,1,1,15.84-15.84,15.84,15.84,0,0,1-15.84,15.84"/><path class="cls-5" d="M144.57,104.16a12.59,12.59,0,1,0-4.94,17.1,12.59,12.59,0,0,0,4.94-17.1"/><path class="cls-3" d="M142.56,205.77c-.07-.41-.13-.82-.21-1.23h0c0-.2-.08-.39-.12-.59v0c-.11-.52-.22-1-.35-1.57h0l0-.1s0,0,0-.06c-.32-1.27-.68-2.53-1.09-3.76l0,0-.05-.17h0c-.12-.34-.25-.68-.37-1h0l0-.05c-.13-.35-.26-.71-.39-1l0-.05h0l-.36-.87h0l-.07-.15h0c-.27-.63-.54-1.25-.83-1.87l-.11-.22h0a49.25,49.25,0,0,0-3.23-5.77l7.1-6.82L129.6,167.06l-7.1,6.82a49.14,49.14,0,0,0-13.74-6.81h0c-1.45-.46-2.93-.85-4.43-1.17a.7.7,0,0,1-.14,0l.19-9.83-18.41-.36-.19,9.84-.12,0-1.52.29-.55.11L82,166.3l-.28.07a48,48,0,0,0-7.14,2.44l-.17.07c-.57.25-1.13.5-1.68.77l-.15.07a49.07,49.07,0,0,0-5.48,3.09l-6.82-7.09L47,178.47l6.83,7.1a49,49,0,0,0-8,18.33L36,203.71l-.35,18.4,9.85.19a45.81,45.81,0,0,0,1,4.57l0,.08a48,48,0,0,0,3,8.16v0c.3.63.61,1.25.93,1.85h0l.12.22h0c.32.59.64,1.18,1,1.76h0l.18.28h0c.33.56.67,1.11,1,1.66h0l-7.09,6.82L58.42,261l7.09-6.82h0c.49.34,1,.67,1.49,1l.1.07.3.2h0c.53.34,1.07.66,1.62,1l.08,0,.23.14h0c.56.33,1.13.63,1.71.94l.06,0,.19.1h0c.59.31,1.19.6,1.8.88l0,0,.11.05,0,0,.88.4h0l1.08.45h0c.34.14.68.29,1,.42h0l.14.06h0c.87.33,1.76.63,2.65.91l.11,0c.9.28,1.81.54,2.74.77h0l.51.13h0c.35.09.71.17,1.07.24l.16,0-.19,9.84,18.41.35.19-9.83.16,0,1.43-.28.64-.13,1.49-.34.38-.11a47.22,47.22,0,0,0,5.29-1.69h0c.56-.21,1.12-.44,1.67-.68l.26-.11c.54-.24,1.08-.48,1.62-.74l.2-.1c.56-.27,1.13-.55,1.68-.84h0l.09-.05.07,0c.65-.35,1.29-.71,1.92-1.09l.08-.05.18-.11c.48-.29,1-.58,1.43-.88h0l6.83,7.09L141,249.6l-6.83-7.09h0c.33-.46.64-.94,1-1.41l.11-.15a.35.35,0,0,1,.05-.08c.4-.62.8-1.26,1.17-1.9l0-.05a.47.47,0,0,0,0-.1h0a49,49,0,0,0,5.62-14.63l9.86.19.36-18.4ZM94,248.24a34.2,34.2,0,1,1,34.2-34.2A34.2,34.2,0,0,1,94,248.24"/><path class="cls-3" d="M90.86,69.35c.18-.34.34-.68.51-1l.06-.13,0,0c.22-.47.42-.94.62-1.41a.08.08,0,0,1,0,0l0-.07h0A33.53,33.53,0,0,0,94.57,56.1l6.75-.81-1.5-12.58-6.74.8c-.09-.27-.17-.55-.27-.82h0c0-.14-.09-.27-.14-.4h0c-.13-.34-.25-.69-.39-1h0l0-.06h0c-.34-.85-.72-1.7-1.13-2.52h0l-.05-.11h0c-.11-.22-.23-.44-.35-.66h0l0,0c-.12-.23-.24-.46-.37-.68v0h0L90,36.57h0l-.06-.09h0a34,34,0,0,0-3.59-5l4.2-5.32-10-7.84-4.2,5.33a33.68,33.68,0,0,0-13.18-3.72h-.09l-.81-6.73L49.69,14.7l.8,6.73-.05,0c-.83.26-1.65.56-2.45.88l-.07,0a33.25,33.25,0,0,0-4.77,2.4l0,0a33,33,0,0,0-4.64,3.39L33.13,24,25.29,34l5.33,4.19A33.71,33.71,0,0,0,26.91,51.4l-6.75.81,1.5,12.58L28.4,64a31.08,31.08,0,0,0,1.11,3,.17.17,0,0,1,0,0,33.17,33.17,0,0,0,2.78,5.2v0c.28.43.56.84.86,1.25h0a1.71,1.71,0,0,1,.11.14h0c.27.37.55.74.83,1.1h0l.15.19,0,0c.27.34.55.68.83,1h0L31,81.34l10,7.83,4.19-5.32h0l1.11.54.08,0,.22.11h0l1.2.52.06,0,.17.07h0q.63.26,1.26.48l0,0,.13,0h0c.44.16.87.3,1.31.43l0,0,.08,0h0l.63.19h0l.77.2h0l.74.19h0l.11,0h0c.63.14,1.26.26,1.9.37h.07c.64.1,1.29.19,1.94.26h0l.36,0h0q.38,0,.75.06h.12l.8,6.73,12.6-1.5L71,86.07l.06,0q1.24-.39,2.43-.87l.1,0a33.64,33.64,0,0,0,4.72-2.38l.08,0c.77-.48,1.53-1,2.26-1.5h0l.06,0h0c.79-.58,1.55-1.18,2.29-1.82h0l5.33,4.18,7.84-10-5.32-4.19h0m-30.12,7.2a22.8,22.8,0,1,1,22.8-22.8,22.8,22.8,0,0,1-22.8,22.8"/></g></svg>