<?xml version="1.0" encoding="UTF-8"?>
<svg xmlns="http://www.w3.org/2000/svg" viewBox="0 0 1014.72 381.24">
  <defs>
    <style>
      .cls-1 {
        fill: #7c7c68;
      }

      .cls-2, .cls-3 {
        fill: #47738f;
      }

      .cls-4 {
        fill: #f9da1b;
      }

      .cls-5 {
        fill: #0d181c;
      }

      .cls-3 {
        fill-rule: evenodd;
      }
    </style>
  </defs>
  <g id="engranaje">
    <g id="peq_inf_copia" data-name="peq_inf copia">
      <g>
        <path class="cls-1" d="m681.12,305.94h-2.78v-24.35h3v8.69c1.27-1.58,2.88-2.37,4.85-2.37,1.09,0,2.12.22,3.09.66.97.44,1.77,1.05,2.4,1.84.63.79,1.12,1.75,1.47,2.86.36,1.12.53,2.31.53,3.59,0,3.02-.75,5.36-2.25,7.01-1.5,1.65-3.3,2.47-5.4,2.47s-3.73-.87-4.91-2.61v2.21Zm-.03-8.95c0,2.11.29,3.64.87,4.58.94,1.54,2.22,2.31,3.83,2.31,1.31,0,2.44-.57,3.4-1.7s1.43-2.83,1.43-5.07-.46-4-1.37-5.1c-.92-1.1-2.02-1.64-3.32-1.64s-2.44.57-3.4,1.7c-.96,1.14-1.43,2.78-1.43,4.92Z"/>
        <path class="cls-1" d="m697.19,312.73l-.33-2.81c.66.18,1.23.27,1.72.27.67,0,1.2-.11,1.6-.33.4-.22.73-.53.98-.93.19-.3.49-1.04.92-2.23.06-.17.14-.41.27-.73l-6.71-17.67h3.23l3.68,10.21c.48,1.3.91,2.66,1.28,4.09.34-1.37.75-2.71,1.23-4.02l3.78-10.28h3l-6.73,17.94c-.72,1.94-1.28,3.27-1.68,4-.53.98-1.14,1.71-1.83,2.17s-1.51.69-2.47.69c-.58,0-1.22-.12-1.93-.37Z"/>
      </g>
    </g>
  </g>
  <g id="Layer_15" data-name="Layer 15">
    <g>
      <g>
        <path class="cls-2" d="m174.86,207.12l21.82-3.32c.93,4.22,2.81,7.42,5.65,9.61,2.84,2.19,6.81,3.28,11.92,3.28,5.62,0,9.85-1.03,12.69-3.09,1.91-1.44,2.86-3.37,2.86-5.79,0-1.65-.52-3.01-1.55-4.09-1.08-1.03-3.51-1.98-7.27-2.85-17.54-3.86-28.66-7.38-33.36-10.57-6.5-4.42-9.75-10.57-9.75-18.44,0-7.1,2.81-13.06,8.44-17.9,5.62-4.83,14.34-7.25,26.16-7.25s19.61,1.83,25.08,5.48c5.47,3.65,9.23,9.05,11.3,16.2l-20.51,3.78c-.88-3.19-2.54-5.63-4.99-7.33-2.45-1.7-5.95-2.55-10.49-2.55-5.73,0-9.83.8-12.31,2.39-1.65,1.13-2.48,2.6-2.48,4.4,0,1.54.72,2.85,2.17,3.93,1.96,1.44,8.73,3.47,20.32,6.09,11.58,2.62,19.67,5.84,24.26,9.64,4.54,3.86,6.81,9.23,6.81,16.12,0,7.51-3.15,13.96-9.44,19.36-6.3,5.4-15.61,8.1-27.94,8.1-11.2,0-20.06-2.26-26.58-6.79-6.53-4.53-10.8-10.67-12.81-18.44Z"/>
        <path class="cls-2" d="m308.36,148.56v17.28h-14.86v33.02c0,6.69.14,10.58.43,11.69.28,1.11.93,2.02,1.93,2.74,1.01.72,2.23,1.08,3.68,1.08,2.01,0,4.93-.69,8.75-2.08l1.86,16.82c-5.06,2.16-10.78,3.24-17.18,3.24-3.92,0-7.46-.66-10.6-1.97-3.15-1.31-5.46-3.01-6.93-5.09-1.47-2.08-2.49-4.9-3.06-8.45-.46-2.52-.7-7.61-.7-15.28v-35.72h-9.98v-17.28h9.98v-16.28l21.82-12.65v28.93h14.86Z"/>
        <path class="cls-2" d="m344.27,230.49h-21.75v-81.93h20.2v11.65c3.46-5.5,6.57-9.13,9.33-10.88,2.76-1.75,5.89-2.62,9.4-2.62,4.95,0,9.72,1.36,14.32,4.09l-6.73,18.9c-3.66-2.37-7.07-3.55-10.22-3.55s-5.62.84-7.74,2.51c-2.12,1.67-3.78,4.69-4.99,9.06-1.21,4.37-1.82,13.53-1.82,27.46v25.3Z"/>
        <path class="cls-5" d="m378.64,206.04l13.78-2.16c.77,5.5,2.93,9.72,6.46,12.65,3.53,2.93,8.47,4.4,14.82,4.4s11.15-1.3,14.24-3.9c3.1-2.6,4.64-5.64,4.64-9.14,0-3.14-1.37-5.61-4.1-7.41-1.91-1.23-6.66-2.8-14.24-4.71-10.22-2.57-17.3-4.79-21.24-6.67-3.95-1.88-6.94-4.47-8.98-7.79-2.04-3.32-3.06-6.98-3.06-10.99,0-3.65.84-7.03,2.52-10.14,1.68-3.11,3.96-5.7,6.85-7.75,2.17-1.59,5.12-2.94,8.86-4.05,3.74-1.11,7.75-1.66,12.03-1.66,6.45,0,12.11.93,16.99,2.78,4.88,1.85,8.47,4.36,10.8,7.52s3.92,7.39,4.8,12.69l-13.62,1.85c-.62-4.22-2.41-7.51-5.38-9.87-2.97-2.37-7.16-3.55-12.58-3.55-6.4,0-10.96,1.05-13.7,3.16-2.74,2.11-4.1,4.58-4.1,7.41,0,1.8.57,3.42,1.7,4.86,1.13,1.49,2.91,2.73,5.34,3.7,1.39.51,5.5,1.7,12.31,3.55,9.85,2.62,16.73,4.77,20.62,6.44,3.89,1.67,6.95,4.1,9.17,7.29,2.22,3.19,3.33,7.15,3.33,11.88s-1.35,8.99-4.06,13.08c-2.71,4.09-6.62,7.25-11.73,9.49-5.11,2.24-10.89,3.36-17.34,3.36-10.68,0-18.82-2.21-24.42-6.63-5.6-4.42-9.17-10.98-10.72-19.67Z"/>
        <path class="cls-5" d="m463.54,133.36v-15.97h13.93v15.97h-13.93Zm0,97.13v-81.93h13.93v81.93h-13.93Z"/>
        <path class="cls-5" d="m493.1,206.04l13.78-2.16c.77,5.5,2.93,9.72,6.46,12.65,3.53,2.93,8.47,4.4,14.82,4.4s11.14-1.3,14.24-3.9c3.1-2.6,4.64-5.64,4.64-9.14,0-3.14-1.37-5.61-4.1-7.41-1.91-1.23-6.66-2.8-14.24-4.71-10.22-2.57-17.3-4.79-21.25-6.67-3.95-1.88-6.94-4.47-8.98-7.79-2.04-3.32-3.06-6.98-3.06-10.99,0-3.65.84-7.03,2.52-10.14,1.68-3.11,3.96-5.7,6.85-7.75,2.17-1.59,5.12-2.94,8.86-4.05,3.74-1.11,7.75-1.66,12.03-1.66,6.45,0,12.11.93,16.99,2.78,4.87,1.85,8.47,4.36,10.8,7.52,2.32,3.16,3.92,7.39,4.8,12.69l-13.62,1.85c-.62-4.22-2.41-7.51-5.38-9.87-2.97-2.37-7.16-3.55-12.58-3.55-6.4,0-10.96,1.05-13.7,3.16-2.74,2.11-4.1,4.58-4.1,7.41,0,1.8.57,3.42,1.7,4.86,1.13,1.49,2.92,2.73,5.34,3.7,1.39.51,5.49,1.7,12.3,3.55,9.85,2.62,16.73,4.77,20.62,6.44,3.89,1.67,6.95,4.1,9.17,7.29,2.22,3.19,3.33,7.15,3.33,11.88s-1.36,8.99-4.06,13.08c-2.71,4.09-6.62,7.25-11.72,9.49-5.11,2.24-10.89,3.36-17.34,3.36-10.68,0-18.82-2.21-24.42-6.63-5.6-4.42-9.17-10.98-10.72-19.67Z"/>
        <path class="cls-5" d="m608.34,218.07l2.01,12.27c-3.92.82-7.43,1.23-10.53,1.23-5.06,0-8.98-.8-11.76-2.39-2.79-1.59-4.75-3.69-5.88-6.29-1.14-2.6-1.7-8.06-1.7-16.39v-47.14h-10.22v-10.8h10.22v-20.29l13.85-8.33v28.62h14.01v10.8h-14.01v47.91c0,3.96.24,6.51.74,7.64.49,1.13,1.29,2.03,2.4,2.7,1.11.67,2.7,1,4.76,1,1.55,0,3.59-.18,6.11-.54Z"/>
        <path class="cls-5" d="m678.22,204.11l14.39,1.77c-2.27,8.38-6.48,14.89-12.61,19.52-6.14,4.63-13.98,6.94-23.53,6.94-12.02,0-21.55-3.69-28.6-11.07-7.04-7.38-10.56-17.73-10.56-31.05s3.56-24.48,10.68-32.09c7.12-7.61,16.36-11.42,27.71-11.42s19.97,3.73,26.93,11.19c6.97,7.46,10.45,17.95,10.45,31.48,0,.82-.03,2.06-.08,3.7h-61.3c.52,9,3.07,15.89,7.66,20.68,4.59,4.78,10.32,7.17,17.18,7.17,5.11,0,9.47-1.34,13.08-4.01,3.61-2.67,6.47-6.94,8.59-12.81Zm-45.74-22.45h45.89c-.62-6.89-2.37-12.06-5.26-15.51-4.44-5.35-10.19-8.02-17.26-8.02-6.4,0-11.78,2.13-16.14,6.4-4.36,4.27-6.77,9.98-7.24,17.13Z"/>
        <path class="cls-5" d="m710.11,230.49v-81.93h12.46v11.5c2.58-4.01,6.01-7.24,10.29-9.68,4.28-2.44,9.16-3.66,14.63-3.66,6.09,0,11.08,1.26,14.98,3.78,3.89,2.52,6.64,6.04,8.24,10.57,6.5-9.57,14.96-14.35,25.38-14.35,8.15,0,14.42,2.25,18.81,6.75,4.38,4.5,6.58,11.43,6.58,20.79v56.24h-13.85v-51.61c0-5.55-.45-9.55-1.35-12-.9-2.44-2.54-4.41-4.91-5.9-2.37-1.49-5.16-2.24-8.36-2.24-5.78,0-10.58,1.92-14.4,5.75-3.82,3.83-5.73,9.96-5.73,18.4v47.6h-13.93v-53.23c0-6.17-1.14-10.8-3.41-13.89-2.27-3.09-5.99-4.63-11.14-4.63-3.92,0-7.55,1.03-10.87,3.09-3.33,2.06-5.74,5.07-7.24,9.03-1.5,3.96-2.24,9.67-2.24,17.13v42.51h-13.93Z"/>
        <path class="cls-5" d="m895.77,220.38c-5.16,4.37-10.13,7.46-14.9,9.26-4.77,1.8-9.89,2.7-15.36,2.7-9.03,0-15.97-2.2-20.82-6.6-4.85-4.4-7.27-10.02-7.27-16.86,0-4.01.92-7.68,2.75-10.99,1.83-3.32,4.23-5.98,7.2-7.99,2.97-2.01,6.31-3.52,10.02-4.55,2.73-.72,6.86-1.41,12.38-2.08,11.25-1.34,19.53-2.93,24.84-4.78.05-1.9.08-3.11.08-3.63,0-5.66-1.32-9.64-3.95-11.96-3.56-3.14-8.85-4.71-15.87-4.71-6.55,0-11.39,1.15-14.51,3.43-3.12,2.29-5.43,6.34-6.93,12.15l-13.62-1.85c1.24-5.81,3.28-10.5,6.11-14.08,2.84-3.57,6.94-6.33,12.31-8.26,5.37-1.93,11.58-2.89,18.65-2.89s12.72.82,17.1,2.47c4.38,1.65,7.61,3.72,9.67,6.21,2.06,2.5,3.51,5.64,4.33,9.45.46,2.37.7,6.63.7,12.81v18.52c0,12.91.3,21.08.89,24.5.59,3.42,1.77,6.7,3.52,9.84h-14.55c-1.44-2.88-2.37-6.25-2.79-10.11Zm-1.16-31.01c-5.06,2.06-12.64,3.81-22.75,5.25-5.73.82-9.78,1.75-12.15,2.78-2.37,1.03-4.21,2.53-5.5,4.51-1.29,1.98-1.93,4.18-1.93,6.6,0,3.7,1.41,6.79,4.22,9.26,2.81,2.47,6.93,3.7,12.34,3.7s10.14-1.17,14.32-3.51c4.18-2.34,7.25-5.54,9.21-9.61,1.5-3.14,2.25-7.77,2.25-13.89v-5.09Z"/>
        <path class="cls-5" d="m924.72,206.04l13.78-2.16c.77,5.5,2.93,9.72,6.46,12.65,3.53,2.93,8.47,4.4,14.82,4.4s11.14-1.3,14.24-3.9c3.1-2.6,4.64-5.64,4.64-9.14,0-3.14-1.37-5.61-4.1-7.41-1.91-1.23-6.66-2.8-14.24-4.71-10.22-2.57-17.3-4.79-21.24-6.67-3.95-1.88-6.94-4.47-8.98-7.79-2.04-3.32-3.06-6.98-3.06-10.99,0-3.65.84-7.03,2.52-10.14,1.68-3.11,3.96-5.7,6.85-7.75,2.17-1.59,5.12-2.94,8.86-4.05,3.74-1.11,7.75-1.66,12.03-1.66,6.45,0,12.11.93,16.99,2.78,4.87,1.85,8.47,4.36,10.8,7.52,2.32,3.16,3.92,7.39,4.8,12.69l-13.62,1.85c-.62-4.22-2.41-7.51-5.38-9.87-2.97-2.37-7.16-3.55-12.58-3.55-6.4,0-10.96,1.05-13.7,3.16-2.74,2.11-4.1,4.58-4.1,7.41,0,1.8.57,3.42,1.7,4.86,1.13,1.49,2.91,2.73,5.34,3.7,1.39.51,5.49,1.7,12.3,3.55,9.85,2.62,16.73,4.77,20.63,6.44,3.89,1.67,6.95,4.1,9.17,7.29,2.22,3.19,3.33,7.15,3.33,11.88s-1.35,8.99-4.06,13.08c-2.71,4.09-6.62,7.25-11.72,9.49-5.11,2.24-10.89,3.36-17.34,3.36-10.68,0-18.82-2.21-24.42-6.63-5.6-4.42-9.17-10.98-10.72-19.67Z"/>
      </g>
      <g id="Forma_1" data-name="Forma 1">
        <path class="cls-3" d="m255.22,115.37c.21-.4.41-.81.6-1.22.02-.04.04-.07.05-.11,0,0,0,0,0,0,0,0,0,0,0-.01.19-.41.37-.83.55-1.26,0-.02.02-.04.02-.05.01-.03.02-.06.04-.09,0,0,0-.01,0-.02.18-.45.36-.9.52-1.36,0-.01,0-.02.01-.04,0,0,0,0,0,0,0,0,0,0,0,0,0,0,0,0,0,0,1.04-2.89,1.68-5.94,1.9-9.09l6.75-.8-1.5-12.58-6.76.81c-1.42-4.51-3.73-8.58-6.73-12.02l4.19-5.33-9.97-7.84-4.19,5.33c-3.11-1.61-6.48-2.75-10.02-3.34-.01,0-.02,0-.03,0-1.03-.17-2.08-.3-3.13-.37-.03,0-.06,0-.09,0l-.8-6.73-12.59,1.5.8,6.73s-.03.01-.05.02c-.83.26-1.65.56-2.46.88-.02,0-.05.02-.07.03-1.66.68-3.26,1.48-4.77,2.4-.02,0-.03.02-.05.03-1.64,1-3.2,2.13-4.63,3.38l-5.33-4.19-7.84,9.96,5.33,4.19c-2.11,4.05-3.39,8.55-3.71,13.27l-6.75.81,1.5,12.58,6.74-.8c.33,1.03.7,2.05,1.12,3.03,0,.01.01.03.02.04.98,2.31,2.21,4.47,3.65,6.47,0,0,0,0,0,0,.04.05.07.1.11.15,0,0,0,0,0,0,.27.37.54.74.83,1.1,0,0,0,0,0,0,.05.06.1.12.15.18,0,0,0,0,0,0,.28.35.56.69.86,1.03,0,0,0,0,0,0,0,0,0,0,0,0l-4.19,5.32,9.97,7.84,4.19-5.32s0,0,.01,0c0,0,0,0,0,0,.36.19.72.36,1.09.53.03.02.07.03.1.05.07.04.15.07.22.11,0,0,0,0,.01,0,.39.18.78.35,1.18.51.02,0,.05.02.07.03.06.02.12.05.18.07,0,0,0,0,.01,0,.41.17.82.32,1.24.47.02,0,.04.02.06.02.05.02.09.03.13.05,0,0,.01,0,.02,0,.43.15.86.29,1.29.43.02,0,.03.01.05.02.03,0,.05.02.08.03,0,0,.02,0,.03,0,.21.06.42.13.63.19,0,0,0,0,.01,0,0,0,.01,0,.02,0,.26.07.52.14.78.2,0,0,0,0,0,0,.25.06.49.13.74.19,0,0,0,0,.01,0,.03,0,.07.01.1.02.01,0,.02,0,.03,0,.62.14,1.25.26,1.89.37.03,0,.06,0,.08.01.64.11,1.28.19,1.93.26,0,0,.01,0,.02,0,.12.01.24.03.37.04,0,0,0,0,.01,0,.25.02.5.04.75.06.04,0,.08,0,.12.01l.8,6.73,12.6-1.5-.8-6.73s.04-.02.06-.02c.82-.26,1.63-.55,2.42-.87.03-.01.07-.03.1-.04,1.64-.67,3.22-1.46,4.72-2.37.03-.02.05-.03.08-.05.78-.47,1.53-.97,2.27-1.5,0,0,.01,0,.02-.01.02-.02.05-.03.07-.05,0,0,.01,0,.02-.01.79-.57,1.55-1.18,2.28-1.81,0,0,0,0,0,0l5.33,4.19,7.84-9.96-5.33-4.19s0,0,0-.01Zm-30.12,6.6c-12.26,0-22.2-9.94-22.2-22.2s9.94-22.2,22.2-22.2,22.2,9.94,22.2,22.2-9.94,22.2-22.2,22.2Z"/>
      </g>
      <g id="Forma_1-2" data-name="Forma 1">
        <path class="cls-3" d="m182.58,114.81c.04-.41.08-.83.11-1.24,0,0,0-.01,0-.02.01-.2.02-.4.03-.6,0-.02,0-.04,0-.05.03-.52.06-1.04.07-1.56,0,0,0,0,0-.01,0-.03,0-.06,0-.09,0-.07,0-.13,0-.2.02-1.23,0-2.46-.08-3.69,0-.05,0-.09,0-.14,0-.06,0-.12,0-.18,0,0,0,0,0-.01-.02-.35-.06-.7-.09-1.04,0-.01,0-.03,0-.04,0-.02,0-.05,0-.07-.03-.36-.06-.73-.1-1.09,0-.02,0-.04,0-.05,0,0,0,0,0-.01-.03-.3-.08-.61-.12-.91,0,0,0-.02,0-.02,0-.06-.02-.12-.03-.19,0-.02,0-.05-.01-.07-.09-.64-.19-1.28-.3-1.92,0,0,0,0,0-.01-.02-.09-.03-.17-.05-.26,0-.02,0-.04-.01-.05-.12-.63-.24-1.26-.38-1.89,0,0,0,0,0,0-.02-.11-.05-.21-.08-.32,0-.02,0-.04-.01-.05-.14-.61-.29-1.22-.46-1.83,0,0,0,0,0,0-.04-.13-.08-.26-.12-.39,0-.02-.01-.04-.02-.06-.17-.59-.34-1.17-.53-1.75,0,0,0,0,0,0,0-.01,0-.03-.01-.04l8.62-4.75-8.9-16.11-8.62,4.75c-3.24-3.91-7.11-7.34-11.51-10.13-.01,0-.03-.02-.04-.03-1.28-.81-2.61-1.57-3.98-2.27-.04-.02-.08-.04-.12-.07l2.73-9.45-17.69-5.11-2.73,9.45s-.09,0-.13,0c-.51-.05-1.01-.08-1.52-.11-.19-.01-.39-.02-.58-.03-.53-.03-1.06-.05-1.58-.05-.11,0-.21,0-.32,0-2.53-.02-5.03.15-7.5.51-.07,0-.14.02-.2.03-.6.09-1.21.19-1.81.3-.06.01-.12.02-.18.04-2.06.4-4.09.91-6.08,1.56l-4.76-8.61-16.12,8.89,4.76,8.61c-5.11,4.22-9.4,9.5-12.5,15.64l-9.45-2.73-5.11,17.68,9.47,2.73c-.15,1.57-.23,3.13-.22,4.69,0,.02,0,.04,0,.07.01,3.64.42,7.23,1.22,10.71h0c.02.08.04.17.06.25,0,0,0,0,0,0,.15.65.31,1.3.49,1.95,0,0,0,0,0,0,.03.11.07.22.1.33,0,0,0,0,0,0,.18.62.36,1.25.56,1.86,0,0,0,0,0,0,0,0,0,0,0,0,0,0,0,0,0,.01l-8.62,4.75,8.9,16.11,8.62-4.75s.01.01.02.02c0,0,0,0,0,0,.38.46.78.92,1.19,1.36.02.03.05.06.07.08.08.09.16.18.24.27,0,0,0,0,0,0,.42.47.86.92,1.31,1.37.02.02.04.04.06.06.07.07.13.14.2.2,0,0,0,0,.01.01.46.46.93.91,1.41,1.35.02.02.03.03.05.05.05.05.1.1.15.14,0,0,.01,0,.02.01.49.45,1,.88,1.51,1.31.02.01.03.03.05.04.03.03.06.05.1.08,0,0,.02.01.02.02.25.21.5.42.75.62,0,0,0,0,.01,0,0,0,.01.01.02.02.3.24.61.47.91.7h0c.3.23.6.46.9.68,0,0,0,0,.01,0,.04.03.08.06.13.09.01,0,.02.01.03.02.76.54,1.54,1.07,2.33,1.57.03.02.06.04.09.06.8.51,1.62.99,2.46,1.45,0,0,.02,0,.02.01.14.08.28.16.43.24,0,0,.01,0,.02,0,.32.17.65.34.98.51.05.03.1.05.14.08l-2.73,9.45,17.69,5.11,2.73-9.45s.1,0,.15.01c.49.04.98.08,1.48.11.21.01.42.02.63.03.52.02,1.03.04,1.55.05.12,0,.24,0,.36,0,2.5.02,4.98-.15,7.41-.5.08-.01.17-.02.25-.04.59-.09,1.18-.19,1.77-.3.07-.01.14-.03.2-.04.62-.12,1.24-.25,1.86-.39,0,0,.02,0,.03,0,.04,0,.07-.02.11-.03.03,0,.05-.01.08-.02.72-.17,1.43-.35,2.13-.55l.08-.02c.06-.02.11-.03.17-.05.55-.16,1.1-.32,1.64-.5,0,0,.01,0,.02,0l4.76,8.61,16.12-8.89-4.76-8.61s0,0,.01,0c.45-.37.88-.75,1.32-1.14.04-.03.07-.06.11-.09.02-.01.03-.03.05-.04.56-.5,1.11-1.02,1.65-1.55.01-.01.03-.02.04-.04.03-.03.05-.05.08-.08,0,0,0,0,.01-.01,3.68-3.64,6.8-7.91,9.22-12.68l9.48,2.73,5.11-17.68-9.47-2.73Zm-49.04,29.87c-19.02,0-34.44-15.42-34.44-34.44s15.42-34.44,34.44-34.44,34.44,15.42,34.44,34.44-15.42,34.44-34.44,34.44Z"/>
      </g>
      <g id="Forma_2_copia" data-name="Forma 2 copia">
        <path class="cls-3" d="m158.38,96.54c-7.57-13.71-24.82-18.69-38.54-11.12-13.72,7.56-18.7,24.81-11.13,38.51,7.57,13.71,24.82,18.69,38.54,11.12,13.72-7.56,18.7-24.81,11.13-38.51Zm-24.84,29.54c-8.75,0-15.84-7.09-15.84-15.84s7.09-15.84,15.84-15.84,15.84,7.09,15.84,15.84-7.09,15.84-15.84,15.84Z"/>
      </g>
      <g id="Forma_2_copia_3" data-name="Forma 2 copia 3">
        <path class="cls-2" d="m144.57,104.16c-3.36-6.09-11.02-8.3-17.11-4.94-6.09,3.36-8.31,11.02-4.94,17.1,3.36,6.09,11.02,8.3,17.11,4.94,6.09-3.36,8.31-11.02,4.94-17.1Z"/>
      </g>
      <g id="Forma_1-3" data-name="Forma 1">
        <path class="cls-3" d="m142.56,205.77c-.07-.41-.14-.82-.22-1.23,0,0,0,0,0-.01-.04-.2-.08-.39-.12-.59,0-.01,0-.02,0-.03-.11-.52-.22-1.04-.34-1.55,0,0,0,0,0,0,0-.02-.01-.05-.02-.07,0-.04-.02-.07-.03-.11-.31-1.26-.67-2.5-1.08-3.72,0-.02-.01-.04-.02-.06-.02-.06-.03-.11-.05-.17,0,0,0,0,0,0-.12-.34-.24-.68-.37-1.02,0,0,0-.01,0-.02,0-.02-.01-.04-.02-.05-.13-.35-.25-.7-.39-1.05,0-.01-.01-.03-.02-.04,0,0,0,0,0,0-.11-.29-.24-.58-.36-.87,0,0,0,0,0,0-.02-.05-.05-.11-.07-.16,0,0,0-.01,0-.02-.26-.62-.53-1.24-.82-1.85,0,0,0,0,0,0-.03-.07-.07-.15-.11-.22,0,0,0,0,0-.01-.29-.6-.58-1.19-.89-1.78,0,0,0,0,0,0-.04-.07-.07-.13-.11-.2-.69-1.29-1.43-2.55-2.23-3.77l7.1-6.82-12.77-13.26-7.1,6.82c-5.37-3.81-11.54-6.57-18.22-7.98-.04,0-.08-.02-.13-.03l.19-9.84-18.41-.36-.19,9.84s-.08.02-.13.02c-.51.09-1.01.18-1.51.29-.19.04-.37.08-.56.12-.52.11-1.04.23-1.55.36-.1.02-.2.05-.3.08-2.45.63-4.83,1.45-7.12,2.43-.06.03-.13.05-.19.08-.56.24-1.12.5-1.66.76-.06.03-.11.06-.17.08-1.89.92-3.71,1.94-5.46,3.08l-6.83-7.09-13.27,12.76,6.83,7.09c-3.84,5.4-6.62,11.61-8.03,18.34l-9.84-.19-.36,18.4,9.85.19c.26,1.55.59,3.08,1,4.58,0,.02.01.04.02.06,1.36,5.02,3.49,9.72,6.27,13.97,0,0,0,0,0,0,0,0,0,.01.01.02l-7.1,6.82,12.77,13.26,7.09-6.82s.01,0,.02.01c0,0,0,0,.01,0,.48.34.97.66,1.46.98.05.03.09.06.14.09.1.07.2.14.3.2,0,0,.01,0,.02,0,.51.33,1.04.64,1.57.96.04.02.08.05.12.07.08.05.16.1.24.14,0,0,.02,0,.02.01.55.32,1.11.62,1.68.92.03.02.06.03.09.05.06.03.12.06.18.1,0,0,.02,0,.03.01.58.3,1.18.59,1.78.87.03.01.05.03.08.04.03.02.07.03.1.05.01,0,.03.01.04.02.29.13.57.27.87.39,0,0,.01,0,.02,0,0,0,.01,0,.02,0,.3.13.6.25.9.37.4.17.8.34,1.21.49,0,0,.01,0,.02,0,.05.02.09.03.14.05.02,0,.04.01.05.02.86.33,1.74.62,2.63.9.04.01.09.03.13.04.89.28,1.8.53,2.72.76.01,0,.02,0,.04,0,.17.04.33.09.5.13,0,0,.02,0,.03,0,.35.08.7.16,1.05.23.06.01.12.03.18.04l-.19,9.84,18.41.36.19-9.84c.05,0,.11-.02.16-.03.48-.08.95-.17,1.42-.27.22-.04.43-.09.65-.14.49-.11.99-.22,1.48-.34.13-.03.26-.07.38-.1,1.8-.47,3.56-1.03,5.28-1.69.01,0,.02,0,.03-.01.57-.22,1.12-.45,1.68-.68.08-.03.16-.07.25-.11.55-.24,1.09-.48,1.63-.74.06-.03.12-.06.18-.09.57-.28,1.14-.56,1.7-.86,0,0,.01,0,.02,0,.04-.02.07-.04.1-.06.02-.01.04-.03.07-.04.59-.32,1.18-.65,1.76-.99,0,0,.01,0,.02,0h0s.09-.05.13-.08c.57-.34,1.14-.69,1.7-1.06,0,0,0,0,.01,0l6.83,7.09,13.27-12.76-6.83-7.09s0,0,0-.01c.39-.54.76-1.1,1.12-1.66.02-.04.05-.07.07-.11,0,0,.01-.02.02-.02,0,0,0,0,0-.01.37-.57.72-1.14,1.06-1.73.01-.02.02-.04.04-.06.02-.03.04-.07.06-.1,0,0,0-.01,0-.02.36-.61.7-1.23,1.03-1.86,0-.02.02-.03.03-.05,0,0,0,0,0,0,0,0,0,0,0,0,0,0,0-.01.01-.02.26-.5.52-1.01.76-1.53.02-.05.05-.1.07-.15,1.65-3.46,2.9-7.15,3.71-11.01l9.86.19.36-18.4-9.86-.19Zm-48.55,42.47c-18.89,0-34.2-15.31-34.2-34.2s15.31-34.2,34.2-34.2,34.2,15.31,34.2,34.2-15.31,34.2-34.2,34.2Z"/>
      </g>
      <g id="Forma_1-4" data-name="Forma 1">
        <path class="cls-3" d="m90.86,69.35c.17-.33.34-.67.5-1.01.02-.05.05-.1.07-.14.01-.02.02-.04.03-.07.21-.45.42-.91.61-1.38,0-.02.02-.04.02-.05.01-.02.02-.05.03-.07,0,0,0-.01,0-.02,1.36-3.3,2.19-6.84,2.44-10.51l6.75-.8-1.5-12.58-6.74.8c-.09-.27-.17-.55-.26-.82,0,0,0,0,0,0-.04-.13-.09-.26-.14-.38,0,0,0-.02-.01-.03-.12-.34-.25-.69-.38-1.02,0,0,0,0,0,0,0-.02-.01-.03-.02-.05,0,0,0,0,0-.01-.34-.86-.72-1.7-1.13-2.52,0,0,0,0,0,0-.02-.04-.03-.07-.05-.11,0,0,0,0,0,0-.11-.22-.23-.43-.34-.65,0,0,0,0,0-.02,0-.01-.01-.03-.02-.04-.12-.22-.24-.45-.36-.67,0-.01-.01-.02-.02-.03,0,0,0,0,0,0-.11-.19-.21-.37-.32-.55,0,0,0,0,0,0-.02-.04-.04-.07-.07-.11,0,0,0,0,0-.01-.24-.4-.48-.79-.73-1.18,0,0,0,0,0,0-.03-.05-.07-.1-.1-.15,0,0,0-.01-.01-.02-.25-.38-.5-.75-.76-1.11,0,0,0,0,0,0-.04-.06-.09-.12-.14-.18,0,0,0,0,0,0-.58-.8-1.19-1.57-1.84-2.31l4.19-5.33-9.97-7.84-4.19,5.33c-4.02-2.09-8.49-3.39-13.19-3.72-.03,0-.06,0-.09,0l-.8-6.73-12.59,1.5.8,6.73s-.03.01-.05.02c-.83.26-1.65.56-2.45.88-.02.01-.05.02-.07.03-1.66.68-3.25,1.48-4.76,2.4-.02.01-.04.02-.05.03-1.64,1-3.2,2.13-4.63,3.38l-5.33-4.19-7.84,9.96,5.33,4.19c-2.11,4.05-3.39,8.55-3.71,13.27l-6.75.81,1.5,12.59,6.74-.8c.09.28.18.56.27.84,0,0,0,0,0,0,.04.11.08.21.12.32h0c.22.63.46,1.25.72,1.86,0,.02.02.04.02.06.26.6.53,1.2.82,1.79,0,0,0,0,0,0,.01.03.03.06.04.09,0,0,0,0,0,0,.22.44.45.87.69,1.3.02.03.04.07.05.1,0,0,0,0,0,.01,0,0,0,0,0,0,.11.2.23.39.34.59,0,0,0,0,0,0,.01.02.03.04.04.07,0,0,0,0,0,.01.24.41.49.81.75,1.21,0,0,0,0,0,0,.02.04.05.07.07.11,0,0,0,0,0,.01.26.39.52.77.79,1.15,0,0,0,0,0,0,.04.05.07.1.11.15,0,0,0,.01.01.02.27.37.54.73.82,1.08,0,0,0,0,0,0,.05.06.1.12.15.18,0,0,.02.02.02.03.27.34.55.68.83,1,0,0,0,0,0,0,0,0,0,0,.01.01l-4.19,5.32,9.97,7.84,4.19-5.32s0,0,.01,0c0,0,0,0,0,0,.36.19.73.36,1.1.54.03.02.06.03.1.05.07.03.14.07.22.1,0,0,0,0,.01,0,.39.18.79.35,1.19.51.02.01.05.02.07.03.06.02.11.05.17.07,0,0,0,0,.01,0,.41.17.83.32,1.25.47.02,0,.04.02.06.02.04.01.08.03.12.05h.02c.43.16.86.3,1.3.43.02,0,.04.01.06.02.02,0,.05.02.07.02,0,0,.02,0,.03,0,.21.06.42.13.63.19,0,0,0,0,.01,0,0,0,0,0,.01,0,.16.04.32.08.48.13.35.09.69.18,1.05.27,0,0,0,0,.01,0,.03,0,.07.01.1.02.01,0,.02,0,.03,0,.62.14,1.26.26,1.89.37.03,0,.05,0,.08.01.64.11,1.29.19,1.95.26,0,0,.01,0,.02,0,.11.01.23.03.34.04,0,0,0,0,.01,0,.25.02.5.04.76.06.04,0,.08,0,.11,0l.8,6.73,12.59-1.5-.8-6.73s.04-.02.06-.02c.82-.26,1.63-.55,2.42-.87.03-.01.07-.03.1-.04,1.65-.67,3.22-1.47,4.72-2.37.03-.02.06-.03.08-.05.77-.47,1.53-.97,2.26-1.5,0,0,.01,0,.02-.01.02-.01.04-.03.05-.04,0,0,.01,0,.02-.01.79-.58,1.55-1.18,2.29-1.82,0,0,0,0,0,0l5.33,4.19,7.84-9.96-5.33-4.19s0,0,0-.01Zm-30.12,7.2c-12.59,0-22.8-10.21-22.8-22.8s10.21-22.8,22.8-22.8,22.8,10.21,22.8,22.8-10.21,22.8-22.8,22.8Z"/>
      </g>
      <g>
        <g>
          <path class="cls-1" d="m738.7,281.6c9.96,0,16.83,6.43,16.83,15.84s-6.97,15.84-17.15,15.84h-13.31v-31.69h13.63Zm-5.57,25.26h5.75c4.93,0,8.46-3.8,8.46-9.37s-3.71-9.46-8.83-9.46h-5.38v18.83Z"/>
          <polygon class="cls-1" points="777.25 281.6 768.97 281.6 755.29 313.29 763.46 313.29 768.67 300.26 772.86 289.62 777.39 301.34 770.64 301.34 768.2 307.45 779.74 307.45 782.01 313.29 790.61 313.29 777.25 281.6"/>
          <path class="cls-1" d="m804.12,288.08v25.21h-8.06v-25.21h-9.46v-6.52h27.07v6.52h-9.55Z"/>
          <path class="cls-1" d="m848.4,297.4c0,9.23-7.34,16.25-17.16,16.25s-17.11-6.97-17.11-16.25,7.33-16.07,17.11-16.07,17.16,6.88,17.16,16.07Zm-26.03.04c0,5.34,4.12,9.46,8.97,9.46s8.78-4.12,8.78-9.46-3.89-9.37-8.78-9.37-8.97,4.03-8.97,9.37Z"/>
          <path class="cls-1" d="m859.95,290.07c0-1.54,1.4-2.31,3.49-2.31,2.48,0,6.44,1.26,9.72,3.08l3.43-6.08c-3.25-2.12-7.91-3.52-12.47-3.52-7.6,0-12.63,3.71-12.63,9.55,0,11.23,16.75,7.88,16.75,13.49,0,1.81-1.58,2.76-4.12,2.76-3.23,0-7.95-1.82-11.21-4.56l-3.24,5.74-.13.27c3.76,3.08,9.19,5.07,14.49,5.07,7.06,0,12.67-3.35,12.67-9.69,0-11.45-16.75-8.33-16.75-13.81Z"/>
        </g>
        <g>
          <path class="cls-4" d="m992.98,271.68c0,1.86-1.46,3.32-3.36,3.32s-3.39-1.46-3.39-3.32,1.51-3.28,3.39-3.28,3.36,1.46,3.36,3.28Zm-5.9,0c0,1.46,1.08,2.62,2.56,2.62s2.5-1.16,2.5-2.6-1.06-2.64-2.52-2.64-2.54,1.18-2.54,2.62Zm2.02,1.72h-.76v-3.28c.3-.06.72-.1,1.26-.1.62,0,.9.1,1.14.24.18.14.32.4.32.72,0,.36-.28.64-.68.76v.04c.33.12.5.36.61.8.09.5.16.7.24.82h-.82c-.1-.12-.16-.42-.26-.8-.06-.36-.26-.52-.68-.52h-.36v1.32Zm.02-1.86h.36c.42,0,.76-.14.76-.48,0-.3-.22-.5-.7-.5-.2,0-.34.02-.42.04v.94Z"/>
          <g>
            <path class="cls-4" d="m974.65,258.29c-.86-.29-21.35-7.29-39.11-7.29h-.01c-17.76,0-38.25,6.99-39.12,7.29l-7.83,2.7v50.03l.09,1.47c2.33,18.14,29.55,35.31,41.15,41.85l5.71,3.22h0s0,0,0,0l5.71-3.22c11.6-6.54,38.82-23.7,41.14-41.85l.09-1.47v-50.03l-7.84-2.7Zm-5.57,53.21l-.51,1.51c-3.44,10.13-23.73,23.42-27.77,25.98l-5.27,3.35-5.27-3.35c-4.03-2.56-24.32-15.84-27.76-25.98l-.53-1.58v-41.05l7.32-1.95c1.12-.3,2.3-.6,3.5-.89,5.38-1.3,10.46-2.21,15.1-2.71,2.73-.3,5.3-.44,7.63-.44s4.91.15,7.64.44c4.64.5,9.73,1.42,15.11,2.71,1.19.29,2.37.59,3.5.89l7.32,1.95v41.12Z"/>
            <g>
              <polygon class="cls-4" points="905.72 291.39 910.58 291.39 910.58 311.88 917.77 311.88 917.77 285.48 909.04 285.48 905.72 291.39"/>
              <polygon class="cls-4" points="953.31 285.48 949.98 291.39 954.94 291.39 954.94 311.88 962.13 311.88 962.13 285.48 953.31 285.48"/>
              <path class="cls-4" d="m935.77,285.17c-7.78,0-13.87,5.92-13.87,13.48s6.09,13.55,13.87,13.55,13.83-5.95,13.83-13.55-6.08-13.48-13.83-13.48Zm0,6.62c3.84,0,6.98,3.08,6.98,6.86s-3.13,6.89-6.98,6.89-7.04-3.09-7.04-6.89,3.16-6.86,7.04-6.86Z"/>
            </g>
          </g>
        </g>
      </g>
    </g>
  </g>
</svg>