<svg width="300" height="98" viewBox="0 0 300 98" fill="none" xmlns="http://www.w3.org/2000/svg">
<path fill-rule="evenodd" clip-rule="evenodd" d="M63.9753 11.8086C57.5065 8.07113 50.6121 4.08771 45.3853 1.07491C43.1785 -0.197125 42.2191 -0.0889215 40.2047 1.07491C32.7132 5.40323 26.875 8.7717 21.0289 12.1447C15.2376 15.4861 9.43867 18.8319 2.01729 23.1196C0.385501 24.0623 0.00288994 25.5199 0.00293161 26.6058C0.00299056 28.1423 0.0029647 40.0236 0.00294093 50.9479C0.00292208 59.6088 0.00290453 67.6681 0.00293161 69.4938C0.00293468 69.7009 0.00200632 69.8991 0.00111622 70.0891C-0.0107874 72.6305 -0.0158506 73.7115 2.30514 75.0627C6.23863 77.3527 36.3663 94.8414 40.5879 97.2523C42.1231 98.129 43.3704 98.1395 44.9061 97.2523C53.5885 92.2362 63.8791 86.2961 71.6886 81.7882C78.1692 78.0473 82.9414 75.2926 83.6681 74.8707C85.2706 73.9403 85.5882 72.4704 85.5882 71.318V26.7679C85.5882 24.9438 84.8194 23.7917 83.0924 22.8315C82.0648 22.2602 73.4794 17.2999 63.9753 11.8086ZM40.9118 48.7815L14.7203 34.5258V47.9982L28.7719 56.0277V72.1823L40.9118 79.202V48.7815ZM28.7719 23.8141L16.2941 31.0292L42.8204 45.4671L69.0805 31.075L56.7796 23.8141L42.8235 31.9392L28.7719 23.8141ZM44.7353 48.7777L70.5445 34.6328V47.9982L56.7796 56.0277V72.1823L44.7353 79.1944V48.7777Z" fill="url(#paint0_linear_501_1089)"/>
<path d="M110.421 43.6867C111.379 43.6867 112.521 43.4726 113.857 43.0546V47.1224C112.491 47.7341 110.819 48.04 108.841 48.04C106.659 48.04 105.058 47.4895 104.07 46.3782C103.081 45.2669 102.571 43.6153 102.571 41.403V31.7482H99.9507V29.4339L102.958 27.6089L104.538 23.378H108.035V27.6395H113.643V31.7482H108.035V41.403C108.035 42.1778 108.25 42.7487 108.688 43.1259C109.126 43.5032 109.697 43.6765 110.421 43.6765V43.6867Z" fill="white"/>
<path d="M134.287 37.6309C134.287 40.8933 133.431 43.4421 131.708 45.2874C129.985 47.1327 127.589 48.0503 124.521 48.0503C122.594 48.0503 120.901 47.6323 119.433 46.7861C117.965 45.9399 116.833 44.7369 116.048 43.1566C115.263 41.5764 114.866 39.7413 114.866 37.6411C114.866 34.3684 115.722 31.8196 117.425 30.0049C119.137 28.1902 121.533 27.2828 124.633 27.2828C126.56 27.2828 128.252 27.7008 129.72 28.5368C131.188 29.3728 132.32 30.5758 133.105 32.1357C133.89 33.7057 134.287 35.5307 134.287 37.6411V37.6309ZM120.432 37.6309C120.432 39.6189 120.759 41.1176 121.411 42.1269C122.063 43.1362 123.124 43.646 124.592 43.646C126.06 43.646 127.1 43.1362 127.732 42.1269C128.364 41.1176 128.69 39.6189 128.69 37.6207C128.69 35.6224 128.364 34.1543 127.722 33.1552C127.08 32.1663 126.019 31.6667 124.551 31.6667C123.083 31.6667 122.043 32.1561 121.401 33.145C120.759 34.1339 120.432 35.6224 120.432 37.6207V37.6309Z" fill="white"/>
<path d="M148.143 27.2726C148.887 27.2726 149.499 27.3236 149.988 27.4357L149.58 32.5639C149.142 32.4416 148.601 32.3804 147.969 32.3804C146.226 32.3804 144.87 32.829 143.891 33.7261C142.923 34.6233 142.433 35.8773 142.433 37.4881V47.6833H136.969V27.6498H141.108L141.913 31.0142H142.178C142.8 29.8928 143.636 28.9854 144.697 28.3023C145.757 27.6192 146.899 27.2726 148.143 27.2726Z" fill="white"/>
<path d="M162.978 27.2726C163.722 27.2726 164.334 27.3236 164.823 27.4357L164.415 32.5639C163.977 32.4416 163.436 32.3804 162.804 32.3804C161.061 32.3804 159.705 32.829 158.726 33.7261C157.747 34.6233 157.268 35.8773 157.268 37.4881V47.6833H151.804V27.6498H155.943L156.748 31.0142H157.013C157.635 29.8928 158.471 28.9854 159.532 28.3023C160.592 27.6192 161.744 27.2726 162.978 27.2726Z" fill="white"/>
<path d="M175.7 48.0503C172.479 48.0503 169.95 47.1633 168.136 45.3792C166.321 43.595 165.414 41.0768 165.414 37.8144C165.414 34.5519 166.25 31.8604 167.932 30.0253C169.614 28.1902 171.928 27.2726 174.895 27.2726C177.862 27.2726 179.931 28.078 181.512 29.6889C183.092 31.2997 183.877 33.5324 183.877 36.3769V39.0276H170.96C171.021 40.5773 171.48 41.7905 172.336 42.6673C173.192 43.5441 174.406 43.9723 175.955 43.9723C177.158 43.9723 178.3 43.8499 179.381 43.595C180.462 43.3402 181.583 42.9425 182.745 42.392V46.623C181.787 47.1022 180.767 47.459 179.677 47.6935C178.586 47.928 177.26 48.0401 175.7 48.0401V48.0503ZM174.926 31.1672C173.763 31.1672 172.856 31.5342 172.204 32.2682C171.551 33.0023 171.174 34.0422 171.072 35.3981H178.739C178.718 34.0524 178.361 33.0023 177.678 32.2682C176.995 31.5342 176.078 31.1672 174.915 31.1672H174.926Z" fill="white"/>
<path d="M200.454 41.7395C200.454 43.7989 199.74 45.3588 198.313 46.4395C196.886 47.5202 194.755 48.0503 191.91 48.0503C190.453 48.0503 189.209 47.9484 188.179 47.7547C187.149 47.5609 186.191 47.2653 185.294 46.8881V42.3716C186.313 42.8508 187.455 43.2484 188.73 43.5746C190.004 43.9009 191.125 44.0538 192.094 44.0538C194.082 44.0538 195.071 43.4829 195.071 42.3308C195.071 41.9026 194.938 41.556 194.673 41.2807C194.408 41.0157 193.96 40.7098 193.307 40.3632C192.655 40.0165 191.798 39.6291 190.728 39.1703C189.188 38.5281 188.057 37.9265 187.333 37.376C186.609 36.8255 186.089 36.1934 185.753 35.4899C185.426 34.7762 185.263 33.8995 185.263 32.8596C185.263 31.0754 185.956 29.6991 187.333 28.7305C188.709 27.762 190.667 27.2726 193.205 27.2726C195.744 27.2726 197.966 27.8028 200.25 28.8529L198.598 32.7984C197.599 32.3702 196.661 32.0134 195.785 31.7381C194.908 31.4628 194.021 31.3303 193.113 31.3303C191.503 31.3303 190.697 31.7687 190.697 32.6353C190.697 33.1246 190.952 33.5528 191.472 33.9097C191.992 34.2665 193.134 34.7966 194.887 35.5001C196.457 36.1322 197.599 36.7235 198.333 37.274C199.057 37.8246 199.598 38.4567 199.944 39.1703C200.291 39.884 200.464 40.7404 200.464 41.7293L200.454 41.7395Z" fill="white"/>
<path d="M212.312 27.7211C214.891 27.7211 216.899 28.5979 218.327 30.3617C219.754 32.1254 220.468 34.613 220.468 37.8449C220.468 41.0768 219.744 43.5746 218.306 45.3587C216.869 47.1429 214.871 48.0401 212.312 48.0401C211.037 48.0401 209.865 47.8056 208.804 47.3366C207.744 46.8676 206.857 46.1438 206.143 45.1548H205.929L205.297 47.6832H203.167V19.7995H206.143V26.5691C206.143 28.0882 206.093 29.4441 206.001 30.6573H206.143C207.53 28.6999 209.579 27.7211 212.312 27.7211ZM211.883 30.2087C209.855 30.2087 208.386 30.7899 207.489 31.9521C206.592 33.1144 206.143 35.082 206.143 37.8347C206.143 40.5874 206.602 42.5653 207.52 43.7581C208.437 44.9509 209.916 45.5422 211.945 45.5422C213.769 45.5422 215.136 44.8796 216.033 43.544C216.93 42.2084 217.379 40.3019 217.379 37.8041C217.379 35.3063 216.93 33.3387 216.033 32.0847C215.136 30.8307 213.749 30.1986 211.873 30.1986L211.883 30.2087Z" fill="white"/>
<path d="M226.626 28.0474V40.7914C226.626 42.392 226.993 43.5848 227.717 44.3801C228.44 45.1651 229.582 45.5627 231.142 45.5627C233.202 45.5627 234.7 45.002 235.648 43.8805C236.597 42.759 237.076 40.9239 237.076 38.3751V28.0576H240.053V47.7037H237.596L237.167 45.0733H237.004C236.393 46.0419 235.546 46.7861 234.466 47.2959C233.385 47.8056 232.151 48.0707 230.765 48.0707C228.379 48.0707 226.585 47.4998 225.392 46.3681C224.199 45.2364 223.608 43.4217 223.608 40.9239V28.078H226.615L226.626 28.0474Z" fill="white"/>
<path d="M253.479 27.6905C254.355 27.6905 255.13 27.7618 255.823 27.9046L255.416 30.6674C254.6 30.4839 253.886 30.4024 253.265 30.4024C251.674 30.4024 250.318 31.0447 249.186 32.3395C248.055 33.6342 247.494 35.2349 247.494 37.1618V47.7035H244.517V28.0473H246.974L247.311 31.687H247.453C248.177 30.4126 249.064 29.4236 250.084 28.7304C251.103 28.0371 252.245 27.6905 253.468 27.6905H253.479Z" fill="white"/>
<path d="M266.631 27.6905C267.508 27.6905 268.283 27.7618 268.976 27.9046L268.569 30.6674C267.753 30.4839 267.039 30.4024 266.417 30.4024C264.827 30.4024 263.471 31.0447 262.339 32.3395C261.208 33.6342 260.647 35.2349 260.647 37.1618V47.7035H257.67V28.0473H260.127L260.463 31.687H260.606C261.33 30.4126 262.217 29.4236 263.236 28.7304C264.266 28.0371 265.398 27.6905 266.621 27.6905H266.631Z" fill="white"/>
<path d="M270.566 22.7254C270.566 22.0423 270.729 21.5428 271.065 21.2267C271.402 20.9107 271.82 20.7476 272.319 20.7476C272.819 20.7476 273.206 20.9107 273.553 21.2267C273.9 21.553 274.073 22.0423 274.073 22.7152C274.073 23.3881 273.9 23.8877 273.553 24.2139C273.206 24.5402 272.799 24.7033 272.319 24.7033C271.82 24.7033 271.402 24.5402 271.065 24.2139C270.729 23.8877 270.566 23.3881 270.566 22.7152V22.7254ZM273.788 47.6933H270.811V28.0473H273.788V47.6933Z" fill="white"/>
<path d="M286.563 48.0501C283.657 48.0501 281.373 47.1632 279.691 45.3994C278.009 43.6357 277.173 41.1786 277.173 38.0385C277.173 34.8984 277.958 32.3598 279.508 30.4941C281.067 28.6284 283.157 27.7006 285.788 27.7006C288.245 27.7006 290.192 28.5061 291.63 30.1271C293.067 31.7481 293.781 33.8789 293.781 36.5296V38.4157H280.252C280.313 40.7198 280.894 42.4734 281.995 43.6662C283.096 44.8591 284.656 45.4606 286.665 45.4606C288.775 45.4606 290.865 45.0222 292.935 44.1352V46.7859C291.884 47.2447 290.885 47.5608 289.947 47.7647C289.009 47.9584 287.878 48.0603 286.552 48.0603L286.563 48.0501ZM285.757 30.1781C284.177 30.1781 282.923 30.6878 281.985 31.7175C281.047 32.7472 280.496 34.1644 280.323 35.9791H290.59C290.59 34.1032 290.172 32.6657 289.336 31.6666C288.5 30.6674 287.307 30.1679 285.747 30.1679L285.757 30.1781Z" fill="white"/>
<path d="M299.999 47.6832H297.022V19.7995H299.999V47.6832Z" fill="white"/>
<path d="M106.752 74.1396C104.814 74.1396 103.285 73.5483 102.174 72.3759C101.052 71.1932 100.492 69.562 100.492 67.4618C100.492 65.3616 101.012 63.6794 102.052 62.4356C103.091 61.1918 104.488 60.5699 106.242 60.5699C107.883 60.5699 109.178 61.1102 110.136 62.1909C111.095 63.2716 111.574 64.6887 111.574 66.4627V67.7167H102.551C102.592 69.2562 102.979 70.4184 103.713 71.2136C104.447 72.0088 105.487 72.4065 106.823 72.4065C108.23 72.4065 109.627 72.1108 111.003 71.5195V73.2832C110.299 73.5891 109.637 73.8032 109.015 73.9357C108.393 74.0683 107.638 74.1294 106.752 74.1294V74.1396ZM106.211 62.2317C105.161 62.2317 104.325 62.5783 103.693 63.2614C103.061 63.9445 102.704 64.8926 102.592 66.1059H109.433C109.433 64.8519 109.158 63.8935 108.597 63.2308C108.036 62.5681 107.241 62.2317 106.211 62.2317Z" fill="#009DE0"/>
<path d="M122.167 70.3267C122.167 71.5501 121.708 72.488 120.801 73.1507C119.893 73.8134 118.619 74.1396 116.977 74.1396C115.244 74.1396 113.888 73.8644 112.92 73.3138V71.4787C113.552 71.7948 114.225 72.0496 114.949 72.2331C115.672 72.4167 116.366 72.5084 117.028 72.5084C118.068 72.5084 118.863 72.3453 119.414 72.0088C119.975 71.6826 120.25 71.1728 120.25 70.5C120.25 69.9902 120.026 69.5518 119.587 69.195C119.149 68.828 118.282 68.3998 116.998 67.9104C115.774 67.4516 114.918 67.0642 114.398 66.7176C113.888 66.3811 113.501 65.9937 113.256 65.5655C113.001 65.1373 112.879 64.6174 112.879 64.0261C112.879 62.9556 113.317 62.1196 114.184 61.4977C115.05 60.8758 116.243 60.5699 117.752 60.5699C119.159 60.5699 120.535 60.8554 121.881 61.4263L121.178 63.0371C119.863 62.4968 118.67 62.2215 117.609 62.2215C116.671 62.2215 115.958 62.3642 115.479 62.6599C114.999 62.9556 114.765 63.3634 114.765 63.8833C114.765 64.23 114.857 64.5358 115.03 64.7805C115.214 65.0252 115.499 65.2597 115.897 65.484C116.294 65.7083 117.059 66.0345 118.191 66.4525C119.74 67.0132 120.79 67.5842 121.341 68.1653C121.891 68.7362 122.156 69.4601 122.156 70.3267H122.167Z" fill="#009DE0"/>
<path d="M128.395 72.4982C128.742 72.4982 129.089 72.4676 129.415 72.4166C129.741 72.3656 129.996 72.3147 130.19 72.2535V73.7726C129.976 73.8745 129.66 73.9663 129.242 74.0274C128.824 74.0988 128.446 74.1294 128.11 74.1294C125.581 74.1294 124.307 72.7938 124.307 70.1227V62.3336H122.431V61.3753L124.307 60.5495L125.143 57.756H126.285V60.7941H130.088V62.3336H126.285V70.0411C126.285 70.8262 126.468 71.4379 126.846 71.8559C127.223 72.2739 127.733 72.488 128.385 72.488L128.395 72.4982Z" fill="#009DE0"/>
<path d="M133.452 60.8043V69.2969C133.452 70.3674 133.697 71.1626 134.176 71.6825C134.665 72.2127 135.42 72.4676 136.46 72.4676C137.826 72.4676 138.835 72.0904 139.467 71.3461C140.099 70.6019 140.416 69.3784 140.416 67.6758V60.7941H142.404V73.8847H140.762L140.477 72.1311H140.365C139.957 72.7734 139.396 73.273 138.672 73.6094C137.948 73.9561 137.133 74.1192 136.205 74.1192C134.614 74.1192 133.422 73.742 132.626 72.9875C131.831 72.2331 131.434 71.0199 131.434 69.358V60.7941H133.442L133.452 60.8043Z" fill="#009DE0"/>
<path d="M154.291 72.1415H154.178C153.261 73.4669 151.895 74.1398 150.07 74.1398C148.357 74.1398 147.021 73.5586 146.073 72.3862C145.125 71.2138 144.646 69.5519 144.646 67.3906C144.646 65.2292 145.125 63.5572 146.084 62.3644C147.042 61.1715 148.367 60.57 150.07 60.57C151.772 60.57 153.21 61.2123 154.158 62.5071H154.311L154.229 61.559L154.178 60.6414V55.3093H156.167V73.8951H154.556L154.291 72.1415ZM150.325 72.478C151.681 72.478 152.659 72.1109 153.271 71.3769C153.883 70.6428 154.189 69.45 154.189 67.8086V67.3906C154.189 65.5351 153.883 64.2097 153.261 63.4145C152.639 62.6192 151.66 62.2216 150.304 62.2216C149.142 62.2216 148.255 62.6702 147.633 63.5776C147.011 64.485 146.705 65.7594 146.705 67.411C146.705 69.0626 147.011 70.3472 147.623 71.1934C148.235 72.0498 149.132 72.4678 150.325 72.4678V72.478Z" fill="#009DE0"/>
<path d="M158.981 57.2567C158.981 56.7979 159.094 56.4717 159.318 56.2576C159.542 56.0435 159.817 55.9416 160.154 55.9416C160.49 55.9416 160.745 56.0537 160.98 56.2678C161.214 56.4819 161.326 56.8183 161.326 57.2567C161.326 57.6951 161.214 58.0316 160.98 58.2558C160.745 58.4699 160.47 58.5821 160.154 58.5821C159.817 58.5821 159.542 58.4699 159.318 58.2558C159.094 58.0418 158.981 57.7053 158.981 57.2567ZM161.133 73.8952H159.145V60.8046H161.133V73.8952Z" fill="#009DE0"/>
<path d="M175.416 67.3395C175.416 69.4703 174.876 71.1423 173.805 72.3351C172.735 73.5279 171.246 74.1295 169.35 74.1295C168.177 74.1295 167.138 73.8542 166.23 73.3036C165.323 72.7531 164.619 71.9681 164.13 70.9384C163.641 69.9087 163.386 68.7056 163.386 67.3293C163.386 65.1985 163.916 63.5367 164.986 62.3439C166.057 61.151 167.535 60.5597 169.431 60.5597C171.328 60.5597 172.714 61.1714 173.795 62.3847C174.876 63.6081 175.416 65.2495 175.416 67.3293V67.3395ZM165.435 67.3395C165.435 69.0115 165.771 70.2859 166.434 71.1627C167.107 72.0395 168.086 72.4778 169.38 72.4778C170.675 72.4778 171.664 72.0394 172.337 71.1729C173.01 70.2961 173.346 69.0217 173.346 67.3395C173.346 65.6573 173.01 64.4135 172.337 63.5469C171.664 62.6803 170.675 62.2521 169.36 62.2521C168.045 62.2521 167.087 62.6803 166.424 63.5265C165.761 64.3829 165.435 65.6471 165.435 67.3395Z" fill="#009DE0"/>
<defs>
<linearGradient id="paint0_linear_501_1089" x1="57.7619" y1="12.6488" x2="-52.94" y2="167.763" gradientUnits="userSpaceOnUse">
<stop offset="0.0941267" stop-color="#009DE0"/>
<stop offset="1" stop-color="white"/>
</linearGradient>
</defs>
</svg>
