<svg width="321" height="208" viewBox="0 0 321 208" fill="none" xmlns="http://www.w3.org/2000/svg">
<path fill-rule="evenodd" clip-rule="evenodd" d="M3.54463 7.09511C5.51386 7.09511 7.08921 5.51841 7.08921 3.54755C7.08921 1.57668 5.51386 0 3.54463 0C1.57539 0 0 1.57668 0 3.54755C0 5.51841 1.57539 7.09511 3.54463 7.09511ZM28.5716 7.09511C30.5408 7.09511 32.1162 5.51841 32.1162 3.54755C32.1162 1.57668 30.5408 0 28.5716 0C26.6023 0 25.0269 1.57668 25.0269 3.54755C25.0269 5.51841 26.6023 7.09511 28.5716 7.09511ZM57.1431 3.54755C57.1431 5.51841 55.5677 7.09511 53.5985 7.09511C51.6292 7.09511 50.0538 5.51841 50.0538 3.54755C50.0538 1.57668 51.6292 0 53.5985 0C55.5677 0 57.1431 1.57668 57.1431 3.54755ZM78.6253 7.09511C80.5946 7.09511 82.17 5.51841 82.17 3.54755C82.17 1.57668 80.5946 0 78.6253 0C76.6561 0 75.0807 1.57668 75.0807 3.54755C75.0807 5.51841 76.6561 7.09511 78.6253 7.09511ZM107.197 3.54755C107.197 5.51841 105.621 7.09511 103.652 7.09511C101.683 7.09511 100.108 5.51841 100.108 3.54755C100.108 1.57668 101.683 0 103.652 0C105.621 0 107.197 1.57668 107.197 3.54755ZM128.679 7.09511C130.648 7.09511 132.224 5.51841 132.224 3.54755C132.224 1.57668 130.648 0 128.679 0C126.71 0 125.135 1.57668 125.135 3.54755C125.135 5.51841 126.71 7.09511 128.679 7.09511ZM157.251 3.54755C157.251 5.51841 155.675 7.09511 153.706 7.09511C151.737 7.09511 150.161 5.51841 150.161 3.54755C150.161 1.57668 151.737 0 153.706 0C155.675 0 157.251 1.57668 157.251 3.54755ZM178.733 7.09511C180.702 7.09511 182.278 5.51841 182.278 3.54755C182.278 1.57668 180.702 0 178.733 0C176.764 0 175.188 1.57668 175.188 3.54755C175.188 5.51841 176.764 7.09511 178.733 7.09511ZM7.08921 28.5804C7.08921 30.5512 5.51386 32.1279 3.54463 32.1279C1.57539 32.1279 0 30.5512 0 28.5804C0 26.6095 1.57539 25.0328 3.54463 25.0328C5.51386 25.0328 7.08921 26.6095 7.08921 28.5804ZM28.5716 32.1279C30.5408 32.1279 32.1162 30.5512 32.1162 28.5804C32.1162 26.6095 30.5408 25.0328 28.5716 25.0328C26.6023 25.0328 25.0269 26.6095 25.0269 28.5804C25.0269 30.5512 26.6023 32.1279 28.5716 32.1279ZM57.1431 28.5804C57.1431 30.5512 55.5677 32.1279 53.5985 32.1279C51.6292 32.1279 50.0538 30.5512 50.0538 28.5804C50.0538 26.6095 51.6292 25.0328 53.5985 25.0328C55.5677 25.0328 57.1431 26.6095 57.1431 28.5804ZM78.6253 32.1279C80.5946 32.1279 82.17 30.5512 82.17 28.5804C82.17 26.6095 80.5946 25.0328 78.6253 25.0328C76.6561 25.0328 75.0807 26.6095 75.0807 28.5804C75.0807 30.5512 76.6561 32.1279 78.6253 32.1279ZM107.197 28.5804C107.197 30.5512 105.621 32.1279 103.652 32.1279C101.683 32.1279 100.108 30.5512 100.108 28.5804C100.108 26.6095 101.683 25.0328 103.652 25.0328C105.621 25.0328 107.197 26.6095 107.197 28.5804ZM128.679 32.1279C130.648 32.1279 132.224 30.5512 132.224 28.5804C132.224 26.6095 130.648 25.0328 128.679 25.0328C126.71 25.0328 125.135 26.6095 125.135 28.5804C125.135 30.5512 126.71 32.1279 128.679 32.1279ZM157.251 28.5804C157.251 30.5512 155.675 32.1279 153.706 32.1279C151.737 32.1279 150.161 30.5512 150.161 28.5804C150.161 26.6095 151.737 25.0328 153.706 25.0328C155.675 25.0328 157.251 26.6095 157.251 28.5804ZM178.733 32.1279C180.702 32.1279 182.278 30.5512 182.278 28.5804C182.278 26.6095 180.702 25.0328 178.733 25.0328C176.764 25.0328 175.188 26.6095 175.188 28.5804C175.188 30.5512 176.764 32.1279 178.733 32.1279ZM7.08921 53.6132C7.08921 55.5841 5.51386 57.1607 3.54463 57.1607C1.57539 57.1607 0 55.5841 0 53.6132C0 51.6423 1.57539 50.0656 3.54463 50.0656C5.51386 50.0656 7.08921 51.6423 7.08921 53.6132ZM28.5716 57.1607C30.5408 57.1607 32.1162 55.5841 32.1162 53.6132C32.1162 51.6423 30.5408 50.0656 28.5716 50.0656C26.6023 50.0656 25.0269 51.6423 25.0269 53.6132C25.0269 55.5841 26.6023 57.1607 28.5716 57.1607ZM57.1431 53.6132C57.1431 55.5841 55.5677 57.1607 53.5985 57.1607C51.6292 57.1607 50.0538 55.5841 50.0538 53.6132C50.0538 51.6423 51.6292 50.0656 53.5985 50.0656C55.5677 50.0656 57.1431 51.6423 57.1431 53.6132ZM78.6253 57.1607C80.5946 57.1607 82.17 55.5841 82.17 53.6132C82.17 51.6423 80.5946 50.0656 78.6253 50.0656C76.6561 50.0656 75.0807 51.6423 75.0807 53.6132C75.0807 55.5841 76.6561 57.1607 78.6253 57.1607ZM107.197 53.6132C107.197 55.5841 105.621 57.1607 103.652 57.1607C101.683 57.1607 100.108 55.5841 100.108 53.6132C100.108 51.6423 101.683 50.0656 103.652 50.0656C105.621 50.0656 107.197 51.6423 107.197 53.6132ZM128.679 57.1607C130.648 57.1607 132.224 55.5841 132.224 53.6132C132.224 51.6423 130.648 50.0656 128.679 50.0656C126.71 50.0656 125.135 51.6423 125.135 53.6132C125.135 55.5841 126.71 57.1607 128.679 57.1607ZM157.251 53.6132C157.251 55.5841 155.675 57.1607 153.706 57.1607C151.737 57.1607 150.161 55.5841 150.161 53.6132C150.161 51.6423 151.737 50.0656 153.706 50.0656C155.675 50.0656 157.251 51.6423 157.251 53.6132ZM178.733 57.1607C180.702 57.1607 182.278 55.5841 182.278 53.6132C182.278 51.6423 180.702 50.0656 178.733 50.0656C176.764 50.0656 175.188 51.6423 175.188 53.6132C175.188 55.5841 176.764 57.1607 178.733 57.1607ZM7.08921 78.646C7.08921 80.6169 5.51386 82.1936 3.54463 82.1936C1.57539 82.1936 0 80.6169 0 78.646C0 76.6751 1.57539 75.0984 3.54463 75.0984C5.51386 75.0984 7.08921 76.6751 7.08921 78.646ZM28.5716 82.1936C30.5408 82.1936 32.1162 80.6169 32.1162 78.646C32.1162 76.6751 30.5408 75.0984 28.5716 75.0984C26.6023 75.0984 25.0269 76.6751 25.0269 78.646C25.0269 80.6169 26.6023 82.1936 28.5716 82.1936ZM57.1431 78.646C57.1431 80.6169 55.5677 82.1936 53.5985 82.1936C51.6292 82.1936 50.0538 80.6169 50.0538 78.646C50.0538 76.6751 51.6292 75.0984 53.5985 75.0984C55.5677 75.0984 57.1431 76.6751 57.1431 78.646ZM78.6253 82.1936C80.5946 82.1936 82.17 80.6169 82.17 78.646C82.17 76.6751 80.5946 75.0984 78.6253 75.0984C76.6561 75.0984 75.0807 76.6751 75.0807 78.646C75.0807 80.6169 76.6561 82.1936 78.6253 82.1936ZM107.197 78.646C107.197 80.6169 105.621 82.1936 103.652 82.1936C101.683 82.1936 100.108 80.6169 100.108 78.646C100.108 76.6751 101.683 75.0984 103.652 75.0984C105.621 75.0984 107.197 76.6751 107.197 78.646ZM128.679 82.1936C130.648 82.1936 132.224 80.6169 132.224 78.646C132.224 76.6751 130.648 75.0984 128.679 75.0984C126.71 75.0984 125.135 76.6751 125.135 78.646C125.135 80.6169 126.71 82.1936 128.679 82.1936ZM157.251 78.646C157.251 80.6169 155.675 82.1936 153.706 82.1936C151.737 82.1936 150.161 80.6169 150.161 78.646C150.161 76.6751 151.737 75.0984 153.706 75.0984C155.675 75.0984 157.251 76.6751 157.251 78.646ZM178.733 82.1936C180.702 82.1936 182.278 80.6169 182.278 78.646C182.278 76.6751 180.702 75.0984 178.733 75.0984C176.764 75.0984 175.188 76.6751 175.188 78.646C175.188 80.6169 176.764 82.1936 178.733 82.1936ZM3.54463 107.226C5.50227 107.226 7.08921 105.638 7.08921 103.679C7.08921 101.72 5.50227 100.131 3.54463 100.131C1.58699 100.131 0 101.72 0 103.679C0 105.638 1.58699 107.226 3.54463 107.226ZM32.1162 103.679C32.1162 105.638 30.5292 107.226 28.5716 107.226C26.6139 107.226 25.0269 105.638 25.0269 103.679C25.0269 101.72 26.6139 100.131 28.5716 100.131C30.5292 100.131 32.1162 101.72 32.1162 103.679ZM53.5985 107.226C55.5561 107.226 57.1431 105.638 57.1431 103.679C57.1431 101.72 55.5561 100.131 53.5985 100.131C51.6408 100.131 50.0538 101.72 50.0538 103.679C50.0538 105.638 51.6408 107.226 53.5985 107.226ZM82.17 103.679C82.17 105.638 80.583 107.226 78.6253 107.226C76.6677 107.226 75.0807 105.638 75.0807 103.679C75.0807 101.72 76.6677 100.131 78.6253 100.131C80.583 100.131 82.17 101.72 82.17 103.679ZM107.197 103.679C107.197 105.65 105.621 107.226 103.652 107.226C101.683 107.226 100.108 105.65 100.108 103.679C100.108 101.708 101.683 100.131 103.652 100.131C105.621 100.131 107.197 101.708 107.197 103.679ZM132.224 103.679C132.224 105.638 130.637 107.226 128.679 107.226C126.722 107.226 125.135 105.638 125.135 103.679C125.135 101.72 126.722 100.131 128.679 100.131C130.637 100.131 132.224 101.72 132.224 103.679ZM153.706 107.226C155.664 107.226 157.251 105.638 157.251 103.679C157.251 101.72 155.664 100.131 153.706 100.131C151.748 100.131 150.161 101.72 150.161 103.679C150.161 105.638 151.748 107.226 153.706 107.226ZM182.278 103.679C182.278 105.638 180.691 107.226 178.733 107.226C176.775 107.226 175.188 105.638 175.188 103.679C175.188 101.72 176.775 100.131 178.733 100.131C180.691 100.131 182.278 101.72 182.278 103.679ZM3.54463 132.259C5.50227 132.259 7.08921 130.671 7.08921 128.712C7.08921 126.752 5.50227 125.164 3.54463 125.164C1.58699 125.164 0 126.752 0 128.712C0 130.671 1.58699 132.259 3.54463 132.259ZM32.1162 128.712C32.1162 130.671 30.5292 132.259 28.5716 132.259C26.6139 132.259 25.0269 130.671 25.0269 128.712C25.0269 126.752 26.6139 125.164 28.5716 125.164C30.5292 125.164 32.1162 126.752 32.1162 128.712ZM53.5985 132.259C55.5561 132.259 57.1431 130.671 57.1431 128.712C57.1431 126.752 55.5561 125.164 53.5985 125.164C51.6408 125.164 50.0538 126.752 50.0538 128.712C50.0538 130.671 51.6408 132.259 53.5985 132.259ZM82.17 128.712C82.17 130.671 80.583 132.259 78.6253 132.259C76.6677 132.259 75.0807 130.671 75.0807 128.712C75.0807 126.752 76.6677 125.164 78.6253 125.164C80.583 125.164 82.17 126.752 82.17 128.712ZM107.197 128.712C107.197 130.682 105.621 132.259 103.652 132.259C101.683 132.259 100.108 130.682 100.108 128.712C100.108 126.741 101.683 125.164 103.652 125.164C105.621 125.164 107.197 126.741 107.197 128.712ZM132.224 128.712C132.224 130.671 130.637 132.259 128.679 132.259C126.722 132.259 125.135 130.671 125.135 128.712C125.135 126.752 126.722 125.164 128.679 125.164C130.637 125.164 132.224 126.752 132.224 128.712ZM153.706 132.259C155.664 132.259 157.251 130.671 157.251 128.712C157.251 126.752 155.664 125.164 153.706 125.164C151.748 125.164 150.161 126.752 150.161 128.712C150.161 130.671 151.748 132.259 153.706 132.259ZM182.278 128.712C182.278 130.671 180.691 132.259 178.733 132.259C176.775 132.259 175.188 130.671 175.188 128.712C175.188 126.752 176.775 125.164 178.733 125.164C180.691 125.164 182.278 126.752 182.278 128.712ZM3.54463 157.292C5.50227 157.292 7.08921 155.704 7.08921 153.744C7.08921 151.785 5.50227 150.197 3.54463 150.197C1.58699 150.197 0 151.785 0 153.744C0 155.704 1.58699 157.292 3.54463 157.292ZM32.1162 153.744C32.1162 155.704 30.5292 157.292 28.5716 157.292C26.6139 157.292 25.0269 155.704 25.0269 153.744C25.0269 151.785 26.6139 150.197 28.5716 150.197C30.5292 150.197 32.1162 151.785 32.1162 153.744ZM53.5985 157.292C55.5561 157.292 57.1431 155.704 57.1431 153.744C57.1431 151.785 55.5561 150.197 53.5985 150.197C51.6408 150.197 50.0538 151.785 50.0538 153.744C50.0538 155.704 51.6408 157.292 53.5985 157.292ZM82.17 153.744C82.17 155.704 80.583 157.292 78.6253 157.292C76.6677 157.292 75.0807 155.704 75.0807 153.744C75.0807 151.785 76.6677 150.197 78.6253 150.197C80.583 150.197 82.17 151.785 82.17 153.744ZM107.197 153.744C107.197 155.715 105.621 157.292 103.652 157.292C101.683 157.292 100.108 155.715 100.108 153.744C100.108 151.774 101.683 150.197 103.652 150.197C105.621 150.197 107.197 151.774 107.197 153.744ZM132.224 153.744C132.224 155.704 130.637 157.292 128.679 157.292C126.722 157.292 125.135 155.704 125.135 153.744C125.135 151.785 126.722 150.197 128.679 150.197C130.637 150.197 132.224 151.785 132.224 153.744ZM153.706 157.292C155.664 157.292 157.251 155.704 157.251 153.744C157.251 151.785 155.664 150.197 153.706 150.197C151.748 150.197 150.161 151.785 150.161 153.744C150.161 155.704 151.748 157.292 153.706 157.292ZM182.278 153.744C182.278 155.704 180.691 157.292 178.733 157.292C176.775 157.292 175.188 155.704 175.188 153.744C175.188 151.785 176.775 150.197 178.733 150.197C180.691 150.197 182.278 151.785 182.278 153.744ZM3.54463 182.325C5.50227 182.325 7.08921 180.737 7.08921 178.777C7.08921 176.818 5.50227 175.23 3.54463 175.23C1.58699 175.23 0 176.818 0 178.777C0 180.737 1.58699 182.325 3.54463 182.325ZM32.1162 178.777C32.1162 180.737 30.5292 182.325 28.5716 182.325C26.6139 182.325 25.0269 180.737 25.0269 178.777C25.0269 176.818 26.6139 175.23 28.5716 175.23C30.5292 175.23 32.1162 176.818 32.1162 178.777ZM53.5985 182.325C55.5561 182.325 57.1431 180.737 57.1431 178.777C57.1431 176.818 55.5561 175.23 53.5985 175.23C51.6408 175.23 50.0538 176.818 50.0538 178.777C50.0538 180.737 51.6408 182.325 53.5985 182.325ZM82.17 178.777C82.17 180.737 80.583 182.325 78.6253 182.325C76.6677 182.325 75.0807 180.737 75.0807 178.777C75.0807 176.818 76.6677 175.23 78.6253 175.23C80.583 175.23 82.17 176.818 82.17 178.777ZM107.197 178.777C107.197 180.748 105.621 182.325 103.652 182.325C101.683 182.325 100.108 180.748 100.108 178.777C100.108 176.806 101.683 175.23 103.652 175.23C105.621 175.23 107.197 176.806 107.197 178.777ZM132.224 178.777C132.224 180.737 130.637 182.325 128.679 182.325C126.722 182.325 125.135 180.737 125.135 178.777C125.135 176.818 126.722 175.23 128.679 175.23C130.637 175.23 132.224 176.818 132.224 178.777ZM153.706 182.325C155.664 182.325 157.251 180.737 157.251 178.777C157.251 176.818 155.664 175.23 153.706 175.23C151.748 175.23 150.161 176.818 150.161 178.777C150.161 180.737 151.748 182.325 153.706 182.325ZM182.278 178.777C182.278 180.737 180.691 182.325 178.733 182.325C176.775 182.325 175.188 180.737 175.188 178.777C175.188 176.818 176.775 175.23 178.733 175.23C180.691 175.23 182.278 176.818 182.278 178.777ZM3.54463 207.358C5.50227 207.358 7.08921 205.769 7.08921 203.81C7.08921 201.851 5.50227 200.263 3.54463 200.263C1.58699 200.263 0 201.851 0 203.81C0 205.769 1.58699 207.358 3.54463 207.358ZM32.1162 203.81C32.1162 205.769 30.5292 207.358 28.5716 207.358C26.6139 207.358 25.0269 205.769 25.0269 203.81C25.0269 201.851 26.6139 200.263 28.5716 200.263C30.5292 200.263 32.1162 201.851 32.1162 203.81ZM53.5985 207.358C55.5561 207.358 57.1431 205.769 57.1431 203.81C57.1431 201.851 55.5561 200.263 53.5985 200.263C51.6408 200.263 50.0538 201.851 50.0538 203.81C50.0538 205.769 51.6408 207.358 53.5985 207.358ZM82.17 203.81C82.17 205.769 80.583 207.358 78.6253 207.358C76.6677 207.358 75.0807 205.769 75.0807 203.81C75.0807 201.851 76.6677 200.263 78.6253 200.263C80.583 200.263 82.17 201.851 82.17 203.81ZM107.197 203.81C107.197 205.781 105.621 207.358 103.652 207.358C101.683 207.358 100.108 205.781 100.108 203.81C100.108 201.839 101.683 200.263 103.652 200.263C105.621 200.263 107.197 201.839 107.197 203.81ZM132.224 203.81C132.224 205.769 130.637 207.358 128.679 207.358C126.722 207.358 125.135 205.769 125.135 203.81C125.135 201.851 126.722 200.263 128.679 200.263C130.637 200.263 132.224 201.851 132.224 203.81ZM153.706 207.358C155.664 207.358 157.251 205.769 157.251 203.81C157.251 201.851 155.664 200.263 153.706 200.263C151.748 200.263 150.161 201.851 150.161 203.81C150.161 205.769 151.748 207.358 153.706 207.358ZM182.278 203.81C182.278 205.769 180.691 207.358 178.733 207.358C176.775 207.358 175.188 205.769 175.188 203.81C175.188 201.851 176.775 200.263 178.733 200.263C180.691 200.263 182.278 201.851 182.278 203.81ZM207.812 3.54755C207.812 5.51841 206.236 7.09511 204.267 7.09511C202.298 7.09511 200.722 5.51841 200.722 3.54755C200.722 1.57668 202.298 0 204.267 0C206.236 0 207.812 1.57668 207.812 3.54755ZM229.294 7.09511C231.263 7.09511 232.839 5.51841 232.839 3.54755C232.839 1.57668 231.263 0 229.294 0C227.325 0 225.749 1.57668 225.749 3.54755C225.749 5.51841 227.325 7.09511 229.294 7.09511ZM257.865 3.54755C257.865 5.51841 256.29 7.09511 254.321 7.09511C252.352 7.09511 250.776 5.51841 250.776 3.54755C250.776 1.57668 252.352 0 254.321 0C256.29 0 257.865 1.57668 257.865 3.54755ZM279.348 7.09511C281.317 7.09511 282.892 5.51841 282.892 3.54755C282.892 1.57668 281.317 0 279.348 0C277.378 0 275.803 1.57668 275.803 3.54755C275.803 5.51841 277.378 7.09511 279.348 7.09511ZM307.919 3.54755C307.919 5.51841 306.344 7.09511 304.375 7.09511C302.405 7.09511 300.83 5.51841 300.83 3.54755C300.83 1.57668 302.405 0 304.375 0C306.344 0 307.919 1.57668 307.919 3.54755ZM329.402 7.09511C331.371 7.09511 332.946 5.51841 332.946 3.54755C332.946 1.57668 331.371 0 329.402 0C327.432 0 325.857 1.57668 325.857 3.54755C325.857 5.51841 327.432 7.09511 329.402 7.09511ZM357.973 3.54755C357.973 5.51841 356.398 7.09511 354.428 7.09511C352.459 7.09511 350.884 5.51841 350.884 3.54755C350.884 1.57668 352.459 0 354.428 0C356.398 0 357.973 1.57668 357.973 3.54755ZM379.455 7.09511C381.425 7.09511 383 5.51841 383 3.54755C383 1.57668 381.425 0 379.455 0C377.486 0 375.911 1.57668 375.911 3.54755C375.911 5.51841 377.486 7.09511 379.455 7.09511ZM207.812 28.5804C207.812 30.5512 206.236 32.1279 204.267 32.1279C202.298 32.1279 200.722 30.5512 200.722 28.5804C200.722 26.6095 202.298 25.0328 204.267 25.0328C206.236 25.0328 207.812 26.6095 207.812 28.5804ZM229.294 32.1279C231.263 32.1279 232.839 30.5512 232.839 28.5804C232.839 26.6095 231.263 25.0328 229.294 25.0328C227.325 25.0328 225.749 26.6095 225.749 28.5804C225.749 30.5512 227.325 32.1279 229.294 32.1279ZM257.865 28.5804C257.865 30.5512 256.29 32.1279 254.321 32.1279C252.352 32.1279 250.776 30.5512 250.776 28.5804C250.776 26.6095 252.352 25.0328 254.321 25.0328C256.29 25.0328 257.865 26.6095 257.865 28.5804ZM279.348 32.1279C281.317 32.1279 282.892 30.5512 282.892 28.5804C282.892 26.6095 281.317 25.0328 279.348 25.0328C277.378 25.0328 275.803 26.6095 275.803 28.5804C275.803 30.5512 277.378 32.1279 279.348 32.1279ZM307.919 28.5804C307.919 30.5512 306.344 32.1279 304.375 32.1279C302.405 32.1279 300.83 30.5512 300.83 28.5804C300.83 26.6095 302.405 25.0328 304.375 25.0328C306.344 25.0328 307.919 26.6095 307.919 28.5804ZM329.402 32.1279C331.371 32.1279 332.946 30.5512 332.946 28.5804C332.946 26.6095 331.371 25.0328 329.402 25.0328C327.432 25.0328 325.857 26.6095 325.857 28.5804C325.857 30.5512 327.432 32.1279 329.402 32.1279ZM357.973 28.5804C357.973 30.5512 356.398 32.1279 354.428 32.1279C352.459 32.1279 350.884 30.5512 350.884 28.5804C350.884 26.6095 352.459 25.0328 354.428 25.0328C356.398 25.0328 357.973 26.6095 357.973 28.5804ZM379.455 32.1279C381.425 32.1279 383 30.5512 383 28.5804C383 26.6095 381.425 25.0328 379.455 25.0328C377.486 25.0328 375.911 26.6095 375.911 28.5804C375.911 30.5512 377.486 32.1279 379.455 32.1279ZM207.812 53.6132C207.812 55.5841 206.236 57.1607 204.267 57.1607C202.298 57.1607 200.722 55.5841 200.722 53.6132C200.722 51.6423 202.298 50.0656 204.267 50.0656C206.236 50.0656 207.812 51.6423 207.812 53.6132ZM229.294 57.1607C231.263 57.1607 232.839 55.5841 232.839 53.6132C232.839 51.6423 231.263 50.0656 229.294 50.0656C227.325 50.0656 225.749 51.6423 225.749 53.6132C225.749 55.5841 227.325 57.1607 229.294 57.1607ZM257.865 53.6132C257.865 55.5841 256.29 57.1607 254.321 57.1607C252.352 57.1607 250.776 55.5841 250.776 53.6132C250.776 51.6423 252.352 50.0656 254.321 50.0656C256.29 50.0656 257.865 51.6423 257.865 53.6132ZM279.348 57.1607C281.317 57.1607 282.892 55.5841 282.892 53.6132C282.892 51.6423 281.317 50.0656 279.348 50.0656C277.378 50.0656 275.803 51.6423 275.803 53.6132C275.803 55.5841 277.378 57.1607 279.348 57.1607ZM307.919 53.6132C307.919 55.5841 306.344 57.1607 304.375 57.1607C302.405 57.1607 300.83 55.5841 300.83 53.6132C300.83 51.6423 302.405 50.0656 304.375 50.0656C306.344 50.0656 307.919 51.6423 307.919 53.6132ZM329.402 57.1607C331.371 57.1607 332.946 55.5841 332.946 53.6132C332.946 51.6423 331.371 50.0656 329.402 50.0656C327.432 50.0656 325.857 51.6423 325.857 53.6132C325.857 55.5841 327.432 57.1607 329.402 57.1607ZM357.973 53.6132C357.973 55.5841 356.398 57.1607 354.428 57.1607C352.459 57.1607 350.884 55.5841 350.884 53.6132C350.884 51.6423 352.459 50.0656 354.428 50.0656C356.398 50.0656 357.973 51.6423 357.973 53.6132ZM379.455 57.1607C381.425 57.1607 383 55.5841 383 53.6132C383 51.6423 381.425 50.0656 379.455 50.0656C377.486 50.0656 375.911 51.6423 375.911 53.6132C375.911 55.5841 377.486 57.1607 379.455 57.1607ZM207.812 78.646C207.812 80.6169 206.236 82.1936 204.267 82.1936C202.298 82.1936 200.722 80.6169 200.722 78.646C200.722 76.6751 202.298 75.0984 204.267 75.0984C206.236 75.0984 207.812 76.6751 207.812 78.646ZM229.294 82.1936C231.263 82.1936 232.839 80.6169 232.839 78.646C232.839 76.6751 231.263 75.0984 229.294 75.0984C227.325 75.0984 225.749 76.6751 225.749 78.646C225.749 80.6169 227.325 82.1936 229.294 82.1936ZM257.865 78.646C257.865 80.6169 256.29 82.1936 254.321 82.1936C252.352 82.1936 250.776 80.6169 250.776 78.646C250.776 76.6751 252.352 75.0984 254.321 75.0984C256.29 75.0984 257.865 76.6751 257.865 78.646ZM279.348 82.1936C281.317 82.1936 282.892 80.6169 282.892 78.646C282.892 76.6751 281.317 75.0984 279.348 75.0984C277.378 75.0984 275.803 76.6751 275.803 78.646C275.803 80.6169 277.378 82.1936 279.348 82.1936ZM307.919 78.646C307.919 80.6169 306.344 82.1936 304.375 82.1936C302.405 82.1936 300.83 80.6169 300.83 78.646C300.83 76.6751 302.405 75.0984 304.375 75.0984C306.344 75.0984 307.919 76.6751 307.919 78.646ZM329.402 82.1936C331.371 82.1936 332.946 80.6169 332.946 78.646C332.946 76.6751 331.371 75.0984 329.402 75.0984C327.432 75.0984 325.857 76.6751 325.857 78.646C325.857 80.6169 327.432 82.1936 329.402 82.1936ZM357.973 78.646C357.973 80.6169 356.398 82.1936 354.428 82.1936C352.459 82.1936 350.884 80.6169 350.884 78.646C350.884 76.6751 352.459 75.0984 354.428 75.0984C356.398 75.0984 357.973 76.6751 357.973 78.646ZM379.455 82.1936C381.425 82.1936 383 80.6169 383 78.646C383 76.6751 381.425 75.0984 379.455 75.0984C377.486 75.0984 375.911 76.6751 375.911 78.646C375.911 80.6169 377.486 82.1936 379.455 82.1936ZM204.267 107.226C206.225 107.226 207.812 105.638 207.812 103.679C207.812 101.72 206.225 100.131 204.267 100.131C202.309 100.131 200.722 101.72 200.722 103.679C200.722 105.638 202.309 107.226 204.267 107.226ZM232.839 103.679C232.839 105.638 231.252 107.226 229.294 107.226C227.336 107.226 225.749 105.638 225.749 103.679C225.749 101.72 227.336 100.131 229.294 100.131C231.252 100.131 232.839 101.72 232.839 103.679ZM254.321 107.226C256.279 107.226 257.865 105.638 257.865 103.679C257.865 101.72 256.279 100.131 254.321 100.131C252.363 100.131 250.776 101.72 250.776 103.679C250.776 105.638 252.363 107.226 254.321 107.226ZM282.892 103.679C282.892 105.638 281.305 107.226 279.348 107.226C277.39 107.226 275.803 105.638 275.803 103.679C275.803 101.72 277.39 100.131 279.348 100.131C281.305 100.131 282.892 101.72 282.892 103.679ZM307.919 103.679C307.919 105.65 306.344 107.226 304.375 107.226C302.405 107.226 300.83 105.65 300.83 103.679C300.83 101.708 302.405 100.131 304.375 100.131C306.344 100.131 307.919 101.708 307.919 103.679ZM332.946 103.679C332.946 105.638 331.359 107.226 329.402 107.226C327.444 107.226 325.857 105.638 325.857 103.679C325.857 101.72 327.444 100.131 329.402 100.131C331.359 100.131 332.946 101.72 332.946 103.679ZM354.428 107.226C356.386 107.226 357.973 105.638 357.973 103.679C357.973 101.72 356.386 100.131 354.428 100.131C352.471 100.131 350.884 101.72 350.884 103.679C350.884 105.638 352.471 107.226 354.428 107.226ZM383 103.679C383 105.638 381.413 107.226 379.455 107.226C377.498 107.226 375.911 105.638 375.911 103.679C375.911 101.72 377.498 100.131 379.455 100.131C381.413 100.131 383 101.72 383 103.679ZM204.267 132.259C206.225 132.259 207.812 130.671 207.812 128.712C207.812 126.752 206.225 125.164 204.267 125.164C202.309 125.164 200.722 126.752 200.722 128.712C200.722 130.671 202.309 132.259 204.267 132.259ZM232.839 128.712C232.839 130.671 231.252 132.259 229.294 132.259C227.336 132.259 225.749 130.671 225.749 128.712C225.749 126.752 227.336 125.164 229.294 125.164C231.252 125.164 232.839 126.752 232.839 128.712ZM254.321 132.259C256.279 132.259 257.865 130.671 257.865 128.712C257.865 126.752 256.279 125.164 254.321 125.164C252.363 125.164 250.776 126.752 250.776 128.712C250.776 130.671 252.363 132.259 254.321 132.259ZM282.892 128.712C282.892 130.671 281.305 132.259 279.348 132.259C277.39 132.259 275.803 130.671 275.803 128.712C275.803 126.752 277.39 125.164 279.348 125.164C281.305 125.164 282.892 126.752 282.892 128.712ZM307.919 128.712C307.919 130.682 306.344 132.259 304.375 132.259C302.405 132.259 300.83 130.682 300.83 128.712C300.83 126.741 302.405 125.164 304.375 125.164C306.344 125.164 307.919 126.741 307.919 128.712ZM332.946 128.712C332.946 130.671 331.359 132.259 329.402 132.259C327.444 132.259 325.857 130.671 325.857 128.712C325.857 126.752 327.444 125.164 329.402 125.164C331.359 125.164 332.946 126.752 332.946 128.712ZM354.428 132.259C356.386 132.259 357.973 130.671 357.973 128.712C357.973 126.752 356.386 125.164 354.428 125.164C352.471 125.164 350.884 126.752 350.884 128.712C350.884 130.671 352.471 132.259 354.428 132.259ZM383 128.712C383 130.671 381.413 132.259 379.455 132.259C377.498 132.259 375.911 130.671 375.911 128.712C375.911 126.752 377.498 125.164 379.455 125.164C381.413 125.164 383 126.752 383 128.712ZM204.267 157.292C206.225 157.292 207.812 155.704 207.812 153.744C207.812 151.785 206.225 150.197 204.267 150.197C202.309 150.197 200.722 151.785 200.722 153.744C200.722 155.704 202.309 157.292 204.267 157.292ZM232.839 153.744C232.839 155.704 231.252 157.292 229.294 157.292C227.336 157.292 225.749 155.704 225.749 153.744C225.749 151.785 227.336 150.197 229.294 150.197C231.252 150.197 232.839 151.785 232.839 153.744ZM254.321 157.292C256.279 157.292 257.865 155.704 257.865 153.744C257.865 151.785 256.279 150.197 254.321 150.197C252.363 150.197 250.776 151.785 250.776 153.744C250.776 155.704 252.363 157.292 254.321 157.292ZM282.892 153.744C282.892 155.704 281.305 157.292 279.348 157.292C277.39 157.292 275.803 155.704 275.803 153.744C275.803 151.785 277.39 150.197 279.348 150.197C281.305 150.197 282.892 151.785 282.892 153.744ZM307.919 153.744C307.919 155.715 306.344 157.292 304.375 157.292C302.405 157.292 300.83 155.715 300.83 153.744C300.83 151.774 302.405 150.197 304.375 150.197C306.344 150.197 307.919 151.774 307.919 153.744ZM332.946 153.744C332.946 155.704 331.359 157.292 329.402 157.292C327.444 157.292 325.857 155.704 325.857 153.744C325.857 151.785 327.444 150.197 329.402 150.197C331.359 150.197 332.946 151.785 332.946 153.744ZM354.428 157.292C356.386 157.292 357.973 155.704 357.973 153.744C357.973 151.785 356.386 150.197 354.428 150.197C352.471 150.197 350.884 151.785 350.884 153.744C350.884 155.704 352.471 157.292 354.428 157.292ZM383 153.744C383 155.704 381.413 157.292 379.455 157.292C377.498 157.292 375.911 155.704 375.911 153.744C375.911 151.785 377.498 150.197 379.455 150.197C381.413 150.197 383 151.785 383 153.744ZM204.267 182.325C206.225 182.325 207.812 180.737 207.812 178.777C207.812 176.818 206.225 175.23 204.267 175.23C202.309 175.23 200.722 176.818 200.722 178.777C200.722 180.737 202.309 182.325 204.267 182.325ZM232.839 178.777C232.839 180.737 231.252 182.325 229.294 182.325C227.336 182.325 225.749 180.737 225.749 178.777C225.749 176.818 227.336 175.23 229.294 175.23C231.252 175.23 232.839 176.818 232.839 178.777ZM254.321 182.325C256.279 182.325 257.865 180.737 257.865 178.777C257.865 176.818 256.279 175.23 254.321 175.23C252.363 175.23 250.776 176.818 250.776 178.777C250.776 180.737 252.363 182.325 254.321 182.325ZM282.892 178.777C282.892 180.737 281.305 182.325 279.348 182.325C277.39 182.325 275.803 180.737 275.803 178.777C275.803 176.818 277.39 175.23 279.348 175.23C281.305 175.23 282.892 176.818 282.892 178.777ZM307.919 178.777C307.919 180.748 306.344 182.325 304.375 182.325C302.405 182.325 300.83 180.748 300.83 178.777C300.83 176.806 302.405 175.23 304.375 175.23C306.344 175.23 307.919 176.806 307.919 178.777ZM332.946 178.777C332.946 180.737 331.359 182.325 329.402 182.325C327.444 182.325 325.857 180.737 325.857 178.777C325.857 176.818 327.444 175.23 329.402 175.23C331.359 175.23 332.946 176.818 332.946 178.777ZM354.428 182.325C356.386 182.325 357.973 180.737 357.973 178.777C357.973 176.818 356.386 175.23 354.428 175.23C352.471 175.23 350.884 176.818 350.884 178.777C350.884 180.737 352.471 182.325 354.428 182.325ZM383 178.777C383 180.737 381.413 182.325 379.455 182.325C377.498 182.325 375.911 180.737 375.911 178.777C375.911 176.818 377.498 175.23 379.455 175.23C381.413 175.23 383 176.818 383 178.777ZM204.267 207.358C206.225 207.358 207.812 205.769 207.812 203.81C207.812 201.851 206.225 200.263 204.267 200.263C202.309 200.263 200.722 201.851 200.722 203.81C200.722 205.769 202.309 207.358 204.267 207.358ZM232.839 203.81C232.839 205.769 231.252 207.358 229.294 207.358C227.336 207.358 225.749 205.769 225.749 203.81C225.749 201.851 227.336 200.263 229.294 200.263C231.252 200.263 232.839 201.851 232.839 203.81ZM254.321 207.358C256.279 207.358 257.865 205.769 257.865 203.81C257.865 201.851 256.279 200.263 254.321 200.263C252.363 200.263 250.776 201.851 250.776 203.81C250.776 205.769 252.363 207.358 254.321 207.358ZM282.892 203.81C282.892 205.769 281.305 207.358 279.348 207.358C277.39 207.358 275.803 205.769 275.803 203.81C275.803 201.851 277.39 200.263 279.348 200.263C281.305 200.263 282.892 201.851 282.892 203.81ZM307.919 203.81C307.919 205.781 306.344 207.358 304.375 207.358C302.405 207.358 300.83 205.781 300.83 203.81C300.83 201.839 302.405 200.263 304.375 200.263C306.344 200.263 307.919 201.839 307.919 203.81ZM332.946 203.81C332.946 205.769 331.359 207.358 329.402 207.358C327.444 207.358 325.857 205.769 325.857 203.81C325.857 201.851 327.444 200.263 329.402 200.263C331.359 200.263 332.946 201.851 332.946 203.81ZM354.428 207.358C356.386 207.358 357.973 205.769 357.973 203.81C357.973 201.851 356.386 200.263 354.428 200.263C352.471 200.263 350.884 201.851 350.884 203.81C350.884 205.769 352.471 207.358 354.428 207.358ZM383 203.81C383 205.769 381.413 207.358 379.455 207.358C377.498 207.358 375.911 205.769 375.911 203.81C375.911 201.851 377.498 200.263 379.455 200.263C381.413 200.263 383 201.851 383 203.81Z" fill="#FFFFFF"/>
</svg>
