<svg width="800" height="800" viewBox="0 0 800 800" fill="none" xmlns="http://www.w3.org/2000/svg">
<rect x="163.615" y="323.769" width="17.5368" height="104.463" rx="8.7684" transform="rotate(-30 163.615 323.769)" fill="white"/>
<rect width="17.5368" height="66.5466" rx="8.7684" transform="matrix(-0.866025 -0.5 -0.5 0.866025 274.914 325.229)" fill="white"/>
<rect x="215.994" y="391.029" width="17.5368" height="98.91" rx="8.7684" transform="rotate(30 215.994 391.029)" fill="white"/>
<rect width="17.5368" height="61.404" rx="8.7684" transform="matrix(-0.866025 0.5 0.5 0.866025 241.641 423.145)" fill="white"/>
<rect x="130" y="411.451" width="17.5368" height="95.875" rx="8.7684" transform="rotate(-90 130 411.451)" fill="white"/>
<rect width="17.5368" height="67.7573" rx="8.7684" transform="matrix(4.37114e-08 -1 -1 -4.37114e-08 304.445 411.451)" fill="white"/>
<path d="M444.258 427.027C444.258 400.173 425.227 381.143 397.95 381.143C388.435 381.143 377.863 384.737 371.942 390.447L380.612 350.06H442.778V325.743H359.255L341.071 415.609H366.868C373 408.843 382.303 405.459 390.127 405.459H392.241C405.774 405.459 416.135 413.706 416.135 428.084C416.135 442.463 405.774 451.555 392.241 451.555H390.127C376.806 451.555 366.656 444.366 364.119 432.525H335.996C338.956 457.899 360.736 475.872 390.973 475.872C423.324 475.872 444.258 455.996 444.258 427.027ZM534.282 419.415V325.743H506.582L435.958 416.032V443.732H507.428V473.757H534.282V443.732H556.484V419.415H534.282ZM463.235 419.415L507.428 363.381V419.415H463.235ZM548.626 399.75C548.626 445.423 570.193 475.872 608.888 475.872C647.583 475.872 669.151 445.423 669.151 399.75C669.151 354.077 646.526 323.629 608.888 323.629C571.251 323.629 548.626 354.077 548.626 399.75ZM607.831 451.555C586.052 451.555 576.748 431.679 576.748 399.75C576.748 367.822 586.052 347.945 607.831 347.945H609.946C631.725 347.945 641.029 367.822 641.029 399.75C641.029 431.679 631.725 451.555 609.946 451.555H607.831Z" fill="white"/>
</svg>
