<?xml version="1.0" encoding="UTF-8"?>
<svg width="800px" height="172px" viewBox="0 0 800 172" version="1.1" xmlns="http://www.w3.org/2000/svg" xmlns:xlink="http://www.w3.org/1999/xlink">
    <!-- Generator: Sketch 58 (84663) - https://sketch.com -->
    <title>localistico logo white</title>
    <desc>Created with Sketch.</desc>
    <g id="localistico-logo-white" stroke="none" stroke-width="1" fill="none" fill-rule="evenodd">
        <path d="M229.052,32 L229.052,115.181854 C229.052,115.971192 229.150666,116.729995 229.348,117.766 C229.545334,118.802005 229.890664,119.763996 230.384,120.652 C230.877336,121.540004 231.617328,122.304663 232.604,122.946 C233.590672,123.587337 234.823993,123.908 236.304,123.908 C238.178676,123.908 240.225989,123.242007 242.446,121.91 C244.141701,120.892579 245.592734,119.026094 246.799123,116.310507 C245.943032,112.728978 245.516,109.095202 245.516,105.408 C245.516,101.461314 246.107994,97.4160207 247.292,93.272 C248.476006,89.1279793 250.350654,85.354017 252.916,81.95 C255.481346,78.545983 258.811313,75.7586775 262.906,73.588 C267.000687,71.4173225 271.958638,70.332 277.78,70.332 C283.70003,70.332 288.731979,71.3679896 292.876,73.44 C297.020021,75.5120104 300.349987,78.2253166 302.866,81.58 C304.731133,84.0668445 306.216705,86.7705417 307.322738,89.6911375 L307.329038,89.6793545 C308.115952,92.0685876 315.500003,94.1609847 321.462081,87.0669837 C321.77076,86.5202597 322.096668,85.9741307 322.438,85.428 C324.164675,82.6653195 326.433986,80.1740111 329.246,77.954 C332.058014,75.7339889 335.535979,73.9333402 339.68,72.552 C343.824021,71.1706598 348.757305,70.48 354.48,70.48 C356.453343,70.48 358.303325,70.6033321 360.03,70.85 C361.756675,71.0966679 363.31066,71.3679985 364.692,71.664 C366.270675,72.0586686 367.75066,72.4039985 369.132,72.7 L369.132,95.196 L355.664,95.196 L355.664,85.132 L354.332,84.688 C353.838664,84.5893328 353.296003,84.4906672 352.704,84.392 C352.111997,84.2933328 351.421337,84.244 350.632,84.244 C348.55999,84.244 346.463344,84.6386627 344.342,85.428 C342.220656,86.2173373 340.296675,87.549324 338.57,89.424 C336.843325,91.298676 335.412672,93.7159852 334.278,96.676 C333.143328,99.6360148 332.576,103.237312 332.576,107.48 C332.576,110.24268 332.970663,112.832655 333.76,115.25 C334.549337,117.667345 335.782658,119.763991 337.46,121.54 C339.137342,123.316009 341.28332,124.721995 343.898,125.758 C346.51268,126.794005 349.645315,127.312 353.296,127.312 C359.018695,127.312 364.247976,126.078679 368.984,123.612 C372.866248,121.589996 376.019163,118.606685 378.442805,114.662003 C378.277953,112.925953 378.196,111.519078 378.196,110.44 C378.196,105.703976 378.861993,100.943357 380.194,96.158 C381.526007,91.3726427 383.770651,87.0806857 386.928,83.282 C390.085349,79.4833143 394.253974,76.3753454 399.434,73.958 C404.614026,71.5406546 411.002629,70.332 418.6,70.332 C420.869345,70.332 423.187988,70.4799985 425.556,70.776 C427.924012,71.0720015 430.06999,71.3926649 431.994,71.738 C433.91801,72.0833351 435.496661,72.4039985 436.73,72.7 L438.58,73.144 L438.58,115.324 C438.58,116.113337 438.678666,117.025995 438.876,118.062 C439.073334,119.098005 439.418664,120.059996 439.912,120.948 C440.405336,121.836004 441.145328,122.600663 442.132,123.242 C443.118672,123.883337 444.351993,124.204 445.832,124.204 C447.706676,124.204 449.753989,123.51334 451.974,122.132 C453.488478,121.189658 454.80779,119.581516 455.931952,117.307548 L455.932,45.32 L449.716,45.32 L449.716,32 L471.768,32 L471.768,115.028 C471.768,115.817337 471.866666,116.729995 472.064,117.766 C472.261334,118.802005 472.606664,119.763996 473.1,120.652 C473.593336,121.540004 474.333328,122.304663 475.32,122.946 C476.306672,123.587337 477.539993,123.908 479.02,123.908 C480.894676,123.908 482.941989,123.242007 485.162,121.91 C486.811369,120.920378 488.229258,119.127457 489.415687,116.531202 L489.416,86.316 L483.052,86.316 L483.052,72.996 L505.252,72.996 L505.252,115.176 C505.252,115.965337 505.325999,116.877995 505.474,117.914 C505.622001,118.950005 505.967331,119.911996 506.51,120.8 C507.052669,121.688004 507.792662,122.452663 508.73,123.094 C509.667338,123.735337 510.925325,124.056 512.504,124.056 C513.392004,124.056 514.378661,123.908001 515.464,123.612 C516.549339,123.315999 517.609995,122.798004 518.646,122.058 C519.682005,121.317996 520.668662,120.25734 521.606,118.876 C521.848619,118.518456 522.082974,118.137777 522.309066,117.733963 L522.308,111.032 L536.368,111.032 L536.368,126.424 C536.960003,126.621334 537.650663,126.818666 538.44,127.016 C539.13067,127.213334 539.993995,127.361333 541.03,127.46 C542.066005,127.558667 543.27466,127.608 544.656,127.608 C548.010683,127.608 550.674657,127.336669 552.648,126.794 C554.621343,126.251331 556.125995,125.536004 557.162,124.648 C558.198005,123.759996 558.863999,122.798005 559.16,121.762 C559.456001,120.725995 559.604,119.665339 559.604,118.58 C559.604,116.211988 558.716009,114.411339 556.94,113.178 C555.163991,111.94466 552.96868,110.958004 550.354,110.218 C547.73932,109.477996 544.902682,108.787337 541.844,108.146 C538.785318,107.504663 535.94868,106.542673 533.334,105.26 C530.71932,103.977327 528.524009,102.226011 526.748,100.006 C524.971991,97.7859889 524.084,94.7026864 524.084,90.756 C524.084,90.3613314 524.256665,89.1280104 524.602,87.056 C524.947335,84.9839896 526.032658,82.7640118 527.858,80.396 C529.683342,78.0279882 532.569314,75.906676 536.516,74.032 C540.462686,72.157324 545.987964,71.22 553.092,71.22 C556.150682,71.22 558.814655,71.2939993 561.084,71.442 C562.325119,71.5229426 563.448182,71.6112624 564.453198,71.7069603 L580.36,72.996 L580.36,55.68 L596.196,46.208 L596.196,72.996 L604.04,72.996 L604.04,86.316 L596.196,86.316 L596.196,116.508 C596.196,118.58001 596.861993,120.57799 598.194,122.502 C599.526007,124.42601 601.770651,125.388 604.928,125.388 C606.112006,125.388 607.369993,125.215335 608.702,124.87 C610.034007,124.524665 611.365993,123.957337 612.698,123.168 C614.030007,122.378663 615.263328,121.268674 616.398,119.838 C616.988237,119.093788 617.518399,118.262814 617.98849,117.345069 L617.988,86.316 L611.624,86.316 L611.624,72.996 L633.824,72.996 L633.824,115.176 C633.824,115.965337 633.897999,116.877995 634.046,117.914 C634.194001,118.950005 634.539331,119.911996 635.082,120.8 C635.624669,121.688004 636.364662,122.452663 637.302,123.094 C638.239338,123.735337 639.497325,124.056 641.076,124.056 C641.964004,124.056 642.950661,123.908001 644.036,123.612 C645.121339,123.315999 646.181995,122.798004 647.218,122.058 C648.254005,121.317996 649.240662,120.25734 650.178,118.876 C650.684924,118.128954 651.155772,117.280913 651.590548,116.331868 C650.918887,113.227899 650.584,110.426148 650.584,107.924 C650.584,106.246658 650.731999,104.150013 651.028,101.634 C651.324001,99.1179874 651.940662,96.4786805 652.878,93.716 C653.815338,90.9533195 655.147325,88.1906805 656.874,85.428 C658.600675,82.6653195 660.869986,80.1740111 663.682,77.954 C666.494014,75.7339889 669.971979,73.9333402 674.116,72.552 C678.260021,71.1706598 683.193305,70.48 688.916,70.48 C690.889343,70.48 692.739325,70.6033321 694.466,70.85 C696.192675,71.0966679 697.74666,71.3679985 699.128,71.664 C700.706675,72.0586686 702.18666,72.4039985 703.568,72.7 L703.568,95.196 L690.1,95.196 L690.1,85.132 L688.768,84.688 C688.274664,84.5893328 687.732003,84.4906672 687.14,84.392 C686.547997,84.2933328 685.857337,84.244 685.068,84.244 C682.99599,84.244 680.899344,84.6386627 678.778,85.428 C676.656656,86.2173373 674.732675,87.549324 673.006,89.424 C671.279325,91.298676 669.848672,93.7159852 668.714,96.676 C667.579328,99.6360148 667.012,103.237312 667.012,107.48 C667.012,110.24268 667.406663,112.832655 668.196,115.25 C668.985337,117.667345 670.218658,119.763991 671.896,121.54 C673.573342,123.316009 675.71932,124.721995 678.334,125.758 C680.94868,126.794005 684.081315,127.312 687.732,127.312 C693.454695,127.312 698.683976,126.078679 703.42,123.612 C707.3355,121.572677 710.509119,118.55551 712.94092,114.560434 C712.339494,111.546299 712.04,108.495884 712.04,105.408 C712.04,101.461314 712.631994,97.4160207 713.816,93.272 C715.000006,89.1279793 716.874654,85.354017 719.44,81.95 C722.005346,78.545983 725.335313,75.7586775 729.43,73.588 C733.524687,71.4173225 738.482638,70.332 744.304,70.332 C750.22403,70.332 755.255979,71.3679896 759.4,73.44 C763.544021,75.5120104 766.873987,78.2253166 769.39,81.58 C771.906013,84.9346834 773.731328,88.6839793 774.866,92.828 C776.000672,96.9720207 776.568,101.165312 776.568,105.408 C776.568,109.453354 775.976006,113.547979 774.792,117.692 C773.607994,121.836021 771.733346,125.585317 769.168,128.94 C766.602654,132.294683 763.272687,135.057322 759.178,137.228 C755.083313,139.398678 750.125362,140.484 744.304,140.484 C738.482638,140.484 733.524687,139.472677 729.43,137.45 C725.335313,135.427323 722.005346,132.76335 719.44,129.458 C718.991188,128.879723 718.563517,128.287858 718.156987,127.682403 C717.039673,129.234429 715.480938,130.813318 713.484,132.418 C710.72132,134.638011 707.046023,136.586658 702.458,138.264 C697.869977,139.941342 692.122701,140.78 685.216,140.78 C678.111964,140.78 672.290689,139.620678 667.752,137.302 C663.227798,134.990723 659.708541,132.164787 657.194124,128.824109 C656.367812,130.218826 655.237314,131.614405 653.804,133.01 C651.929324,134.835342 649.561348,136.43866 646.7,137.82 C643.838652,139.20134 640.434686,139.892 636.488,139.892 C633.626652,139.892 631.036678,139.398672 628.718,138.412 C626.399322,137.425328 624.450675,136.093342 622.872,134.416 C622.39857,133.91298 621.958417,133.387779 621.551541,132.840396 C621.234539,133.167628 620.897535,133.495814 620.542,133.824 C618.61799,135.600009 616.00335,137.153993 612.698,138.486 C609.39265,139.818007 605.322691,140.484 600.488,140.484 C593.8773,140.484 588.870017,138.683351 585.466,135.082 C582.061983,131.480649 580.36,126.917361 580.36,121.392 L580.36,86.316 L568.818494,84.8615153 C567.866863,84.7615479 566.951596,84.6544295 566.267834,84.5406386 L566.264,84.54 C564.685325,84.3426657 562.786011,84.1453343 560.566,83.948 C558.345989,83.7506657 555.904013,83.652 553.24,83.652 C552.351996,83.652 551.168007,83.6766664 549.688,83.726 C548.207993,83.7753336 546.752674,84.0219978 545.322,84.466 C543.891326,84.9100022 542.633339,85.5759956 541.548,86.464 C540.462661,87.3520044 539.92,88.6346583 539.92,90.312 C539.92,92.186676 540.807991,93.5679956 542.584,94.456 C544.360009,95.3440044 546.579987,96.1086635 549.244,96.75 C551.908013,97.3913365 554.769318,98.0573299 557.828,98.748 C560.886682,99.4386701 563.747987,100.499326 566.412,101.93 C569.076013,103.360674 571.295991,105.333987 573.072,107.85 C574.848009,110.366013 575.736,113.745312 575.736,117.988 C575.736,119.665342 575.415337,121.786654 574.774,124.352 C574.132663,126.917346 572.751344,129.383988 570.63,131.752 C568.508656,134.120012 565.425354,136.167325 561.38,137.894 C557.334646,139.620675 551.858701,140.484 544.952,140.484 C540.511978,140.484 536.836681,140.336001 533.926,140.04 C531.015319,139.743999 528.721342,139.398669 527.044,139.004 C525.070657,138.609331 523.492006,138.116003 522.308,137.524 L522.308491,135.404239 C521.057083,136.27343 519.66359,137.078681 518.128,137.82 C515.266652,139.20134 511.862686,139.892 507.916,139.892 C505.054652,139.892 502.464678,139.398672 500.146,138.412 C497.827322,137.425328 495.878675,136.093342 494.3,134.416 C493.633549,133.707895 493.033041,132.955835 492.498476,132.159815 C492.281977,132.393913 492.056044,132.627956 491.822,132.862 C489.996658,134.687342 487.653348,136.29066 484.792,137.672 C481.930652,139.05334 478.526686,139.744 474.58,139.744 C471.718652,139.744 469.128678,139.250672 466.81,138.264 C464.491322,137.277328 462.518008,135.945342 460.89,134.268 C460.299579,133.659687 459.761069,133.018935 459.274469,132.345741 C459.069493,132.567251 458.855375,132.788625 458.634,133.01 C456.808658,134.835342 454.465348,136.43866 451.604,137.82 C448.742652,139.20134 445.338686,139.892 441.392,139.892 C437.346646,139.892 433.967347,138.954676 431.254,137.08 C428.540653,135.205324 426.690672,132.738682 425.704,129.68 C425.605333,129.285331 425.506667,129.088 425.408,129.088 L424.964,129.532 C422.89199,133.182685 419.907353,135.994657 416.01,137.968 C412.112647,139.941343 407.944022,140.928 403.504,140.928 C399.655981,140.928 396.35068,140.336006 393.588,139.152 C390.82532,137.967994 388.506676,136.463342 386.632,134.638 C384.953627,133.003794 383.591613,131.1719 382.545928,129.142271 C381.58878,130.221779 380.422137,131.313783 379.048,132.418 C376.28532,134.638011 372.610023,136.586658 368.022,138.264 C363.433977,139.941342 357.686701,140.78 350.78,140.78 C343.675964,140.78 337.854689,139.620678 333.316,137.302 C328.777311,134.983322 325.250013,132.146683 322.734,128.792 C320.217987,125.437317 318.491338,121.860686 317.554,118.062 C316.616662,114.263314 316.148,110.884015 316.148,107.924 C316.148,106.55221 316.24699,104.899965 316.444971,102.967233 L316.632871,102.888949 C314.568539,103.784837 311.96119,104.152328 310.024791,104.164746 C310.038569,104.578237 310.044,104.992882 310.044,105.408 C310.044,109.453354 309.452006,113.547979 308.268,117.692 C307.083994,121.836021 305.209346,125.585317 302.644,128.94 C300.078654,132.294683 296.748687,135.057322 292.654,137.228 C288.559313,139.398678 283.601362,140.484 277.78,140.484 C271.958638,140.484 267.000687,139.472677 262.906,137.45 C258.811313,135.427323 255.481346,132.76335 252.916,129.458 C252.734394,129.224007 252.556249,128.98779 252.381566,128.749348 C251.570089,130.119501 250.477257,131.490743 249.106,132.862 C247.280658,134.687342 244.937348,136.29066 242.076,137.672 C239.214652,139.05334 235.810686,139.744 231.864,139.744 C229.002652,139.744 226.412678,139.250672 224.094,138.264 C221.775322,137.277328 219.802008,135.945342 218.174,134.268 C216.545992,132.590658 215.312671,130.666678 214.474,128.496 C213.635329,126.325322 213.216,124.006679 213.216,121.54 L213.216,45.32 L207,45.32 L207,32 L229.052,32 Z M744.304,83.8 C741.245318,83.8 738.704677,84.4906598 736.682,85.872 C734.659323,87.2533402 733.056006,89.0046561 731.872,91.126 C730.687994,93.2473439 729.849336,95.5906538 729.356,98.156 C728.862664,100.721346 728.616,103.138655 728.616,105.408 C728.616,107.776012 728.862664,110.217987 729.356,112.734 C729.849336,115.250013 730.687994,117.593322 731.872,119.764 C733.056006,121.934678 734.659323,123.71066 736.682,125.092 C738.704677,126.47334 741.245318,127.164 744.304,127.164 C747.264015,127.164 749.755323,126.47334 751.778,125.092 C753.800677,123.71066 755.403994,121.934678 756.588,119.764 C757.772006,117.593322 758.610664,115.250013 759.104,112.734 C759.597336,110.217987 759.844,107.776012 759.844,105.408 C759.844,103.138655 759.597336,100.721346 759.104,98.156 C758.610664,95.5906538 757.772006,93.2473439 756.588,91.126 C755.403994,89.0046561 753.800677,87.2533402 751.778,85.872 C749.755323,84.4906598 747.264015,83.8 744.304,83.8 Z M277.78,83.8 C274.721318,83.8 272.180677,84.4906598 270.158,85.872 C268.135323,87.2533402 266.532006,89.0046561 265.348,91.126 C264.163994,93.2473439 263.325336,95.5906538 262.832,98.156 C262.338664,100.721346 262.092,103.138655 262.092,105.408 C262.092,107.776012 262.338664,110.217987 262.832,112.734 C263.325336,115.250013 264.163994,117.593322 265.348,119.764 C266.532006,121.934678 268.135323,123.71066 270.158,125.092 C272.180677,126.47334 274.721318,127.164 277.78,127.164 C280.740015,127.164 283.231323,126.47334 285.254,125.092 C287.276677,123.71066 288.879994,121.934678 290.064,119.764 C291.248006,117.593322 292.086664,115.250013 292.58,112.734 C293.073336,110.217987 293.32,107.776012 293.32,105.408 C293.32,103.138655 293.073336,100.721346 292.58,98.156 C292.086664,95.5906538 291.248006,93.2473439 290.064,91.126 C288.879994,89.0046561 287.276677,87.2533402 285.254,85.872 C283.231323,84.4906598 280.740015,83.8 277.78,83.8 Z M415.492,83.8 C413.715991,83.8 411.619345,84.1946627 409.202,84.984 C406.784655,85.7733373 404.515344,87.0806575 402.394,88.906 C400.272656,90.7313425 398.472007,93.2226509 396.992,96.38 C395.511993,99.5373491 394.772,103.483976 394.772,108.22 C394.772,109.206672 394.845999,110.637324 394.994,112.512 C395.142001,114.386676 395.610663,116.261324 396.4,118.136 C397.189337,120.010676 398.422658,121.63866 400.1,123.02 C401.777342,124.40134 404.145318,125.092 407.204,125.092 C409.670679,125.092 411.890657,124.598672 413.864,123.612 C415.837343,122.625328 417.489993,121.342675 418.822,119.764 C420.154007,118.185325 421.16533,116.43401 421.856,114.51 C422.54667,112.58599 422.892,110.686676 422.892,108.812 L422.892,84.688 L421.116,84.244 C420.523997,84.1453328 419.784004,84.0466672 418.896,83.948 C418.007996,83.8493328 416.87334,83.8 415.492,83.8 Z M496.816,40.436 C499.480013,40.436 501.77399,41.3979904 503.698,43.322 C505.62201,45.2460096 506.584,47.5399867 506.584,50.204 C506.584,52.9666805 505.62201,55.3099904 503.698,57.234 C501.77399,59.1580096 499.480013,60.12 496.816,60.12 C494.05332,60.12 491.734676,59.1580096 489.86,57.234 C487.985324,55.3099904 487.048,52.9666805 487.048,50.204 C487.048,47.5399867 487.985324,45.2460096 489.86,43.322 C491.734676,41.3979904 494.05332,40.436 496.816,40.436 Z M625.388,40.436 C628.052013,40.436 630.34599,41.3979904 632.27,43.322 C634.19401,45.2460096 635.156,47.5399867 635.156,50.204 C635.156,52.9666805 634.19401,55.3099904 632.27,57.234 C630.34599,59.1580096 628.052013,60.12 625.388,60.12 C622.62532,60.12 620.306676,59.1580096 618.432,57.234 C616.557324,55.3099904 615.62,52.9666805 615.62,50.204 C615.62,47.5399867 616.557324,45.2460096 618.432,43.322 C620.306676,41.3979904 622.62532,40.436 625.388,40.436 Z" id="localistico" fill="#FFFFFF"></path>
        <path d="M121,22 C137.568542,22 151,35.4314575 151,52 L151,52 L151,120 C151,136.568542 137.568542,150 121,150 L121,150 L53,150 C36.4314575,150 23,136.568542 23,120 L23,120 L23,52 C23,35.4314575 36.4314575,22 53,22 L53,22 Z M85.2424782,49.2 L71,49.2 L71,56.8625306 L75.2727435,56.8625306 L75.2727435,110.815802 C75.2727435,112.443045 75.48282,113.988786 76.04611,115.411231 C76.603703,116.826012 77.3635393,118.100082 78.4530888,119.197217 C79.540502,120.294352 80.8807192,121.179026 82.4359979,121.825465 C83.9927007,122.471208 85.7609044,122.8 87.6900481,122.8 C90.3783158,122.8 92.7204914,122.338158 94.6531957,121.425621 C96.6086879,120.502634 98.2280577,119.421521 99.465729,118.210144 C100.698416,117.003644 101.60851,115.788784 102.168239,114.597609 C102.855439,113.132673 102.999288,112.405429 103,112.078726 C103,112.074547 102.985758,111.984686 102.866121,111.749238 C102.800605,111.625244 102.755741,111.512396 102.725832,111.406514 L102.725832,111.406514 L99.2912587,106.73237 C98.3135126,109.168358 97.1021898,110.790028 95.6010326,111.671219 C93.9154353,112.661079 92.3288232,113.16193 90.8689692,113.16193 C89.6775859,113.16193 88.6763397,112.898617 87.8638063,112.379655 C87.0648033,111.873231 86.4872708,111.252566 86.0820723,110.537165 C85.6946769,109.857289 85.4860246,109.111237 85.3329179,108.31921 C85.184084,107.564103 85.2424782,106.878655 85.2424782,106.279584 L85.2424782,106.279584 L85.2424782,49.2 Z" id="icon-2" fill="#FFFFFF"></path>
    </g>
</svg>