<svg width="619" height="143" viewBox="0 0 619 143" fill="none" xmlns="http://www.w3.org/2000/svg">
<path d="M130.06 30.68C130.06 29.89 130.77 29.27 131.56 29.27H133.49L164.54 59.57H164.63V31.55C164.63 30.76 165.24 30.04 166.11 30.04H175.44C176.22 30.04 176.92 30.77 176.92 31.55V84.66C176.92 85.45 176.21 86.07 175.44 86.07H174.21C173.97 86.07 173.35 85.84 173.2 85.68L142.47 54.35H142.37V83.78C142.37 84.58 141.76 85.29 140.9 85.29H131.65C130.87 85.29 130.16 84.58 130.16 83.78L130.08 30.68H130.06Z" fill="white"/>
<path d="M191.26 31.55C191.26 30.76 191.95 30.04 192.75 30.04H202.31C203.18 30.04 203.79 30.77 203.79 31.55V63.51C203.79 69.03 207.85 73.44 213.38 73.44C218.91 73.44 223.11 69.03 223.11 63.51V31.55C223.11 30.76 223.72 30.04 224.56 30.04H234.14C234.91 30.04 235.64 30.77 235.64 31.55V64.14C235.64 76.14 225.67 86.06 213.38 86.06C201.09 86.06 191.27 76.13 191.27 64.14V31.55H191.26Z" fill="white"/>
<path d="M255.48 30.52C255.56 29.81 256.26 29.27 256.88 29.27H258.12C258.52 29.27 259.22 29.57 259.44 30.04L277.52 64.15H277.66L295.71 30.04C295.94 29.58 296.64 29.27 297.03 29.27H298.31C298.9 29.27 299.62 29.82 299.69 30.52L308.49 83.56C308.66 84.58 307.94 85.29 307.02 85.29H297.82C297.11 85.29 296.43 84.65 296.35 84.01L292.84 59.61H292.68L279.61 85.19C279.38 85.65 278.66 86.05 278.27 86.05H276.87C276.41 86.05 275.79 85.66 275.55 85.19L262.41 59.61H262.24L258.81 84.01C258.74 84.65 258.11 85.29 257.34 85.29H248.16C247.23 85.29 246.53 84.58 246.69 83.56L255.47 30.52H255.48Z" fill="white"/>
<path d="M320.4 31.55C320.4 30.76 321.02 30.04 321.88 30.04H354.1C354.97 30.04 355.57 30.77 355.57 31.55V40.14C355.57 40.94 354.96 41.64 354.1 41.64H332.54V51.43H350.28C351.05 51.43 351.76 52.14 351.76 52.93V61.54C351.76 62.41 351.05 63.03 350.28 63.03H332.54V73.69H354.1C354.97 73.69 355.57 74.39 355.57 75.19V83.78C355.57 84.58 354.96 85.29 354.1 85.29H321.88C321.02 85.29 320.4 84.58 320.4 83.78V31.55ZM330.76 24.44L329.11 21.12C328.82 20.5 329.21 19.93 329.59 19.64L342.81 11.42C343.3 11.12 344.46 10.95 344.85 11.66L347.49 16.31C348.1 17.48 347.65 18.28 347.01 18.67L332.87 25.16C331.85 25.79 331.17 25.23 330.77 24.43L330.76 24.44Z" fill="white"/>
<path d="M367.97 31.55C367.97 30.76 368.59 30.04 369.44 30.04H392.71C402.05 30.04 409.68 37.7 409.68 47.1C409.68 54.36 404.92 60.21 398.14 62.96L408.81 83C409.36 84.03 408.81 85.31 407.5 85.31H397.14C396.52 85.31 396.05 84.91 395.9 84.6L385.52 63.68H380.17V83.8C380.17 84.6 379.48 85.31 378.7 85.31H369.44C368.58 85.31 367.96 84.6 367.96 83.8V31.55H367.97ZM391.69 53.64C394.88 53.64 397.62 50.63 397.62 47.33C397.62 44.03 394.88 41.32 391.69 41.32H380.17V53.64H391.69Z" fill="white"/>
<path d="M422.07 31.55C422.07 30.76 422.77 30.04 423.53 30.04H432.86C433.66 30.04 434.34 30.77 434.34 31.55V83.78C434.34 84.58 433.66 85.29 432.86 85.29H423.53C422.77 85.29 422.07 84.58 422.07 83.78V31.55Z" fill="white"/>
<path d="M473.83 29.27C481.61 29.27 487.37 31.71 492.66 36.6C493.35 37.23 493.35 38.19 492.72 38.81L486.67 45.19C486.12 45.76 485.25 45.76 484.71 45.19C481.83 42.6 478.03 41.18 474.22 41.18C465.43 41.18 458.97 48.59 458.97 57.44C458.97 66.29 465.5 73.45 474.3 73.45C477.94 73.45 481.92 72.12 484.72 69.67C485.26 69.18 486.28 69.18 486.75 69.76L492.82 76.3C493.36 76.85 493.28 77.88 492.73 78.43C487.44 83.64 480.77 86.07 473.84 86.07C458.26 86.07 445.74 73.53 445.74 57.75C445.74 41.97 458.26 29.27 473.84 29.27H473.83Z" fill="white"/>
<path d="M527.92 29.27C535.71 29.27 541.46 31.71 546.75 36.6C547.46 37.23 547.46 38.19 546.83 38.81L540.77 45.19C540.22 45.76 539.37 45.76 538.84 45.19C535.93 42.6 532.13 41.18 528.32 41.18C519.53 41.18 513.08 48.59 513.08 57.44C513.08 66.29 519.62 73.45 528.41 73.45C532.07 73.45 536.05 72.12 538.85 69.67C539.38 69.18 540.39 69.18 540.86 69.76L546.92 76.3C547.47 76.85 547.4 77.88 546.84 78.43C541.57 83.64 534.87 86.07 527.93 86.07C512.37 86.07 499.85 73.53 499.85 57.75C499.85 41.97 512.37 29.27 527.93 29.27H527.92Z" fill="white"/>
<path d="M581.86 29.27C597.43 29.27 609.87 41.95 609.87 57.75C609.87 73.55 597.43 86.07 581.86 86.07C566.29 86.07 553.93 73.53 553.93 57.75C553.93 41.97 566.32 29.27 581.86 29.27ZM581.86 73.44C590.41 73.44 597.43 66.34 597.43 57.75C597.43 49.16 590.42 41.88 581.86 41.88C573.3 41.88 566.37 49.07 566.37 57.75C566.37 66.43 573.37 73.44 581.86 73.44Z" fill="white"/>
<path d="M95.9699 97.62L92.3399 93.44C92.2299 93.29 92.2299 93.29 92.0999 93.21L73.9699 72.2C73.9699 72.2 73.8899 72.1 73.8699 72.07L70.2299 67.87C69.9299 67.51 69.4799 67.3 69.0099 67.29C68.5499 67.23 68.0899 67.45 67.7599 67.78C64.7999 70.77 60.7599 72.27 56.6299 71.97C48.7899 71.38 42.8799 64.42 43.4599 56.49C44.0299 48.59 50.8999 42.52 58.7399 43.1C61.6099 43.3 64.3299 44.39 66.5799 46.2C67.2899 46.77 68.3199 46.66 68.8999 45.97L71.8299 42.6C72.1299 42.23 72.2799 41.78 72.2499 41.31C72.2099 40.85 71.9999 40.42 71.6399 40.13C68.1499 37.28 63.7999 35.51 59.3199 35.17C58.7599 35.15 58.2399 35.11 57.6799 35.11C46.1699 35.11 36.5199 44.23 35.6499 55.86C35.2199 61.83 37.1199 67.6 40.9699 72.15C44.8299 76.68 50.1899 79.43 56.0599 79.88C60.1299 80.18 64.2499 79.31 67.9499 77.34L85.7899 98.01C77.5999 103.84 68.0699 106.98 58.1399 107.04L57.6899 107.06C30.9899 107.06 9.07992 85.03 8.80992 57.94C8.57992 30.62 30.2999 8.17 57.2499 7.92H57.6999C67.2599 7.92 76.4899 10.68 84.3999 15.94L77.8699 23.46C71.7799 19.72 64.7999 17.76 57.6799 17.76H57.3199C46.8699 17.87 37.0799 22.08 29.7499 29.66C22.3999 37.24 18.4099 47.25 18.5199 57.85C18.7199 79.56 36.2799 97.22 57.6799 97.22H58.0499C61.0799 97.18 64.1499 96.8 67.1299 96.03C67.6999 95.9 68.1699 95.45 68.3299 94.87C68.5199 94.31 68.3999 93.68 67.9999 93.23L64.6399 89.36C64.2399 88.89 63.6399 88.68 63.0599 88.79C61.3599 89.11 59.6299 89.28 57.9999 89.29H57.6899C40.5599 89.29 26.4999 75.15 26.3399 57.78C26.2799 49.29 29.4599 41.3 35.3399 35.22C41.1999 29.17 49.0399 25.76 57.3799 25.7H57.6799C65.0299 25.7 72.1899 28.33 77.8299 33.11C78.5299 33.71 79.5799 33.65 80.1999 32.93L83.8299 28.73C83.9099 28.64 83.9899 28.55 84.0399 28.42L90.8599 20.57C90.8599 20.57 91.0199 20.45 91.0499 20.39L94.7199 16.15C95.0299 15.81 95.1899 15.37 95.1399 14.89C95.1199 14.43 94.8899 14.02 94.5499 13.71C84.3799 4.87 71.2999 0 57.7199 0H57.1699C42.0499 0.15 27.8699 6.25 17.2499 17.24C6.62992 28.22 0.849918 42.68 0.999918 58C1.27992 89.42 26.6999 114.99 57.6799 114.99H58.1999C72.1099 114.86 85.4699 109.55 95.8199 100.01C96.5099 99.38 96.5699 98.31 95.9699 97.61V97.62Z" fill="white"/>
<path d="M610.49 8.77C614.88 8.77 618.47 12.4 618.47 16.84C618.47 21.28 614.87 24.88 610.49 24.88C606.11 24.88 602.53 21.27 602.53 16.84C602.53 12.41 606.1 8.77 610.49 8.77ZM610.49 23.52C614.17 23.52 617.12 20.52 617.12 16.82C617.12 13.12 614.17 10.12 610.49 10.12C606.81 10.12 603.86 13.1 603.86 16.82C603.86 20.54 606.83 23.52 610.49 23.52ZM607.72 13.13C607.72 12.9 607.89 12.7 608.14 12.7H611.29C612.67 12.7 614.02 13.53 614.02 15.21C614.02 16.89 612.85 17.5 612.23 17.66C612.68 18.54 613.12 19.43 613.56 20.3C613.72 20.57 613.49 20.91 613.18 20.91H612.43C612.25 20.91 612.1 20.73 612.03 20.59L610.79 17.79H609.15V20.48C609.15 20.71 608.98 20.91 608.73 20.91H608.15C607.9 20.91 607.73 20.71 607.73 20.48V13.13H607.72ZM611.29 16.49C612.11 16.49 612.62 15.91 612.62 15.21C612.62 14.45 612.11 13.93 611.29 13.93H609.12V16.48H611.29V16.49Z" fill="white"/>
<path d="M246.67 136.98V117.8H260.86C264.79 117.8 266.97 119.72 266.97 122.65C266.97 125.14 265.1 126.41 261.24 126.7V126.84C265.47 127.06 267.59 128.81 267.59 131.66C267.59 134.73 265.15 136.98 261.46 136.98H246.67ZM250.77 125.42H259.91C261.78 125.42 262.87 124.98 262.87 123.39C262.87 121.8 261.79 121.28 259.91 121.28H250.74L250.77 125.42ZM250.79 133.48H260.39C262.4 133.48 263.45 132.52 263.45 130.79C263.45 129.06 262.39 128.21 260.39 128.21H250.76L250.79 133.47V133.48Z" fill="white"/>
<path d="M269.81 136.98V123.28H274.26L273.72 128.38H273.99C274.69 124.43 276.41 122.84 281.37 122.84V126.32C275.78 126.32 273.88 127.97 273.88 132.38V136.98H269.81Z" fill="white"/>
<path d="M280.72 133.8C280.72 129.88 287.86 129.25 292.68 128.89C292.65 126.89 291.49 126.18 288.96 126.18C286.84 126.18 285.42 126.7 283.61 127.5V124.16C285.89 123.31 287.66 122.84 290.05 122.84C294.91 122.84 296.75 125.42 296.75 129.25V136.98H292.76L293.46 132.35H293.22C292.35 135.83 289.91 137.42 285.76 137.42C283.75 137.42 280.71 136.98 280.71 133.8H280.72ZM292.63 130.9C289.48 131.15 284.98 131.28 284.98 133.12C284.98 134.02 285.98 134.54 287.48 134.54C290.03 134.54 292.61 133.33 292.63 130.9Z" fill="white"/>
<path d="M299.09 136.98V123.28H303.54L303 128.92H303.24C303.84 125.16 305.79 122.84 309.92 122.84C313.75 122.9 315.54 124.95 315.54 131.03V136.98H311.47V131.5C311.47 127.45 310.39 125.94 307.84 125.94C304.99 125.94 303.17 128.79 303.17 133.09V136.98H299.09Z" fill="white"/>
<path d="M317.32 130.02C317.32 125.72 320.44 122.84 324.37 122.84C327.68 122.84 330.66 124.51 331.32 127.72H331.43V117.8H335.53V136.98H331.32L331.92 132.51H331.59C330.94 135.41 328.23 137.42 324.83 137.42C320.41 137.42 317.31 134.46 317.31 130.02H317.32ZM330.72 130.07C330.72 127.52 328.47 126.04 325.97 126.04C323.31 126.04 321.3 127.52 321.3 130.07C321.3 132.62 323.31 134.21 325.97 134.21C328.46 134.21 330.72 132.68 330.72 130.07Z" fill="white"/>
<path d="M345.69 131.53C345.69 128.32 348.65 125.99 352.53 125.99L347.4 120.84V118.95H362.82V121.55L352.39 121.64L361.38 130.8C363.03 129.78 364.92 127.39 365.68 125.88L367.94 128.43C367.07 130.39 365.53 131.91 364.07 133.12L367.96 136.98H363.48L361.88 135.36C359.47 136.68 356.86 137.3 354.5 137.3C351.27 137.3 345.68 136.42 345.68 131.52L345.69 131.53ZM359.04 132.54L354.02 127.5C351.5 127.12 349.14 128.19 349.14 130.1C349.14 132.57 351.2 133.63 354.7 133.63C356.24 133.63 357.71 133.22 359.04 132.53V132.54Z" fill="white"/>
<path d="M378.49 136.98V117.8H387.47C394.33 117.8 398.54 121.12 398.54 127.39C398.54 133.66 394.31 136.98 387.47 136.98H378.49ZM382.59 133.5H387.47C391.92 133.5 394.44 131.31 394.44 127.39C394.44 123.47 391.89 121.28 387.47 121.28H382.59V133.51V133.5Z" fill="white"/>
<path d="M400.36 118.81C400.36 117.22 401.28 116.51 402.83 116.51C404.38 116.51 405.35 117.22 405.35 118.81C405.35 120.4 404.4 121.09 402.83 121.09C401.26 121.09 400.36 120.38 400.36 118.81ZM400.85 136.98V123.28H404.92V136.98H400.85Z" fill="white"/>
<path d="M409.04 141.31V137.78C410.29 138.63 412.95 139.26 415.66 139.26C419.59 139.26 421 137.7 421.11 134.52L421.19 132.9C420.38 135.7 417.69 137.23 414.52 137.23C410.1 137.23 407 134.46 407 130.02C407 125.58 410.12 122.84 414.06 122.84C417.37 122.84 420.35 124.51 421.01 127.72H421.42L421.07 123.28H425V135.34C425 140.3 421.36 142.47 416.1 142.47C413.04 142.47 411.16 142.03 409.05 141.32L409.04 141.31ZM420.41 130.07C420.41 127.52 418.16 126.04 415.66 126.04C413 126.04 410.99 127.52 410.99 130.07C410.99 132.62 413 134.21 415.66 134.21C418.13 134.21 420.41 132.68 420.41 130.07Z" fill="white"/>
<path d="M426.92 118.81C426.92 117.22 427.84 116.51 429.39 116.51C430.94 116.51 431.91 117.22 431.91 118.81C431.91 120.4 430.96 121.09 429.39 121.09C427.82 121.09 426.92 120.38 426.92 118.81ZM427.41 136.98V123.28H431.48V136.98H427.41Z" fill="white"/>
<path d="M434.46 126.27H433.29V123.28H434.7V119.99L438.55 119.44V123.28H442.27V126.27H438.55V131.23C438.55 133.86 438.55 134.55 440.91 134.55C441.29 134.55 441.44 134.55 441.63 134.51V136.73C441.08 136.91 439.99 137.26 438.52 137.26C434.99 137.26 434.45 135.97 434.45 132.05V126.27H434.46Z" fill="white"/>
<path d="M443.2 133.8C443.2 129.88 450.34 129.25 455.16 128.89C455.14 126.89 453.97 126.18 451.44 126.18C449.32 126.18 446.72 126.87 444.9 127.66V124.32C447.18 123.47 450.14 122.84 452.52 122.84C457.38 122.84 459.22 125.42 459.22 129.25V136.98H455.24L455.94 132.35H455.7C454.83 135.83 452.39 137.42 448.23 137.42C446.22 137.42 443.19 136.98 443.19 133.8H443.2ZM455.11 130.9C451.96 131.15 447.46 131.28 447.46 133.12C447.46 134.02 448.47 134.54 449.96 134.54C452.51 134.54 455.08 133.33 455.12 130.9H455.11Z" fill="white"/>
<path d="M462.03 136.98V117.8H466.09V136.98H462.03Z" fill="white"/>
<path d="M477.44 136.83L480.78 117.65H494.75C498.68 117.65 500.5 119.79 499.99 122.72C499.53 125.41 497.41 126.72 493.42 127.02V127.13C497.68 127.32 499.52 128.88 499.04 131.73C498.5 134.8 495.7 136.83 492.01 136.83H477.44ZM481.27 134.01H491.55C493.96 134.01 495.46 133.08 495.81 131.02C496.16 129.05 495 128.17 492.58 128.17H482.27L481.27 134.01ZM482.65 126.01H492.36C494.77 126.01 496.24 125.19 496.56 123.29C496.91 121.32 495.72 120.44 493.3 120.44H483.56L482.64 126L482.65 126.01Z" fill="white"/>
<path d="M501.18 129.98C501.94 125.59 505.82 122.69 510.89 122.69C515.96 122.69 518.81 125.59 518.05 129.98C517.29 134.37 513.41 137.27 508.34 137.27C503.27 137.27 500.42 134.37 501.18 129.98ZM515.01 129.98C515.5 127.13 513.68 125.21 510.45 125.21C507.22 125.21 504.7 127.13 504.21 129.98C503.72 132.83 505.54 134.75 508.77 134.75C512 134.75 514.52 132.83 515.01 129.98Z" fill="white"/>
<path d="M536.82 123.13L534.43 136.83H530.74L532.26 131.19H532.07C530.96 134.53 528.41 137.27 524.39 137.27C520.54 137.21 519.1 134.75 520.1 129.08L521.13 123.13H524.44L523.49 128.61C522.73 132.91 523.57 134.75 526.34 134.75C529.51 134.75 532.01 131.63 532.91 126.64L533.51 123.13H536.82Z" fill="white"/>
<path d="M539.3 131.9L540.41 125.54H538.32L538.73 123.13H540.87L541.44 119.84L544.8 119.29L544.12 123.13H548.43L548.02 125.54H543.71L542.73 131.08C542.19 134.23 542.05 134.97 544.82 134.97C545.25 134.97 545.77 134.94 546.36 134.91L546.09 136.56C544.98 136.94 543.89 137.11 542.43 137.11C538.9 137.11 538.58 135.82 539.28 131.9H539.3Z" fill="white"/>
<path d="M548.25 136.83L550.64 123.13H553.95L551.56 136.83H548.25ZM550.98 118.36C551.2 117.04 552.17 116.36 553.42 116.36C554.67 116.36 555.43 117.05 555.21 118.36C554.96 119.68 553.99 120.36 552.71 120.36C551.43 120.36 550.73 119.67 550.98 118.36Z" fill="white"/>
<path d="M569.92 127.59H570.25L570.44 123.12H573.86L570.52 142.3H567.21L568.92 132.38H568.81C567.56 135.72 564.09 137.26 560.73 137.26C556.93 137.26 554.11 134.38 554.84 130.08C555.63 125.64 559.45 122.68 564.04 122.68C567.4 122.68 569.77 124.71 569.93 127.59H569.92ZM558.18 130.04C557.67 132.86 559.4 134.75 562.49 134.75C565.28 134.75 568.03 132.86 568.54 130.04C569.03 127.14 566.97 125.22 564.17 125.22C561.08 125.22 558.66 127.14 558.17 130.04H558.18Z" fill="white"/>
<path d="M592.65 123.13L590.26 136.83H586.57L588.09 131.19H587.9C586.79 134.53 584.24 137.27 580.22 137.27C576.37 137.21 574.93 134.75 575.93 129.08L576.96 123.13H580.27L579.32 128.61C578.56 132.91 579.4 134.75 582.17 134.75C585.34 134.75 587.84 131.63 588.74 126.64L589.34 123.13H592.65Z" fill="white"/>
<path d="M593.5 129.98C594.26 125.59 598.03 122.69 602.94 122.69C607.85 122.69 610.59 125.18 610.02 128.91L609.61 131.16H596.59C596.59 133.76 598.19 134.75 602.18 134.75C605.49 134.75 607.01 133.9 608.67 133.24L608.21 135.93C605.23 137 603.68 137.27 600.4 137.27C595.49 137.27 592.75 134.37 593.51 129.98H593.5ZM606.87 129.16C607.22 126.75 605.49 125.21 602.5 125.21C599.73 125.21 597.48 126.83 596.88 129.16H606.87Z" fill="white"/>
</svg>
