<?xml version="1.0" encoding="UTF-8"?><svg id="Capa_2" xmlns="http://www.w3.org/2000/svg" viewBox="0 0 664.28 122.45"><defs><style>.cls-1{fill:#fff;}</style></defs><g id="FONDOS"><path class="cls-1" d="M139.81,32.67c0-.84,.76-1.5,1.61-1.5h2.07l33.4,32.26h.1v-29.83c0-.84,.66-1.61,1.59-1.61h10.04c.84,0,1.59,.77,1.59,1.61v56.55c0,.84-.76,1.5-1.59,1.5h-1.33c-.26,0-.93-.24-1.09-.42l-33.06-33.35h-.11v31.34c0,.86-.66,1.61-1.58,1.61h-9.95c-.84,0-1.6-.76-1.6-1.61l-.09-56.54h0Zm65.83,.91c0-.84,.74-1.61,1.6-1.61h10.29c.93,0,1.58,.77,1.58,1.61v34.03c0,5.88,4.36,10.57,10.32,10.57s10.47-4.69,10.47-10.57V33.59c0-.84,.66-1.61,1.56-1.61h10.3c.83,0,1.61,.77,1.61,1.61v34.7c0,12.77-10.73,23.34-23.95,23.34s-23.79-10.57-23.79-23.34V33.59h0Zm69.09-1.1c.08-.75,.84-1.33,1.5-1.33h1.33c.43,0,1.18,.32,1.42,.81l19.44,36.32h.15l19.41-36.32c.25-.49,1-.81,1.42-.81h1.37c.63,0,1.41,.58,1.48,1.33l9.46,56.48c.18,1.09-.59,1.85-1.58,1.85h-9.9c-.76,0-1.5-.68-1.58-1.36l-3.78-25.98h-.17l-14.05,27.24c-.24,.49-1.01,.91-1.44,.91h-1.5c-.5,0-1.16-.42-1.42-.91l-14.14-27.24h-.18l-3.68,25.98c-.07,.68-.75,1.36-1.58,1.36h-9.88c-1,0-1.76-.76-1.58-1.85l9.45-56.48h.03Zm69.83,1.1c0-.84,.67-1.61,1.58-1.61h34.66c.93,0,1.59,.77,1.59,1.61v9.15c0,.85-.66,1.6-1.59,1.6h-23.19v10.42h19.09c.83,0,1.59,.76,1.59,1.6v9.16c0,.93-.76,1.59-1.59,1.59h-19.09v11.35h23.19c.93,0,1.59,.75,1.59,1.59v9.15c0,.86-.66,1.61-1.59,1.61h-34.66c-.92,0-1.58-.76-1.58-1.61V33.59Zm11.14-7.57l-1.77-3.53c-.31-.66,.11-1.27,.51-1.58l14.22-8.75c.52-.32,1.77-.5,2.19,.26l2.85,4.95c.66,1.25,.17,2.1-.52,2.51l-15.21,6.91c-1.1,.67-1.83,.08-2.26-.77h-.01Zm40.03,7.57c0-.84,.67-1.61,1.59-1.61h25.03c10.05,0,18.26,8.16,18.26,18.16,0,7.73-5.12,13.96-12.41,16.89l11.48,21.34c.59,1.1,0,2.45-1.41,2.45h-11.14c-.67,0-1.17-.43-1.33-.76l-11.16-22.28h-5.76v21.43c0,.86-.74,1.61-1.58,1.61h-9.96c-.92,0-1.59-.76-1.59-1.61V33.59h-.02Zm25.52,23.53c3.43,0,6.38-3.2,6.38-6.72s-2.95-6.4-6.38-6.4h-12.39v13.12s12.39,0,12.39,0Zm32.68-23.53c0-.84,.76-1.61,1.58-1.61h10.04c.86,0,1.59,.77,1.59,1.61v55.62c0,.86-.73,1.61-1.59,1.61h-10.04c-.82,0-1.58-.76-1.58-1.61V33.59Zm55.68-2.43c8.37,0,14.56,2.6,20.25,7.81,.74,.68,.74,1.69,.06,2.35l-6.51,6.79c-.6,.6-1.53,.6-2.11,0-3.1-2.76-7.19-4.28-11.29-4.28-9.46,0-16.41,7.89-16.41,17.31s7.02,17.05,16.49,17.05c3.92,0,8.2-1.42,11.2-4.02,.58-.51,1.68-.51,2.18,.09l6.53,6.97c.58,.58,.5,1.68-.09,2.27-5.69,5.55-12.87,8.13-20.32,8.13-16.76,0-30.23-13.35-30.23-30.15s13.47-30.32,30.23-30.32h.02Zm58.18,0c8.38,0,14.56,2.6,20.26,7.81,.76,.68,.76,1.69,.08,2.35l-6.52,6.79c-.59,.6-1.51,.6-2.08,0-3.13-2.76-7.22-4.28-11.32-4.28-9.46,0-16.4,7.89-16.4,17.31s7.04,17.05,16.49,17.05c3.94,0,8.21-1.42,11.23-4.02,.57-.51,1.66-.51,2.16,.09l6.52,6.97c.59,.58,.51,1.68-.09,2.27-5.67,5.55-12.87,8.13-20.34,8.13-16.74,0-30.2-13.35-30.2-30.15s13.46-30.32,30.2-30.32h.01Zm58.04,0c16.75,0,30.13,13.5,30.13,30.32s-13.38,30.15-30.13,30.15-30.05-13.35-30.05-30.15,13.32-30.32,30.05-30.32Zm0,47.03c9.21,0,16.75-7.56,16.75-16.71s-7.54-16.9-16.75-16.9-16.66,7.65-16.66,16.9,7.53,16.71,16.66,16.71ZM102.15,103.94l-3.9-4.45q-.12-.15-.26-.25l-19.5-22.37s-.09-.11-.11-.14l-3.92-4.47c-.32-.39-.81-.6-1.31-.62-.5-.06-.98,.17-1.35,.52-3.18,3.19-7.53,4.78-11.97,4.46-8.43-.63-14.79-8.04-14.17-16.48,.62-8.41,8-14.87,16.44-14.26,3.09,.22,6.01,1.37,8.43,3.3,.77,.61,1.87,.49,2.5-.24l3.16-3.59c.33-.39,.49-.88,.45-1.37-.04-.48-.27-.95-.66-1.26-3.75-3.04-8.43-4.92-13.25-5.28-.6-.02-1.16-.07-1.76-.07-12.38,0-22.76,9.71-23.7,22.1-.46,6.35,1.58,12.5,5.72,17.34,4.15,4.82,9.92,7.75,16.24,8.23,4.38,.32,8.81-.61,12.79-2.7l19.19,22c-8.81,6.21-19.06,9.55-29.74,9.61l-.48,.02c-28.72,0-52.29-23.46-52.58-52.3-.24-29.1,23.12-53,52.12-53.26h.49c10.28,0,20.21,2.94,28.72,8.54l-7.02,8c-6.55-3.98-14.06-6.07-21.73-6.07h-.39c-11.24,.12-21.77,4.6-29.66,12.67-7.9,8.07-12.2,18.73-12.08,30.01,.21,23.12,19.1,41.92,42.13,41.92h.4c3.27-.05,6.56-.45,9.77-1.26,.61-.14,1.11-.61,1.29-1.24,.2-.6,.07-1.27-.35-1.74l-3.61-4.12c-.43-.5-1.07-.73-1.7-.61-1.83,.34-3.69,.52-5.45,.53h-.34c-18.42,0-33.55-15.05-33.72-33.56-.07-9.03,3.36-17.55,9.69-24.02,6.31-6.44,14.73-10.07,23.71-10.14h.32c7.9,0,15.61,2.8,21.68,7.9,.75,.63,1.89,.57,2.55-.19l3.9-4.47c.09-.09,.17-.19,.23-.33l7.34-8.35s.17-.13,.2-.19l3.94-4.51c.33-.36,.5-.83,.45-1.34-.03-.48-.27-.93-.64-1.26C89.69,5.18,75.62,0,61.01,0h-.59C44.15,.16,28.9,6.65,17.48,18.36,6.05,30.04-.16,45.44,0,61.76c.3,33.46,27.65,60.68,60.97,60.68h.55c14.97-.14,29.33-5.79,40.46-15.94,.74-.67,.8-1.81,.16-2.56h.01ZM664.28,18.73c0,4.59-3.56,8.17-8.17,8.17s-8.17-3.58-8.17-8.17,3.58-8.17,8.17-8.17,8.17,3.56,8.17,8.17Zm-1.13,0c-.02-4.02-3.08-7.12-7.04-7.12s-7.02,3.1-7.04,7.12c.02,4,3.1,7.1,7.04,7.1s7.02-3.1,7.04-7.1Zm-4.92,.21c.75,.42,1.24,1.19,1.3,2.18l.17,2.41h-1.15l-.17-2.35c-.04-.92-.67-1.59-1.57-1.59h-2.64v3.94h-1.17V13.83h3.67c1.93,0,3.1,1.15,3.1,2.85,0,1.07-.61,1.82-1.53,2.26h0Zm.31-2.26c0-.96-.52-1.8-1.89-1.8h-2.49v3.64h2.49c1.36,0,1.89-.88,1.89-1.84Z"/></g></svg>