<svg version="1.1" id="Capa_1" xmlns="http://www.w3.org/2000/svg" xmlns:xlink="http://www.w3.org/1999/xlink" x="0px" y="0px" viewBox="73.7 219.3 694.4 156.7" style="enable-background:new 73.7 219.3 694.4 156.7;" xml:space="preserve" height="100px" width="100px" transform="rotate(0) scale(1, 1)">
<style type="text/css">.st0 { fill: #ffffff; }.st1 { fill: #ffffff; }</style>
<g>
	<path class="st0" d="M174.1,289.5c1.9-1.3,3.1-3.4,3.1-5.8c0-3.9-3.1-7-7-7c-2.5,0-4.7,1.3-5.9,3.2c-2-1.4-4-2.8-6.3-3.9&#10;&#9;&#9;c-8.4-4.5-18-6.7-28.7-6.7c-8.1,0-15.7,1.3-22.6,4c-4.7,1.8-8.9,4.1-12.6,6.8c-1.2-2-3.4-3.4-6-3.4c-3.9,0-7,3.1-7,7&#10;&#9;&#9;c0,2.5,1.3,4.7,3.3,5.9c-2.6,3.5-4.8,7.3-6.6,11.6c-2.7,6.6-4.1,13.8-4.1,21.5s1.4,14.9,4.1,21.5c2.7,6.6,6.5,12.2,11.3,16.9&#10;&#9;&#9;c4.8,4.7,10.7,8.3,17.6,11c6.9,2.6,14.4,3.9,22.6,3.9c10.7,0,20.3-2.2,28.7-6.7c8.4-4.5,15-10.8,19.6-18.9c4.7-8.1,7-17.3,7-27.7&#10;&#9;&#9;s-2.3-19.7-7-27.8C176.6,293,175.4,291.2,174.1,289.5z M141,347.1c-0.3,1.8-2.3,3.9-4,4.8c-2.5,1.3-5.5,1.6-8.3,2.4&#10;&#9;&#9;c-3.8-0.3-7.1-1.1-10.1-3.2c-2.7-2-3-5.5-0.5-7.7c4.2-3.6,9.1-5,14.5-3.5c1.9,0.5,3.8,1.3,5.3,2.5&#10;&#9;&#9;C139.4,343.5,141.3,345.7,141,347.1z M153.9,331.7c-1.1,3.2-3.4,5.5-7.1,5.7c-4.6,0.3-9.1,0.1-12.1-4.3c-1.4-1.9-1.2-3.3,0.7-4.8&#10;&#9;&#9;c2-1.6,4-3.4,5.6-5.5c4.2-5.5,0.5-10.9-4.7-11.9c-5.5-1.1-11-1-16.5,0.4c-4.1,1-6.6,7-3.6,11.1c1.6,2.2,3.8,4.1,5.9,6&#10;&#9;&#9;c2.4,2.2,2.6,3.4,0.1,5.4c-3.3,2.7-6.9,4.9-11.4,3.7c-4.7-1.2-7.6-5.6-8.3-10.1c-0.2-1.5-0.2-3.1-0.3-5&#10;&#9;&#9;c0.1-11.1,5.9-18.7,15.8-23.7c13.5-6.9,28.2,0.9,34.3,11C156.2,316.7,156.5,324.3,153.9,331.7z"/>
	<path class="st0" d="M278.3,332.1c-0.5-1.5-1.1-2.9-1.7-4.2c-0.6-1.2-1.5-2.4-2.6-3.6c-1.1-1.2-2.2-2.2-3.2-3.1&#10;&#9;&#9;c-1-0.9-2.3-1.8-3.9-2.8c-1.6-1-3.1-1.8-4.5-2.5c-1.4-0.7-3.2-1.5-5.3-2.4c-2.1-0.9-4.1-1.7-5.8-2.3c-1.7-0.7-3.9-1.5-6.5-2.4&#10;&#9;&#9;c-4.8-1.7-8.2-3.2-10.3-4.6c-2.1-1.4-3.1-2.7-3.1-4c0-1.8,0.8-3.2,2.3-4c1.5-0.8,3.2-1.2,5-1.2c3.6,0,7.5,0.9,11.7,2.8&#10;&#9;&#9;c4.2,1.8,8,4.5,11.5,8l15.6-23.5c-4-3-8-5.5-12-7.3c-4-1.9-8.1-3.3-12.5-4.3c-4.4-1-9.1-1.4-14.2-1.4c-7.2,0-13.8,1.3-19.6,3.9&#10;&#9;&#9;c-5.8,2.6-10.4,6.4-13.8,11.3c-3.4,5-5.1,10.7-5.1,17.2c0,2.9,0.3,5.6,0.9,8.1c0.6,2.5,1.4,4.7,2.5,6.7c1.1,2,2.4,3.8,3.9,5.6&#10;&#9;&#9;c1.6,1.7,3.2,3.3,5,4.6c1.7,1.3,3.7,2.5,6,3.7c2.3,1.2,4.5,2.2,6.7,3.1c2.2,0.9,4.6,1.7,7.2,2.5c6.1,1.9,10.2,3.5,12.5,4.8&#10;&#9;&#9;c2.2,1.3,3.3,2.6,3.3,3.9c0,1.2-0.4,2.3-1.1,3.1c-0.7,0.9-1.8,1.5-3.1,1.9c-1.4,0.4-3,0.7-5,0.7c-9.7,0-18.7-3.9-27-11.7l-15.6,22&#10;&#9;&#9;c11.6,10.2,25.7,15.3,42.3,15.3c6.8,0,12.9-0.8,18.2-2.5c5.3-1.7,9.6-4,13-7c3.4-3,5.9-6.5,7.6-10.5c1.7-4,2.6-8.4,2.6-13.3&#10;&#9;&#9;c0-2.1-0.1-3.9-0.4-5.7C279.2,335.3,278.8,333.7,278.3,332.1z"/>
	<path class="st0" d="M374.1,275.9c-8.4-4.5-18-6.7-28.7-6.7c-8.1,0-15.7,1.3-22.6,4c-6.9,2.7-12.8,6.3-17.6,11&#10;&#9;&#9;c-4.8,4.7-8.6,10.3-11.3,16.9c-2.7,6.6-4.1,13.8-4.1,21.5s1.4,14.9,4.1,21.5c2.7,6.6,6.5,12.2,11.3,16.9c4.8,4.7,10.7,8.3,17.6,11&#10;&#9;&#9;c6.9,2.6,14.4,3.9,22.6,3.9c10.7,0,20.3-2.2,28.7-6.7c8.4-4.5,15-10.8,19.6-18.9c4.7-8.1,7-17.3,7-27.7c0-10.4-2.3-19.7-7-27.8&#10;&#9;&#9;S382.5,280.4,374.1,275.9z M361.2,339.9c-4.3,4.5-9.6,6.8-15.8,6.8c-6.4,0-11.8-2.3-16-6.9c-4.2-4.6-6.4-10.3-6.4-17.2&#10;&#9;&#9;c0-7,2.1-12.8,6.3-17.3c4.2-4.5,9.5-6.8,16.1-6.8c6.4,0,11.7,2.2,15.9,6.7c4.2,4.5,6.3,10.3,6.3,17.4&#10;&#9;&#9;C367.6,329.6,365.5,335.4,361.2,339.9z"/>
	<path class="st1" d="M508.7,278.4c-3.4-3.2-7.3-5.5-11.6-7s-9.3-2.2-14.9-2.2c-6.2,0-12.1,1.2-17.5,3.5&#10;&#9;&#9;c-5.5,2.3-10.2,5.8-14.2,10.4h-0.4v-63.8h-32.8v154.7h32.8v-51.8h0.1c0-7.8,1.7-13.7,5.1-17.6c3.4-4,8.1-5.9,14.1-5.9&#10;&#9;&#9;c6,0,10.4,1.6,13,4.7c2.7,3.1,4,8.7,4,16.7v53.9h32.8V312c0-7.9-0.9-14.6-2.7-20.3C514.8,286,512.2,281.6,508.7,278.4z"/>
	<path class="st1" d="M604.7,322c0,8-1.7,14.1-5.1,18.3c-3.4,4.2-7.7,6.3-12.9,6.3c-5.6,0-9.6-1.7-12.1-5.2&#10;&#9;&#9;c-2.4-3.5-3.6-9.3-3.6-17.5v-52.8h-32.8v60.9c0,29.2,12.3,43.8,37,43.8c11.8,0,21.5-4.5,29-13.5h0.5v11.6h32.9V271.2h-32.9V322z"/>
	<path class="st1" d="M764.4,301.1c-2.4-6.7-5.7-12.3-9.8-17c-4.2-4.7-9.1-8.3-14.9-10.9c-5.8-2.6-11.9-3.9-18.5-3.9&#10;&#9;&#9;c-11.9,0-21.6,4.3-29.1,12.8h-0.5v-62.8h-32.9v154.7h31.2v-11.1h0.5c6.8,8.7,16.6,13,29.3,13c14.2,0,25.8-4.9,34.8-14.8&#10;&#9;&#9;c9.1-9.8,13.6-22.7,13.6-38.5C768,314.9,766.8,307.7,764.4,301.1z M728.6,340.3c-4.1,4.5-9.4,6.7-15.8,6.7c-3.2,0-6.2-0.6-9-1.7&#10;&#9;&#9;c-2.8-1.2-5.2-2.8-7.2-4.9c-2-2.1-3.6-4.6-4.8-7.6c-1.2-3-1.7-6.3-1.7-9.9c0-7.1,2.1-13,6.4-17.5c4.2-4.6,9.6-6.9,16.2-6.9&#10;&#9;&#9;c6.4,0,11.6,2.3,15.8,6.8c4.2,4.5,6.3,10.4,6.3,17.6C734.8,329.9,732.7,335.8,728.6,340.3z"/>
</g>
</svg>