<?xml version="1.0" encoding="UTF-8"?>
<svg width="400" height="128" viewBox="1.23 1.68 99.89 32.02" fill="none" xmlns="http://www.w3.org/2000/svg">
  <title>Refine Logo</title>
  <desc>Refine - AI-powered feedback for researchers</desc>
  <!-- R Mark - Primary Brand Color #214DBA -->
  <path
    fillRule="evenodd"
    clipRule="evenodd"
    d="M17.4504 9.99694C20.616 5.01979 22.6187 3.22006 26.019 2.29576C28.2841 1.68005 28.9058 1.68901 31.1824 2.37039C33.7804 4.14283 34.4342 5.58559 34.923 8.54051C34.923 10.5361 34.1577 12.2497 32.7234 13.4662C31.7341 14.305 31.1806 14.4741 29.4334 14.4692C26.1193 14.4606 24.4447 13.1508 24.0175 10.2331C23.7424 8.35617 23.5798 8.13116 22.4991 8.13116C21.2188 8.13116 18.9481 10.3414 17.5904 12.9083C16.0327 15.8536 15.6329 18.9187 15.7543 26.9755L15.8554 33.6923H10.2066H4.55811L4.45518 20.0721C4.343 5.231 4.28338 4.80075 2.18779 3.67046C1.6613 3.38649 1.23071 3.01445 1.23071 2.84392C1.23071 2.67339 4.47961 2.53383 8.45049 2.53383H15.6703V7.66472V12.7956L17.4504 9.99694Z"
    fill="#214DBA"
  />
  <!-- "r" letter - widened horizontally by 15% -->
  <g transform="translate(44.8995, 0) scale(1.15, 1) translate(-44.8995, 0)">
    <path
      d="M44.8995 25V14.0909H47.8328V15.9943H47.9464C48.1453 15.3172 48.4791 14.8059 48.9478 14.4602C49.4166 14.1098 49.9563 13.9347 50.5671 13.9347C50.7187 13.9347 50.882 13.9441 51.0572 13.9631C51.2324 13.982 51.3863 14.008 51.5188 14.0412V16.7259C51.3768 16.6832 51.1803 16.6454 50.9294 16.6122C50.6784 16.5791 50.4488 16.5625 50.2404 16.5625C49.7954 16.5625 49.3976 16.6596 49.0473 16.8537C48.7016 17.0431 48.427 17.3082 48.2234 17.6491C48.0245 17.9901 47.9251 18.383 47.9251 18.8281V25H44.8995Z"
      fill="#000000"
    />
  </g>
  <!-- "efine" text - shifted right to accommodate wider r -->
  <g transform="translate(1.0, 0)">
    <path
      d="M57.5469 25.2131C56.4247 25.2131 55.4588 24.9858 54.6492 24.5312C53.8442 24.072 53.224 23.4233 52.7884 22.5852C52.3528 21.7424 52.135 20.7457 52.135 19.5952C52.135 18.473 52.3528 17.4882 52.7884 16.6406C53.224 15.7931 53.8371 15.1326 54.6279 14.6591C55.4233 14.1856 56.3561 13.9489 57.4262 13.9489C58.1459 13.9489 58.8158 14.0649 59.4361 14.2969C60.0611 14.5241 60.6056 14.8674 61.0696 15.3267C61.5384 15.786 61.903 16.3636 62.1634 17.0597C62.4238 17.7509 62.554 18.5606 62.554 19.4886V20.3196H53.3424V18.4446H59.706C59.706 18.009 59.6113 17.6231 59.4219 17.2869C59.2325 16.9508 58.9697 16.688 58.6335 16.4986C58.3021 16.3045 57.9162 16.2074 57.4759 16.2074C57.0166 16.2074 56.6094 16.3139 56.2543 16.527C55.9039 16.7353 55.6293 17.017 55.4304 17.3722C55.2316 17.7225 55.1298 18.1132 55.125 18.544V20.3267C55.125 20.8665 55.2245 21.3329 55.4233 21.7259C55.6269 22.1188 55.9134 22.4219 56.2827 22.6349C56.652 22.848 57.09 22.9545 57.5966 22.9545C57.9328 22.9545 58.2406 22.9072 58.5199 22.8125C58.7993 22.7178 59.0384 22.5758 59.2372 22.3864C59.4361 22.197 59.5876 21.965 59.6918 21.6903L62.4901 21.875C62.348 22.5473 62.0568 23.1345 61.6165 23.6364C61.1809 24.1335 60.6174 24.5218 59.9262 24.8011C59.2396 25.0758 58.4465 25.2131 57.5469 25.2131ZM70.3949 14.0909V16.3636H63.662V14.0909H70.3949ZM65.2031 25V13.3026C65.2031 12.5118 65.357 11.8561 65.6648 11.3352C65.9773 10.8144 66.4034 10.4238 66.9432 10.1634C67.483 9.90293 68.0961 9.77273 68.7827 9.77273C69.2467 9.77273 69.6705 9.80824 70.054 9.87926C70.4423 9.95028 70.7311 10.0142 70.9205 10.071L70.3807 12.3438C70.2623 12.3059 70.1156 12.2704 69.9404 12.2372C69.7699 12.2041 69.5947 12.1875 69.4148 12.1875C68.9697 12.1875 68.6596 12.2917 68.4844 12.5C68.3092 12.7036 68.2216 12.9901 68.2216 13.3594V25H65.2031ZM72.2433 25V14.0909H75.2688V25H72.2433ZM73.7632 12.6847C73.3134 12.6847 72.9275 12.5355 72.6055 12.2372C72.2883 11.9342 72.1296 11.572 72.1296 11.1506C72.1296 10.7339 72.2883 10.3764 72.6055 10.0781C72.9275 9.77509 73.3134 9.62358 73.7632 9.62358C74.213 9.62358 74.5965 9.77509 74.9137 10.0781C75.2357 10.3764 75.3967 10.7339 75.3967 11.1506C75.3967 11.572 75.2357 11.9342 74.9137 12.2372C74.5965 12.5355 74.213 12.6847 73.7632 12.6847ZM80.7181 18.6932V25H77.6925V14.0909H80.576V16.0156H80.7039C80.9453 15.3812 81.3502 14.8793 81.9183 14.5099C82.4865 14.1359 83.1754 13.9489 83.9851 13.9489C84.7427 13.9489 85.4032 14.1146 85.9666 14.446C86.5301 14.7775 86.9681 15.2509 87.2806 15.8665C87.5931 16.4773 87.7493 17.2064 87.7493 18.054V25H84.7237V18.5938C84.7285 17.9261 84.558 17.4053 84.2124 17.0312C83.8667 16.6525 83.3909 16.4631 82.7848 16.4631C82.3776 16.4631 82.0178 16.5507 81.7053 16.7259C81.3975 16.901 81.156 17.1567 80.9808 17.4929C80.8104 17.8243 80.7228 18.2244 80.7181 18.6932ZM95.1055 25.2131C93.9833 25.2131 93.0174 24.9858 92.2078 24.5312C91.4028 24.072 90.7826 23.4233 90.347 22.5852C89.9114 21.7424 89.6936 20.7457 89.6936 19.5952C89.6936 18.473 89.9114 17.4882 90.347 16.6406C90.7826 15.7931 91.3957 15.1326 92.1865 14.6591C92.9819 14.1856 93.9147 13.9489 94.9848 13.9489C95.7044 13.9489 96.3744 14.0649 96.9947 14.2969C97.6197 14.5241 98.1642 14.8674 98.6282 15.3267C99.097 15.786 99.4616 16.3636 99.722 17.0597C99.9824 17.7509 100.113 18.5606 100.113 19.4886V20.3196H90.9009V18.4446H97.2646C97.2646 18.009 97.1699 17.6231 96.9805 17.2869C96.7911 16.9508 96.5283 16.688 96.1921 16.4986C95.8607 16.3045 95.4748 16.2074 95.0345 16.2074C94.5752 16.2074 94.168 16.3139 93.8129 16.527C93.4625 16.7353 93.1879 17.017 92.989 17.3722C92.7902 17.7225 92.6884 18.1132 92.6836 18.544V20.3267C92.6836 20.8665 92.783 21.3329 92.9819 21.7259C93.1855 22.1188 93.472 22.4219 93.8413 22.6349C94.2106 22.848 94.6486 22.9545 95.1552 22.9545C95.4914 22.9545 95.7991 22.9072 96.0785 22.8125C96.3579 22.7178 96.597 22.5758 96.7958 22.3864C96.9947 22.197 97.1462 21.965 97.2504 21.6903L100.049 21.875C99.9066 22.5473 99.6154 23.1345 99.1751 23.6364C98.7395 24.1335 98.176 24.5218 97.4848 24.8011C96.7982 25.0758 96.0051 25.2131 95.1055 25.2131Z"
      fill="#000000"
    />
  </g>
</svg>
