<?xml version="1.0" encoding="UTF-8"?>
<svg id="logo" xmlns="http://www.w3.org/2000/svg" viewBox="0 0 3840 1024">
  <defs>
    <style>
      .cls-1 {
        isolation: isolate;
      }

      .cls-2 {
        fill: #fff;
      }

      .cls-3, .cls-4 {
        stroke-linejoin: round;
      }

      .cls-3, .cls-4, .cls-5, .cls-6 {
        fill: none;
        stroke: #fff;
        stroke-linecap: round;
      }

      .cls-3, .cls-6 {
        stroke-width: 48px;
      }

      .cls-4, .cls-5 {
        stroke-width: 32px;
      }
    </style>
  </defs>
  <g id="grey-typo">
    <g class="cls-1">
      <g class="cls-1">
        <path class="cls-2" d="M1279.45,654.9c0,5.6-3.32,8.4-9.96,8.4h-46.88c-4.95,0-10.39-1.79-16.31-5.37-5.93-3.58-10.45-7.91-13.57-12.99l-33.2-51.95c-13.67-21.35-30.21-32.03-49.61-32.03h-47.66v83.98c0,5.08-1.79,9.41-5.37,12.99-3.58,3.58-7.91,5.37-12.99,5.37h-36.72c-5.08,0-9.44-1.79-13.09-5.37-3.65-3.58-5.47-7.91-5.47-12.99v-243.16c0-5.08,1.76-9.44,5.27-13.09,3.52-3.64,7.81-5.47,12.89-5.47h161.13c29.82,0,54.26,8.01,73.34,24.02,19.07,16.02,28.61,37.63,28.61,64.84,0,37.89-24.55,61.65-73.63,71.29,7.81,2.87,15.04,7.78,21.68,14.75,6.64,6.97,14.26,17.09,22.85,30.37l35.55,56.45c2.08,3.65,3.12,6.97,3.12,9.96ZM1062.26,505.68h83.2c13.41,0,25.23-2.67,35.45-8.01,10.22-5.34,15.33-13.87,15.33-25.59s-5.11-20.25-15.33-25.59c-10.22-5.34-22.04-8.01-35.45-8.01h-83.2v67.19Z"/>
        <path class="cls-2" d="M1324.37,639.08c-20.31-18.75-30.47-46.39-30.47-82.91s10.16-64.13,30.47-82.81c20.31-18.68,49.51-28.03,87.6-28.03s67.29,9.34,87.6,28.03c20.31,18.69,30.47,46.29,30.47,82.81s-10.16,64.16-30.47,82.91-49.51,28.12-87.6,28.12-67.29-9.38-87.6-28.12ZM1373.79,505.49c-8.08,10.55-12.11,27.41-12.11,50.59s4.03,40.11,12.11,50.78c8.07,10.68,20.8,16.02,38.18,16.02s30.14-5.34,38.28-16.02c8.14-10.67,12.21-27.6,12.21-50.78s-4.07-40.04-12.21-50.59c-8.14-10.55-20.9-15.82-38.28-15.82s-30.11,5.27-38.18,15.82Z"/>
        <path class="cls-2" d="M1584.33,639.08c-20.31-18.75-30.47-46.39-30.47-82.91s10.16-64.13,30.47-82.81c20.31-18.68,49.51-28.03,87.6-28.03s67.29,9.34,87.6,28.03c20.31,18.69,30.47,46.29,30.47,82.81s-10.16,64.16-30.47,82.91-49.51,28.12-87.6,28.12-67.29-9.38-87.6-28.12ZM1633.75,505.49c-8.08,10.55-12.11,27.41-12.11,50.59s4.03,40.11,12.11,50.78c8.07,10.68,20.8,16.02,38.18,16.02s30.14-5.34,38.28-16.02c8.14-10.67,12.21-27.6,12.21-50.78s-4.07-40.04-12.21-50.59c-8.14-10.55-20.9-15.82-38.28-15.82s-30.11,5.27-38.18,15.82Z"/>
        <path class="cls-2" d="M1927.89,620.92l26.76-2.34h7.23c3.52,0,6.41,1.11,8.69,3.32,2.28,2.22,3.42,5.08,3.42,8.59v20.9c0,2.87-1.14,5.44-3.42,7.71s-5.18,3.68-8.69,4.2c-13.28,2.6-30.6,3.91-51.95,3.91-55.99,0-83.98-29.3-83.98-87.89v-183.98c0-3.52,1.14-6.41,3.42-8.69,2.28-2.28,5.11-3.42,8.5-3.42h43.75c3.38,0,6.22,1.14,8.5,3.42,2.28,2.28,3.42,5.18,3.42,8.69v65.23h54.49c3.38,0,6.22,1.11,8.5,3.32,2.28,2.22,3.42,5.08,3.42,8.59v23.24c0,3.52-1.14,6.38-3.42,8.59-2.28,2.22-5.11,3.32-8.5,3.32h-54.49v71.68c0,13.28,3.12,23.54,9.38,30.76s14.58,10.84,25,10.84Z"/>
        <path class="cls-2" d="M2009.92,644.94v-243.16c0-5.08,1.76-9.44,5.27-13.09,3.52-3.64,7.81-5.47,12.89-5.47h57.42c4.56,0,9.38,1.83,14.45,5.47,5.08,3.65,9.24,8.01,12.5,13.09l117.97,181.45v-181.84c0-5.08,1.79-9.38,5.37-12.89,3.58-3.52,7.91-5.27,12.99-5.27h33.59c5.08,0,9.41,1.76,12.99,5.27,3.58,3.52,5.37,7.94,5.37,13.28v243.16c0,5.08-1.79,9.41-5.37,12.99s-7.91,5.37-12.99,5.37h-64.84c-5.08,0-10.29-1.79-15.62-5.37-5.34-3.58-9.57-7.91-12.7-12.99l-108.01-167.58v167.58c0,5.08-1.79,9.41-5.37,12.99s-7.91,5.37-12.99,5.37h-34.38c-5.08,0-9.44-1.79-13.09-5.37-3.65-3.58-5.47-7.91-5.47-12.99Z"/>
        <path class="cls-2" d="M2371.25,639.08c-20.31-18.75-30.47-46.39-30.47-82.91s10.16-64.13,30.47-82.81c20.31-18.68,49.51-28.03,87.6-28.03s67.29,9.34,87.6,28.03c20.31,18.69,30.47,46.29,30.47,82.81s-10.16,64.16-30.47,82.91-49.51,28.12-87.6,28.12-67.29-9.38-87.6-28.12ZM2420.66,505.49c-8.08,10.55-12.11,27.41-12.11,50.59s4.03,40.11,12.11,50.78c8.07,10.68,20.8,16.02,38.18,16.02s30.14-5.34,38.28-16.02c8.14-10.67,12.21-27.6,12.21-50.78s-4.07-40.04-12.21-50.59c-8.14-10.55-20.9-15.82-38.28-15.82s-30.11,5.27-38.18,15.82Z"/>
        <path class="cls-2" d="M2696.44,667.21c-27.22,0-49.97-9.57-68.26-28.71-18.29-19.14-27.44-46.58-27.44-82.32s9.47-63.15,28.42-82.23c18.95-19.07,44.43-28.61,76.46-28.61,16.53,0,35.35,3.32,56.45,9.96v-59.96c0-3.52,1.14-6.41,3.42-8.69s5.11-3.42,8.5-3.42h43.55c3.52,0,6.41,1.14,8.69,3.42,2.28,2.28,3.42,5.18,3.42,8.69v256.05c0,3.39-1.14,6.22-3.42,8.5s-5.18,3.42-8.69,3.42h-37.5c-3.52,0-6.38-1.14-8.59-3.42-2.22-2.28-3.32-5.11-3.32-8.5v-6.05c-20.58,14.58-44.47,21.88-71.68,21.88ZM2681.6,507.73c-7.42,10.09-11.13,26.27-11.13,48.54s3.52,38.48,10.55,48.63,17.61,15.23,31.74,15.23,30.57-5.86,49.32-17.58v-102.15c-16.8-5.21-30.93-7.81-42.38-7.81-17.97,0-30.66,5.05-38.09,15.14Z"/>
        <path class="cls-2" d="M2895.66,638.69c-20.05-19.01-30.08-46.39-30.08-82.13s10.09-63.21,30.27-82.42c20.18-19.21,48.17-28.81,83.98-28.81s63.74,9.34,83.79,28.03c20.05,18.69,30.08,45.48,30.08,80.37v11.13c0,3.52-1.14,6.42-3.42,8.69s-5.18,3.42-8.69,3.42h-147.07c1.3,16.02,5.89,27.67,13.77,34.96,7.88,7.29,20.47,10.94,37.79,10.94s29.17-3.91,35.55-11.72c6.38-7.81,14.26-11.78,23.63-11.91h29.1c3.52,0,6.41,1.14,8.69,3.42,2.28,2.28,3.42,5.18,3.42,8.69,0,37.37-35.61,55.99-106.84,55.86-35.94,0-63.93-9.5-83.98-28.52ZM2934.14,535.76h90.82c-1.3-30.73-16.38-46.09-45.21-46.09s-44.04,15.37-45.61,46.09Z"/>
        <path class="cls-2" d="M3172.03,600.02c17.58,0,26.37,8.86,26.37,26.56v12.3c0,8.2-2.25,14.65-6.74,19.34s-11.04,7.03-19.63,7.03h-24.02c-8.59,0-15.14-2.34-19.63-7.03s-6.74-11.13-6.74-19.34v-12.3c0-8.59,2.28-15.17,6.84-19.73s11.07-6.84,19.53-6.84h24.02Z"/>
        <path class="cls-2" d="M3256.4,638.69c-20.05-19.01-30.08-46.39-30.08-82.13s10.09-63.21,30.27-82.42c20.18-19.21,48.17-28.81,83.98-28.81s63.74,9.34,83.79,28.03c20.05,18.69,30.08,45.48,30.08,80.37v11.13c0,3.52-1.14,6.42-3.42,8.69s-5.18,3.42-8.69,3.42h-147.07c1.3,16.02,5.89,27.67,13.77,34.96,7.88,7.29,20.47,10.94,37.79,10.94s29.17-3.91,35.55-11.72c6.38-7.81,14.26-11.78,23.63-11.91h29.1c3.52,0,6.41,1.14,8.69,3.42,2.28,2.28,3.42,5.18,3.42,8.69,0,37.37-35.61,55.99-106.84,55.86-35.94,0-63.93-9.5-83.98-28.52ZM3294.88,535.76h90.82c-1.3-30.73-16.38-46.09-45.21-46.09s-44.04,15.37-45.61,46.09Z"/>
        <path class="cls-2" d="M3478.28,508.42c0-42.06,33.92-63.09,101.76-63.09,71.35,0,107.03,18.69,107.03,56.05,0,3.39-1.11,6.22-3.32,8.5-2.22,2.28-5.08,3.42-8.59,3.42h-29.1c-9.38,0-17.25-3.94-23.63-11.82-6.38-7.88-18.95-11.82-37.7-11.82-25.78,0-38.67,6.25-38.67,18.75,0,5.86,5.04,10.74,15.14,14.65,10.09,3.91,22.39,7.32,36.91,10.25,14.52,2.93,29,6.67,43.46,11.23,14.45,4.56,26.72,11.82,36.82,21.78,10.09,9.96,15.14,22.56,15.14,37.79,0,42.06-35.81,63.09-107.42,63.09s-107.42-18.62-107.42-55.86c0-3.52,1.14-6.41,3.42-8.69s5.18-3.42,8.69-3.42h29.1c9.38,0,17.25,3.94,23.63,11.82,6.38,7.88,18.95,11.82,37.7,11.82,29.82,0,44.73-6.25,44.73-18.75,0-5.86-5.05-10.74-15.14-14.65-10.09-3.91-22.43-7.39-37.01-10.45-14.58-3.06-29.07-6.84-43.46-11.33-14.39-4.49-26.66-11.75-36.82-21.78-10.16-10.03-15.23-22.53-15.23-37.5Z"/>
      </g>
    </g>
    <g id="grey">
      <g id="ramas3">
        <path class="cls-4" d="M347.9,426.8c19.3,0,37.8-3.6,54.8-10.1"/>
        <path class="cls-4" d="M575.8,224.9c34.9-6.4,64.8-24.2,86.7-48.8"/>
        <path class="cls-4" d="M421.9,312.3c-41.7-.6-79.2-17.7-106.4-45.1"/>
        <path class="cls-4" d="M512.5,459.5c-41.7,0-79.4-16.7-107-43.7"/>
        <path class="cls-3" d="M361.3,458.9c-39.1-38.9-63.3-92.7-63.3-152.2s45.4-152.3,112.2-188.6"/>
        <path class="cls-3" d="M512.5,92.2c118.5,0,214.5,96,214.5,214.5s-96,214.5-214.5,214.5"/>
      </g>
      <g id="raiz3">
        <path id="path3769-748" class="cls-5" d="M444.8,780.6l-92.6-53.4"/>
        <path id="path3769-749" class="cls-5" d="M664.7,785.3l174.6-100.7"/>
        <path id="path3769-750" class="cls-5" d="M582.3,728.9l163.8-94.5"/>
        <path id="path3769-751" class="cls-5" d="M425.3,879.1l60.4-34.9"/>
        <path id="path3769-752" class="cls-5" d="M298.4,874.8l43.8-25.3"/>
        <path id="path3769-753" class="cls-5" d="M398,685.1l-81.5-47"/>
        <path id="path3769-754" class="cls-5" d="M508.4,933.5l-242.1-139.7"/>
      </g>
      <g id="tronco4">
        <path id="path3769-755" class="cls-6" d="M768.5,846.6l-256-147.7"/>
        <path id="path3769-756" class="cls-6" d="M512.6,235.4l-.2,499.9"/>
        <path id="path3769-757" class="cls-6" d="M209,802.8l303.5-175.1"/>
      </g>
      <g id="detalle4">
        <path id="path3769-758" class="cls-5" d="M282.8,746.1l-97.7-56.4"/>
        <path id="path3769-759" class="cls-5" d="M569.5,891l126.5-73"/>
        <path class="cls-4" d="M428.3,219.1c17.8,24.2,42.1,42.1,69.2,52.3"/>
        <path class="cls-4" d="M638.5,333.5c-27.7,31.1-65.3,48.2-103.8,50.8"/>
      </g>
    </g>
  </g>
</svg>