<?xml version="1.0" encoding="utf-8"?>
<!-- Generator: Adobe Illustrator 26.2.1, SVG Export Plug-In . SVG Version: 6.00 Build 0)  -->
<svg version="1.1" id="Layer_1" xmlns="http://www.w3.org/2000/svg" xmlns:xlink="http://www.w3.org/1999/xlink" x="0px" y="0px"
	 viewBox="0 0 1920 358.3" style="enable-background:new 0 0 1920 358.3;" xml:space="preserve">
<style type="text/css">
	.st0{fill-rule:evenodd;clip-rule:evenodd;fill:#FFFFFF;}
</style>
<desc>Created with Sketch.</desc>
<g id="localistico-logo">
	<g id="Group" transform="translate(23.000000, 22.000000)">
		<path id="localistico" class="st0" d="M512.2,22.8v207.1c0,2,0.2,3.7,0.7,6.5c0.5,2.5,1.2,5,2.5,7.2s3,4.2,5.5,5.7
			s5.5,2.5,9.2,2.5c4.7,0,9.7-1.7,15.2-5c4.2-2.5,7.7-7.2,11-13.9c-2.2-9-3.2-17.9-3.2-27.1c0-9.7,1.5-19.9,4.5-30.1
			c3-10.2,7.7-19.7,13.9-28.1c6.5-8.5,14.7-15.4,24.9-20.9c10.2-5.5,22.6-8.2,37.1-8.2c14.7,0,27.4,2.5,37.6,7.7
			c10.2,5.2,18.7,11.9,24.9,20.2c4.7,6.2,8.5,12.9,11.2,20.2l0,0c2,6,20.4,11.2,35.1-6.5c0.7-1.2,1.5-2.7,2.5-4
			c4.2-7,10-13.2,16.9-18.7c7-5.5,15.7-10,25.9-13.4c10.2-3.5,22.6-5.2,36.8-5.2c5,0,9.5,0.2,13.7,1c4.2,0.5,8.2,1.2,11.7,2
			c4,1,7.7,1.7,11,2.5v56H827v-25.1l-3.2-1c-1.2-0.2-2.5-0.5-4-0.7s-3.2-0.2-5.2-0.2c-5.2,0-10.5,1-15.7,3s-10,5.2-14.4,10
			c-4.2,4.7-8,10.7-10.7,18.2s-4.2,16.4-4.2,26.9c0,7,1,13.4,3,19.4s5,11.2,9.2,15.7s9.5,8,15.9,10.5c6.5,2.5,14.2,4,23.4,4
			c14.2,0,27.4-3,39.1-9.2c9.7-5,17.4-12.4,23.6-22.2c-0.5-4.2-0.5-7.7-0.5-10.5c0-11.7,1.7-23.6,5-35.6c3.2-11.9,9-22.6,16.7-32.1
			s18.2-17.2,31.1-23.1c12.9-6,28.9-9,47.8-9c5.7,0,11.4,0.2,17.4,1s11.2,1.5,15.9,2.5c4.7,0.7,8.7,1.7,11.7,2.5l4.5,1v105
			c0,2,0.2,4.2,0.7,6.7s1.2,5,2.5,7.2s3,4.2,5.5,5.7s5.5,2.5,9.2,2.5c4.7,0,9.7-1.7,15.2-5.2c3.7-2.2,7-6.5,10-11.9V56.6H1061V22.8
			h55v206.6c0,2,0.2,4.2,0.7,6.7s1.2,5,2.5,7.2c1.2,2.2,3,4.2,5.5,5.7s5.5,2.5,9.2,2.5c4.7,0,9.7-1.7,15.2-5c4-2.5,7.7-7,10.7-13.4
			v-75.2h-15.9v-33.1h55.3v105c0,2,0.2,4.2,0.5,6.7c0.2,2.5,1.2,5,2.5,7.2c1.2,2.2,3.2,4.2,5.5,5.7c2.2,1.5,5.5,2.5,9.5,2.5
			c2.2,0,4.7-0.2,7.5-1c2.7-0.7,5.2-2,8-4c2.7-2,5-4.5,7.5-8c0.5-1,1.2-1.7,1.7-2.7v-16.7h35.1V258c1.5,0.5,3.2,1,5.2,1.5
			c1.7,0.5,4,0.7,6.5,1c2.5,0.2,5.5,0.2,9,0.2c8.5,0,14.9-0.7,19.9-2c5-1.2,8.7-3.2,11.2-5.2c2.5-2.2,4.2-4.5,5-7.2
			c0.7-2.5,1-5.2,1-8c0-6-2.2-10.5-6.7-13.4c-4.5-3-10-5.5-16.4-7.5c-6.5-1.7-13.7-3.5-21.2-5.2c-7.7-1.5-14.7-4-21.2-7.2
			s-11.9-7.5-16.4-13.2c-4.5-5.5-6.7-13.2-6.7-22.9c0-1,0.5-4,1.2-9.2s3.5-10.7,8.2-16.7s11.7-11.2,21.7-15.9c9.7-4.7,23.6-7,41.3-7
			c7.7,0,14.2,0.2,19.9,0.5c3,0.2,6,0.5,8.5,0.7l39.6,3.2V81.8l39.3-23.6v66.7h19.4V158h-19.4v75.2c0,5.2,1.7,10.2,5,14.9
			c3.2,4.7,9,7.2,16.7,7.2c3,0,6-0.5,9.5-1.2c3.2-0.7,6.7-2.2,10-4.2c3.2-2,6.5-4.7,9.2-8.2c1.5-1.7,2.7-4,4-6.2v-77.2h-15.9v-33.4
			h55.3v105c0,2,0.2,4.2,0.5,6.7c0.2,2.5,1.2,5,2.5,7.2c1.2,2.2,3.2,4.2,5.5,5.7c2.2,1.5,5.5,2.5,9.5,2.5c2.2,0,4.7-0.2,7.5-1
			s5.2-2,8-4c2.7-2,5-4.5,7.5-8c1.2-1.7,2.5-4,3.5-6.2c-1.7-7.7-2.5-14.7-2.5-20.9c0-4.2,0.2-9.5,1-15.7c0.7-6.2,2.2-12.9,4.5-19.7
			c2.2-7,5.7-13.7,10-20.7c4.2-7,10-13.2,16.9-18.7c7-5.5,15.7-10,25.9-13.4c10.2-3.5,22.6-5.2,36.8-5.2c5,0,9.5,0.2,13.7,1
			c4.2,0.5,8.2,1.2,11.7,2c4,1,7.7,1.7,11,2.5v56h-33.6v-25.1l-3.2-1c-1.2-0.2-2.5-0.5-4-0.7s-3.2-0.2-5.2-0.2c-5.2,0-10.5,1-15.7,3
			s-10,5.2-14.4,10c-4.2,4.7-8,10.7-10.7,18.2s-4.2,16.4-4.2,26.9c0,7,1,13.4,3,19.4s5,11.2,9.2,15.7s9.5,8,15.9,10.5
			c6.5,2.5,14.2,4,23.4,4c14.2,0,27.4-3,39.1-9.2c9.7-5,17.7-12.7,23.6-22.6c-1.5-7.5-2.2-15.2-2.2-22.9c0-9.7,1.5-19.9,4.5-30.1
			c3-10.2,7.7-19.7,13.9-28.1c6.5-8.5,14.7-15.4,24.9-20.9s22.6-8.2,37.1-8.2c14.7,0,27.4,2.5,37.6,7.7
			c10.2,5.2,18.7,11.9,24.9,20.2c6.2,8.5,10.7,17.7,13.7,27.9c2.7,10.2,4.2,20.7,4.2,31.4c0,10-1.5,20.2-4.5,30.6
			c-3,10.5-7.7,19.7-13.9,27.9c-6.5,8.5-14.7,15.2-24.9,20.7c-10.2,5.5-22.6,8.2-37.1,8.2c-14.4,0-26.9-2.5-37.1-7.5
			s-18.4-11.7-24.9-19.9c-1-1.5-2.2-3-3.2-4.5c-2.7,4-6.7,7.7-11.7,11.7c-7,5.5-15.9,10.5-27.4,14.4c-11.4,4-25.6,6.2-42.8,6.2
			c-17.7,0-32.1-3-43.6-8.7c-11.2-5.7-19.9-12.7-26.4-21.2c-2,3.5-5,7-8.5,10.5c-4.7,4.5-10.5,8.5-17.7,11.9
			c-7.2,3.5-15.7,5.2-25.4,5.2c-7.2,0-13.7-1.2-19.4-3.7c-5.7-2.5-10.7-5.7-14.4-10c-1.2-1.2-2.2-2.5-3.2-4
			c-0.7,0.7-1.7,1.7-2.5,2.5c-4.7,4.5-11.2,8.2-19.4,11.7s-18.4,5-30.4,5c-16.4,0-28.9-4.5-37.3-13.4c-8.5-9-12.7-20.4-12.7-34.1
			v-87.1l-28.6-3.7c-2.5-0.2-4.7-0.5-6.5-0.7l0,0c-4-0.5-8.7-1-14.2-1.5s-11.7-0.7-18.2-0.7c-2.2,0-5.2,0-9,0.2
			c-3.7,0-7.2,0.7-11,1.7c-3.5,1-6.7,2.7-9.5,5c-2.7,2.2-4,5.5-4,9.5c0,4.7,2.2,8.2,6.7,10.2c4.5,2.2,10,4.2,16.7,5.7
			s13.7,3.2,21.4,5c7.7,1.7,14.7,4.5,21.4,8s12.2,8.5,16.7,14.7s6.7,14.7,6.7,25.1c0,4.2-0.7,9.5-2.5,15.9
			c-1.5,6.5-5,12.4-10.2,18.4s-12.9,11-22.9,15.2s-23.6,6.5-40.8,6.5c-11,0-20.2-0.2-27.4-1c-7.2-0.7-12.9-1.5-17.2-2.5
			c-5-1-9-2.2-11.7-3.7v-5.2c-3.2,2.2-6.5,4.2-10.5,6c-7.2,3.5-15.7,5.2-25.4,5.2c-7.2,0-13.7-1.2-19.4-3.7
			c-5.7-2.5-10.7-5.7-14.4-10c-1.7-1.7-3.2-3.7-4.5-5.7c-0.5,0.5-1,1.2-1.7,1.7c-4.5,4.5-10.5,8.5-17.4,11.9
			c-7.2,3.5-15.7,5.2-25.4,5.2c-7.2,0-13.7-1.2-19.4-3.7c-5.7-2.5-10.7-5.7-14.7-10c-1.5-1.5-2.7-3-4-4.7c-0.5,0.5-1,1-1.5,1.7
			c-4.5,4.5-10.5,8.5-17.4,11.9c-7,3.5-15.7,5.2-25.4,5.2c-10,0-18.4-2.2-25.1-7c-6.7-4.7-11.4-10.7-13.7-18.4
			c-0.2-1-0.5-1.5-0.7-1.5l-1,1c-5.2,9.2-12.7,16.2-22.4,20.9c-9.7,5-20.2,7.5-31.1,7.5c-9.5,0-17.9-1.5-24.6-4.5
			c-7-3-12.7-6.7-17.4-11.2c-4.2-4-7.5-8.7-10.2-13.7c-2.5,2.7-5.2,5.5-8.7,8.2c-7,5.5-15.9,10.5-27.4,14.4
			c-11.4,4-25.6,6.2-42.8,6.2c-17.7,0-32.1-3-43.6-8.7c-11.2-5.7-20.2-12.9-26.4-21.2c-6.2-8.5-10.5-17.2-12.9-26.6
			c-2.2-9.5-3.5-17.9-3.5-25.1c0-3.5,0.2-7.5,0.7-12.4l0.5-0.2c-5.2,2.2-11.7,3.2-16.4,3.2c0,1,0,2,0,3c0,10-1.5,20.2-4.5,30.6
			c-3,10.2-7.7,19.7-13.9,27.9c-6.5,8.5-14.7,15.2-24.9,20.7s-22.6,8.2-37.1,8.2c-14.4,0-26.9-2.5-37.1-7.5
			c-10.2-5-18.4-11.7-24.9-19.9c-0.5-0.5-1-1.2-1.2-1.7c-2,3.5-4.7,6.7-8.2,10.2c-4.5,4.5-10.5,8.5-17.4,11.9
			c-7.2,3.5-15.7,5.2-25.4,5.2c-7.2,0-13.7-1.2-19.4-3.7c-5.7-2.5-10.7-5.7-14.7-10c-4-4.2-7.2-9-9.2-14.4c-2-5.5-3.2-11.2-3.2-17.4
			V55.9h-15.7V22.8H512.2z M1794.5,151.7c-7.7,0-13.9,1.7-18.9,5.2s-9,7.7-11.9,13.2c-3,5.5-5,11.2-6.2,17.4s-1.7,12.4-1.7,18.2
			c0,6,0.5,11.9,1.7,18.2c1.2,6.2,3.2,12.2,6.2,17.4s7,9.7,11.9,13.2s11.4,5.2,18.9,5.2s13.7-1.7,18.7-5.2c5-3.5,9-8,11.9-13.2
			c3-5.2,5-11.2,6.2-17.4s1.7-12.4,1.7-18.2c0-5.7-0.5-11.7-1.7-18.2s-3.2-12.2-6.2-17.4s-7-9.7-11.9-13.2
			C1808.2,153.4,1801.9,151.7,1794.5,151.7z M633.4,151.7c-7.7,0-13.9,1.7-18.9,5.2s-9,7.7-11.9,13.2c-3,5.5-5,11.2-6.2,17.4
			s-1.7,12.4-1.7,18.2c0,6,0.5,11.9,1.7,18.2c1.2,6.2,3.2,12.2,6.2,17.4s7,9.7,11.9,13.2c5,3.5,11.4,5.2,18.9,5.2s13.7-1.7,18.7-5.2
			s9-8,11.9-13.2c3-5.5,5-11.2,6.2-17.4s1.7-12.4,1.7-18.2c0-5.7-0.5-11.7-1.7-18.2s-3.2-12.2-6.2-17.4s-7-9.7-11.9-13.2
			C647.1,153.4,640.6,151.7,633.4,151.7z M976.1,151.7c-4.5,0-9.7,1-15.7,3s-11.7,5.2-16.9,9.7s-9.7,10.7-13.4,18.7
			s-5.5,17.7-5.5,29.4c0,2.5,0.2,6,0.5,10.7c0.2,4.7,1.5,9.2,3.5,13.9s5,8.7,9.2,12.2s10,5.2,17.7,5.2c6.2,0,11.7-1.2,16.7-3.7
			s9-5.7,12.4-9.5c3.2-4,5.7-8.2,7.5-13.2c1.7-4.7,2.5-9.5,2.5-14.2v-60l-4.5-1c-1.5-0.2-3.2-0.5-5.5-0.7
			C982.3,151.7,979.6,151.7,976.1,151.7z M1178.5,43.7c6.7,0,12.4,2.5,17.2,7.2s7.2,10.5,7.2,17.2c0,7-2.5,12.7-7.2,17.4
			c-4.7,4.7-10.5,7.2-17.2,7.2c-7,0-12.7-2.5-17.4-7.2c-4.7-4.7-7-10.7-7-17.4s2.2-12.4,7-17.2C1165.8,46.2,1171.7,43.7,1178.5,43.7
			z M1498.5,43.7c6.7,0,12.4,2.5,17.2,7.2c4.7,4.7,7.2,10.5,7.2,17.2c0,7-2.5,12.7-7.2,17.4c-4.7,4.7-10.5,7.2-17.2,7.2
			c-7,0-12.7-2.5-17.4-7.2c-4.7-4.7-7-10.7-7-17.4s2.2-12.4,7-17.2S1491.6,43.7,1498.5,43.7z"/>
		<path class="st0" d="M243.1-2.2H73.9C32.5-2.1-0.8,31.2-0.8,72.5v169.2c0,41.3,33.4,74.7,74.7,74.7h169.2
			c41.3,0,74.7-33.4,74.7-74.7V72.5C317.8,31.2,284.4-2.2,243.1-2.2z M196.2,228.3c-1.5,3-3.7,6-6.7,9s-7.2,5.7-11.9,8
			c-4.9,2.2-10.7,3.5-17.4,3.5c-4.7,0-9.2-0.7-13.2-2.5c-4-1.5-7.2-3.7-10-6.5c-2.7-2.7-4.5-6-6-9.5s-2-7.5-2-11.4V84.5h-10.5V65.3
			H154v142.1c0,1.5-0.2,3.2,0.2,5c0.5,2,1,3.7,1.7,5.5c1,1.7,2.5,3.2,4.5,4.5c2,1.2,4.5,2,7.5,2c3.7,0,7.5-1.2,11.7-3.7
			c3.7-2.2,6.7-6.2,9.2-12.2l8.5,11.7c0,0.2,0.2,0.5,0.2,0.7c0.7,1,0.7,1.2,0.7,1.2C198.2,222.8,198,224.8,196.2,228.3z"/>
	</g>
</g>
</svg>
