<?xml version="1.0" encoding="UTF-8" standalone="no"?>
<!DOCTYPE svg PUBLIC "-//W3C//DTD SVG 1.1//EN" "http://www.w3.org/Graphics/SVG/1.1/DTD/svg11.dtd">
<!-- Created with Vectornator (http://vectornator.io/) -->
<svg height="100%" stroke-miterlimit="10" style="fill-rule:nonzero;clip-rule:evenodd;stroke-linecap:round;stroke-linejoin:round;" version="1.1" viewBox="0 0 1200 1200" width="100%" xml:space="preserve" xmlns="http://www.w3.org/2000/svg" xmlns:vectornator="http://vectornator.io" xmlns:xlink="http://www.w3.org/1999/xlink">
<defs/>
<g id="Untitled" vectornator:layerName="Untitled">
<path d="M0 0L1200 0L1200 1200L0 1200L0 0Z" fill="#ffc600" fill-opacity="0" fill-rule="nonzero" opacity="1" stroke="none" vectornator:layerName="path"/>
</g>
<g id="Untitled_2" vectornator:layerName="Untitled">
<path d="M777.764 103.644C874.314 155.495 955.597 199.339 958.391 200.94L963.123 203.543L963.123 398.737L963.123 593.93L958.391 596.531C935.814 609.544 601.65 788.123 599.715 788.123C597.564 788.123 532.839 753.687 319.094 638.574L237.381 594.73L237.381 398.737L237.381 202.743L319.094 158.899C364.037 134.676 444.89 91.2312 498.647 62.2044C552.408 33.1749 597.778 9.55238 599.285 9.55238C600.789 9.35012 681.212 51.792 777.764 103.644ZM629.605 1001.53C645.302 1005.74 658.418 1017.35 664.224 1031.96C673.255 1054.18 673.255 1103.03 664.441 1124.85C655.41 1146.68 634.551 1158.49 604.014 1158.49C562.299 1158.49 542.516 1140.47 537.138 1097.83C532.409 1059.39 541.87 1021.55 559.504 1009.94C576.275 998.731 606.595 995.128 629.605 1001.53ZM828.08 1004.94C842.92 1011.74 846.358 1015.15 842.703 1019.35C840.339 1021.95 839.262 1021.75 833.886 1017.55C824.642 1010.14 813.244 1007.34 793.245 1007.34C771.312 1007.34 761.851 1010.14 751.743 1019.75C739.271 1031.36 736.262 1042.37 736.262 1078.41C736.262 1114.45 739.271 1126.26 751.743 1137.47C761.851 1146.68 771.528 1149.48 793.245 1149.48C813.244 1149.48 824.642 1146.68 833.886 1139.27C839.262 1135.06 840.339 1134.87 842.703 1137.47C846.358 1141.67 842.92 1145.08 828.297 1151.68C806.147 1161.89 771.958 1160.49 751.743 1148.48C731.317 1136.47 721.209 1100.43 726.371 1058.79C731.961 1014.55 751.96 997.33 796.686 998.931C812.6 999.33 818.189 1000.53 828.08 1004.94ZM988.928 1075.41C1008.07 1117.25 1024.19 1152.68 1024.84 1153.88C1025.7 1155.89 1014.3 1156.49 971.94 1156.49C919.471 1156.49 917.967 1156.29 917.967 1152.48C917.967 1148.68 919.687 1148.48 964.844 1148.08L1011.72 1147.48L1011.72 1147.48L984.196 1087.42C969.143 1054.39 956.027 1025.56 954.953 1023.56C953.662 1020.55 946.136 1034.97 921.835 1087.62C895.817 1144.28 889.797 1155.68 885.926 1156.09C883.561 1156.49 881.41 1156.09 881.41 1155.09C881.41 1152.88 952.802 997.931 953.446 998.731C953.876 999.13 969.79 1033.56 988.928 1075.41ZM19.5512 1055.79C20.6252 1117.45 21.702 1124.05 34.6015 1136.27C45.3559 1146.68 52.8796 1149.28 69.6535 1149.48C95.2417 1149.48 110.081 1138.27 116.961 1113.45C119.542 1104.23 120.186 1090.22 120.186 1050.98L120.186 1000.33L125.778 1000.33L131.368 1000.33L131.368 1000.33L130.507 1052.79C129.647 1099.63 129.003 1106.84 124.918 1118.45C115.671 1144.67 101.048 1156.29 75.2458 1158.09C55.6772 1159.29 40.8376 1154.68 29.656 1144.07C13.0986 1128.26 8.36952 1104.84 8.36952 1040.97L8.36952 1000.33L13.5287 1000.33L18.9045 1000.33L19.5512 1055.79ZM251.144 1070.8L297.591 1140.07L297.591 1140.07L298.235 1070.2C298.665 1001.93 298.882 1000.33 302.967 1000.33C307.266 1000.33 307.266 1001.93 307.266 1078.41L307.266 1156.49L302.537 1156.49C298.452 1156.29 289.634 1144.47 251.358 1086.82L205.127 1017.35L205.127 1017.35L204.48 1086.82C204.05 1154.88 203.836 1156.49 199.751 1156.49C195.449 1156.49 195.449 1154.88 195.449 1078.21L195.449 1000.13L195.449 1000.13L200.178 1000.73C203.836 1001.13 215.662 1017.55 251.144 1070.8ZM448.115 1006.14C454.137 1008.54 461.661 1012.94 465.102 1015.95C481.66 1030.56 481.016 1055.99 463.812 1069.6C460.157 1072.2 457.576 1074.81 458.006 1075.21C458.436 1075.61 461.877 1077.41 465.749 1079.21C481.23 1086.42 490.26 1106.44 485.745 1122.65C482.52 1133.46 467.037 1148.28 454.565 1152.28C449.405 1153.88 432.418 1155.29 411.128 1155.89L376.079 1156.89L376.079 1078.41L376.079 999.731L406.83 1000.73C432.418 1001.53 439.084 1002.34 448.115 1006.14ZM1079.67 1055.79C1080.75 1117.45 1081.82 1124.05 1094.72 1136.27C1105.48 1146.68 1113 1149.28 1129.77 1149.48C1155.37 1149.48 1170.2 1138.27 1177.08 1113.45C1179.66 1104.23 1180.31 1090.22 1180.31 1050.98L1180.31 1000.33L1185.9 1000.33L1191.49 1000.33L1191.49 1000.33L1190.63 1052.79C1189.77 1099.63 1189.12 1106.84 1185.04 1118.45C1175.79 1144.67 1161.17 1156.29 1135.37 1158.09C1115.8 1159.29 1100.96 1154.68 1089.78 1144.07C1073.22 1128.26 1068.49 1104.84 1068.49 1040.97L1068.49 1000.33L1073.65 1000.33L1079.03 1000.33L1079.67 1055.79Z" fill="#ffc600" fill-opacity="0" fill-rule="nonzero" opacity="1" stroke="#ffffff" stroke-linecap="butt" stroke-linejoin="round" stroke-width="5.56049" vectornator:layerName="path"/>
<path d="M269.636 468.826L269.636 576.512L335.221 611.746C371.347 631.366 445.534 671.407 500.154 700.835L599.715 754.288L732.391 682.816C805.503 643.579 879.906 603.539 897.538 593.93L929.792 576.512L929.792 398.737L929.792 220.961L897.538 203.543C799.481 150.49 599.929 43.3851 599.285 43.3851C599.069 43.5845 549.396 70.2097 488.973 102.644C428.763 135.274 354.573 175.115 324.47 191.33L269.636 220.961L269.636 398.737L269.636 468.826M698.199 241.98C705.296 248.586 698.416 255.594 685.083 255.594C677.773 255.594 677.557 255.794 676.052 265.004C673.471 281.419 666.375 298.637 657.558 309.449L649.174 319.659L684.439 319.659C713.899 319.659 720.135 320.26 722.5 322.861C727.229 328.066 722.283 332.672 710.888 333.271L700.997 333.872L699.706 343.281C695.191 375.314 685.727 396.335 667.879 414.152L662.29 419.758L705.726 419.758C750.883 419.758 754.541 420.356 754.541 428.165C754.541 433.17 747.874 435.774 735.402 435.774C723.36 435.774 724.004 434.971 721.209 458.796C716.264 499.636 691.103 535.07 656.054 550.485C641.861 556.892 641 556.892 604.874 557.493C555.632 558.493 540.579 554.089 515.205 532.27C496.496 515.852 481.66 486.224 478.218 458.596C475.424 434.771 476.284 435.974 461.661 435.373C447.041 434.771 441.665 430.769 446.18 424.162C448.331 421.16 453.707 420.559 493.488 419.758C518.216 419.157 537.354 418.357 536.064 418.154C532.622 417.556 515.851 395.933 511.336 385.923C506.604 376.114 501.659 357.696 499.724 343.281L498.434 333.872L488.543 333.271C477.144 332.672 472.199 328.066 476.931 322.861C479.295 320.26 485.531 319.659 515.205 319.659L550.687 319.659L544.664 313.052C535.85 303.443 527.247 284.823 524.238 269.408L521.657 255.594L514.344 255.594C501.015 255.594 494.132 248.586 501.228 241.98C504.883 238.578 694.544 238.578 698.199 241.98Z" fill="none" opacity="1" stroke="#ffffff" stroke-linecap="butt" stroke-linejoin="round" stroke-width="5.56049" vectornator:layerName="path"/>
<path d="M539.505 261.6C539.505 270.408 547.462 291.031 554.558 300.64C557.783 305.044 564.45 311.249 568.965 314.252C576.705 319.257 578.856 319.659 600.145 319.659C621.648 319.659 623.153 319.457 631.326 313.853C645.946 304.042 659.925 277.815 659.925 260.198L659.925 255.594L599.715 255.594L539.505 255.594L539.505 261.6Z" fill="none" opacity="1" stroke="#ffffff" stroke-linecap="butt" stroke-linejoin="round" stroke-width="5.56049" vectornator:layerName="path"/>
<path d="M515.851 339.076C515.851 349.287 522.301 372.51 527.677 382.721C534.773 396.133 543.804 406.144 556.063 413.551L565.954 419.758L599.715 419.758L633.474 419.758L643.368 413.551C655.624 406.144 664.654 396.133 671.751 382.721C677.126 372.51 683.579 349.287 683.579 339.076L683.579 333.672L599.715 333.672L515.851 333.672L515.851 339.076Z" fill="none" opacity="1" stroke="#ffffff" stroke-linecap="butt" stroke-linejoin="round" stroke-width="5.56049" vectornator:layerName="path"/>
<path d="M493.272 447.184C499.078 493.03 517.356 522.06 548.536 535.871C561.869 541.879 562.299 541.879 599.929 541.879L637.776 541.879L653.042 534.871C665.318 529.157 675.439 521.211 683.503 510.862C695.498 495.469 702.941 474.762 706.156 448.187L707.663 435.774L599.715 435.774L491.767 435.774L493.272 447.184Z" fill="none" opacity="1" stroke="#ffffff" stroke-linecap="butt" stroke-linejoin="round" stroke-width="5.56049" vectornator:layerName="path"/>
<path d="M583.588 1008.54C555.416 1014.75 544.664 1036.37 546.602 1084.22C547.676 1115.05 551.117 1126.86 561.652 1136.87C570.469 1144.88 579.716 1148.48 596.06 1149.88C642.291 1153.88 662.073 1132.46 662.073 1078.41C662.073 1046.18 656.267 1028.56 641.861 1016.95C630.466 1007.34 605.305 1003.94 583.588 1008.54Z" fill="none" opacity="1" stroke="#ffffff" stroke-linecap="butt" stroke-linejoin="round" stroke-width="5.56049" vectornator:layerName="path"/>
<path d="M384.68 1078.41L384.68 1148.48L406.183 1148.48C452.2 1148.48 477.144 1136.87 477.144 1115.25C477.144 1098.03 467.467 1086.82 446.394 1079.41L436.073 1075.81L446.824 1070.2C461.017 1062.59 467.037 1054.39 467.253 1042.17C467.683 1020.35 444.03 1008.34 400.163 1008.34L384.68 1008.34L384.68 1078.41Z" fill="none" opacity="1" stroke="#ffffff" stroke-linecap="butt" stroke-linejoin="round" stroke-width="5.56049" vectornator:layerName="path"/>
</g>
</svg>
