<svg width="500" height="118" viewBox="0 0 500 118" fill="none" xmlns="http://www.w3.org/2000/svg">
<g clip-path="url(#clip0_2841_36460)">
<path fill-rule="evenodd" clip-rule="evenodd" d="M45.3368 27.5396H59.8477V85.4835H45.3368V79.3598C42.5017 82.0583 39.6637 84.0023 36.8158 85.1898C33.9688 86.3783 30.8785 86.9756 27.5537 86.9756C20.0837 86.9756 13.6249 84.072 8.17632 78.2678C2.72577 72.4627 0 65.2451 0 56.618C0 47.6724 2.63835 40.3403 7.91308 34.6218C13.1868 28.9072 19.588 26.0495 27.1296 26.0495C30.5974 26.0495 33.8526 26.7064 36.8962 28.0194C39.9379 29.3333 42.7511 31.3032 45.3378 33.93L45.3368 27.5396ZM224.841 108.844C224.566 107.375 223.868 106.078 222.743 104.952C221.255 103.461 219.449 102.717 217.323 102.717C215.23 102.717 213.443 103.461 211.952 104.952C210.468 106.444 209.722 108.236 209.722 110.331C209.722 112.463 210.468 114.272 211.952 115.763C213.443 117.254 215.231 118 217.323 118C219.449 118 221.255 117.254 222.743 115.763C223.977 114.529 224.698 113.076 224.909 111.403H381.162C381.374 113.076 382.098 114.529 383.33 115.763C384.82 117.254 386.608 118 388.695 118C390.823 118 392.627 117.254 394.117 115.763C395.607 114.272 396.352 112.463 396.352 110.331C396.352 108.236 395.607 106.444 394.117 104.952C392.627 103.461 390.823 102.717 388.695 102.717C386.609 102.717 384.82 103.461 383.33 104.952C382.207 106.078 381.506 107.375 381.23 108.844H224.841ZM30.0848 39.4704C25.6018 39.4704 21.8717 41.06 18.9075 44.2373C15.9424 47.4146 14.4583 51.4878 14.4583 56.4598C14.4583 61.4666 15.9682 65.5845 18.987 68.8156C22.0058 72.0466 25.721 73.6622 30.1364 73.6622C34.695 73.6622 38.4707 72.0735 41.4697 68.8962C44.4736 65.7189 45.9755 61.5552 45.9755 56.406C45.9755 51.3663 44.4736 47.2822 41.4697 44.1567C38.4697 41.0331 34.6761 39.4704 30.0848 39.4704ZM74.458 27.5396H89.1299V55.4454C89.1299 60.8773 89.5024 64.6518 90.2484 66.7641C90.9915 68.8763 92.1934 70.5177 93.8444 71.6883C95.4963 72.8609 97.5277 73.4481 99.9466 73.4481C102.36 73.4481 104.408 72.8708 106.096 71.7172C107.785 70.5615 109.036 68.8683 109.855 66.6307C110.459 64.9624 110.757 61.3929 110.757 55.9272V27.5396H125.268V52.092C125.268 62.2121 124.47 69.1351 122.877 72.8619C120.928 77.4068 118.058 80.8947 114.266 83.3274C110.476 85.7582 105.657 86.9765 99.8115 86.9765C93.4689 86.9765 88.3382 85.5561 84.4234 82.7153C80.5076 79.8764 77.755 75.9167 76.1596 70.8402C75.0262 67.3235 74.458 60.935 74.458 51.6669V27.5396ZM182.508 5.17207H197.019V85.4835H182.508V79.3598C179.673 82.0583 176.836 84.0023 173.987 85.1898C171.141 86.3783 168.05 86.9756 164.725 86.9756C157.255 86.9756 150.797 84.072 145.349 78.2678C139.898 72.4627 137.172 65.2451 137.172 56.618C137.172 47.6724 139.81 40.3403 145.086 34.6218C150.359 28.9072 156.761 26.0495 164.301 26.0495C167.77 26.0495 171.025 26.7064 174.069 28.0194C177.11 29.3333 179.924 31.3032 182.509 33.93V5.17207H182.508ZM167.255 39.4704C162.772 39.4704 159.043 41.06 156.079 44.2373C153.114 47.4146 151.63 51.4878 151.63 56.4598C151.63 61.4666 153.141 65.5845 156.16 68.8156C159.178 72.0466 162.894 73.6622 167.308 73.6622C171.867 73.6622 175.642 72.0735 178.641 68.8962C181.646 65.7189 183.148 61.5552 183.148 56.406C183.148 51.3663 181.646 47.2822 178.641 44.1567C175.641 41.0331 171.848 39.4704 167.255 39.4704ZM210.093 27.5396H224.604V85.4835H210.093V27.5396ZM295.717 60.719H249.108C249.78 64.839 251.576 68.1138 254.504 70.5456C257.423 72.9753 261.152 74.1917 265.689 74.1917C271.111 74.1917 275.768 72.2935 279.667 68.4951L291.89 74.2445C288.843 78.5774 285.197 81.7816 280.942 83.858C276.692 85.9354 271.64 86.9746 265.795 86.9746C256.726 86.9746 249.338 84.1078 243.635 78.3724C237.927 72.6379 235.074 65.4571 235.074 56.83C235.074 47.9889 237.918 40.6499 243.604 34.8079C249.295 28.969 256.422 26.0485 265 26.0485C274.106 26.0485 281.51 28.969 287.213 34.8079C292.917 40.6499 295.769 48.3632 295.769 57.9469L295.717 60.719ZM281.205 49.269C280.248 46.038 278.359 43.4111 275.537 41.3885C272.716 39.3639 269.443 38.3525 265.714 38.3525C261.669 38.3525 258.119 39.4883 255.066 41.7598C253.151 43.1802 251.378 45.6836 249.745 49.269H281.205ZM307.463 27.5396H321.97V33.4791C325.26 30.6999 328.242 28.7659 330.912 27.6789C333.585 26.593 336.319 26.0495 339.115 26.0495C344.845 26.0495 349.71 28.0542 353.709 32.0666C357.067 35.4739 358.748 40.5175 358.748 47.1916V85.4825H344.397V60.1079C344.397 53.1939 344.088 48.6011 343.472 46.3336C342.851 44.0621 341.775 42.3341 340.234 41.1466C338.697 39.9571 336.8 39.3639 334.535 39.3639C331.601 39.3639 329.083 40.3483 326.982 42.3172C324.876 44.2851 323.417 47.0055 322.606 50.4814C322.181 52.291 321.969 56.2079 321.969 62.239V85.4845H307.462L307.463 27.5396ZM408.174 35.6361L399.193 44.6355C395.542 41.0142 392.232 39.2026 389.254 39.2026C387.626 39.2026 386.348 39.549 385.428 40.2418C384.504 40.9336 384.045 41.7946 384.045 42.8248C384.045 43.6062 384.339 44.3259 384.925 44.9809C385.506 45.6398 386.951 46.5367 389.253 47.6724L394.569 50.3361C400.17 53.1043 404.011 55.9272 406.102 58.8009C408.191 61.6796 409.236 65.051 409.236 68.9191C409.236 74.0683 407.353 78.3644 403.576 81.8075C399.804 85.2525 394.747 86.9746 388.406 86.9746C379.974 86.9746 373.24 83.6728 368.209 77.0694L377.137 67.3215C378.838 69.3103 380.832 70.9169 383.115 72.1432C385.403 73.3665 387.43 73.9787 389.201 73.9787C391.114 73.9787 392.657 73.5198 393.823 72.5951C394.995 71.6714 395.577 70.6083 395.577 69.3979C395.577 67.1622 393.471 64.9793 389.254 62.8482L384.365 60.3985C375.012 55.6774 370.332 49.7657 370.332 42.6636C370.332 38.0838 372.094 34.1689 375.623 30.9229C379.147 27.673 383.658 26.0495 389.148 26.0495C392.902 26.0495 396.437 26.8727 399.751 28.527C403.064 30.1784 405.873 32.5454 408.174 35.6361ZM478.595 60.719H431.985C432.658 64.839 434.454 68.1138 437.382 70.5456C440.302 72.9753 444.032 74.1917 448.567 74.1917C453.989 74.1917 458.646 72.2935 462.544 68.4951L474.768 74.2445C471.721 78.5774 468.075 81.7816 463.821 83.858C459.57 85.9354 454.517 86.9746 448.671 86.9746C439.604 86.9746 432.216 84.1078 426.512 78.3724C420.805 72.6379 417.952 65.4571 417.952 56.83C417.952 47.9889 420.796 40.6499 426.482 34.8079C432.173 28.969 439.299 26.0485 447.878 26.0485C456.983 26.0485 464.388 28.969 470.091 34.8079C475.794 40.6499 478.647 48.3632 478.647 57.9469L478.595 60.719ZM464.085 49.269C463.125 46.038 461.237 43.4111 458.417 41.3885C455.596 39.3639 452.322 38.3525 448.594 38.3525C444.548 38.3525 440.998 39.4883 437.945 41.7598C436.031 43.1802 434.255 45.6836 432.624 49.269H464.085ZM492.341 71.6913C494.469 71.6913 496.275 72.4358 497.765 73.9279C499.253 75.42 500 77.2117 500 79.306C500 81.4372 499.253 83.2478 497.765 84.7379C496.275 86.23 494.469 86.9756 492.341 86.9756C490.254 86.9756 488.467 86.23 486.977 84.7379C485.489 83.2478 484.742 81.4372 484.742 79.306C484.742 77.2117 485.489 75.42 486.977 73.9279C488.467 72.4358 490.255 71.6913 492.341 71.6913ZM492.341 48.9963C494.469 48.9963 496.275 49.7398 497.765 51.2319C499.253 52.725 500 54.5167 500 56.6091C500 58.7412 499.253 60.5528 497.765 62.0419C496.275 63.534 494.469 64.2806 492.341 64.2806C490.254 64.2806 488.467 63.534 486.977 62.0419C485.489 60.5528 484.742 58.7412 484.742 56.6091C484.742 54.5157 485.489 52.725 486.977 51.2319C488.467 49.7398 490.255 48.9963 492.341 48.9963ZM29.898 0C32.0258 0 33.8307 0.743559 35.3198 2.23566C36.8088 3.72775 37.5499 5.51847 37.5499 7.61377C37.5499 9.74491 36.8088 11.5565 35.3198 13.0466C33.8307 14.5377 32.0258 15.2843 29.898 15.2843C27.807 15.2843 26.018 14.5377 24.5299 13.0466C23.0449 11.5565 22.2979 9.74491 22.2979 7.61377C22.2979 5.51946 23.0449 3.72775 24.5299 2.23566C26.018 0.743559 27.807 0 29.898 0Z" fill="#F7F7F7"/>
</g>
<defs>
<clipPath id="clip0_2841_36460">
<rect width="500" height="118" fill="white"/>
</clipPath>
</defs>
</svg>
