<svg xmlns="http://www.w3.org/2000/svg" width="680" height="600" viewBox="0 0 680 600" fill="none">
<path d="M107.076 384.435C107.076 385.351 106.344 386.083 105.429 386.083C104.514 386.083 103.782 385.351 103.782 384.435C103.782 383.519 104.514 382.787 105.429 382.787C106.344 382.787 107.076 383.519 107.076 384.435Z" fill="#1FC066"/>
<path d="M120.688 384.435C120.688 385.351 119.956 386.083 119.042 386.083C118.127 386.083 117.395 385.351 117.395 384.435C117.395 383.519 118.127 382.787 119.042 382.787C119.956 382.787 120.688 383.519 120.688 384.435Z" fill="#1FC066"/>
<path d="M134.283 384.435C134.283 385.351 133.551 386.083 132.637 386.083C131.722 386.083 130.99 385.351 130.99 384.435C130.99 383.519 131.722 382.787 132.637 382.787C133.551 382.787 134.283 383.519 134.283 384.435Z" fill="#1FC066"/>
<path d="M147.896 384.435C147.896 385.351 147.164 386.083 146.249 386.083C145.335 386.083 144.603 385.351 144.603 384.435C144.603 383.519 145.335 382.787 146.249 382.787C147.164 382.787 147.896 383.519 147.896 384.435Z" fill="#1FC066"/>
<path d="M161.491 384.435C161.491 385.351 160.759 386.083 159.844 386.083C158.93 386.083 158.198 385.351 158.198 384.435C158.198 383.519 158.93 382.787 159.844 382.787C160.759 382.787 161.491 383.519 161.491 384.435Z" fill="#1FC066"/>
<path d="M175.104 384.435C175.104 385.351 174.372 386.083 173.457 386.083C172.542 386.083 171.811 385.351 171.811 384.435C171.811 383.519 172.542 382.787 173.457 382.787C174.372 382.787 175.104 383.519 175.104 384.435Z" fill="#1FC066"/>
<path d="M188.698 384.435C188.698 385.351 187.966 386.083 187.051 386.083C186.137 386.083 185.405 385.351 185.405 384.435C185.405 383.519 186.137 382.787 187.051 382.787C187.966 382.787 188.698 383.519 188.698 384.435Z" fill="#1FC066"/>
<path d="M202.293 384.435C202.293 385.351 201.561 386.083 200.646 386.083C199.732 386.083 199 385.351 199 384.435C199 383.519 199.732 382.787 200.646 382.787C201.561 382.787 202.293 383.519 202.293 384.435Z" fill="#1FC066"/>
<path d="M215.906 384.435C215.906 385.351 215.174 386.083 214.259 386.083C213.344 386.083 212.613 385.351 212.613 384.435C212.613 383.519 213.344 382.787 214.259 382.787C215.174 382.787 215.906 383.519 215.906 384.435Z" fill="#1FC066"/>
<path d="M107.075 396.759C107.075 397.675 106.344 398.407 105.429 398.407C104.514 398.407 103.782 397.675 103.782 396.759C103.782 395.843 104.514 395.111 105.429 395.111C106.344 395.111 107.075 395.843 107.075 396.759Z" fill="#1FC066"/>
<path d="M120.688 396.759C120.688 397.675 119.956 398.407 119.042 398.407C118.127 398.407 117.395 397.675 117.395 396.759C117.395 395.843 118.127 395.111 119.042 395.111C119.956 395.111 120.688 395.843 120.688 396.759Z" fill="#1FC066"/>
<path d="M134.283 396.759C134.283 397.675 133.551 398.407 132.637 398.407C131.722 398.407 130.99 397.675 130.99 396.759C130.99 395.843 131.722 395.111 132.637 395.111C133.551 395.111 134.283 395.843 134.283 396.759Z" fill="#1FC066"/>
<path d="M147.896 396.759C147.896 397.675 147.164 398.407 146.249 398.407C145.335 398.407 144.603 397.675 144.603 396.759C144.603 395.843 145.335 395.111 146.249 395.111C147.164 395.111 147.896 395.843 147.896 396.759Z" fill="#1FC066"/>
<path d="M161.491 396.759C161.491 397.675 160.759 398.407 159.844 398.407C158.93 398.407 158.198 397.675 158.198 396.759C158.198 395.843 158.93 395.111 159.844 395.111C160.759 395.111 161.491 395.843 161.491 396.759Z" fill="#1FC066"/>
<path d="M175.104 396.759C175.104 397.675 174.372 398.407 173.457 398.407C172.542 398.407 171.811 397.675 171.811 396.759C171.811 395.843 172.542 395.111 173.457 395.111C174.372 395.111 175.104 395.843 175.104 396.759Z" fill="#1FC066"/>
<path d="M188.698 396.759C188.698 397.675 187.966 398.407 187.051 398.407C186.137 398.407 185.405 397.675 185.405 396.759C185.405 395.843 186.137 395.111 187.051 395.111C187.966 395.111 188.698 395.843 188.698 396.759Z" fill="#1FC066"/>
<path d="M202.293 396.759C202.293 397.675 201.561 398.407 200.646 398.407C199.732 398.407 199 397.675 199 396.759C199 395.843 199.732 395.111 200.646 395.111C201.561 395.111 202.293 395.843 202.293 396.759Z" fill="#1FC066"/>
<path d="M215.906 396.759C215.906 397.675 215.174 398.407 214.259 398.407C213.344 398.407 212.613 397.675 212.613 396.759C212.613 395.843 213.344 395.111 214.259 395.111C215.174 395.111 215.906 395.843 215.906 396.759Z" fill="#1FC066"/>
<path d="M107.075 409.083C107.075 409.999 106.344 410.731 105.429 410.731C104.514 410.731 103.782 409.999 103.782 409.083C103.782 408.168 104.514 407.435 105.429 407.435C106.344 407.435 107.075 408.168 107.075 409.083Z" fill="#1FC066"/>
<path d="M120.688 409.083C120.688 409.999 119.956 410.731 119.042 410.731C118.127 410.731 117.395 409.999 117.395 409.083C117.395 408.168 118.127 407.435 119.042 407.435C119.956 407.435 120.688 408.168 120.688 409.083Z" fill="#1FC066"/>
<path d="M134.283 409.083C134.283 409.999 133.551 410.731 132.637 410.731C131.722 410.731 130.99 409.999 130.99 409.083C130.99 408.168 131.722 407.435 132.637 407.435C133.551 407.435 134.283 408.168 134.283 409.083Z" fill="#1FC066"/>
<path d="M147.896 409.083C147.896 409.999 147.164 410.731 146.249 410.731C145.335 410.731 144.603 409.999 144.603 409.083C144.603 408.168 145.335 407.435 146.249 407.435C147.164 407.435 147.896 408.168 147.896 409.083Z" fill="#1FC066"/>
<path d="M161.491 409.083C161.491 409.999 160.759 410.731 159.844 410.731C158.93 410.731 158.198 409.999 158.198 409.083C158.198 408.168 158.93 407.435 159.844 407.435C160.759 407.435 161.491 408.168 161.491 409.083Z" fill="#1FC066"/>
<path d="M175.104 409.083C175.104 409.999 174.372 410.731 173.457 410.731C172.542 410.731 171.811 409.999 171.811 409.083C171.811 408.168 172.542 407.435 173.457 407.435C174.372 407.435 175.104 408.168 175.104 409.083Z" fill="#1FC066"/>
<path d="M188.698 409.083C188.698 409.999 187.966 410.731 187.051 410.731C186.137 410.731 185.405 409.999 185.405 409.083C185.405 408.168 186.137 407.435 187.051 407.435C187.966 407.435 188.698 408.168 188.698 409.083Z" fill="#1FC066"/>
<path d="M202.293 409.083C202.293 409.999 201.561 410.731 200.646 410.731C199.732 410.731 199 409.999 199 409.083C199 408.168 199.732 407.435 200.646 407.435C201.561 407.435 202.293 408.168 202.293 409.083Z" fill="#1FC066"/>
<path d="M215.906 409.083C215.906 409.999 215.174 410.731 214.259 410.731C213.344 410.731 212.613 409.999 212.613 409.083C212.613 408.168 213.344 407.435 214.259 407.435C215.174 407.435 215.906 408.168 215.906 409.083Z" fill="#1FC066"/>
<path d="M107.075 421.407C107.075 422.323 106.344 423.055 105.429 423.055C104.514 423.055 103.782 422.323 103.782 421.407C103.782 420.492 104.514 419.759 105.429 419.759C106.344 419.759 107.075 420.492 107.075 421.407Z" fill="#1FC066"/>
<path d="M120.688 421.407C120.688 422.323 119.956 423.055 119.042 423.055C118.127 423.055 117.395 422.323 117.395 421.407C117.395 420.492 118.127 419.759 119.042 419.759C119.956 419.759 120.688 420.492 120.688 421.407Z" fill="#1FC066"/>
<path d="M134.283 421.407C134.283 422.323 133.551 423.055 132.637 423.055C131.722 423.055 130.99 422.323 130.99 421.407C130.99 420.492 131.722 419.759 132.637 419.759C133.551 419.759 134.283 420.492 134.283 421.407Z" fill="#1FC066"/>
<path d="M147.896 421.407C147.896 422.323 147.164 423.055 146.249 423.055C145.335 423.055 144.603 422.323 144.603 421.407C144.603 420.492 145.335 419.759 146.249 419.759C147.164 419.759 147.896 420.492 147.896 421.407Z" fill="#1FC066"/>
<path d="M161.491 421.407C161.491 422.323 160.759 423.055 159.844 423.055C158.93 423.055 158.198 422.323 158.198 421.407C158.198 420.492 158.93 419.759 159.844 419.759C160.759 419.759 161.491 420.492 161.491 421.407Z" fill="#1FC066"/>
<path d="M175.104 421.407C175.104 422.323 174.372 423.055 173.457 423.055C172.542 423.055 171.811 422.323 171.811 421.407C171.811 420.492 172.542 419.759 173.457 419.759C174.372 419.759 175.104 420.492 175.104 421.407Z" fill="#1FC066"/>
<path d="M188.698 421.407C188.698 422.323 187.966 423.055 187.051 423.055C186.137 423.055 185.405 422.323 185.405 421.407C185.405 420.492 186.137 419.759 187.051 419.759C187.966 419.759 188.698 420.492 188.698 421.407Z" fill="#1FC066"/>
<path d="M202.293 421.407C202.293 422.323 201.561 423.055 200.646 423.055C199.732 423.055 199 422.323 199 421.407C199 420.492 199.732 419.759 200.646 419.759C201.561 419.759 202.293 420.492 202.293 421.407Z" fill="#1FC066"/>
<path d="M215.906 421.407C215.906 422.323 215.174 423.055 214.259 423.055C213.344 423.055 212.613 422.323 212.613 421.407C212.613 420.492 213.344 419.759 214.259 419.759C215.174 419.759 215.906 420.492 215.906 421.407Z" fill="#1FC066"/>
<path d="M105.429 435.398C106.338 435.398 107.075 434.66 107.075 433.75C107.075 432.839 106.338 432.101 105.429 432.101C104.519 432.101 103.782 432.839 103.782 433.75C103.782 434.66 104.519 435.398 105.429 435.398Z" fill="#1FC066"/>
<path d="M119.042 435.398C119.951 435.398 120.688 434.66 120.688 433.75C120.688 432.839 119.951 432.101 119.042 432.101C118.132 432.101 117.395 432.839 117.395 433.75C117.395 434.66 118.132 435.398 119.042 435.398Z" fill="#1FC066"/>
<path d="M132.637 435.398C133.546 435.398 134.283 434.66 134.283 433.75C134.283 432.839 133.546 432.101 132.637 432.101C131.727 432.101 130.99 432.839 130.99 433.75C130.99 434.66 131.727 435.398 132.637 435.398Z" fill="#1FC066"/>
<path d="M146.249 435.398C147.159 435.398 147.896 434.66 147.896 433.75C147.896 432.839 147.159 432.101 146.249 432.101C145.34 432.101 144.603 432.839 144.603 433.75C144.603 434.66 145.34 435.398 146.249 435.398Z" fill="#1FC066"/>
<path d="M161.491 433.75C161.491 434.665 160.759 435.398 159.844 435.398C158.93 435.398 158.198 434.665 158.198 433.75C158.198 432.834 158.93 432.101 159.844 432.101C160.759 432.101 161.491 432.834 161.491 433.75Z" fill="#1FC066"/>
<path d="M173.457 435.398C174.367 435.398 175.104 434.66 175.104 433.75C175.104 432.839 174.367 432.101 173.457 432.101C172.548 432.101 171.811 432.839 171.811 433.75C171.811 434.66 172.548 435.398 173.457 435.398Z" fill="#1FC066"/>
<path d="M187.051 435.398C187.961 435.398 188.698 434.66 188.698 433.75C188.698 432.839 187.961 432.101 187.051 432.101C186.142 432.101 185.405 432.839 185.405 433.75C185.405 434.66 186.142 435.398 187.051 435.398Z" fill="#1FC066"/>
<path d="M200.646 435.398C201.556 435.398 202.293 434.66 202.293 433.75C202.293 432.839 201.556 432.101 200.646 432.101C199.737 432.101 199 432.839 199 433.75C199 434.66 199.737 435.398 200.646 435.398Z" fill="#1FC066"/>
<path d="M214.259 435.398C215.169 435.398 215.906 434.66 215.906 433.75C215.906 432.839 215.169 432.101 214.259 432.101C213.35 432.101 212.613 432.839 212.613 433.75C212.613 434.66 213.35 435.398 214.259 435.398Z" fill="#1FC066"/>
<path d="M105.429 447.722C106.338 447.722 107.075 446.984 107.075 446.074C107.075 445.163 106.338 444.426 105.429 444.426C104.519 444.426 103.782 445.163 103.782 446.074C103.782 446.984 104.519 447.722 105.429 447.722Z" fill="#1FC066"/>
<path d="M119.042 447.722C119.951 447.722 120.688 446.984 120.688 446.074C120.688 445.163 119.951 444.426 119.042 444.426C118.132 444.426 117.395 445.163 117.395 446.074C117.395 446.984 118.132 447.722 119.042 447.722Z" fill="#1FC066"/>
<path d="M132.637 447.722C133.546 447.722 134.283 446.984 134.283 446.074C134.283 445.163 133.546 444.426 132.637 444.426C131.727 444.426 130.99 445.163 130.99 446.074C130.99 446.984 131.727 447.722 132.637 447.722Z" fill="#1FC066"/>
<path d="M146.249 447.722C147.159 447.722 147.896 446.984 147.896 446.074C147.896 445.163 147.159 444.426 146.249 444.426C145.34 444.426 144.603 445.163 144.603 446.074C144.603 446.984 145.34 447.722 146.249 447.722Z" fill="#1FC066"/>
<path d="M161.491 446.074C161.491 446.989 160.759 447.722 159.844 447.722C158.93 447.722 158.198 446.989 158.198 446.074C158.198 445.158 158.93 444.426 159.844 444.426C160.759 444.426 161.491 445.158 161.491 446.074Z" fill="#1FC066"/>
<path d="M173.457 447.722C174.367 447.722 175.104 446.984 175.104 446.074C175.104 445.163 174.367 444.426 173.457 444.426C172.548 444.426 171.811 445.163 171.811 446.074C171.811 446.984 172.548 447.722 173.457 447.722Z" fill="#1FC066"/>
<path d="M187.051 447.722C187.961 447.722 188.698 446.984 188.698 446.074C188.698 445.163 187.961 444.426 187.051 444.426C186.142 444.426 185.405 445.163 185.405 446.074C185.405 446.984 186.142 447.722 187.051 447.722Z" fill="#1FC066"/>
<path d="M200.646 447.722C201.556 447.722 202.293 446.984 202.293 446.074C202.293 445.163 201.556 444.426 200.646 444.426C199.737 444.426 199 445.163 199 446.074C199 446.984 199.737 447.722 200.646 447.722Z" fill="#1FC066"/>
<path d="M214.259 447.722C215.169 447.722 215.906 446.984 215.906 446.074C215.906 445.163 215.169 444.426 214.259 444.426C213.35 444.426 212.613 445.163 212.613 446.074C212.613 446.984 213.35 447.722 214.259 447.722Z" fill="#1FC066"/>
<path d="M105.429 460.046C106.338 460.046 107.075 459.308 107.075 458.398C107.075 457.488 106.338 456.75 105.429 456.75C104.519 456.75 103.782 457.488 103.782 458.398C103.782 459.308 104.519 460.046 105.429 460.046Z" fill="#1FC066"/>
<path d="M119.042 460.046C119.951 460.046 120.688 459.308 120.688 458.398C120.688 457.488 119.951 456.75 119.042 456.75C118.132 456.75 117.395 457.488 117.395 458.398C117.395 459.308 118.132 460.046 119.042 460.046Z" fill="#1FC066"/>
<path d="M132.637 460.046C133.546 460.046 134.283 459.308 134.283 458.398C134.283 457.488 133.546 456.75 132.637 456.75C131.727 456.75 130.99 457.488 130.99 458.398C130.99 459.308 131.727 460.046 132.637 460.046Z" fill="#1FC066"/>
<path d="M146.249 460.046C147.159 460.046 147.896 459.308 147.896 458.398C147.896 457.488 147.159 456.75 146.249 456.75C145.34 456.75 144.603 457.488 144.603 458.398C144.603 459.308 145.34 460.046 146.249 460.046Z" fill="#1FC066"/>
<path d="M161.491 458.398C161.491 459.313 160.759 460.046 159.844 460.046C158.93 460.046 158.198 459.313 158.198 458.398C158.198 457.482 158.93 456.75 159.844 456.75C160.759 456.75 161.491 457.482 161.491 458.398Z" fill="#1FC066"/>
<path d="M173.457 460.046C174.367 460.046 175.104 459.308 175.104 458.398C175.104 457.488 174.367 456.75 173.457 456.75C172.548 456.75 171.811 457.488 171.811 458.398C171.811 459.308 172.548 460.046 173.457 460.046Z" fill="#1FC066"/>
<path d="M187.051 460.046C187.961 460.046 188.698 459.308 188.698 458.398C188.698 457.488 187.961 456.75 187.051 456.75C186.142 456.75 185.405 457.488 185.405 458.398C185.405 459.308 186.142 460.046 187.051 460.046Z" fill="#1FC066"/>
<path d="M200.646 460.046C201.556 460.046 202.293 459.308 202.293 458.398C202.293 457.488 201.556 456.75 200.646 456.75C199.737 456.75 199 457.488 199 458.398C199 459.308 199.737 460.046 200.646 460.046Z" fill="#1FC066"/>
<path d="M214.259 460.046C215.169 460.046 215.906 459.308 215.906 458.398C215.906 457.488 215.169 456.75 214.259 456.75C213.35 456.75 212.613 457.488 212.613 458.398C212.613 459.308 213.35 460.046 214.259 460.046Z" fill="#1FC066"/>
<path d="M105.429 472.37C106.338 472.37 107.075 471.632 107.075 470.722C107.075 469.812 106.338 469.074 105.429 469.074C104.519 469.074 103.782 469.812 103.782 470.722C103.782 471.632 104.519 472.37 105.429 472.37Z" fill="#1FC066"/>
<path d="M119.042 472.37C119.951 472.37 120.688 471.632 120.688 470.722C120.688 469.812 119.951 469.074 119.042 469.074C118.132 469.074 117.395 469.812 117.395 470.722C117.395 471.632 118.132 472.37 119.042 472.37Z" fill="#1FC066"/>
<path d="M132.637 472.37C133.546 472.37 134.283 471.632 134.283 470.722C134.283 469.812 133.546 469.074 132.637 469.074C131.727 469.074 130.99 469.812 130.99 470.722C130.99 471.632 131.727 472.37 132.637 472.37Z" fill="#1FC066"/>
<path d="M146.249 472.37C147.159 472.37 147.896 471.632 147.896 470.722C147.896 469.812 147.159 469.074 146.249 469.074C145.34 469.074 144.603 469.812 144.603 470.722C144.603 471.632 145.34 472.37 146.249 472.37Z" fill="#1FC066"/>
<path d="M161.491 470.722C161.491 471.637 160.759 472.37 159.844 472.37C158.93 472.37 158.198 471.637 158.198 470.722C158.198 469.806 158.93 469.074 159.844 469.074C160.759 469.074 161.491 469.806 161.491 470.722Z" fill="#1FC066"/>
<path d="M173.457 472.37C174.367 472.37 175.104 471.632 175.104 470.722C175.104 469.812 174.367 469.074 173.457 469.074C172.548 469.074 171.811 469.812 171.811 470.722C171.811 471.632 172.548 472.37 173.457 472.37Z" fill="#1FC066"/>
<path d="M187.051 472.37C187.961 472.37 188.698 471.632 188.698 470.722C188.698 469.812 187.961 469.074 187.051 469.074C186.142 469.074 185.405 469.812 185.405 470.722C185.405 471.632 186.142 472.37 187.051 472.37Z" fill="#1FC066"/>
<path d="M200.646 472.37C201.556 472.37 202.293 471.632 202.293 470.722C202.293 469.812 201.556 469.074 200.646 469.074C199.737 469.074 199 469.812 199 470.722C199 471.632 199.737 472.37 200.646 472.37Z" fill="#1FC066"/>
<path d="M214.259 472.37C215.169 472.37 215.906 471.632 215.906 470.722C215.906 469.812 215.169 469.074 214.259 469.074C213.35 469.074 212.613 469.812 212.613 470.722C212.613 471.632 213.35 472.37 214.259 472.37Z" fill="#1FC066"/>
<path d="M105.429 484.694C106.338 484.694 107.075 483.956 107.075 483.046C107.075 482.136 106.338 481.398 105.429 481.398C104.519 481.398 103.782 482.136 103.782 483.046C103.782 483.956 104.519 484.694 105.429 484.694Z" fill="#1FC066"/>
<path d="M119.042 484.694C119.951 484.694 120.688 483.956 120.688 483.046C120.688 482.136 119.951 481.398 119.042 481.398C118.132 481.398 117.395 482.136 117.395 483.046C117.395 483.956 118.132 484.694 119.042 484.694Z" fill="#1FC066"/>
<path d="M132.637 484.694C133.546 484.694 134.283 483.956 134.283 483.046C134.283 482.136 133.546 481.398 132.637 481.398C131.727 481.398 130.99 482.136 130.99 483.046C130.99 483.956 131.727 484.694 132.637 484.694Z" fill="#1FC066"/>
<path d="M146.249 484.694C147.159 484.694 147.896 483.956 147.896 483.046C147.896 482.136 147.159 481.398 146.249 481.398C145.34 481.398 144.603 482.136 144.603 483.046C144.603 483.956 145.34 484.694 146.249 484.694Z" fill="#1FC066"/>
<path d="M161.491 483.046C161.491 483.961 160.759 484.694 159.844 484.694C158.93 484.694 158.198 483.961 158.198 483.046C158.198 482.13 158.93 481.398 159.844 481.398C160.759 481.398 161.491 482.13 161.491 483.046Z" fill="#1FC066"/>
<path d="M173.457 484.694C174.367 484.694 175.104 483.956 175.104 483.046C175.104 482.136 174.367 481.398 173.457 481.398C172.548 481.398 171.811 482.136 171.811 483.046C171.811 483.956 172.548 484.694 173.457 484.694Z" fill="#1FC066"/>
<path d="M187.051 484.694C187.961 484.694 188.698 483.956 188.698 483.046C188.698 482.136 187.961 481.398 187.051 481.398C186.142 481.398 185.405 482.136 185.405 483.046C185.405 483.956 186.142 484.694 187.051 484.694Z" fill="#1FC066"/>
<path d="M200.646 484.694C201.556 484.694 202.293 483.956 202.293 483.046C202.293 482.136 201.556 481.398 200.646 481.398C199.737 481.398 199 482.136 199 483.046C199 483.956 199.737 484.694 200.646 484.694Z" fill="#1FC066"/>
<path d="M214.259 484.694C215.169 484.694 215.906 483.956 215.906 483.046C215.906 482.136 215.169 481.398 214.259 481.398C213.35 481.398 212.613 482.136 212.613 483.046C212.613 483.956 213.35 484.694 214.259 484.694Z" fill="#1FC066"/>
<path d="M301.738 129.328C301.738 130.427 300.86 131.306 299.762 131.306C298.664 131.306 297.786 130.427 297.786 129.328C297.786 128.23 298.664 127.351 299.762 127.351C300.86 127.351 301.738 128.23 301.738 129.328Z" fill="#1FC066"/>
<path d="M315.333 129.328C315.333 130.427 314.455 131.306 313.357 131.306C312.259 131.306 311.381 130.427 311.381 129.328C311.381 128.23 312.259 127.351 313.357 127.351C314.455 127.351 315.333 128.23 315.333 129.328Z" fill="#1FC066"/>
<path d="M328.946 129.328C328.946 130.427 328.067 131.306 326.97 131.306C325.872 131.306 324.994 130.427 324.994 129.328C324.994 128.23 325.872 127.351 326.97 127.351C328.067 127.351 328.946 128.23 328.946 129.328Z" fill="#1FC066"/>
<path d="M342.54 129.328C342.54 130.427 341.662 131.306 340.564 131.306C339.466 131.306 338.588 130.427 338.588 129.328C338.588 128.23 339.466 127.351 340.564 127.351C341.662 127.351 342.54 128.23 342.54 129.328Z" fill="#1FC066"/>
<path d="M356.135 129.328C356.135 130.427 355.257 131.306 354.159 131.306C353.061 131.306 352.183 130.427 352.183 129.328C352.183 128.23 353.061 127.351 354.159 127.351C355.257 127.351 356.135 128.23 356.135 129.328Z" fill="#1FC066"/>
<path d="M369.748 129.328C369.748 130.427 368.869 131.306 367.772 131.306C366.674 131.306 365.796 130.427 365.796 129.328C365.796 128.23 366.674 127.351 367.772 127.351C368.869 127.351 369.748 128.23 369.748 129.328Z" fill="#1FC066"/>
<path d="M383.343 129.328C383.343 130.427 382.464 131.306 381.367 131.306C380.269 131.306 379.391 130.427 379.391 129.328C379.391 128.23 380.269 127.351 381.367 127.351C382.464 127.351 383.343 128.23 383.343 129.328Z" fill="#1FC066"/>
<path d="M396.956 129.328C396.956 130.427 396.077 131.306 394.979 131.306C393.882 131.306 393.003 130.427 393.003 129.328C393.003 128.23 393.882 127.351 394.979 127.351C396.077 127.351 396.956 128.23 396.956 129.328Z" fill="#1FC066"/>
<path d="M301.738 141.652C301.738 142.751 300.86 143.63 299.762 143.63C298.664 143.63 297.786 142.751 297.786 141.652C297.786 140.554 298.664 139.675 299.762 139.675C300.86 139.675 301.738 140.554 301.738 141.652Z" fill="#1FC066"/>
<path d="M315.333 141.652C315.333 142.751 314.455 143.63 313.357 143.63C312.259 143.63 311.381 142.751 311.381 141.652C311.381 140.554 312.259 139.675 313.357 139.675C314.455 139.675 315.333 140.554 315.333 141.652Z" fill="#1FC066"/>
<path d="M328.946 141.652C328.946 142.751 328.067 143.63 326.97 143.63C325.872 143.63 324.994 142.751 324.994 141.652C324.994 140.554 325.872 139.675 326.97 139.675C328.067 139.675 328.946 140.554 328.946 141.652Z" fill="#1FC066"/>
<path d="M342.54 141.652C342.54 142.751 341.662 143.63 340.564 143.63C339.466 143.63 338.588 142.751 338.588 141.652C338.588 140.554 339.466 139.675 340.564 139.675C341.662 139.675 342.54 140.554 342.54 141.652Z" fill="#1FC066"/>
<path d="M356.135 141.652C356.135 142.751 355.257 143.63 354.159 143.63C353.061 143.63 352.183 142.751 352.183 141.652C352.183 140.554 353.061 139.675 354.159 139.675C355.257 139.675 356.135 140.554 356.135 141.652Z" fill="#1FC066"/>
<path d="M369.748 141.652C369.748 142.751 368.869 143.63 367.772 143.63C366.674 143.63 365.796 142.751 365.796 141.652C365.796 140.554 366.674 139.675 367.772 139.675C368.869 139.675 369.748 140.554 369.748 141.652Z" fill="#1FC066"/>
<path d="M383.343 141.652C383.343 142.751 382.464 143.63 381.367 143.63C380.269 143.63 379.391 142.751 379.391 141.652C379.391 140.554 380.269 139.675 381.367 139.675C382.464 139.675 383.343 140.554 383.343 141.652Z" fill="#1FC066"/>
<path d="M396.956 141.652C396.956 142.751 396.077 143.63 394.979 143.63C393.882 143.63 393.003 142.751 393.003 141.652C393.003 140.554 393.882 139.675 394.979 139.675C396.077 139.675 396.956 140.554 396.956 141.652Z" fill="#1FC066"/>
<path d="M301.738 153.976C301.738 155.075 300.86 155.954 299.762 155.954C298.664 155.954 297.786 155.075 297.786 153.976C297.786 152.878 298.664 151.999 299.762 151.999C300.86 151.999 301.738 152.878 301.738 153.976Z" fill="#1FC066"/>
<path d="M315.333 153.976C315.333 155.075 314.455 155.954 313.357 155.954C312.259 155.954 311.381 155.075 311.381 153.976C311.381 152.878 312.259 151.999 313.357 151.999C314.455 151.999 315.333 152.878 315.333 153.976Z" fill="#1FC066"/>
<path d="M328.946 153.976C328.946 155.075 328.067 155.954 326.97 155.954C325.872 155.954 324.994 155.075 324.994 153.976C324.994 152.878 325.872 151.999 326.97 151.999C328.067 151.999 328.946 152.878 328.946 153.976Z" fill="#1FC066"/>
<path d="M342.54 153.976C342.54 155.075 341.662 155.954 340.564 155.954C339.466 155.954 338.588 155.075 338.588 153.976C338.588 152.878 339.466 151.999 340.564 151.999C341.662 151.999 342.54 152.878 342.54 153.976Z" fill="#1FC066"/>
<path d="M356.135 153.976C356.135 155.075 355.257 155.954 354.159 155.954C353.061 155.954 352.183 155.075 352.183 153.976C352.183 152.878 353.061 151.999 354.159 151.999C355.257 151.999 356.135 152.878 356.135 153.976Z" fill="#1FC066"/>
<path d="M369.748 153.976C369.748 155.075 368.869 155.954 367.772 155.954C366.674 155.954 365.796 155.075 365.796 153.976C365.796 152.878 366.674 151.999 367.772 151.999C368.869 151.999 369.748 152.878 369.748 153.976Z" fill="#1FC066"/>
<path d="M383.343 153.976C383.343 155.075 382.464 155.954 381.367 155.954C380.269 155.954 379.391 155.075 379.391 153.976C379.391 152.878 380.269 151.999 381.367 151.999C382.464 151.999 383.343 152.878 383.343 153.976Z" fill="#1FC066"/>
<path d="M396.956 153.976C396.956 155.075 396.077 155.954 394.979 155.954C393.882 155.954 393.003 155.075 393.003 153.976C393.003 152.878 393.882 151.999 394.979 151.999C396.077 151.999 396.956 152.878 396.956 153.976Z" fill="#1FC066"/>
<path d="M301.738 166.301C301.738 167.399 300.86 168.278 299.762 168.278C298.664 168.278 297.786 167.399 297.786 166.301C297.786 165.202 298.664 164.323 299.762 164.323C300.86 164.323 301.738 165.202 301.738 166.301Z" fill="#1FC066"/>
<path d="M315.333 166.301C315.333 167.399 314.455 168.278 313.357 168.278C312.259 168.278 311.381 167.399 311.381 166.301C311.381 165.202 312.259 164.323 313.357 164.323C314.455 164.323 315.333 165.202 315.333 166.301Z" fill="#1FC066"/>
<path d="M328.946 166.301C328.946 167.399 328.067 168.278 326.97 168.278C325.872 168.278 324.994 167.399 324.994 166.301C324.994 165.202 325.872 164.323 326.97 164.323C328.067 164.323 328.946 165.202 328.946 166.301Z" fill="#1FC066"/>
<path d="M342.54 166.301C342.54 167.399 341.662 168.278 340.564 168.278C339.466 168.278 338.588 167.399 338.588 166.301C338.588 165.202 339.466 164.323 340.564 164.323C341.662 164.323 342.54 165.202 342.54 166.301Z" fill="#1FC066"/>
<path d="M356.135 166.301C356.135 167.399 355.257 168.278 354.159 168.278C353.061 168.278 352.183 167.399 352.183 166.301C352.183 165.202 353.061 164.323 354.159 164.323C355.257 164.323 356.135 165.202 356.135 166.301Z" fill="#1FC066"/>
<path d="M369.748 166.301C369.748 167.399 368.869 168.278 367.772 168.278C366.674 168.278 365.796 167.399 365.796 166.301C365.796 165.202 366.674 164.323 367.772 164.323C368.869 164.323 369.748 165.202 369.748 166.301Z" fill="#1FC066"/>
<path d="M383.343 166.301C383.343 167.399 382.464 168.278 381.367 168.278C380.269 168.278 379.391 167.399 379.391 166.301C379.391 165.202 380.269 164.323 381.367 164.323C382.464 164.323 383.343 165.202 383.343 166.301Z" fill="#1FC066"/>
<path d="M396.956 166.301C396.956 167.399 396.077 168.278 394.979 168.278C393.882 168.278 393.003 167.399 393.003 166.301C393.003 165.202 393.882 164.323 394.979 164.323C396.077 164.323 396.956 165.202 396.956 166.301Z" fill="#1FC066"/>
<path d="M299.762 180.602C300.853 180.602 301.738 179.717 301.738 178.625C301.738 177.532 300.853 176.647 299.762 176.647C298.67 176.647 297.786 177.532 297.786 178.625C297.786 179.717 298.67 180.602 299.762 180.602Z" fill="#1FC066"/>
<path d="M313.357 180.602C314.448 180.602 315.333 179.717 315.333 178.625C315.333 177.532 314.448 176.647 313.357 176.647C312.265 176.647 311.381 177.532 311.381 178.625C311.381 179.717 312.265 180.602 313.357 180.602Z" fill="#1FC066"/>
<path d="M326.97 180.602C328.061 180.602 328.946 179.717 328.946 178.625C328.946 177.532 328.061 176.647 326.97 176.647C325.878 176.647 324.994 177.532 324.994 178.625C324.994 179.717 325.878 180.602 326.97 180.602Z" fill="#1FC066"/>
<path d="M340.564 180.602C341.655 180.602 342.54 179.717 342.54 178.625C342.54 177.532 341.655 176.647 340.564 176.647C339.472 176.647 338.588 177.532 338.588 178.625C338.588 179.717 339.472 180.602 340.564 180.602Z" fill="#1FC066"/>
<path d="M356.135 178.625C356.135 179.723 355.257 180.602 354.159 180.602C353.061 180.602 352.183 179.723 352.183 178.625C352.183 177.526 353.061 176.647 354.159 176.647C355.257 176.647 356.135 177.526 356.135 178.625Z" fill="#1FC066"/>
<path d="M367.772 180.602C368.863 180.602 369.748 179.717 369.748 178.625C369.748 177.532 368.863 176.647 367.772 176.647C366.68 176.647 365.796 177.532 365.796 178.625C365.796 179.717 366.68 180.602 367.772 180.602Z" fill="#1FC066"/>
<path d="M381.367 180.602C382.458 180.602 383.343 179.717 383.343 178.625C383.343 177.532 382.458 176.647 381.367 176.647C380.275 176.647 379.391 177.532 379.391 178.625C379.391 179.717 380.275 180.602 381.367 180.602Z" fill="#1FC066"/>
<path d="M394.979 180.602C396.071 180.602 396.956 179.717 396.956 178.625C396.956 177.532 396.071 176.647 394.979 176.647C393.888 176.647 393.003 177.532 393.003 178.625C393.003 179.717 393.888 180.602 394.979 180.602Z" fill="#1FC066"/>
<path d="M299.762 192.926C300.853 192.926 301.738 192.041 301.738 190.949C301.738 189.856 300.853 188.971 299.762 188.971C298.67 188.971 297.786 189.856 297.786 190.949C297.786 192.041 298.67 192.926 299.762 192.926Z" fill="#1FC066"/>
<path d="M313.357 192.926C314.448 192.926 315.333 192.041 315.333 190.949C315.333 189.856 314.448 188.971 313.357 188.971C312.265 188.971 311.381 189.856 311.381 190.949C311.381 192.041 312.265 192.926 313.357 192.926Z" fill="#1FC066"/>
<path d="M326.97 192.926C328.061 192.926 328.946 192.041 328.946 190.949C328.946 189.856 328.061 188.971 326.97 188.971C325.878 188.971 324.994 189.856 324.994 190.949C324.994 192.041 325.878 192.926 326.97 192.926Z" fill="#1FC066"/>
<path d="M340.564 192.926C341.655 192.926 342.54 192.041 342.54 190.949C342.54 189.856 341.655 188.971 340.564 188.971C339.472 188.971 338.588 189.856 338.588 190.949C338.588 192.041 339.472 192.926 340.564 192.926Z" fill="#1FC066"/>
<path d="M356.135 190.949C356.135 192.047 355.257 192.926 354.159 192.926C353.061 192.926 352.183 192.047 352.183 190.949C352.183 189.85 353.061 188.971 354.159 188.971C355.257 188.971 356.135 189.85 356.135 190.949Z" fill="#1FC066"/>
<path d="M367.772 192.926C368.863 192.926 369.748 192.041 369.748 190.949C369.748 189.856 368.863 188.971 367.772 188.971C366.68 188.971 365.796 189.856 365.796 190.949C365.796 192.041 366.68 192.926 367.772 192.926Z" fill="#1FC066"/>
<path d="M381.367 192.926C382.458 192.926 383.343 192.041 383.343 190.949C383.343 189.856 382.458 188.971 381.367 188.971C380.275 188.971 379.391 189.856 379.391 190.949C379.391 192.041 380.275 192.926 381.367 192.926Z" fill="#1FC066"/>
<path d="M394.979 192.926C396.071 192.926 396.956 192.041 396.956 190.949C396.956 189.856 396.071 188.971 394.979 188.971C393.888 188.971 393.003 189.856 393.003 190.949C393.003 192.041 393.888 192.926 394.979 192.926Z" fill="#1FC066"/>
<path d="M299.762 205.251C300.853 205.251 301.738 204.365 301.738 203.273C301.738 202.181 300.853 201.295 299.762 201.295C298.67 201.295 297.786 202.181 297.786 203.273C297.786 204.365 298.67 205.251 299.762 205.251Z" fill="#1FC066"/>
<path d="M313.357 205.251C314.448 205.251 315.333 204.365 315.333 203.273C315.333 202.181 314.448 201.295 313.357 201.295C312.265 201.295 311.381 202.181 311.381 203.273C311.381 204.365 312.265 205.251 313.357 205.251Z" fill="#1FC066"/>
<path d="M326.97 205.251C328.061 205.251 328.946 204.365 328.946 203.273C328.946 202.181 328.061 201.295 326.97 201.295C325.878 201.295 324.994 202.181 324.994 203.273C324.994 204.365 325.878 205.251 326.97 205.251Z" fill="#1FC066"/>
<path d="M340.564 205.251C341.655 205.251 342.54 204.365 342.54 203.273C342.54 202.181 341.655 201.295 340.564 201.295C339.472 201.295 338.588 202.181 338.588 203.273C338.588 204.365 339.472 205.251 340.564 205.251Z" fill="#1FC066"/>
<path d="M356.135 203.273C356.135 204.372 355.257 205.251 354.159 205.251C353.061 205.251 352.183 204.372 352.183 203.273C352.183 202.174 353.061 201.295 354.159 201.295C355.257 201.295 356.135 202.174 356.135 203.273Z" fill="#1FC066"/>
<path d="M367.772 205.251C368.863 205.251 369.748 204.365 369.748 203.273C369.748 202.181 368.863 201.295 367.772 201.295C366.68 201.295 365.796 202.181 365.796 203.273C365.796 204.365 366.68 205.251 367.772 205.251Z" fill="#1FC066"/>
<path d="M381.367 205.251C382.458 205.251 383.343 204.365 383.343 203.273C383.343 202.181 382.458 201.295 381.367 201.295C380.275 201.295 379.391 202.181 379.391 203.273C379.391 204.365 380.275 205.251 381.367 205.251Z" fill="#1FC066"/>
<path d="M394.979 205.251C396.071 205.251 396.956 204.365 396.956 203.273C396.956 202.181 396.071 201.295 394.979 201.295C393.888 201.295 393.003 202.181 393.003 203.273C393.003 204.365 393.888 205.251 394.979 205.251Z" fill="#1FC066"/>
<path d="M299.762 217.575C300.853 217.575 301.738 216.689 301.738 215.597C301.738 214.505 300.853 213.619 299.762 213.619C298.67 213.619 297.786 214.505 297.786 215.597C297.786 216.689 298.67 217.575 299.762 217.575Z" fill="#1FC066"/>
<path d="M313.357 217.575C314.448 217.575 315.333 216.689 315.333 215.597C315.333 214.505 314.448 213.619 313.357 213.619C312.265 213.619 311.381 214.505 311.381 215.597C311.381 216.689 312.265 217.575 313.357 217.575Z" fill="#1FC066"/>
<path d="M326.97 217.575C328.061 217.575 328.946 216.689 328.946 215.597C328.946 214.505 328.061 213.619 326.97 213.619C325.878 213.619 324.994 214.505 324.994 215.597C324.994 216.689 325.878 217.575 326.97 217.575Z" fill="#1FC066"/>
<path d="M340.564 217.575C341.655 217.575 342.54 216.689 342.54 215.597C342.54 214.505 341.655 213.619 340.564 213.619C339.472 213.619 338.588 214.505 338.588 215.597C338.588 216.689 339.472 217.575 340.564 217.575Z" fill="#1FC066"/>
<path d="M356.135 215.597C356.135 216.696 355.257 217.575 354.159 217.575C353.061 217.575 352.183 216.696 352.183 215.597C352.183 214.498 353.061 213.619 354.159 213.619C355.257 213.619 356.135 214.498 356.135 215.597Z" fill="#1FC066"/>
<path d="M367.772 217.575C368.863 217.575 369.748 216.689 369.748 215.597C369.748 214.505 368.863 213.619 367.772 213.619C366.68 213.619 365.796 214.505 365.796 215.597C365.796 216.689 366.68 217.575 367.772 217.575Z" fill="#1FC066"/>
<path d="M381.367 217.575C382.458 217.575 383.343 216.689 383.343 215.597C383.343 214.505 382.458 213.619 381.367 213.619C380.275 213.619 379.391 214.505 379.391 215.597C379.391 216.689 380.275 217.575 381.367 217.575Z" fill="#1FC066"/>
<path d="M394.979 217.575C396.071 217.575 396.956 216.689 396.956 215.597C396.956 214.505 396.071 213.619 394.979 213.619C393.888 213.619 393.003 214.505 393.003 215.597C393.003 216.689 393.888 217.575 394.979 217.575Z" fill="#1FC066"/>
<path d="M299.762 229.899C300.853 229.899 301.738 229.013 301.738 227.921C301.738 226.829 300.853 225.943 299.762 225.943C298.67 225.943 297.786 226.829 297.786 227.921C297.786 229.013 298.67 229.899 299.762 229.899Z" fill="#1FC066"/>
<path d="M313.357 229.899C314.448 229.899 315.333 229.013 315.333 227.921C315.333 226.829 314.448 225.943 313.357 225.943C312.265 225.943 311.381 226.829 311.381 227.921C311.381 229.013 312.265 229.899 313.357 229.899Z" fill="#1FC066"/>
<path d="M326.97 229.899C328.061 229.899 328.946 229.013 328.946 227.921C328.946 226.829 328.061 225.943 326.97 225.943C325.878 225.943 324.994 226.829 324.994 227.921C324.994 229.013 325.878 229.899 326.97 229.899Z" fill="#1FC066"/>
<path d="M340.564 229.899C341.655 229.899 342.54 229.013 342.54 227.921C342.54 226.829 341.655 225.943 340.564 225.943C339.472 225.943 338.588 226.829 338.588 227.921C338.588 229.013 339.472 229.899 340.564 229.899Z" fill="#1FC066"/>
<path d="M356.135 227.921C356.135 229.02 355.257 229.899 354.159 229.899C353.061 229.899 352.183 229.02 352.183 227.921C352.183 226.822 353.061 225.943 354.159 225.943C355.257 225.943 356.135 226.822 356.135 227.921Z" fill="#1FC066"/>
<path d="M367.772 229.899C368.863 229.899 369.748 229.013 369.748 227.921C369.748 226.829 368.863 225.943 367.772 225.943C366.68 225.943 365.796 226.829 365.796 227.921C365.796 229.013 366.68 229.899 367.772 229.899Z" fill="#1FC066"/>
<path d="M381.367 229.899C382.458 229.899 383.343 229.013 383.343 227.921C383.343 226.829 382.458 225.943 381.367 225.943C380.275 225.943 379.391 226.829 379.391 227.921C379.391 229.013 380.275 229.899 381.367 229.899Z" fill="#1FC066"/>
<path d="M394.979 229.899C396.071 229.899 396.956 229.013 396.956 227.921C396.956 226.829 396.071 225.943 394.979 225.943C393.888 225.943 393.003 226.829 393.003 227.921C393.003 229.013 393.888 229.899 394.979 229.899Z" fill="#1FC066"/>
<path d="M110.79 223.123C102.794 223.123 95.4025 221.786 88.5777 219.131C81.7712 216.458 76.1723 212.319 71.8176 206.679C67.4629 201.039 64.8281 193.86 63.895 185.144H91.8711C92.5847 188.019 93.9204 190.344 95.8599 192.139C97.7994 193.934 100.233 195.234 103.16 196.058C106.088 196.882 109.235 197.285 112.62 197.285C114.669 197.285 116.773 197.083 118.914 196.662C121.073 196.259 122.885 195.49 124.367 194.355C125.849 193.219 126.599 191.59 126.599 189.429C126.599 187.891 126.16 186.627 125.3 185.657C124.422 184.686 123.196 183.862 121.604 183.203C120.012 182.543 118.036 181.939 115.694 181.426C114.779 181.225 113.828 181.024 112.858 180.804C111.888 180.602 110.937 180.401 110.022 180.181C109.107 179.961 108.119 179.778 107.094 179.559C101.861 178.423 96.8479 177.123 92.0358 175.64C87.2237 174.156 82.9605 172.179 79.2828 169.725C75.5868 167.271 72.6776 163.975 70.5185 159.873C68.3595 155.771 67.2982 150.589 67.2982 144.344C67.2982 138.594 68.3229 133.76 70.3721 129.804C72.4214 125.867 75.1294 122.681 78.5143 120.264C81.8993 117.865 85.577 116.034 89.584 114.807C93.5727 113.58 97.5249 112.738 101.422 112.261C105.319 111.785 108.796 111.566 111.87 111.566C119.445 111.566 126.105 112.976 131.85 115.796C137.577 118.616 142.225 122.736 145.756 128.175C149.287 133.613 151.41 140.169 152.141 147.86H125.245C124.934 145.608 124.019 143.685 122.482 142.092C120.945 140.499 118.969 139.272 116.572 138.393C114.157 137.532 111.376 137.093 108.192 137.093C106.344 137.093 104.606 137.239 102.959 137.55C101.312 137.862 99.9035 138.32 98.7325 138.942C97.5615 139.565 96.6101 140.334 95.8965 141.25C95.1829 142.165 94.8169 143.246 94.8169 144.472C94.8169 146.121 95.4573 147.494 96.7381 148.629C98.0189 149.765 99.9218 150.735 102.429 151.559C104.935 152.383 108.046 153.244 111.723 154.178C113.462 154.581 115.163 154.965 116.792 155.332C118.438 155.698 120.067 156.082 121.714 156.485C126.215 157.511 130.441 158.701 134.393 160.02C138.346 161.356 141.822 163.096 144.841 165.257C147.86 167.418 150.239 170.311 151.995 173.955C153.733 177.599 154.612 182.232 154.612 187.872C154.612 194.336 153.386 199.794 150.916 204.262C148.464 208.73 145.115 212.337 140.925 215.102C136.717 217.868 132.015 219.9 126.782 221.182C121.549 222.464 116.224 223.105 110.79 223.105V223.123Z" fill="white"/>
<path d="M202.549 222.958C193.017 222.958 185.753 220.248 180.721 214.809C175.708 209.371 173.183 202.101 173.183 192.963V165.129H161.802V140.828H173.183V120.52H200.39V140.828H224.67V165.129H200.39V186.664C200.39 188.916 200.775 190.839 201.543 192.432C202.311 194.025 203.482 195.234 205.074 196.04C206.666 196.864 208.624 197.266 210.984 197.266C213.546 197.266 215.65 196.882 217.278 196.113C218.925 195.344 220.243 194.556 221.267 193.732L228.641 215.121C226.281 217.062 223.536 218.637 220.426 219.809C217.297 220.981 214.168 221.805 211.057 222.263C207.929 222.72 205.093 222.958 202.531 222.958H202.549Z" fill="white"/>
<path d="M262.656 223.123C258.868 223.123 255.282 222.61 251.897 221.585C248.512 220.559 245.511 219.021 242.913 216.97C240.297 214.919 238.229 212.356 236.692 209.279C235.155 206.203 234.387 202.559 234.387 198.365C234.387 192.212 235.686 187.396 238.302 183.899C240.919 180.419 244.45 177.856 248.915 176.207C253.379 174.578 258.447 173.516 264.138 173.058C269.828 172.6 275.738 172.362 281.886 172.362H285.582C285.582 170.421 285.124 168.663 284.191 167.125C283.258 165.586 281.959 164.359 280.276 163.426C278.592 162.492 276.507 162.034 274.055 162.034C272.317 162.034 270.615 162.29 268.987 162.803C267.34 163.316 265.986 164.012 264.906 164.872C263.827 165.751 263.186 166.795 262.985 168.022H235.942C236.564 163.004 238.046 158.664 240.407 155.02C242.767 151.376 245.731 148.41 249.317 146.102C252.903 143.795 256.929 142.074 261.375 140.957C265.839 139.821 270.469 139.272 275.281 139.272C287.174 139.272 296.158 142.586 302.25 149.197C308.343 155.808 311.399 165.531 311.399 178.35V221.878H286.35V211.257C283.679 215.249 280.697 218.069 277.367 219.717C274.037 221.365 271.017 222.336 268.291 222.647C265.583 222.958 263.699 223.105 262.674 223.105L262.656 223.123ZM270.029 202.357C272.591 202.357 275.079 201.716 277.476 200.434C279.892 199.153 281.886 197.541 283.478 195.582C285.07 193.641 285.856 191.681 285.856 189.74V189.118H270.633C269.407 189.118 268.218 189.246 267.102 189.502C265.968 189.758 264.979 190.143 264.101 190.656C263.223 191.168 262.546 191.828 262.034 192.652C261.521 193.476 261.265 194.501 261.265 195.728C261.265 197.175 261.649 198.365 262.418 199.336C263.186 200.306 264.229 201.057 265.565 201.57C266.901 202.083 268.383 202.339 270.029 202.339V202.357Z" fill="white"/>
<path d="M321.353 221.878V140.81H345.175L347.023 148.501C349.073 145.535 351.323 143.374 353.793 142.037C356.245 140.7 358.715 139.876 361.167 139.583C363.619 139.29 365.888 139.125 367.937 139.125C369.675 139.125 371.267 139.144 372.694 139.199C374.121 139.254 375.054 139.327 375.457 139.437V165.733H370.224C366.436 165.733 362.869 166.227 359.538 167.198C356.208 168.168 353.537 170.018 351.543 172.728C349.548 175.438 348.542 179.522 348.542 184.961V221.878H321.334H321.353Z" fill="white"/>
<path d="M422.955 222.958C413.422 222.958 406.158 220.248 401.127 214.809C396.113 209.371 393.588 202.101 393.588 192.963V165.806H382.208V139.675H393.588V120.52H420.796V139.675H445.076V165.806H420.796V186.664C420.796 188.916 421.18 190.839 421.949 192.432C422.717 194.025 423.888 195.234 425.48 196.04C427.072 196.864 429.03 197.266 431.39 197.266C433.952 197.266 436.056 196.882 437.684 196.113C439.331 195.344 440.648 194.556 441.673 193.732L449.047 215.121C446.686 217.062 443.942 218.637 440.831 219.809C437.702 220.981 434.574 221.805 431.463 222.263C428.334 222.72 425.498 222.958 422.937 222.958H422.955Z" fill="white"/>
<path d="M493.088 223.123C480.683 223.123 471.077 220.028 464.27 213.821C457.464 207.613 454.042 198.31 454.042 185.895V140.828H481.25V183.752C481.25 186.426 481.616 188.861 482.329 191.059C483.043 193.274 484.305 195.032 486.099 196.369C487.892 197.706 490.27 198.365 493.253 198.365C496.638 198.365 499.071 197.596 500.553 196.058C502.035 194.52 502.95 192.597 503.316 190.289C503.682 187.982 503.847 185.803 503.847 183.752V140.828H530.89V185.895C530.89 199.116 527.486 208.638 520.662 214.425C513.837 220.23 504.652 223.123 493.07 223.123H493.088Z" fill="white"/>
<path d="M542.051 252.807V140.828H567.264L568.655 149.746C572.351 145.754 576.138 142.971 580.036 141.433C583.933 139.894 588.342 139.125 593.246 139.125C601.022 139.125 607.536 140.993 612.769 144.747C618.002 148.483 621.936 153.519 624.607 159.818C627.278 166.117 628.596 173.168 628.596 180.969C628.596 188.77 627.187 196.149 624.369 202.504C621.552 208.858 617.398 213.894 611.927 217.575C606.438 221.274 599.76 223.105 591.874 223.105C588.69 223.105 585.653 222.72 582.725 221.951C579.798 221.182 577.2 220.175 574.894 218.948C572.589 217.721 570.722 216.384 569.277 214.956V252.789H542.069L542.051 252.807ZM586.311 198.347C590.41 198.347 593.594 197.468 595.844 195.728C598.095 193.989 599.668 191.828 600.528 189.264C601.388 186.7 601.827 184.247 601.827 181.884C601.827 179.119 601.315 176.354 600.29 173.571C599.266 170.805 597.601 168.516 595.295 166.722C592.99 164.927 589.843 164.03 585.836 164.03C582.14 164.03 579.066 164.872 576.614 166.575C574.162 168.26 572.314 170.421 571.088 173.039C569.862 175.658 569.24 178.405 569.24 181.262C569.24 184.118 569.826 186.719 571.015 189.337C572.186 191.956 574.034 194.098 576.541 195.801C579.048 197.505 582.304 198.347 586.293 198.347H586.311Z" fill="white"/>
<path d="M115.346 347.646C104.276 347.646 94.5973 345.339 86.2905 340.724C77.9836 336.109 71.5614 329.627 67.0054 321.258C62.4494 312.908 60.1623 303.184 60.1623 292.105C60.1623 281.026 62.5226 270.863 67.225 262.494C71.9456 254.144 78.4959 247.643 86.8943 243.028C95.2926 238.414 105.027 236.107 116.096 236.107C127.166 236.107 136.699 238.359 144.987 242.882C153.294 247.387 159.79 253.778 164.51 262.037C169.231 270.295 171.573 280.056 171.573 291.336C171.573 302.616 169.249 312.175 164.583 320.635C159.918 329.096 153.367 335.706 144.914 340.486C136.461 345.247 126.599 347.646 115.328 347.646H115.346ZM115.968 321.35C122.519 321.35 127.806 319.83 131.795 316.808C135.784 313.787 138.693 310.014 140.486 305.51C142.279 301.005 143.176 296.537 143.176 292.123C143.176 288.845 142.682 285.494 141.712 282.052C140.742 278.609 139.205 275.423 137.101 272.438C134.997 269.471 132.216 267.054 128.721 265.205C125.227 263.355 120.927 262.439 115.804 262.439C109.345 262.439 104.13 263.904 100.123 266.816C96.1342 269.746 93.2067 273.463 91.3587 277.968C89.5107 282.473 88.5959 287.142 88.5959 291.959C88.5959 296.775 89.5473 301.444 91.4319 305.949C93.3348 310.454 96.2989 314.153 100.343 317.028C104.386 319.903 109.583 321.331 115.95 321.331L115.968 321.35Z" fill="white"/>
<path d="M183.136 377.33V265.351H208.35L209.74 274.269C213.436 270.277 217.224 267.494 221.121 265.955C225.018 264.417 229.428 263.648 234.332 263.648C242.108 263.648 248.621 265.516 253.854 269.27C259.087 273.005 263.021 278.041 265.693 284.341C268.364 290.64 269.681 297.69 269.681 305.491C269.681 313.292 268.272 320.672 265.455 327.026C262.637 333.381 258.484 338.416 253.013 342.097C247.524 345.796 240.845 347.627 232.959 347.627C229.776 347.627 226.738 347.243 223.811 346.474C220.883 345.705 218.285 344.698 215.98 343.471C213.674 342.244 211.808 340.907 210.362 339.479V377.311H183.155L183.136 377.33ZM227.397 322.869C231.495 322.869 234.679 321.99 236.93 320.251C239.18 318.511 240.754 316.35 241.614 313.787C242.474 311.223 242.913 308.769 242.913 306.407C242.913 303.642 242.401 300.877 241.376 298.093C240.351 295.328 238.686 293.039 236.381 291.244C234.075 289.45 230.928 288.552 226.921 288.552C223.225 288.552 220.151 289.395 217.7 291.098C215.248 292.783 213.4 294.943 212.174 297.562C210.948 300.181 210.326 302.928 210.326 305.784C210.326 308.641 210.911 311.241 212.101 313.86C213.272 316.479 215.12 318.621 217.626 320.324C220.133 322.027 223.39 322.869 227.379 322.869H227.397Z" fill="white"/>
<path d="M319.303 347.646C310.996 347.646 303.75 345.979 297.547 342.647C291.345 339.314 286.533 334.571 283.093 328.418C279.653 322.265 277.951 314.94 277.951 306.425C277.951 297.91 279.689 290.457 283.184 284.048C286.661 277.638 291.528 272.639 297.785 269.05C304.043 265.461 311.307 263.666 319.614 263.666C325.56 263.666 330.885 264.582 335.605 266.431C340.326 268.281 344.369 270.936 347.754 274.434C351.139 277.913 353.719 282.125 355.512 287.051C357.305 291.977 358.202 297.507 358.202 303.66C358.202 305.4 358.129 307.066 357.964 308.659C357.818 310.252 357.525 311.919 357.122 313.658H304.866C305.067 315.6 305.708 317.449 306.787 319.189C307.867 320.928 309.367 322.32 311.325 323.346C313.265 324.371 315.735 324.884 318.699 324.884C321.151 324.884 323.273 324.609 325.084 324.041C326.878 323.474 328.341 322.741 329.457 321.807C330.592 320.892 331.305 319.958 331.616 319.042H358.202C356.757 325.708 354.122 331.165 350.279 335.432C346.437 339.68 341.826 342.793 336.447 344.734C331.068 346.675 325.359 347.664 319.303 347.664V347.646ZM305.324 295.969H332.678C332.678 294.431 332.239 292.819 331.379 291.116C330.5 289.431 329.073 288.021 327.079 286.886C325.084 285.751 322.431 285.201 319.156 285.201C315.881 285.201 313.356 285.769 311.325 286.886C309.276 288.021 307.757 289.431 306.787 291.116C305.818 292.801 305.324 294.431 305.324 295.969Z" fill="white"/>
<path d="M369.565 346.401V265.333H394.614L396.151 272.713C398.712 270.039 401.457 268.08 404.366 266.798C407.293 265.516 410.129 264.673 412.892 264.252C415.655 263.849 418.015 263.63 419.955 263.63C427.53 263.63 433.513 265.369 437.868 268.867C442.222 272.346 445.315 276.961 447.163 282.711C449.011 288.461 449.925 294.76 449.925 301.627V346.382H422.718V303.935C422.718 302.287 422.535 300.584 422.187 298.789C421.821 296.994 421.217 295.328 420.339 293.79C419.461 292.252 418.272 290.988 416.735 290.017C415.198 289.047 413.203 288.553 410.733 288.553C407.55 288.553 404.915 289.267 402.811 290.713C400.706 292.16 399.17 294.064 398.2 296.482C397.23 298.899 396.736 301.591 396.736 304.557V346.401H369.528H369.565Z" fill="white"/>
<path d="M110.79 472.168C102.794 472.168 95.4025 470.832 88.5777 468.176C81.7712 465.503 76.1723 461.364 71.8176 455.724C67.4629 450.084 64.8281 442.906 63.895 434.189H91.8711C92.5847 437.064 93.9204 439.39 95.8599 441.184C97.7994 442.979 100.233 444.279 103.16 445.103C106.088 445.927 109.235 446.33 112.62 446.33C114.669 446.33 116.773 446.129 118.914 445.707C121.073 445.304 122.885 444.535 124.367 443.4C125.849 442.265 126.599 440.635 126.599 438.474C126.599 436.936 126.16 435.672 125.3 434.702C124.422 433.731 123.196 432.907 121.604 432.248C120.012 431.589 118.036 430.984 115.694 430.472C114.779 430.27 113.828 430.069 112.858 429.849C111.888 429.648 110.937 429.446 110.022 429.226C109.107 429.007 108.119 428.824 107.094 428.604C101.861 427.468 96.8479 426.168 92.0358 424.685C87.2237 423.202 82.9605 421.224 79.2828 418.77C75.5868 416.316 72.6776 413.02 70.5185 408.918C68.3595 404.816 67.2982 399.634 67.2982 393.39C67.2982 387.64 68.3229 382.805 70.3721 378.85C72.4214 374.913 75.1294 371.726 78.5143 369.309C81.8993 366.91 85.577 365.079 89.584 363.852C93.5727 362.625 97.5249 361.783 101.422 361.307C105.319 360.831 108.796 360.611 111.87 360.611C119.445 360.611 126.105 362.021 131.85 364.841C137.577 367.661 142.225 371.781 145.756 377.22C149.287 382.659 151.41 389.214 152.141 396.905H125.245C124.934 394.653 124.019 392.73 122.482 391.137C120.945 389.544 118.969 388.317 116.572 387.438C114.157 386.577 111.376 386.138 108.192 386.138C106.344 386.138 104.606 386.284 102.959 386.596C101.312 386.907 99.9035 387.365 98.7325 387.987C97.5615 388.61 96.6101 389.379 95.8965 390.295C95.1829 391.21 94.8169 392.291 94.8169 393.518C94.8169 395.166 95.4573 396.539 96.7381 397.675C98.0189 398.81 99.9218 399.78 102.429 400.605C104.935 401.429 108.046 402.289 111.723 403.223C113.462 403.626 115.163 404.011 116.792 404.377C118.438 404.743 120.067 405.128 121.714 405.53C126.215 406.556 130.441 407.746 134.393 409.065C138.346 410.402 141.822 412.141 144.841 414.302C147.86 416.463 150.239 419.356 151.995 423C153.733 426.644 154.612 431.277 154.612 436.918C154.612 443.382 153.386 448.839 150.916 453.307C148.464 457.775 145.115 461.383 140.925 464.148C136.717 466.913 132.015 468.945 126.782 470.227C121.549 471.509 116.224 472.15 110.79 472.15V472.168Z" fill="white"/>
<path d="M167.657 501.853V389.874H192.871L194.261 398.792C197.957 394.8 201.745 392.016 205.642 390.478C209.539 388.94 213.949 388.171 218.852 388.171C226.629 388.171 233.142 390.038 238.375 393.792C243.608 397.528 247.542 402.564 250.213 408.863C252.885 415.163 254.202 422.213 254.202 430.014C254.202 437.815 252.793 445.195 249.976 451.549C247.158 457.903 243.004 462.939 237.534 466.62C232.044 470.319 225.366 472.15 217.48 472.15C214.296 472.15 211.259 471.766 208.332 470.997C205.404 470.227 202.806 469.22 200.5 467.993C198.195 466.766 196.329 465.43 194.883 464.001V501.834H167.676L167.657 501.853ZM211.918 447.392C216.016 447.392 219.2 446.513 221.45 444.773C223.701 443.034 225.275 440.873 226.135 438.309C226.995 435.746 227.434 433.292 227.434 430.93C227.434 428.164 226.921 425.399 225.897 422.616C224.872 419.851 223.207 417.562 220.902 415.767C218.596 413.972 215.449 413.075 211.442 413.075C207.746 413.075 204.672 413.918 202.22 415.621C199.769 417.305 197.921 419.466 196.695 422.085C195.469 424.703 194.847 427.45 194.847 430.307C194.847 433.164 195.432 435.764 196.621 438.383C197.792 441.001 199.64 443.144 202.147 444.847C204.654 446.55 207.911 447.392 211.899 447.392H211.918Z" fill="white"/>
<path d="M291.071 472.168C287.283 472.168 283.697 471.656 280.312 470.63C276.927 469.605 273.926 468.066 271.328 466.016C268.712 463.965 266.644 461.401 265.107 458.324C263.57 455.248 262.802 451.604 262.802 447.41C262.802 441.257 264.101 436.441 266.717 432.944C269.334 429.464 272.865 426.901 277.33 425.253C281.794 423.623 286.862 422.561 292.553 422.103C298.243 421.645 304.153 421.407 310.301 421.407H313.997C313.997 419.466 313.539 417.708 312.606 416.17C311.673 414.632 310.374 413.405 308.691 412.471C307.007 411.537 304.921 411.079 302.47 411.079C300.731 411.079 299.03 411.335 297.401 411.848C295.755 412.361 294.401 413.057 293.321 413.917C292.242 414.796 291.601 415.84 291.4 417.067H264.357C264.979 412.05 266.461 407.71 268.821 404.066C271.182 400.421 274.146 397.455 277.732 395.147C281.318 392.84 285.344 391.119 289.79 390.002C294.254 388.866 298.883 388.317 303.696 388.317C315.589 388.317 324.572 391.632 330.665 398.242C336.758 404.853 339.814 414.577 339.814 427.395V470.923H314.765V460.302C312.094 464.294 309.111 467.114 305.781 468.762C302.451 470.41 299.432 471.381 296.706 471.692C293.998 472.004 292.114 472.15 291.089 472.15L291.071 472.168ZM298.444 451.402C301.006 451.402 303.494 450.762 305.891 449.48C308.306 448.198 310.301 446.586 311.893 444.627C313.484 442.686 314.271 440.726 314.271 438.785V438.163H299.048C297.822 438.163 296.633 438.291 295.517 438.547C294.382 438.804 293.394 439.188 292.516 439.701C291.638 440.214 290.961 440.873 290.449 441.697C289.936 442.521 289.68 443.546 289.68 444.773C289.68 446.22 290.064 447.41 290.833 448.381C291.601 449.351 292.644 450.102 293.98 450.615C295.316 451.128 296.798 451.384 298.444 451.384V451.402Z" fill="white"/>
<path d="M391.43 472.168C383.233 472.168 376.116 470.539 370.059 467.243C364.021 463.965 359.319 459.222 355.989 453.014C352.659 446.806 350.994 439.353 350.994 430.637C350.994 421.92 352.714 413.954 356.135 407.636C359.575 401.337 364.351 396.503 370.498 393.17C376.646 389.837 383.764 388.171 391.869 388.171C399.151 388.171 405.592 389.507 411.227 392.163C416.863 394.836 421.309 398.682 424.603 403.699C427.878 408.717 429.616 414.87 429.836 422.158H403.707C403.085 419.191 401.731 416.921 399.627 415.382C397.523 413.844 394.998 413.075 392.016 413.075C388.32 413.075 385.465 414.027 383.416 415.914C381.367 417.818 379.94 420.125 379.116 422.836C378.293 425.546 377.89 428.146 377.89 430.6C377.89 433.365 378.348 436.039 379.281 438.602C380.196 441.166 381.696 443.272 383.745 444.902C385.795 446.55 388.503 447.356 391.888 447.356C395.272 447.356 397.834 446.568 399.883 444.975C401.933 443.382 403.213 441.203 403.726 438.438H430.769C430.567 445.817 428.665 452.007 425.078 456.969C421.492 461.95 416.771 465.704 410.935 468.268C405.098 470.832 398.584 472.114 391.412 472.114L391.43 472.168Z" fill="white"/>
<path d="M479.658 472.168C471.351 472.168 464.105 470.502 457.903 467.169C451.7 463.836 446.888 459.094 443.448 452.941C440.008 446.788 438.307 439.463 438.307 430.948C438.307 422.433 440.045 414.98 443.539 408.57C447.016 402.161 451.883 397.162 458.141 393.573C464.398 389.984 471.662 388.189 479.969 388.189C485.915 388.189 491.24 389.105 495.96 390.954C500.681 392.804 504.725 395.459 508.11 398.956C511.495 402.436 514.074 406.648 515.868 411.574C517.661 416.5 518.557 422.03 518.557 428.183C518.557 429.922 518.484 431.589 518.319 433.182C518.173 434.775 517.88 436.441 517.478 438.181H465.221C465.423 440.122 466.063 441.972 467.143 443.711C468.222 445.451 469.723 446.843 471.68 447.868C473.62 448.894 476.09 449.406 479.054 449.406C481.506 449.406 483.628 449.132 485.44 448.564C487.233 447.996 488.697 447.264 489.813 446.33C490.947 445.414 491.661 444.48 491.972 443.565H518.557C517.112 450.23 514.477 455.688 510.635 459.954C506.792 464.203 502.181 467.316 496.802 469.257C491.423 471.198 485.714 472.187 479.658 472.187V472.168ZM465.679 420.492H493.033C493.033 418.953 492.594 417.342 491.734 415.639C490.856 413.954 489.428 412.544 487.434 411.409C485.44 410.273 482.787 409.724 479.511 409.724C476.236 409.724 473.711 410.292 471.68 411.409C469.631 412.544 468.112 413.954 467.143 415.639C466.173 417.324 465.679 418.953 465.679 420.492Z" fill="white"/>
<path d="M645.191 214.297L656.938 206.697L637.47 204.646L639.501 185.162L629.62 195.069L622.027 183.313L619.978 202.797L600.51 200.764L610.409 210.653L598.662 218.252L618.148 220.303L616.099 239.787L625.979 229.862L633.573 241.637L635.622 222.134L655.09 224.185L645.191 214.297Z" stroke="#1FC066" stroke-width="2.98889" stroke-linecap="round" stroke-linejoin="round"/>
<path d="M561.08 91.9349H541.154C533.545 91.9349 527.377 98.1084 527.377 105.724V105.742C527.377 113.358 533.545 119.531 541.154 119.531H561.08C568.689 119.531 574.858 113.358 574.858 105.742V105.724C574.858 98.1084 568.689 91.9349 561.08 91.9349Z" stroke="#1FC066" stroke-width="2.98889" stroke-miterlimit="10"/>
<path d="M560.476 98.2526H560.458C556.335 98.2526 552.992 101.598 552.992 105.724V105.742C552.992 109.869 556.335 113.214 560.458 113.214H560.476C564.599 113.214 567.941 109.869 567.941 105.742V105.724C567.941 101.598 564.599 98.2526 560.476 98.2526Z" fill="#1FC066"/>
<path d="M71.9268 349.385L85.5581 315.471C86.1436 313.988 84.6798 312.523 83.2161 313.127L49.33 326.77C47.7747 327.392 47.8296 329.608 49.4215 330.158L57.0147 332.776C58.2772 333.216 58.6432 334.827 57.71 335.761L46.805 346.675C46.0914 347.389 46.0914 348.525 46.805 349.239L49.4947 351.931C50.2082 352.645 51.3427 352.645 52.0562 351.931L62.9613 341.017C63.9127 340.064 65.5045 340.449 65.9437 341.713L68.5601 349.312C69.1091 350.887 71.323 350.942 71.9451 349.404L71.9268 349.385Z" fill="#1FC066"/>
<path d="M441.234 234.092L433.018 213.656C432.653 212.758 433.549 211.879 434.427 212.246L454.847 220.468C455.78 220.852 455.743 222.171 454.792 222.501L450.218 224.075C449.449 224.332 449.23 225.302 449.797 225.87L456.365 232.444C456.786 232.865 456.786 233.561 456.365 233.982L454.737 235.612C454.316 236.033 453.621 236.033 453.2 235.612L446.631 229.038C446.064 228.47 445.095 228.69 444.838 229.459L443.265 234.037C442.935 234.989 441.6 235.026 441.234 234.092Z" fill="#1FC066"/>
<path d="M531.731 550.673C601.052 550.673 657.249 494.43 657.249 425.051C657.249 355.672 601.052 299.43 531.731 299.43C462.41 299.43 406.214 355.672 406.214 425.051C406.214 494.43 462.41 550.673 531.731 550.673Z" stroke="#1FC066" stroke-width="7.47223" stroke-linecap="round" stroke-linejoin="round"/>
<path d="M612.201 395.752C628.376 440.232 605.468 489.418 561.024 505.606C516.581 521.794 467.435 498.868 451.261 454.387" stroke="#1FC066" stroke-width="7.47223" stroke-linecap="round" stroke-linejoin="round"/>
<path d="M549.131 366.8L557.42 389.599" stroke="#1FC066" stroke-width="7.47223" stroke-linecap="round" stroke-linejoin="round"/>
<path d="M480.993 391.613L489.282 414.43" stroke="#2A9E61" stroke-width="7.47223" stroke-linecap="round" stroke-linejoin="round"/>
<path d="M140.98 258.649L131.027 248.669L140.98 238.688" stroke="#1FC066" stroke-width="2.98889" stroke-linecap="round" stroke-linejoin="round"/>
<path d="M162.735 238.688L172.707 248.669L162.735 258.649" stroke="#1FC066" stroke-width="2.98889" stroke-linecap="round" stroke-linejoin="round"/>
<path d="M147.494 258.905L156.222 238.231" stroke="#1FC066" stroke-width="2.98889" stroke-linecap="round" stroke-linejoin="round"/>
<path d="M327.719 482.24L317.747 472.26L327.719 462.28" stroke="#1FC066" stroke-width="2.98889" stroke-linecap="round" stroke-linejoin="round"/>
<path d="M349.456 462.28L359.428 472.26L349.456 482.24" stroke="#1FC066" stroke-width="2.98889" stroke-linecap="round" stroke-linejoin="round"/>
<path d="M334.215 482.496L342.961 461.822" stroke="#1FC066" stroke-width="2.98889" stroke-linecap="round" stroke-linejoin="round"/>
<path d="M512.611 321.057C510.598 321.057 508.878 320.654 507.433 319.866C505.987 319.061 504.889 317.925 504.103 316.46C503.334 314.995 502.95 313.237 502.95 311.223C502.95 309.209 503.353 307.359 504.139 305.857C504.944 304.338 506.042 303.184 507.488 302.36C508.933 301.554 510.598 301.133 512.519 301.133C514.038 301.133 515.429 301.408 516.673 301.957C517.917 302.506 518.942 303.33 519.728 304.429C520.515 305.528 520.973 306.92 521.119 308.604H516.417C516.197 307.725 515.794 307.048 515.191 306.553C514.587 306.077 513.745 305.821 512.666 305.821C511.513 305.821 510.598 306.077 509.921 306.59C509.244 307.103 508.768 307.744 508.476 308.531C508.183 309.318 508.055 310.143 508.055 310.967C508.055 311.791 508.201 312.651 508.512 313.475C508.823 314.299 509.317 314.977 509.994 315.526C510.671 316.076 511.604 316.332 512.757 316.332C513.452 316.332 514.056 316.222 514.569 316.021C515.081 315.819 515.502 315.49 515.849 315.087C516.197 314.684 516.417 314.171 516.545 313.585H521.339C521.229 315.233 520.753 316.607 519.911 317.724C519.07 318.841 518.008 319.665 516.709 320.214C515.41 320.764 514.038 321.038 512.574 321.038L512.611 321.057Z" fill="white"/>
<path d="M527.816 321.057C527.139 321.057 526.499 320.965 525.895 320.782C525.291 320.599 524.761 320.324 524.285 319.958C523.827 319.592 523.443 319.134 523.169 318.584C522.894 318.035 522.748 317.394 522.748 316.643C522.748 315.545 522.986 314.684 523.443 314.061C523.901 313.439 524.541 312.981 525.346 312.688C526.133 312.395 527.048 312.212 528.054 312.12C529.079 312.047 530.122 311.992 531.219 311.992H531.878C531.878 311.644 531.805 311.333 531.64 311.058C531.476 310.783 531.238 310.564 530.945 310.399C530.652 310.234 530.268 310.161 529.829 310.161C529.518 310.161 529.225 310.216 528.914 310.307C528.603 310.399 528.383 310.527 528.182 310.674C527.999 310.82 527.871 311.022 527.834 311.241H523.004C523.114 310.344 523.388 309.575 523.791 308.916C524.212 308.275 524.742 307.744 525.383 307.322C526.023 306.92 526.737 306.608 527.542 306.407C528.329 306.205 529.17 306.096 530.03 306.096C532.153 306.096 533.763 306.682 534.842 307.872C535.922 309.062 536.471 310.783 536.471 313.072V320.855H531.988V318.951C531.512 319.665 530.982 320.178 530.378 320.471C529.774 320.764 529.243 320.928 528.768 321.002C528.292 321.075 527.944 321.075 527.761 321.075L527.816 321.057ZM529.134 317.339C529.591 317.339 530.03 317.229 530.469 316.991C530.89 316.772 531.256 316.479 531.53 316.131C531.805 315.783 531.951 315.435 531.951 315.087V314.977H529.225C529.006 314.977 528.786 314.995 528.603 315.05C528.402 315.087 528.219 315.16 528.072 315.252C527.926 315.343 527.798 315.471 527.706 315.618C527.615 315.764 527.56 315.947 527.56 316.167C527.56 316.424 527.633 316.643 527.761 316.808C527.908 316.973 528.091 317.119 528.328 317.211C528.566 317.303 528.841 317.358 529.134 317.358V317.339Z" fill="white"/>
<path d="M545.728 321.057C544.265 321.057 542.984 320.764 541.923 320.178C540.843 319.592 540.001 318.749 539.416 317.632C538.812 316.515 538.519 315.197 538.519 313.64C538.519 312.084 538.83 310.655 539.434 309.538C540.038 308.421 540.898 307.561 541.996 306.956C543.093 306.352 544.356 306.059 545.801 306.059C547.101 306.059 548.253 306.297 549.26 306.773C550.266 307.249 551.053 307.927 551.638 308.824C552.224 309.721 552.535 310.82 552.571 312.12H547.906C547.796 311.589 547.558 311.186 547.174 310.912C546.79 310.637 546.35 310.509 545.82 310.509C545.161 310.509 544.649 310.674 544.283 311.022C543.917 311.351 543.661 311.772 543.514 312.248C543.368 312.725 543.295 313.201 543.295 313.64C543.295 314.135 543.386 314.611 543.551 315.068C543.716 315.526 543.972 315.911 544.338 316.204C544.704 316.497 545.179 316.643 545.783 316.643C546.387 316.643 546.844 316.497 547.21 316.222C547.576 315.947 547.814 315.545 547.906 315.05H552.736C552.699 316.369 552.352 317.467 551.73 318.365C551.089 319.262 550.248 319.921 549.205 320.379C548.162 320.837 546.991 321.075 545.71 321.075L545.728 321.057Z" fill="white"/>
<path d="M554.658 320.837V301.389H559.525V307.689C559.982 307.213 560.476 306.865 561.007 306.627C561.537 306.389 562.05 306.242 562.562 306.169C563.074 306.096 563.477 306.059 563.806 306.059C565.124 306.059 566.167 306.37 566.917 306.993C567.667 307.615 568.216 308.439 568.545 309.483C568.856 310.509 569.021 311.644 569.021 312.853V320.855H564.172V313.274C564.172 312.981 564.136 312.67 564.062 312.358C563.989 312.047 563.861 311.736 563.697 311.461C563.514 311.186 563.294 310.967 563.001 310.783C562.708 310.6 562.324 310.527 561.867 310.527C561.446 310.527 561.08 310.6 560.787 310.765C560.495 310.93 560.238 311.131 560.055 311.406C559.872 311.681 559.744 311.992 559.653 312.322C559.58 312.651 559.525 313.018 559.525 313.384V320.855H554.658V320.837Z" fill="white"/>
<path d="M573.943 305.363C573.065 305.363 572.351 305.107 571.82 304.576C571.29 304.045 571.015 303.367 571.015 302.525C571.015 301.682 571.29 300.968 571.857 300.419C572.424 299.869 573.119 299.595 573.979 299.595C574.839 299.595 575.461 299.851 576.029 300.382C576.596 300.913 576.87 301.609 576.87 302.506C576.87 303.404 576.596 304.063 576.065 304.576C575.516 305.088 574.821 305.363 573.943 305.363ZM571.509 320.837V306.352H576.376V320.837H571.509Z" fill="white"/>
<path d="M578.975 320.837V306.352H583.238L583.567 307.725C583.933 307.194 584.336 306.81 584.775 306.572C585.214 306.334 585.653 306.187 586.092 306.132C586.531 306.077 586.934 306.059 587.3 306.059C587.611 306.059 587.904 306.059 588.141 306.059C588.398 306.059 588.562 306.077 588.635 306.096V310.802H587.702C587.025 310.802 586.385 310.893 585.799 311.058C585.196 311.223 584.738 311.553 584.372 312.047C584.025 312.541 583.842 313.256 583.842 314.226V320.818H578.975V320.837Z" fill="white"/>
<path d="M597.033 321.056C594.819 321.056 593.099 320.507 591.892 319.39C590.666 318.273 590.062 316.625 590.062 314.409V306.352H594.929V314.025C594.929 314.501 595.002 314.94 595.13 315.325C595.258 315.728 595.478 316.039 595.807 316.277C596.136 316.515 596.557 316.643 597.088 316.643C597.692 316.643 598.131 316.497 598.387 316.24C598.643 315.966 598.808 315.618 598.881 315.215C598.954 314.794 598.972 314.409 598.972 314.043V306.37H603.803V314.428C603.803 316.79 603.199 318.493 601.973 319.518C600.747 320.562 599.119 321.075 597.051 321.075L597.033 321.056Z" fill="white"/>
<path d="M606.328 320.837V301.389H611.177V320.837H606.328Z" fill="white"/>
<path d="M620.856 321.057C619.429 321.057 618.148 320.764 616.995 320.214C615.861 319.646 614.946 318.804 614.269 317.705C613.592 316.607 613.263 315.252 613.263 313.658C613.263 312.065 613.61 310.655 614.287 309.52C614.964 308.385 615.879 307.542 617.014 306.956C618.148 306.37 619.411 306.077 620.783 306.077C622.155 306.077 623.454 306.389 624.589 306.993C625.723 307.597 626.601 308.476 627.278 309.593C627.955 310.728 628.285 312.12 628.285 313.75C628.285 315.38 627.974 316.662 627.315 317.76C626.674 318.859 625.796 319.683 624.68 320.251C623.564 320.818 622.283 321.093 620.874 321.093L620.856 321.057ZM620.783 316.552C621.478 316.552 622.027 316.405 622.43 316.112C622.832 315.819 623.125 315.453 623.271 314.995C623.436 314.537 623.527 314.098 623.527 313.658C623.527 313.219 623.454 312.761 623.271 312.285C623.107 311.809 622.832 311.406 622.43 311.076C622.045 310.747 621.478 310.582 620.765 310.582C620.051 310.582 619.52 310.747 619.1 311.076C618.697 311.406 618.404 311.809 618.24 312.267C618.075 312.725 618.002 313.201 618.002 313.658C618.002 314.116 618.093 314.574 618.258 315.014C618.423 315.471 618.715 315.838 619.118 316.112C619.52 316.387 620.069 316.533 620.765 316.533L620.783 316.552Z" fill="white"/>
<path d="M509.153 346.474L502.182 327.026H507.598L512.391 342.299L517.002 327.026H522.382L515.465 346.474H509.153Z" fill="white"/>
<path d="M526.846 346.694C526.169 346.694 525.529 346.602 524.925 346.419C524.321 346.236 523.791 345.961 523.315 345.595C522.858 345.229 522.473 344.771 522.199 344.221C521.925 343.672 521.796 343.031 521.796 342.28C521.796 341.182 522.034 340.321 522.492 339.698C522.949 339.076 523.59 338.618 524.395 338.325C525.2 338.032 526.096 337.849 527.121 337.757C528.145 337.666 529.188 337.629 530.286 337.629H530.945C530.945 337.281 530.853 336.97 530.689 336.695C530.524 336.42 530.286 336.201 529.993 336.036C529.701 335.871 529.316 335.798 528.877 335.798C528.566 335.798 528.255 335.853 527.963 335.944C527.67 336.036 527.432 336.164 527.231 336.311C527.029 336.457 526.92 336.659 526.883 336.878H522.053C522.162 335.981 522.437 335.212 522.858 334.553C523.278 333.912 523.809 333.381 524.449 332.959C525.09 332.557 525.803 332.245 526.609 332.044C527.414 331.842 528.237 331.733 529.097 331.733C531.219 331.733 532.83 332.319 533.909 333.509C534.989 334.699 535.537 336.42 535.537 338.71V346.492H531.055V344.588C530.579 345.302 530.048 345.815 529.445 346.108C528.841 346.401 528.31 346.565 527.834 346.639C527.34 346.694 527.011 346.712 526.828 346.712L526.846 346.694ZM528.164 342.976C528.621 342.976 529.06 342.866 529.499 342.628C529.939 342.39 530.286 342.116 530.561 341.768C530.853 341.42 530.982 341.072 530.982 340.724V340.614H528.274C528.054 340.614 527.834 340.632 527.633 340.687C527.432 340.724 527.249 340.797 527.103 340.889C526.956 340.98 526.828 341.108 526.737 341.255C526.645 341.401 526.609 341.585 526.609 341.804C526.609 342.061 526.682 342.28 526.81 342.445C526.938 342.61 527.139 342.756 527.377 342.848C527.615 342.94 527.871 342.995 528.164 342.995V342.976Z" fill="white"/>
<path d="M538.098 346.474V327.026H542.965V346.474H538.098Z" fill="white"/>
<path d="M545.564 346.474V327.026H550.431V346.474H545.564Z" fill="white"/>
<path d="M559.872 346.694C558.39 346.694 557.091 346.401 555.993 345.796C554.877 345.192 554.017 344.35 553.413 343.251C552.809 342.152 552.498 340.834 552.498 339.314C552.498 337.794 552.809 336.457 553.432 335.322C554.054 334.186 554.914 333.289 556.03 332.648C557.146 332.007 558.445 331.678 559.927 331.678C560.988 331.678 561.94 331.842 562.781 332.172C563.623 332.502 564.355 332.978 564.959 333.6C565.563 334.223 566.02 334.974 566.349 335.853C566.66 336.732 566.825 337.721 566.825 338.819C566.825 339.131 566.825 339.424 566.788 339.717C566.77 340.01 566.715 340.303 566.642 340.614H557.311C557.347 340.962 557.457 341.291 557.658 341.603C557.859 341.914 558.116 342.17 558.463 342.354C558.811 342.537 559.25 342.628 559.781 342.628C560.22 342.628 560.604 342.573 560.915 342.482C561.226 342.39 561.501 342.244 561.702 342.079C561.903 341.914 562.031 341.749 562.086 341.584H566.825C566.569 342.775 566.093 343.745 565.416 344.514C564.739 345.284 563.916 345.833 562.946 346.181C561.976 346.529 560.97 346.712 559.89 346.712L559.872 346.694ZM557.384 337.464H562.269C562.269 337.19 562.196 336.897 562.031 336.604C561.866 336.311 561.629 336.054 561.263 335.853C560.897 335.651 560.439 335.541 559.854 335.541C559.268 335.541 558.811 335.633 558.463 335.853C558.097 336.054 557.823 336.311 557.658 336.604C557.493 336.915 557.402 337.19 557.402 337.464H557.384Z" fill="white"/>
<path d="M575.26 353.286C574.144 353.286 573.046 353.139 571.967 352.865C570.887 352.59 569.844 352.114 568.838 351.473L570.32 347.536C570.814 347.902 571.418 348.195 572.113 348.415C572.808 348.635 573.632 348.745 574.565 348.745C575.919 348.745 576.944 348.488 577.657 347.957C578.371 347.426 578.718 346.584 578.718 345.412V345.302C578.407 345.65 578.023 345.924 577.584 346.126C577.145 346.327 576.687 346.474 576.212 346.547C575.736 346.62 575.26 346.675 574.821 346.675C573.449 346.675 572.333 346.382 571.491 345.778C570.649 345.174 570.027 344.368 569.625 343.342C569.241 342.317 569.039 341.163 569.039 339.881V331.971H573.87V339.002C573.87 339.332 573.888 339.68 573.943 340.065C573.998 340.449 574.089 340.797 574.254 341.127C574.419 341.456 574.675 341.731 575.004 341.951C575.352 342.152 575.791 342.262 576.358 342.262C577.127 342.262 577.675 342.079 577.986 341.694C578.298 341.328 578.499 340.87 578.554 340.339C578.609 339.808 578.645 339.295 578.645 338.801V331.952H583.512V342.976C583.512 344.478 583.402 345.851 583.165 347.115C582.945 348.378 582.524 349.459 581.939 350.374C581.335 351.29 580.511 352.004 579.432 352.499C578.352 352.993 576.962 353.249 575.26 353.249V353.286Z" fill="white"/>
<path d="M55.2035 76.626C55.2035 71.7614 51.2632 67.8178 46.4026 67.8178C41.542 67.8178 37.6017 71.7614 37.6017 76.626V96.9341C37.6017 101.799 41.542 105.742 46.4026 105.742C51.2632 105.742 55.2035 101.799 55.2035 96.9341V76.626Z" stroke="#1FC066" stroke-width="3.497" stroke-linecap="round" stroke-linejoin="round"/>
<path d="M72.7869 79.7756V35.8081C72.7869 30.9737 76.739 27 81.5877 27C86.4181 27 90.3886 30.9554 90.3886 35.8081V79.7756" stroke="#1FC066" stroke-width="3.497" stroke-linecap="round" stroke-linejoin="round"/>
<path d="M107.588 119.605C107.588 143.813 87.9732 163.444 63.7846 163.444C39.5959 163.444 19.9998 143.813 19.9998 119.605V50.2015C19.9998 45.367 23.952 41.3933 28.8007 41.3933C33.6311 41.3933 37.6015 45.3487 37.6015 50.2015V89.1148" stroke="#1FC066" stroke-width="3.497" stroke-linecap="round" stroke-linejoin="round"/>
<path d="M107.588 119.605V92.6308C107.588 85.5623 101.806 79.7756 94.7435 79.7756H69.1642C67.4809 79.7756 66.1086 81.149 66.1086 82.8338V84.5368C66.1086 91.6053 71.8905 97.3736 78.9348 97.3736H90.3705V108.617" stroke="#1FC066" stroke-width="3.497" stroke-linecap="round" stroke-linejoin="round"/>
<path d="M61.7354 137.459C61.7354 121.619 74.5616 108.782 90.3885 108.782" stroke="#1FC066" stroke-width="3.497" stroke-linecap="round" stroke-linejoin="round"/>
<path d="M66.127 84.5368V82.8337C66.127 81.149 67.4993 79.7756 69.1826 79.7756H72.8054V73.0367C72.8054 68.2023 68.8533 64.2286 64.0046 64.2286C59.1742 64.2286 55.2037 68.184 55.2037 73.0367V96.9341C55.2037 101.768 59.1559 105.742 64.0046 105.742C68.835 105.742 72.8054 101.787 72.8054 96.9341V95.7987C68.835 93.6013 66.127 89.3712 66.127 84.5368Z" stroke="#1FC066" stroke-width="3.497" stroke-linecap="round" stroke-linejoin="round"/>
<path d="M94.853 144.875C94.853 144.747 94.8164 144.637 94.8164 144.527C94.8164 143.301 95.1824 142.22 95.8959 141.304C96.6095 140.389 97.561 139.62 98.732 138.997C99.903 138.375 101.312 137.917 102.959 137.605C104.587 137.294 106.344 137.148 108.192 137.148C111.375 137.148 114.156 137.587 116.572 138.448C118.987 139.327 120.945 140.554 122.481 142.147C124.018 143.74 124.933 145.663 125.244 147.915H152.141C151.427 140.224 149.305 133.668 145.755 128.23C142.224 122.791 137.577 118.671 131.85 115.851C126.104 113.031 119.444 111.62 111.869 111.62C108.795 111.62 105.319 111.859 101.422 112.316C97.5244 112.774 93.5905 113.617 89.5835 114.862C85.5947 116.089 81.8987 117.92 78.5138 120.319C75.1288 122.736 72.4209 125.904 70.3716 129.859C68.7432 132.972 67.7917 136.69 67.4624 140.92L94.853 144.912V144.875Z" fill="white"/>
</svg>
