<svg width="168" height="192" viewBox="0 0 168 192" fill="none" xmlns="http://www.w3.org/2000/svg">
<path d="M6.53392 3.26967C6.53392 5.08616 5.08197 6.53936 3.26698 6.53936C1.452 6.53936 0 5.08616 0 3.26967C0 1.45318 1.452 0 3.26698 0C5.08197 0 6.53392 1.45318 6.53392 3.26967Z" fill="#FA9B0E"/>
<path d="M29.6006 3.26967C29.6006 5.08616 28.1486 6.53936 26.3336 6.53936C24.5186 6.53936 23.0666 5.08616 23.0666 3.26967C23.0666 1.45318 24.5186 0 26.3336 0C28.1486 0 29.6006 1.45318 29.6006 3.26967Z" fill="#FA9B0E"/>
<path d="M52.6671 3.26967C52.6671 5.08616 51.2151 6.53936 49.4002 6.53936C47.5852 6.53936 46.1332 5.08616 46.1332 3.26967C46.1332 1.45318 47.5852 0 49.4002 0C51.2151 0 52.6671 1.45318 52.6671 3.26967Z" fill="#FA9B0E"/>
<path d="M75.7337 3.26967C75.7337 5.08616 74.2817 6.53936 72.4667 6.53936C70.6517 6.53936 69.1997 5.08616 69.1997 3.26967C69.1997 1.45318 70.6517 0 72.4667 0C74.2817 0 75.7337 1.45318 75.7337 3.26967Z" fill="#FA9B0E"/>
<path d="M98.8003 3.26967C98.8003 5.08616 97.3483 6.53936 95.5333 6.53936C93.7183 6.53936 92.2663 5.08616 92.2663 3.26967C92.2663 1.45318 93.7183 0 95.5333 0C97.3483 0 98.8003 1.45318 98.8003 3.26967Z" fill="#FA9B0E"/>
<path d="M121.867 3.26967C121.867 5.08616 120.415 6.53936 118.6 6.53936C116.785 6.53936 115.333 5.08616 115.333 3.26967C115.333 1.45318 116.785 0 118.6 0C120.415 0 121.867 1.45318 121.867 3.26967Z" fill="#FA9B0E"/>
<path d="M144.933 3.26967C144.933 5.08616 143.481 6.53936 141.666 6.53936C139.851 6.53936 138.399 5.08616 138.399 3.26967C138.399 1.45318 139.851 0 141.666 0C143.481 0 144.933 1.45318 144.933 3.26967Z" fill="#FA9B0E"/>
<path d="M168 3.26967C168 5.08616 166.548 6.53936 164.733 6.53936C162.918 6.53936 161.466 5.08616 161.466 3.26967C161.466 1.45318 162.918 0 164.733 0C166.548 0 168 1.45318 168 3.26967Z" fill="#FA9B0E"/>
<path d="M6.53392 26.3417C6.53392 28.1582 5.08197 29.6114 3.26698 29.6114C1.452 29.6114 0 28.1582 0 26.3417C0 24.5252 1.452 23.072 3.26698 23.072C5.08197 23.072 6.53392 24.5252 6.53392 26.3417Z" fill="#FA9B0E"/>
<path d="M29.6006 26.3417C29.6006 28.1582 28.1486 29.6114 26.3336 29.6114C24.5186 29.6114 23.0666 28.1582 23.0666 26.3417C23.0666 24.5252 24.5186 23.072 26.3336 23.072C28.1486 23.072 29.6006 24.5252 29.6006 26.3417Z" fill="#FA9B0E"/>
<path d="M52.6671 26.3417C52.6671 28.1582 51.2151 29.6114 49.4002 29.6114C47.5852 29.6114 46.1332 28.1582 46.1332 26.3417C46.1332 24.5252 47.5852 23.072 49.4002 23.072C51.2151 23.072 52.6671 24.5252 52.6671 26.3417Z" fill="#FA9B0E"/>
<path d="M75.7337 26.3417C75.7337 28.1582 74.2817 29.6114 72.4667 29.6114C70.6517 29.6114 69.1997 28.1582 69.1997 26.3417C69.1997 24.5252 70.6517 23.072 72.4667 23.072C74.2817 23.072 75.7337 24.5252 75.7337 26.3417Z" fill="#FA9B0E"/>
<path d="M98.8003 26.3417C98.8003 28.1582 97.3483 29.6114 95.5333 29.6114C93.7183 29.6114 92.2663 28.1582 92.2663 26.3417C92.2663 24.5252 93.7183 23.072 95.5333 23.072C97.3483 23.072 98.8003 24.5252 98.8003 26.3417Z" fill="#FA9B0E"/>
<path d="M121.867 26.3417C121.867 28.1582 120.415 29.6114 118.6 29.6114C116.785 29.6114 115.333 28.1582 115.333 26.3417C115.333 24.5252 116.785 23.072 118.6 23.072C120.415 23.072 121.867 24.5252 121.867 26.3417Z" fill="#FA9B0E"/>
<path d="M144.933 26.3417C144.933 28.1582 143.481 29.6114 141.666 29.6114C139.851 29.6114 138.399 28.1582 138.399 26.3417C138.399 24.5252 139.851 23.072 141.666 23.072C143.481 23.072 144.933 24.5252 144.933 26.3417Z" fill="#FA9B0E"/>
<path d="M168 26.3417C168 28.1582 166.548 29.6114 164.733 29.6114C162.918 29.6114 161.466 28.1582 161.466 26.3417C161.466 24.5252 162.918 23.072 164.733 23.072C166.548 23.072 168 24.5252 168 26.3417Z" fill="#FA9B0E"/>
<path d="M6.53392 49.4137C6.53392 51.2302 5.08197 52.6834 3.26698 52.6834C1.452 52.6834 0 51.2302 0 49.4137C0 47.5972 1.452 46.144 3.26698 46.144C5.08197 46.144 6.53392 47.5972 6.53392 49.4137Z" fill="#FA9B0E"/>
<path d="M29.6006 49.4137C29.6006 51.2302 28.1486 52.6834 26.3336 52.6834C24.5186 52.6834 23.0666 51.2302 23.0666 49.4137C23.0666 47.5972 24.5186 46.144 26.3336 46.144C28.1486 46.144 29.6006 47.5972 29.6006 49.4137Z" fill="#FA9B0E"/>
<path d="M52.6671 49.4137C52.6671 51.2302 51.2151 52.6834 49.4002 52.6834C47.5852 52.6834 46.1332 51.2302 46.1332 49.4137C46.1332 47.5972 47.5852 46.144 49.4002 46.144C51.2151 46.144 52.6671 47.5972 52.6671 49.4137Z" fill="#FA9B0E"/>
<path d="M75.7337 49.4137C75.7337 51.2302 74.2817 52.6834 72.4667 52.6834C70.6517 52.6834 69.1997 51.2302 69.1997 49.4137C69.1997 47.5972 70.6517 46.144 72.4667 46.144C74.2817 46.144 75.7337 47.5972 75.7337 49.4137Z" fill="#FA9B0E"/>
<path d="M98.8003 49.4137C98.8003 51.2302 97.3483 52.6834 95.5333 52.6834C93.7183 52.6834 92.2663 51.2302 92.2663 49.4137C92.2663 47.5972 93.7183 46.144 95.5333 46.144C97.3483 46.144 98.8003 47.5972 98.8003 49.4137Z" fill="#FA9B0E"/>
<path d="M121.867 49.4137C121.867 51.2302 120.415 52.6834 118.6 52.6834C116.785 52.6834 115.333 51.2302 115.333 49.4137C115.333 47.5972 116.785 46.144 118.6 46.144C120.415 46.144 121.867 47.5972 121.867 49.4137Z" fill="#FA9B0E"/>
<path d="M144.933 49.4137C144.933 51.2302 143.481 52.6834 141.666 52.6834C139.851 52.6834 138.399 51.2302 138.399 49.4137C138.399 47.5972 139.851 46.144 141.666 46.144C143.481 46.144 144.933 47.5972 144.933 49.4137Z" fill="#FA9B0E"/>
<path d="M168 49.4137C168 51.2302 166.548 52.6834 164.733 52.6834C162.918 52.6834 161.466 51.2302 161.466 49.4137C161.466 47.5972 162.918 46.144 164.733 46.144C166.548 46.144 168 47.5972 168 49.4137Z" fill="#FA9B0E"/>
<path d="M6.53392 72.4857C6.53392 74.3022 5.08197 75.7554 3.26698 75.7554C1.452 75.7554 0 74.3022 0 72.4857C0 70.6692 1.452 69.2161 3.26698 69.2161C5.08197 69.2161 6.53392 70.6692 6.53392 72.4857Z" fill="#FA9B0E"/>
<path d="M29.6006 72.4857C29.6006 74.3022 28.1486 75.7554 26.3336 75.7554C24.5186 75.7554 23.0666 74.3022 23.0666 72.4857C23.0666 70.6692 24.5186 69.2161 26.3336 69.2161C28.1486 69.2161 29.6006 70.6692 29.6006 72.4857Z" fill="#FA9B0E"/>
<path d="M52.6671 72.4857C52.6671 74.3022 51.2151 75.7554 49.4002 75.7554C47.5852 75.7554 46.1332 74.3022 46.1332 72.4857C46.1332 70.6692 47.5852 69.2161 49.4002 69.2161C51.2151 69.2161 52.6671 70.6692 52.6671 72.4857Z" fill="#FA9B0E"/>
<path d="M75.7337 72.4857C75.7337 74.3022 74.2817 75.7554 72.4667 75.7554C70.6517 75.7554 69.1997 74.3022 69.1997 72.4857C69.1997 70.6692 70.6517 69.2161 72.4667 69.2161C74.2817 69.2161 75.7337 70.6692 75.7337 72.4857Z" fill="#FA9B0E"/>
<path d="M98.8003 72.4857C98.8003 74.3022 97.3483 75.7554 95.5333 75.7554C93.7183 75.7554 92.2663 74.3022 92.2663 72.4857C92.2663 70.6692 93.7183 69.2161 95.5333 69.2161C97.3483 69.2161 98.8003 70.6692 98.8003 72.4857Z" fill="#FA9B0E"/>
<path d="M121.867 72.4857C121.867 74.3022 120.415 75.7554 118.6 75.7554C116.785 75.7554 115.333 74.3022 115.333 72.4857C115.333 70.6692 116.785 69.2161 118.6 69.2161C120.415 69.2161 121.867 70.6692 121.867 72.4857Z" fill="#FA9B0E"/>
<path d="M144.933 72.4857C144.933 74.3022 143.481 75.7554 141.666 75.7554C139.851 75.7554 138.399 74.3022 138.399 72.4857C138.399 70.6692 139.851 69.2161 141.666 69.2161C143.481 69.2161 144.933 70.6692 144.933 72.4857Z" fill="#FA9B0E"/>
<path d="M168 72.4857C168 74.3022 166.548 75.7554 164.733 75.7554C162.918 75.7554 161.466 74.3022 161.466 72.4857C161.466 70.6692 162.918 69.2161 164.733 69.2161C166.548 69.2161 168 70.6692 168 72.4857Z" fill="#FA9B0E"/>
<path d="M3.26698 98.8275C5.07128 98.8275 6.53392 97.3636 6.53392 95.5578C6.53392 93.752 5.07128 92.2881 3.26698 92.2881C1.46268 92.2881 0 93.752 0 95.5578C0 97.3636 1.46268 98.8275 3.26698 98.8275Z" fill="#FA9B0E"/>
<path d="M26.3336 98.8275C28.1379 98.8275 29.6006 97.3636 29.6006 95.5578C29.6006 93.752 28.1379 92.2881 26.3336 92.2881C24.5293 92.2881 23.0666 93.752 23.0666 95.5578C23.0666 97.3636 24.5293 98.8275 26.3336 98.8275Z" fill="#FA9B0E"/>
<path d="M49.4002 98.8275C51.2045 98.8275 52.6671 97.3636 52.6671 95.5578C52.6671 93.752 51.2045 92.2881 49.4002 92.2881C47.5959 92.2881 46.1332 93.752 46.1332 95.5578C46.1332 97.3636 47.5959 98.8275 49.4002 98.8275Z" fill="#FA9B0E"/>
<path d="M72.4667 98.8275C74.271 98.8275 75.7337 97.3636 75.7337 95.5578C75.7337 93.752 74.271 92.2881 72.4667 92.2881C70.6624 92.2881 69.1997 93.752 69.1997 95.5578C69.1997 97.3636 70.6624 98.8275 72.4667 98.8275Z" fill="#FA9B0E"/>
<path d="M98.8003 95.5578C98.8003 97.3743 97.3483 98.8275 95.5333 98.8275C93.7183 98.8275 92.2663 97.3743 92.2663 95.5578C92.2663 93.7413 93.7183 92.2881 95.5333 92.2881C97.3483 92.2881 98.8003 93.7413 98.8003 95.5578Z" fill="#FA9B0E"/>
<path d="M118.6 98.8275C120.404 98.8275 121.867 97.3636 121.867 95.5578C121.867 93.752 120.404 92.2881 118.6 92.2881C116.796 92.2881 115.333 93.752 115.333 95.5578C115.333 97.3636 116.796 98.8275 118.6 98.8275Z" fill="#FA9B0E"/>
<path d="M141.666 98.8275C143.471 98.8275 144.933 97.3636 144.933 95.5578C144.933 93.752 143.471 92.2881 141.666 92.2881C139.862 92.2881 138.399 93.752 138.399 95.5578C138.399 97.3636 139.862 98.8275 141.666 98.8275Z" fill="#FA9B0E"/>
<path d="M164.733 98.8275C166.537 98.8275 168 97.3636 168 95.5578C168 93.752 166.537 92.2881 164.733 92.2881C162.929 92.2881 161.466 93.752 161.466 95.5578C161.466 97.3636 162.929 98.8275 164.733 98.8275Z" fill="#FA9B0E"/>
<path d="M3.26698 121.899C5.07128 121.899 6.53392 120.436 6.53392 118.63C6.53392 116.824 5.07128 115.36 3.26698 115.36C1.46268 115.36 0 116.824 0 118.63C0 120.436 1.46268 121.899 3.26698 121.899Z" fill="#FA9B0E"/>
<path d="M26.3336 121.899C28.1379 121.899 29.6006 120.436 29.6006 118.63C29.6006 116.824 28.1379 115.36 26.3336 115.36C24.5293 115.36 23.0666 116.824 23.0666 118.63C23.0666 120.436 24.5293 121.899 26.3336 121.899Z" fill="#FA9B0E"/>
<path d="M49.4002 121.899C51.2045 121.899 52.6671 120.436 52.6671 118.63C52.6671 116.824 51.2045 115.36 49.4002 115.36C47.5959 115.36 46.1332 116.824 46.1332 118.63C46.1332 120.436 47.5959 121.899 49.4002 121.899Z" fill="#FA9B0E"/>
<path d="M72.4667 121.899C74.271 121.899 75.7337 120.436 75.7337 118.63C75.7337 116.824 74.271 115.36 72.4667 115.36C70.6624 115.36 69.1997 116.824 69.1997 118.63C69.1997 120.436 70.6624 121.899 72.4667 121.899Z" fill="#FA9B0E"/>
<path d="M98.8003 118.63C98.8003 120.446 97.3483 121.899 95.5333 121.899C93.7183 121.899 92.2663 120.446 92.2663 118.63C92.2663 116.813 93.7183 115.36 95.5333 115.36C97.3483 115.36 98.8003 116.813 98.8003 118.63Z" fill="#FA9B0E"/>
<path d="M118.6 121.899C120.404 121.899 121.867 120.436 121.867 118.63C121.867 116.824 120.404 115.36 118.6 115.36C116.796 115.36 115.333 116.824 115.333 118.63C115.333 120.436 116.796 121.899 118.6 121.899Z" fill="#FA9B0E"/>
<path d="M141.666 121.899C143.471 121.899 144.933 120.436 144.933 118.63C144.933 116.824 143.471 115.36 141.666 115.36C139.862 115.36 138.399 116.824 138.399 118.63C138.399 120.436 139.862 121.899 141.666 121.899Z" fill="#FA9B0E"/>
<path d="M164.733 121.899C166.537 121.899 168 120.436 168 118.63C168 116.824 166.537 115.36 164.733 115.36C162.929 115.36 161.466 116.824 161.466 118.63C161.466 120.436 162.929 121.899 164.733 121.899Z" fill="#FA9B0E"/>
<path d="M3.26698 144.972C5.07128 144.972 6.53392 143.508 6.53392 141.702C6.53392 139.896 5.07128 138.432 3.26698 138.432C1.46268 138.432 0 139.896 0 141.702C0 143.508 1.46268 144.972 3.26698 144.972Z" fill="#FA9B0E"/>
<path d="M26.3336 144.972C28.1379 144.972 29.6006 143.508 29.6006 141.702C29.6006 139.896 28.1379 138.432 26.3336 138.432C24.5293 138.432 23.0666 139.896 23.0666 141.702C23.0666 143.508 24.5293 144.972 26.3336 144.972Z" fill="#FA9B0E"/>
<path d="M49.4002 144.972C51.2045 144.972 52.6671 143.508 52.6671 141.702C52.6671 139.896 51.2045 138.432 49.4002 138.432C47.5959 138.432 46.1332 139.896 46.1332 141.702C46.1332 143.508 47.5959 144.972 49.4002 144.972Z" fill="#FA9B0E"/>
<path d="M72.4667 144.972C74.271 144.972 75.7337 143.508 75.7337 141.702C75.7337 139.896 74.271 138.432 72.4667 138.432C70.6624 138.432 69.1997 139.896 69.1997 141.702C69.1997 143.508 70.6624 144.972 72.4667 144.972Z" fill="#FA9B0E"/>
<path d="M98.8003 141.702C98.8003 143.518 97.3483 144.972 95.5333 144.972C93.7183 144.972 92.2663 143.518 92.2663 141.702C92.2663 139.885 93.7183 138.432 95.5333 138.432C97.3483 138.432 98.8003 139.885 98.8003 141.702Z" fill="#FA9B0E"/>
<path d="M118.6 144.972C120.404 144.972 121.867 143.508 121.867 141.702C121.867 139.896 120.404 138.432 118.6 138.432C116.796 138.432 115.333 139.896 115.333 141.702C115.333 143.508 116.796 144.972 118.6 144.972Z" fill="#FA9B0E"/>
<path d="M141.666 144.972C143.471 144.972 144.933 143.508 144.933 141.702C144.933 139.896 143.471 138.432 141.666 138.432C139.862 138.432 138.399 139.896 138.399 141.702C138.399 143.508 139.862 144.972 141.666 144.972Z" fill="#FA9B0E"/>
<path d="M164.733 144.972C166.537 144.972 168 143.508 168 141.702C168 139.896 166.537 138.432 164.733 138.432C162.929 138.432 161.466 139.896 161.466 141.702C161.466 143.508 162.929 144.972 164.733 144.972Z" fill="#FA9B0E"/>
<path d="M3.26698 168.044C5.07128 168.044 6.53392 166.58 6.53392 164.774C6.53392 162.968 5.07128 161.504 3.26698 161.504C1.46268 161.504 0 162.968 0 164.774C0 166.58 1.46268 168.044 3.26698 168.044Z" fill="#FA9B0E"/>
<path d="M26.3336 168.044C28.1379 168.044 29.6006 166.58 29.6006 164.774C29.6006 162.968 28.1379 161.504 26.3336 161.504C24.5293 161.504 23.0666 162.968 23.0666 164.774C23.0666 166.58 24.5293 168.044 26.3336 168.044Z" fill="#FA9B0E"/>
<path d="M49.4002 168.044C51.2045 168.044 52.6671 166.58 52.6671 164.774C52.6671 162.968 51.2045 161.504 49.4002 161.504C47.5959 161.504 46.1332 162.968 46.1332 164.774C46.1332 166.58 47.5959 168.044 49.4002 168.044Z" fill="#FA9B0E"/>
<path d="M72.4667 168.044C74.271 168.044 75.7337 166.58 75.7337 164.774C75.7337 162.968 74.271 161.504 72.4667 161.504C70.6624 161.504 69.1997 162.968 69.1997 164.774C69.1997 166.58 70.6624 168.044 72.4667 168.044Z" fill="#FA9B0E"/>
<path d="M98.8003 164.774C98.8003 166.59 97.3483 168.044 95.5333 168.044C93.7183 168.044 92.2663 166.59 92.2663 164.774C92.2663 162.957 93.7183 161.504 95.5333 161.504C97.3483 161.504 98.8003 162.957 98.8003 164.774Z" fill="#FA9B0E"/>
<path d="M118.6 168.044C120.404 168.044 121.867 166.58 121.867 164.774C121.867 162.968 120.404 161.504 118.6 161.504C116.796 161.504 115.333 162.968 115.333 164.774C115.333 166.58 116.796 168.044 118.6 168.044Z" fill="#FA9B0E"/>
<path d="M141.666 168.044C143.471 168.044 144.933 166.58 144.933 164.774C144.933 162.968 143.471 161.504 141.666 161.504C139.862 161.504 138.399 162.968 138.399 164.774C138.399 166.58 139.862 168.044 141.666 168.044Z" fill="#FA9B0E"/>
<path d="M164.733 168.044C166.537 168.044 168 166.58 168 164.774C168 162.968 166.537 161.504 164.733 161.504C162.929 161.504 161.466 162.968 161.466 164.774C161.466 166.58 162.929 168.044 164.733 168.044Z" fill="#FA9B0E"/>
<path d="M3.26698 191.116C5.07128 191.116 6.53392 189.652 6.53392 187.846C6.53392 186.04 5.07128 184.576 3.26698 184.576C1.46268 184.576 0 186.04 0 187.846C0 189.652 1.46268 191.116 3.26698 191.116Z" fill="#FA9B0E"/>
<path d="M26.3336 191.116C28.1379 191.116 29.6006 189.652 29.6006 187.846C29.6006 186.04 28.1379 184.576 26.3336 184.576C24.5293 184.576 23.0666 186.04 23.0666 187.846C23.0666 189.652 24.5293 191.116 26.3336 191.116Z" fill="#FA9B0E"/>
<path d="M49.4002 191.116C51.2045 191.116 52.6671 189.652 52.6671 187.846C52.6671 186.04 51.2045 184.576 49.4002 184.576C47.5959 184.576 46.1332 186.04 46.1332 187.846C46.1332 189.652 47.5959 191.116 49.4002 191.116Z" fill="#FA9B0E"/>
<path d="M72.4667 191.116C74.271 191.116 75.7337 189.652 75.7337 187.846C75.7337 186.04 74.271 184.576 72.4667 184.576C70.6624 184.576 69.1997 186.04 69.1997 187.846C69.1997 189.652 70.6624 191.116 72.4667 191.116Z" fill="#FA9B0E"/>
<path d="M98.8003 187.846C98.8003 189.662 97.3483 191.116 95.5333 191.116C93.7183 191.116 92.2663 189.662 92.2663 187.846C92.2663 186.029 93.7183 184.576 95.5333 184.576C97.3483 184.576 98.8003 186.029 98.8003 187.846Z" fill="#FA9B0E"/>
<path d="M118.6 191.116C120.404 191.116 121.867 189.652 121.867 187.846C121.867 186.04 120.404 184.576 118.6 184.576C116.796 184.576 115.333 186.04 115.333 187.846C115.333 189.652 116.796 191.116 118.6 191.116Z" fill="#FA9B0E"/>
<path d="M141.666 191.116C143.471 191.116 144.933 189.652 144.933 187.846C144.933 186.04 143.471 184.576 141.666 184.576C139.862 184.576 138.399 186.04 138.399 187.846C138.399 189.652 139.862 191.116 141.666 191.116Z" fill="#FA9B0E"/>
<path d="M164.733 191.116C166.537 191.116 168 189.652 168 187.846C168 186.04 166.537 184.576 164.733 184.576C162.929 184.576 161.466 186.04 161.466 187.846C161.466 189.652 162.929 191.116 164.733 191.116Z" fill="#FA9B0E"/>
</svg>
