<svg width="250" height="196" viewBox="0 0 250 196" fill="none" xmlns="http://www.w3.org/2000/svg">
<path d="M9.76076 1.97771C9.76076 3.07644 8.8825 3.95542 7.78467 3.95542C6.68685 3.95542 5.80859 3.07644 5.80859 1.97771C5.80859 0.87898 6.68685 0 7.78467 0C8.8825 0 9.76076 0.87898 9.76076 1.97771Z" fill="#FA9B0E"/>
<path d="M33.7129 1.97771C33.7129 3.07644 32.8346 3.95542 31.7368 3.95542C30.639 3.95542 29.7607 3.07644 29.7607 1.97771C29.7607 0.87898 30.639 0 31.7368 0C32.8346 0 33.7129 0.87898 33.7129 1.97771Z" fill="#FA9B0E"/>
<path d="M57.6651 1.97771C57.6651 3.07644 56.7868 3.95542 55.689 3.95542C54.5912 3.95542 53.7129 3.07644 53.7129 1.97771C53.7129 0.87898 54.5912 0 55.689 0C56.7868 0 57.6651 0.87898 57.6651 1.97771Z" fill="#FA9B0E"/>
<path d="M81.6172 1.97771C81.6172 3.07644 80.7389 3.95542 79.6411 3.95542C78.5433 3.95542 77.665 3.07644 77.665 1.97771C77.665 0.87898 78.5433 0 79.6411 0C80.7389 0 81.6172 0.87898 81.6172 1.97771Z" fill="#FA9B0E"/>
<path d="M9.76076 25.9332C9.76076 27.0319 8.8825 27.9109 7.78467 27.9109C6.68685 27.9109 5.80859 27.0319 5.80859 25.9332C5.80859 24.8344 6.68685 23.9554 7.78467 23.9554C8.8825 23.9554 9.76076 24.8344 9.76076 25.9332Z" fill="#FA9B0E"/>
<path d="M33.7129 25.9332C33.7129 27.0319 32.8346 27.9109 31.7368 27.9109C30.639 27.9109 29.7607 27.0319 29.7607 25.9332C29.7607 24.8344 30.639 23.9554 31.7368 23.9554C32.8346 23.9554 33.7129 24.8344 33.7129 25.9332Z" fill="#FA9B0E"/>
<path d="M57.6651 25.9332C57.6651 27.0319 56.7868 27.9109 55.689 27.9109C54.5912 27.9109 53.7129 27.0319 53.7129 25.9332C53.7129 24.8344 54.5912 23.9554 55.689 23.9554C56.7868 23.9554 57.6651 24.8344 57.6651 25.9332Z" fill="#FA9B0E"/>
<path d="M81.6172 25.9332C81.6172 27.0319 80.7389 27.9109 79.6411 27.9109C78.5433 27.9109 77.665 27.0319 77.665 25.9332C77.665 24.8344 78.5433 23.9554 79.6411 23.9554C80.7389 23.9554 81.6172 24.8344 81.6172 25.9332Z" fill="#FA9B0E"/>
<path d="M9.76076 49.8886C9.76076 50.9873 8.8825 51.8663 7.78467 51.8663C6.68685 51.8663 5.80859 50.9873 5.80859 49.8886C5.80859 48.7899 6.68685 47.9109 7.78467 47.9109C8.8825 47.9109 9.76076 48.7899 9.76076 49.8886Z" fill="#FA9B0E"/>
<path d="M33.7129 49.8886C33.7129 50.9873 32.8346 51.8663 31.7368 51.8663C30.639 51.8663 29.7607 50.9873 29.7607 49.8886C29.7607 48.7899 30.639 47.9109 31.7368 47.9109C32.8346 47.9109 33.7129 48.7899 33.7129 49.8886Z" fill="#FA9B0E"/>
<path d="M57.6651 49.8886C57.6651 50.9873 56.7868 51.8663 55.689 51.8663C54.5912 51.8663 53.7129 50.9873 53.7129 49.8886C53.7129 48.7899 54.5912 47.9109 55.689 47.9109C56.7868 47.9109 57.6651 48.7899 57.6651 49.8886Z" fill="#FA9B0E"/>
<path d="M81.6172 49.8886C81.6172 50.9873 80.7389 51.8663 79.6411 51.8663C78.5433 51.8663 77.665 50.9873 77.665 49.8886C77.665 48.7899 78.5433 47.9109 79.6411 47.9109C80.7389 47.9109 81.6172 48.7899 81.6172 49.8886Z" fill="#FA9B0E"/>
<path d="M9.76076 73.844C9.76076 74.9427 8.8825 75.8217 7.78467 75.8217C6.68685 75.8217 5.80859 74.9427 5.80859 73.844C5.80859 72.7452 6.68685 71.8663 7.78467 71.8663C8.8825 71.8663 9.76076 72.7452 9.76076 73.844Z" fill="#FA9B0E"/>
<path d="M33.7129 73.844C33.7129 74.9427 32.8346 75.8217 31.7368 75.8217C30.639 75.8217 29.7607 74.9427 29.7607 73.844C29.7607 72.7452 30.639 71.8663 31.7368 71.8663C32.8346 71.8663 33.7129 72.7452 33.7129 73.844Z" fill="#FA9B0E"/>
<path d="M57.6651 73.844C57.6651 74.9427 56.7868 75.8217 55.689 75.8217C54.5912 75.8217 53.7129 74.9427 53.7129 73.844C53.7129 72.7452 54.5912 71.8663 55.689 71.8663C56.7868 71.8663 57.6651 72.7452 57.6651 73.844Z" fill="#FA9B0E"/>
<path d="M81.6172 73.844C81.6172 74.9427 80.7389 75.8217 79.6411 75.8217C78.5433 75.8217 77.665 74.9427 77.665 73.844C77.665 72.7452 78.5433 71.8663 79.6411 71.8663C80.7389 71.8663 81.6172 72.7452 81.6172 73.844Z" fill="#FA9B0E"/>
<path d="M9.76076 97.7994C9.76076 98.8981 8.8825 99.7771 7.78467 99.7771C6.68685 99.7771 5.80859 98.8981 5.80859 97.7994C5.80859 96.7006 6.68685 95.8217 7.78467 95.8217C8.8825 95.8217 9.76076 96.7006 9.76076 97.7994Z" fill="#FA9B0E"/>
<path d="M31.7368 99.7771C32.8282 99.7771 33.7129 98.8916 33.7129 97.7994C33.7129 96.7071 32.8282 95.8217 31.7368 95.8217C30.6455 95.8217 29.7607 96.7071 29.7607 97.7994C29.7607 98.8916 30.6455 99.7771 31.7368 99.7771Z" fill="#FA9B0E"/>
<path d="M55.689 99.7771C56.7803 99.7771 57.6651 98.8916 57.6651 97.7994C57.6651 96.7071 56.7803 95.8217 55.689 95.8217C54.5976 95.8217 53.7129 96.7071 53.7129 97.7994C53.7129 98.8916 54.5976 99.7771 55.689 99.7771Z" fill="#FA9B0E"/>
<path d="M79.6411 99.7771C80.7325 99.7771 81.6172 98.8916 81.6172 97.7994C81.6172 96.7071 80.7325 95.8217 79.6411 95.8217C78.5498 95.8217 77.665 96.7071 77.665 97.7994C77.665 98.8916 78.5498 99.7771 79.6411 99.7771Z" fill="#FA9B0E"/>
<path d="M9.76076 121.755C9.76076 122.854 8.8825 123.733 7.78467 123.733C6.68685 123.733 5.80859 122.854 5.80859 121.755C5.80859 120.656 6.68685 119.777 7.78467 119.777C8.8825 119.777 9.76076 120.656 9.76076 121.755Z" fill="#FA9B0E"/>
<path d="M31.7368 123.733C32.8282 123.733 33.7129 122.847 33.7129 121.755C33.7129 120.663 32.8282 119.777 31.7368 119.777C30.6455 119.777 29.7607 120.663 29.7607 121.755C29.7607 122.847 30.6455 123.733 31.7368 123.733Z" fill="#FA9B0E"/>
<path d="M55.689 123.733C56.7803 123.733 57.6651 122.847 57.6651 121.755C57.6651 120.663 56.7803 119.777 55.689 119.777C54.5976 119.777 53.7129 120.663 53.7129 121.755C53.7129 122.847 54.5976 123.733 55.689 123.733Z" fill="#FA9B0E"/>
<path d="M79.6411 123.733C80.7325 123.733 81.6172 122.847 81.6172 121.755C81.6172 120.663 80.7325 119.777 79.6411 119.777C78.5498 119.777 77.665 120.663 77.665 121.755C77.665 122.847 78.5498 123.733 79.6411 123.733Z" fill="#FA9B0E"/>
<path d="M9.76076 145.71C9.76076 146.809 8.8825 147.688 7.78467 147.688C6.68685 147.688 5.80859 146.809 5.80859 145.71C5.80859 144.612 6.68685 143.733 7.78467 143.733C8.8825 143.733 9.76076 144.612 9.76076 145.71Z" fill="#FA9B0E"/>
<path d="M31.7368 147.688C32.8282 147.688 33.7129 146.803 33.7129 145.71C33.7129 144.618 32.8282 143.733 31.7368 143.733C30.6455 143.733 29.7607 144.618 29.7607 145.71C29.7607 146.803 30.6455 147.688 31.7368 147.688Z" fill="#FA9B0E"/>
<path d="M55.689 147.688C56.7803 147.688 57.6651 146.803 57.6651 145.71C57.6651 144.618 56.7803 143.733 55.689 143.733C54.5976 143.733 53.7129 144.618 53.7129 145.71C53.7129 146.803 54.5976 147.688 55.689 147.688Z" fill="#FA9B0E"/>
<path d="M79.6411 147.688C80.7325 147.688 81.6172 146.803 81.6172 145.71C81.6172 144.618 80.7325 143.733 79.6411 143.733C78.5498 143.733 77.665 144.618 77.665 145.71C77.665 146.803 78.5498 147.688 79.6411 147.688Z" fill="#FA9B0E"/>
<path d="M9.76076 169.666C9.76076 170.764 8.8825 171.643 7.78467 171.643C6.68685 171.643 5.80859 170.764 5.80859 169.666C5.80859 168.567 6.68685 167.688 7.78467 167.688C8.8825 167.688 9.76076 168.567 9.76076 169.666Z" fill="#FA9B0E"/>
<path d="M31.7368 171.643C32.8282 171.643 33.7129 170.758 33.7129 169.666C33.7129 168.573 32.8282 167.688 31.7368 167.688C30.6455 167.688 29.7607 168.573 29.7607 169.666C29.7607 170.758 30.6455 171.643 31.7368 171.643Z" fill="#FA9B0E"/>
<path d="M55.689 171.643C56.7803 171.643 57.6651 170.758 57.6651 169.666C57.6651 168.573 56.7803 167.688 55.689 167.688C54.5976 167.688 53.7129 168.573 53.7129 169.666C53.7129 170.758 54.5976 171.643 55.689 171.643Z" fill="#FA9B0E"/>
<path d="M79.6411 171.643C80.7325 171.643 81.6172 170.758 81.6172 169.666C81.6172 168.573 80.7325 167.688 79.6411 167.688C78.5498 167.688 77.665 168.573 77.665 169.666C77.665 170.758 78.5498 171.643 79.6411 171.643Z" fill="#FA9B0E"/>
<path d="M9.76076 193.621C9.76076 194.72 8.8825 195.599 7.78467 195.599C6.68685 195.599 5.80859 194.72 5.80859 193.621C5.80859 192.522 6.68685 191.643 7.78467 191.643C8.8825 191.643 9.76076 192.522 9.76076 193.621Z" fill="#FA9B0E"/>
<path d="M31.7368 195.599C32.8282 195.599 33.7129 194.713 33.7129 193.621C33.7129 192.529 32.8282 191.643 31.7368 191.643C30.6455 191.643 29.7607 192.529 29.7607 193.621C29.7607 194.713 30.6455 195.599 31.7368 195.599Z" fill="#FA9B0E"/>
<path d="M55.689 195.599C56.7803 195.599 57.6651 194.713 57.6651 193.621C57.6651 192.529 56.7803 191.643 55.689 191.643C54.5976 191.643 53.7129 192.529 53.7129 193.621C53.7129 194.713 54.5976 195.599 55.689 195.599Z" fill="#FA9B0E"/>
<path d="M79.6411 195.599C80.7325 195.599 81.6172 194.713 81.6172 193.621C81.6172 192.529 80.7325 191.643 79.6411 191.643C78.5498 191.643 77.665 192.529 77.665 193.621C77.665 194.713 78.5498 195.599 79.6411 195.599Z" fill="#FA9B0E"/>
<path d="M81.9521 1.97771C81.9521 3.07644 81.0739 3.95542 79.9761 3.95542C78.8783 3.95542 78 3.07644 78 1.97771C78 0.87898 78.8783 0 79.9761 0C81.0739 0 81.9521 0.87898 81.9521 1.97771Z" fill="#FA9B0E"/>
<path d="M105.904 1.97771C105.904 3.07644 105.026 3.95542 103.928 3.95542C102.83 3.95542 101.952 3.07644 101.952 1.97771C101.952 0.87898 102.83 0 103.928 0C105.026 0 105.904 0.87898 105.904 1.97771Z" fill="#FA9B0E"/>
<path d="M129.856 1.97771C129.856 3.07644 128.978 3.95542 127.88 3.95542C126.783 3.95542 125.904 3.07644 125.904 1.97771C125.904 0.87898 126.783 0 127.88 0C128.978 0 129.856 0.87898 129.856 1.97771Z" fill="#FA9B0E"/>
<path d="M153.809 1.97771C153.809 3.07644 152.93 3.95542 151.833 3.95542C150.735 3.95542 149.856 3.07644 149.856 1.97771C149.856 0.87898 150.735 0 151.833 0C152.93 0 153.809 0.87898 153.809 1.97771Z" fill="#FA9B0E"/>
<path d="M177.761 1.97771C177.761 3.07644 176.882 3.95542 175.785 3.95542C174.687 3.95542 173.809 3.07644 173.809 1.97771C173.809 0.87898 174.687 0 175.785 0C176.882 0 177.761 0.87898 177.761 1.97771Z" fill="#FA9B0E"/>
<path d="M201.713 1.97771C201.713 3.07644 200.835 3.95542 199.737 3.95542C198.639 3.95542 197.761 3.07644 197.761 1.97771C197.761 0.87898 198.639 0 199.737 0C200.835 0 201.713 0.87898 201.713 1.97771Z" fill="#FA9B0E"/>
<path d="M225.665 1.97771C225.665 3.07644 224.787 3.95542 223.689 3.95542C222.591 3.95542 221.713 3.07644 221.713 1.97771C221.713 0.87898 222.591 0 223.689 0C224.787 0 225.665 0.87898 225.665 1.97771Z" fill="#FA9B0E"/>
<path d="M249.617 1.97771C249.617 3.07644 248.739 3.95542 247.641 3.95542C246.543 3.95542 245.665 3.07644 245.665 1.97771C245.665 0.87898 246.543 0 247.641 0C248.739 0 249.617 0.87898 249.617 1.97771Z" fill="#FA9B0E"/>
<path d="M81.9521 25.9332C81.9521 27.0319 81.0739 27.9109 79.9761 27.9109C78.8783 27.9109 78 27.0319 78 25.9332C78 24.8344 78.8783 23.9554 79.9761 23.9554C81.0739 23.9554 81.9521 24.8344 81.9521 25.9332Z" fill="#FA9B0E"/>
<path d="M105.904 25.9332C105.904 27.0319 105.026 27.9109 103.928 27.9109C102.83 27.9109 101.952 27.0319 101.952 25.9332C101.952 24.8344 102.83 23.9554 103.928 23.9554C105.026 23.9554 105.904 24.8344 105.904 25.9332Z" fill="#FA9B0E"/>
<path d="M129.856 25.9332C129.856 27.0319 128.978 27.9109 127.88 27.9109C126.783 27.9109 125.904 27.0319 125.904 25.9332C125.904 24.8344 126.783 23.9554 127.88 23.9554C128.978 23.9554 129.856 24.8344 129.856 25.9332Z" fill="#FA9B0E"/>
<path d="M153.809 25.9332C153.809 27.0319 152.93 27.9109 151.833 27.9109C150.735 27.9109 149.856 27.0319 149.856 25.9332C149.856 24.8344 150.735 23.9554 151.833 23.9554C152.93 23.9554 153.809 24.8344 153.809 25.9332Z" fill="#FA9B0E"/>
<path d="M177.761 25.9332C177.761 27.0319 176.882 27.9109 175.785 27.9109C174.687 27.9109 173.809 27.0319 173.809 25.9332C173.809 24.8344 174.687 23.9554 175.785 23.9554C176.882 23.9554 177.761 24.8344 177.761 25.9332Z" fill="#FA9B0E"/>
<path d="M201.713 25.9332C201.713 27.0319 200.835 27.9109 199.737 27.9109C198.639 27.9109 197.761 27.0319 197.761 25.9332C197.761 24.8344 198.639 23.9554 199.737 23.9554C200.835 23.9554 201.713 24.8344 201.713 25.9332Z" fill="#FA9B0E"/>
<path d="M225.665 25.9332C225.665 27.0319 224.787 27.9109 223.689 27.9109C222.591 27.9109 221.713 27.0319 221.713 25.9332C221.713 24.8344 222.591 23.9554 223.689 23.9554C224.787 23.9554 225.665 24.8344 225.665 25.9332Z" fill="#FA9B0E"/>
<path d="M249.617 25.9332C249.617 27.0319 248.739 27.9109 247.641 27.9109C246.543 27.9109 245.665 27.0319 245.665 25.9332C245.665 24.8344 246.543 23.9554 247.641 23.9554C248.739 23.9554 249.617 24.8344 249.617 25.9332Z" fill="#FA9B0E"/>
<path d="M81.9521 49.8885C81.9521 50.9873 81.0739 51.8662 79.9761 51.8662C78.8783 51.8662 78 50.9873 78 49.8885C78 48.7898 78.8783 47.9108 79.9761 47.9108C81.0739 47.9108 81.9521 48.7898 81.9521 49.8885Z" fill="#FA9B0E"/>
<path d="M105.904 49.8886C105.904 50.9873 105.026 51.8663 103.928 51.8663C102.83 51.8663 101.952 50.9873 101.952 49.8886C101.952 48.7899 102.83 47.9109 103.928 47.9109C105.026 47.9109 105.904 48.7899 105.904 49.8886Z" fill="#FA9B0E"/>
<path d="M129.856 49.8886C129.856 50.9873 128.978 51.8663 127.88 51.8663C126.783 51.8663 125.904 50.9873 125.904 49.8886C125.904 48.7899 126.783 47.9109 127.88 47.9109C128.978 47.9109 129.856 48.7899 129.856 49.8886Z" fill="#FA9B0E"/>
<path d="M153.809 49.8886C153.809 50.9873 152.93 51.8663 151.833 51.8663C150.735 51.8663 149.856 50.9873 149.856 49.8886C149.856 48.7899 150.735 47.9109 151.833 47.9109C152.93 47.9109 153.809 48.7899 153.809 49.8886Z" fill="#FA9B0E"/>
<path d="M177.761 49.8886C177.761 50.9873 176.882 51.8663 175.785 51.8663C174.687 51.8663 173.809 50.9873 173.809 49.8886C173.809 48.7899 174.687 47.9109 175.785 47.9109C176.882 47.9109 177.761 48.7899 177.761 49.8886Z" fill="#FA9B0E"/>
<path d="M201.713 49.8886C201.713 50.9873 200.835 51.8663 199.737 51.8663C198.639 51.8663 197.761 50.9873 197.761 49.8886C197.761 48.7899 198.639 47.9109 199.737 47.9109C200.835 47.9109 201.713 48.7899 201.713 49.8886Z" fill="#FA9B0E"/>
<path d="M225.665 49.8886C225.665 50.9873 224.787 51.8663 223.689 51.8663C222.591 51.8663 221.713 50.9873 221.713 49.8886C221.713 48.7899 222.591 47.9109 223.689 47.9109C224.787 47.9109 225.665 48.7899 225.665 49.8886Z" fill="#FA9B0E"/>
<path d="M249.617 49.8886C249.617 50.9873 248.739 51.8663 247.641 51.8663C246.543 51.8663 245.665 50.9873 245.665 49.8886C245.665 48.7899 246.543 47.9109 247.641 47.9109C248.739 47.9109 249.617 48.7899 249.617 49.8886Z" fill="#FA9B0E"/>
<path d="M81.9521 73.8439C81.9521 74.9426 81.0739 75.8216 79.9761 75.8216C78.8783 75.8216 78 74.9426 78 73.8439C78 72.7452 78.8783 71.8662 79.9761 71.8662C81.0739 71.8662 81.9521 72.7452 81.9521 73.8439Z" fill="#FA9B0E"/>
<path d="M105.904 73.844C105.904 74.9427 105.026 75.8217 103.928 75.8217C102.83 75.8217 101.952 74.9427 101.952 73.844C101.952 72.7452 102.83 71.8663 103.928 71.8663C105.026 71.8663 105.904 72.7452 105.904 73.844Z" fill="#FA9B0E"/>
<path d="M129.856 73.844C129.856 74.9427 128.978 75.8217 127.88 75.8217C126.783 75.8217 125.904 74.9427 125.904 73.844C125.904 72.7452 126.783 71.8663 127.88 71.8663C128.978 71.8663 129.856 72.7452 129.856 73.844Z" fill="#FA9B0E"/>
<path d="M153.809 73.844C153.809 74.9427 152.93 75.8217 151.833 75.8217C150.735 75.8217 149.856 74.9427 149.856 73.844C149.856 72.7452 150.735 71.8663 151.833 71.8663C152.93 71.8663 153.809 72.7452 153.809 73.844Z" fill="#FA9B0E"/>
<path d="M177.761 73.844C177.761 74.9427 176.882 75.8217 175.785 75.8217C174.687 75.8217 173.809 74.9427 173.809 73.844C173.809 72.7452 174.687 71.8663 175.785 71.8663C176.882 71.8663 177.761 72.7452 177.761 73.844Z" fill="#FA9B0E"/>
<path d="M201.713 73.844C201.713 74.9427 200.835 75.8217 199.737 75.8217C198.639 75.8217 197.761 74.9427 197.761 73.844C197.761 72.7452 198.639 71.8663 199.737 71.8663C200.835 71.8663 201.713 72.7452 201.713 73.844Z" fill="#FA9B0E"/>
<path d="M225.665 73.844C225.665 74.9427 224.787 75.8217 223.689 75.8217C222.591 75.8217 221.713 74.9427 221.713 73.844C221.713 72.7452 222.591 71.8663 223.689 71.8663C224.787 71.8663 225.665 72.7452 225.665 73.844Z" fill="#FA9B0E"/>
<path d="M249.617 73.844C249.617 74.9427 248.739 75.8217 247.641 75.8217C246.543 75.8217 245.665 74.9427 245.665 73.844C245.665 72.7452 246.543 71.8663 247.641 71.8663C248.739 71.8663 249.617 72.7452 249.617 73.844Z" fill="#FA9B0E"/>
<path d="M79.9761 99.7771C81.0674 99.7771 81.9521 98.8916 81.9521 97.7994C81.9521 96.7071 81.0674 95.8217 79.9761 95.8217C78.8847 95.8217 78 96.7071 78 97.7994C78 98.8916 78.8847 99.7771 79.9761 99.7771Z" fill="#FA9B0E"/>
<path d="M103.928 99.7771C105.02 99.7771 105.904 98.8916 105.904 97.7994C105.904 96.7071 105.02 95.8217 103.928 95.8217C102.837 95.8217 101.952 96.7071 101.952 97.7994C101.952 98.8916 102.837 99.7771 103.928 99.7771Z" fill="#FA9B0E"/>
<path d="M127.88 99.7771C128.972 99.7771 129.856 98.8916 129.856 97.7994C129.856 96.7071 128.972 95.8217 127.88 95.8217C126.789 95.8217 125.904 96.7071 125.904 97.7994C125.904 98.8916 126.789 99.7771 127.88 99.7771Z" fill="#FA9B0E"/>
<path d="M151.833 99.7771C152.924 99.7771 153.809 98.8916 153.809 97.7994C153.809 96.7071 152.924 95.8217 151.833 95.8217C150.741 95.8217 149.856 96.7071 149.856 97.7994C149.856 98.8916 150.741 99.7771 151.833 99.7771Z" fill="#FA9B0E"/>
<path d="M177.761 97.7994C177.761 98.8981 176.882 99.7771 175.785 99.7771C174.687 99.7771 173.809 98.8981 173.809 97.7994C173.809 96.7006 174.687 95.8217 175.785 95.8217C176.882 95.8217 177.761 96.7006 177.761 97.7994Z" fill="#FA9B0E"/>
<path d="M199.737 99.7771C200.828 99.7771 201.713 98.8916 201.713 97.7994C201.713 96.7071 200.828 95.8217 199.737 95.8217C198.645 95.8217 197.761 96.7071 197.761 97.7994C197.761 98.8916 198.645 99.7771 199.737 99.7771Z" fill="#FA9B0E"/>
<path d="M223.689 99.7771C224.78 99.7771 225.665 98.8916 225.665 97.7994C225.665 96.7071 224.78 95.8217 223.689 95.8217C222.598 95.8217 221.713 96.7071 221.713 97.7994C221.713 98.8916 222.598 99.7771 223.689 99.7771Z" fill="#FA9B0E"/>
<path d="M247.641 99.7771C248.732 99.7771 249.617 98.8916 249.617 97.7994C249.617 96.7071 248.732 95.8217 247.641 95.8217C246.55 95.8217 245.665 96.7071 245.665 97.7994C245.665 98.8916 246.55 99.7771 247.641 99.7771Z" fill="#FA9B0E"/>
<path d="M79.9761 123.733C81.0674 123.733 81.9521 122.847 81.9521 121.755C81.9521 120.663 81.0674 119.777 79.9761 119.777C78.8847 119.777 78 120.663 78 121.755C78 122.847 78.8847 123.733 79.9761 123.733Z" fill="#FA9B0E"/>
<path d="M103.928 123.733C105.02 123.733 105.904 122.847 105.904 121.755C105.904 120.663 105.02 119.777 103.928 119.777C102.837 119.777 101.952 120.663 101.952 121.755C101.952 122.847 102.837 123.733 103.928 123.733Z" fill="#FA9B0E"/>
<path d="M127.88 123.733C128.972 123.733 129.856 122.847 129.856 121.755C129.856 120.663 128.972 119.777 127.88 119.777C126.789 119.777 125.904 120.663 125.904 121.755C125.904 122.847 126.789 123.733 127.88 123.733Z" fill="#FA9B0E"/>
<path d="M151.833 123.733C152.924 123.733 153.809 122.847 153.809 121.755C153.809 120.663 152.924 119.777 151.833 119.777C150.741 119.777 149.856 120.663 149.856 121.755C149.856 122.847 150.741 123.733 151.833 123.733Z" fill="#FA9B0E"/>
<path d="M177.761 121.755C177.761 122.854 176.882 123.733 175.785 123.733C174.687 123.733 173.809 122.854 173.809 121.755C173.809 120.656 174.687 119.777 175.785 119.777C176.882 119.777 177.761 120.656 177.761 121.755Z" fill="#FA9B0E"/>
<path d="M199.737 123.733C200.828 123.733 201.713 122.847 201.713 121.755C201.713 120.663 200.828 119.777 199.737 119.777C198.645 119.777 197.761 120.663 197.761 121.755C197.761 122.847 198.645 123.733 199.737 123.733Z" fill="#FA9B0E"/>
<path d="M223.689 123.733C224.78 123.733 225.665 122.847 225.665 121.755C225.665 120.663 224.78 119.777 223.689 119.777C222.598 119.777 221.713 120.663 221.713 121.755C221.713 122.847 222.598 123.733 223.689 123.733Z" fill="#FA9B0E"/>
<path d="M247.641 123.733C248.732 123.733 249.617 122.847 249.617 121.755C249.617 120.663 248.732 119.777 247.641 119.777C246.55 119.777 245.665 120.663 245.665 121.755C245.665 122.847 246.55 123.733 247.641 123.733Z" fill="#FA9B0E"/>
<path d="M79.9761 147.688C81.0674 147.688 81.9521 146.803 81.9521 145.71C81.9521 144.618 81.0674 143.733 79.9761 143.733C78.8847 143.733 78 144.618 78 145.71C78 146.803 78.8847 147.688 79.9761 147.688Z" fill="#FA9B0E"/>
<path d="M103.928 147.688C105.02 147.688 105.904 146.803 105.904 145.71C105.904 144.618 105.02 143.733 103.928 143.733C102.837 143.733 101.952 144.618 101.952 145.71C101.952 146.803 102.837 147.688 103.928 147.688Z" fill="#FA9B0E"/>
<path d="M127.88 147.688C128.972 147.688 129.856 146.803 129.856 145.71C129.856 144.618 128.972 143.733 127.88 143.733C126.789 143.733 125.904 144.618 125.904 145.71C125.904 146.803 126.789 147.688 127.88 147.688Z" fill="#FA9B0E"/>
<path d="M151.833 147.688C152.924 147.688 153.809 146.803 153.809 145.71C153.809 144.618 152.924 143.733 151.833 143.733C150.741 143.733 149.856 144.618 149.856 145.71C149.856 146.803 150.741 147.688 151.833 147.688Z" fill="#FA9B0E"/>
<path d="M177.761 145.71C177.761 146.809 176.882 147.688 175.785 147.688C174.687 147.688 173.809 146.809 173.809 145.71C173.809 144.612 174.687 143.733 175.785 143.733C176.882 143.733 177.761 144.612 177.761 145.71Z" fill="#FA9B0E"/>
<path d="M199.737 147.688C200.828 147.688 201.713 146.803 201.713 145.71C201.713 144.618 200.828 143.733 199.737 143.733C198.645 143.733 197.761 144.618 197.761 145.71C197.761 146.803 198.645 147.688 199.737 147.688Z" fill="#FA9B0E"/>
<path d="M223.689 147.688C224.78 147.688 225.665 146.803 225.665 145.71C225.665 144.618 224.78 143.733 223.689 143.733C222.598 143.733 221.713 144.618 221.713 145.71C221.713 146.803 222.598 147.688 223.689 147.688Z" fill="#FA9B0E"/>
<path d="M247.641 147.688C248.732 147.688 249.617 146.803 249.617 145.71C249.617 144.618 248.732 143.733 247.641 143.733C246.55 143.733 245.665 144.618 245.665 145.71C245.665 146.803 246.55 147.688 247.641 147.688Z" fill="#FA9B0E"/>
<path d="M79.9761 171.643C81.0674 171.643 81.9521 170.758 81.9521 169.666C81.9521 168.573 81.0674 167.688 79.9761 167.688C78.8847 167.688 78 168.573 78 169.666C78 170.758 78.8847 171.643 79.9761 171.643Z" fill="#FA9B0E"/>
<path d="M103.928 171.643C105.02 171.643 105.904 170.758 105.904 169.666C105.904 168.573 105.02 167.688 103.928 167.688C102.837 167.688 101.952 168.573 101.952 169.666C101.952 170.758 102.837 171.643 103.928 171.643Z" fill="#FA9B0E"/>
<path d="M127.88 171.643C128.972 171.643 129.856 170.758 129.856 169.666C129.856 168.573 128.972 167.688 127.88 167.688C126.789 167.688 125.904 168.573 125.904 169.666C125.904 170.758 126.789 171.643 127.88 171.643Z" fill="#FA9B0E"/>
<path d="M151.833 171.643C152.924 171.643 153.809 170.758 153.809 169.666C153.809 168.573 152.924 167.688 151.833 167.688C150.741 167.688 149.856 168.573 149.856 169.666C149.856 170.758 150.741 171.643 151.833 171.643Z" fill="#FA9B0E"/>
<path d="M177.761 169.666C177.761 170.764 176.882 171.643 175.785 171.643C174.687 171.643 173.809 170.764 173.809 169.666C173.809 168.567 174.687 167.688 175.785 167.688C176.882 167.688 177.761 168.567 177.761 169.666Z" fill="#FA9B0E"/>
<path d="M199.737 171.643C200.828 171.643 201.713 170.758 201.713 169.666C201.713 168.573 200.828 167.688 199.737 167.688C198.645 167.688 197.761 168.573 197.761 169.666C197.761 170.758 198.645 171.643 199.737 171.643Z" fill="#FA9B0E"/>
<path d="M223.689 171.643C224.78 171.643 225.665 170.758 225.665 169.666C225.665 168.573 224.78 167.688 223.689 167.688C222.598 167.688 221.713 168.573 221.713 169.666C221.713 170.758 222.598 171.643 223.689 171.643Z" fill="#FA9B0E"/>
<path d="M247.641 171.643C248.732 171.643 249.617 170.758 249.617 169.666C249.617 168.573 248.732 167.688 247.641 167.688C246.55 167.688 245.665 168.573 245.665 169.666C245.665 170.758 246.55 171.643 247.641 171.643Z" fill="#FA9B0E"/>
<path d="M79.9761 195.599C81.0674 195.599 81.9521 194.713 81.9521 193.621C81.9521 192.529 81.0674 191.643 79.9761 191.643C78.8847 191.643 78 192.529 78 193.621C78 194.713 78.8847 195.599 79.9761 195.599Z" fill="#FA9B0E"/>
<path d="M103.928 195.599C105.02 195.599 105.904 194.713 105.904 193.621C105.904 192.529 105.02 191.643 103.928 191.643C102.837 191.643 101.952 192.529 101.952 193.621C101.952 194.713 102.837 195.599 103.928 195.599Z" fill="#FA9B0E"/>
<path d="M127.88 195.599C128.972 195.599 129.856 194.713 129.856 193.621C129.856 192.529 128.972 191.643 127.88 191.643C126.789 191.643 125.904 192.529 125.904 193.621C125.904 194.713 126.789 195.599 127.88 195.599Z" fill="#FA9B0E"/>
<path d="M151.833 195.599C152.924 195.599 153.809 194.713 153.809 193.621C153.809 192.529 152.924 191.643 151.833 191.643C150.741 191.643 149.856 192.529 149.856 193.621C149.856 194.713 150.741 195.599 151.833 195.599Z" fill="#FA9B0E"/>
<path d="M177.761 193.621C177.761 194.72 176.882 195.599 175.785 195.599C174.687 195.599 173.809 194.72 173.809 193.621C173.809 192.522 174.687 191.643 175.785 191.643C176.882 191.643 177.761 192.522 177.761 193.621Z" fill="#FA9B0E"/>
<path d="M199.737 195.599C200.828 195.599 201.713 194.713 201.713 193.621C201.713 192.529 200.828 191.643 199.737 191.643C198.645 191.643 197.761 192.529 197.761 193.621C197.761 194.713 198.645 195.599 199.737 195.599Z" fill="#FA9B0E"/>
<path d="M223.689 195.599C224.78 195.599 225.665 194.713 225.665 193.621C225.665 192.529 224.78 191.643 223.689 191.643C222.598 191.643 221.713 192.529 221.713 193.621C221.713 194.713 222.598 195.599 223.689 195.599Z" fill="#FA9B0E"/>
<path d="M247.641 195.599C248.732 195.599 249.617 194.713 249.617 193.621C249.617 192.529 248.732 191.643 247.641 191.643C246.55 191.643 245.665 192.529 245.665 193.621C245.665 194.713 246.55 195.599 247.641 195.599Z" fill="#FA9B0E"/>
</svg>
