<svg width="319" height="196" viewBox="0 0 319 196" fill="none" xmlns="http://www.w3.org/2000/svg">
<path d="M3.95213 1.97771C3.95213 3.07644 3.0739 3.95542 1.97608 3.95542C0.87826 3.95542 0 3.07644 0 1.97771C0 0.87898 0.87826 0 1.97608 0C3.0739 0 3.95213 0.87898 3.95213 1.97771Z" fill="#FFFFFF"/>
<path d="M27.9043 1.97774C27.9043 3.07647 27.0261 3.95546 25.9282 3.95546C24.8304 3.95546 23.9521 3.07647 23.9521 1.97774C23.9521 0.87901 24.8304 3.05176e-05 25.9282 3.05176e-05C27.0261 3.05176e-05 27.9043 0.87901 27.9043 1.97774Z" fill="#FFFFFF"/>
<path d="M51.8565 1.97774C51.8565 3.07647 50.9782 3.95546 49.8804 3.95546C48.7826 3.95546 47.9043 3.07647 47.9043 1.97774C47.9043 0.87901 48.7826 3.05176e-05 49.8804 3.05176e-05C50.9782 3.05176e-05 51.8565 0.87901 51.8565 1.97774Z" fill="#FFFFFF"/>
<path d="M75.8086 1.97774C75.8086 3.07647 74.9303 3.95546 73.8325 3.95546C72.7347 3.95546 71.8564 3.07647 71.8564 1.97774C71.8564 0.87901 72.7347 3.05176e-05 73.8325 3.05176e-05C74.9303 3.05176e-05 75.8086 0.87901 75.8086 1.97774Z" fill="#FFFFFF"/>
<path d="M99.7608 1.97774C99.7608 3.07647 98.8825 3.95546 97.7847 3.95546C96.6869 3.95546 95.8086 3.07647 95.8086 1.97774C95.8086 0.87901 96.6869 3.05176e-05 97.7847 3.05176e-05C98.8825 3.05176e-05 99.7608 0.87901 99.7608 1.97774Z" fill="#FFFFFF"/>
<path d="M123.713 1.97774C123.713 3.07647 122.835 3.95546 121.737 3.95546C120.639 3.95546 119.761 3.07647 119.761 1.97774C119.761 0.87901 120.639 3.05176e-05 121.737 3.05176e-05C122.835 3.05176e-05 123.713 0.87901 123.713 1.97774Z" fill="#FFFFFF"/>
<path d="M147.665 1.97774C147.665 3.07647 146.787 3.95546 145.689 3.95546C144.591 3.95546 143.713 3.07647 143.713 1.97774C143.713 0.87901 144.591 3.05176e-05 145.689 3.05176e-05C146.787 3.05176e-05 147.665 0.87901 147.665 1.97774Z" fill="#FFFFFF"/>
<path d="M171.617 1.97774C171.617 3.07647 170.739 3.95546 169.641 3.95546C168.543 3.95546 167.665 3.07647 167.665 1.97774C167.665 0.87901 168.543 3.05176e-05 169.641 3.05176e-05C170.739 3.05176e-05 171.617 0.87901 171.617 1.97774Z" fill="#FFFFFF"/>
<path d="M3.95213 25.9331C3.95213 27.0319 3.0739 27.9108 1.97608 27.9108C0.87826 27.9108 0 27.0319 0 25.9331C0 24.8344 0.87826 23.9554 1.97608 23.9554C3.0739 23.9554 3.95213 24.8344 3.95213 25.9331Z" fill="#FFFFFF"/>
<path d="M27.9043 25.9332C27.9043 27.0319 27.0261 27.9109 25.9282 27.9109C24.8304 27.9109 23.9521 27.0319 23.9521 25.9332C23.9521 24.8344 24.8304 23.9554 25.9282 23.9554C27.0261 23.9554 27.9043 24.8344 27.9043 25.9332Z" fill="#FFFFFF"/>
<path d="M51.8565 25.9332C51.8565 27.0319 50.9782 27.9109 49.8804 27.9109C48.7826 27.9109 47.9043 27.0319 47.9043 25.9332C47.9043 24.8344 48.7826 23.9554 49.8804 23.9554C50.9782 23.9554 51.8565 24.8344 51.8565 25.9332Z" fill="#FFFFFF"/>
<path d="M75.8086 25.9332C75.8086 27.0319 74.9303 27.9109 73.8325 27.9109C72.7347 27.9109 71.8564 27.0319 71.8564 25.9332C71.8564 24.8344 72.7347 23.9554 73.8325 23.9554C74.9303 23.9554 75.8086 24.8344 75.8086 25.9332Z" fill="#FFFFFF"/>
<path d="M99.7608 25.9332C99.7608 27.0319 98.8825 27.9109 97.7847 27.9109C96.6869 27.9109 95.8086 27.0319 95.8086 25.9332C95.8086 24.8344 96.6869 23.9554 97.7847 23.9554C98.8825 23.9554 99.7608 24.8344 99.7608 25.9332Z" fill="#FFFFFF"/>
<path d="M123.713 25.9332C123.713 27.0319 122.835 27.9109 121.737 27.9109C120.639 27.9109 119.761 27.0319 119.761 25.9332C119.761 24.8344 120.639 23.9554 121.737 23.9554C122.835 23.9554 123.713 24.8344 123.713 25.9332Z" fill="#FFFFFF"/>
<path d="M147.665 25.9332C147.665 27.0319 146.787 27.9109 145.689 27.9109C144.591 27.9109 143.713 27.0319 143.713 25.9332C143.713 24.8344 144.591 23.9554 145.689 23.9554C146.787 23.9554 147.665 24.8344 147.665 25.9332Z" fill="#FFFFFF"/>
<path d="M171.617 25.9332C171.617 27.0319 170.739 27.9109 169.641 27.9109C168.543 27.9109 167.665 27.0319 167.665 25.9332C167.665 24.8344 168.543 23.9554 169.641 23.9554C170.739 23.9554 171.617 24.8344 171.617 25.9332Z" fill="#FFFFFF"/>
<path d="M3.95213 49.8885C3.95213 50.9873 3.0739 51.8662 1.97608 51.8662C0.87826 51.8662 0 50.9873 0 49.8885C0 48.7898 0.87826 47.9108 1.97608 47.9108C3.0739 47.9108 3.95213 48.7898 3.95213 49.8885Z" fill="#FFFFFF"/>
<path d="M27.9043 49.8886C27.9043 50.9873 27.0261 51.8663 25.9282 51.8663C24.8304 51.8663 23.9521 50.9873 23.9521 49.8886C23.9521 48.7898 24.8304 47.9109 25.9282 47.9109C27.0261 47.9109 27.9043 48.7898 27.9043 49.8886Z" fill="#FFFFFF"/>
<path d="M51.8565 49.8886C51.8565 50.9873 50.9782 51.8663 49.8804 51.8663C48.7826 51.8663 47.9043 50.9873 47.9043 49.8886C47.9043 48.7898 48.7826 47.9109 49.8804 47.9109C50.9782 47.9109 51.8565 48.7898 51.8565 49.8886Z" fill="#FFFFFF"/>
<path d="M75.8086 49.8886C75.8086 50.9873 74.9303 51.8663 73.8325 51.8663C72.7347 51.8663 71.8564 50.9873 71.8564 49.8886C71.8564 48.7898 72.7347 47.9109 73.8325 47.9109C74.9303 47.9109 75.8086 48.7898 75.8086 49.8886Z" fill="#FFFFFF"/>
<path d="M99.7608 49.8886C99.7608 50.9873 98.8825 51.8663 97.7847 51.8663C96.6869 51.8663 95.8086 50.9873 95.8086 49.8886C95.8086 48.7898 96.6869 47.9109 97.7847 47.9109C98.8825 47.9109 99.7608 48.7898 99.7608 49.8886Z" fill="#FFFFFF"/>
<path d="M123.713 49.8886C123.713 50.9873 122.835 51.8663 121.737 51.8663C120.639 51.8663 119.761 50.9873 119.761 49.8886C119.761 48.7898 120.639 47.9109 121.737 47.9109C122.835 47.9109 123.713 48.7898 123.713 49.8886Z" fill="#FFFFFF"/>
<path d="M147.665 49.8886C147.665 50.9873 146.787 51.8663 145.689 51.8663C144.591 51.8663 143.713 50.9873 143.713 49.8886C143.713 48.7898 144.591 47.9109 145.689 47.9109C146.787 47.9109 147.665 48.7898 147.665 49.8886Z" fill="#FFFFFF"/>
<path d="M171.617 49.8886C171.617 50.9873 170.739 51.8663 169.641 51.8663C168.543 51.8663 167.665 50.9873 167.665 49.8886C167.665 48.7898 168.543 47.9109 169.641 47.9109C170.739 47.9109 171.617 48.7898 171.617 49.8886Z" fill="#FFFFFF"/>
<path d="M3.95213 73.8439C3.95213 74.9427 3.0739 75.8217 1.97608 75.8217C0.87826 75.8217 0 74.9427 0 73.8439C0 72.7452 0.87826 71.8662 1.97608 71.8662C3.0739 71.8662 3.95213 72.7452 3.95213 73.8439Z" fill="#FFFFFF"/>
<path d="M27.9043 73.844C27.9043 74.9427 27.0261 75.8217 25.9282 75.8217C24.8304 75.8217 23.9521 74.9427 23.9521 73.844C23.9521 72.7452 24.8304 71.8663 25.9282 71.8663C27.0261 71.8663 27.9043 72.7452 27.9043 73.844Z" fill="#FFFFFF"/>
<path d="M51.8565 73.844C51.8565 74.9427 50.9782 75.8217 49.8804 75.8217C48.7826 75.8217 47.9043 74.9427 47.9043 73.844C47.9043 72.7452 48.7826 71.8663 49.8804 71.8663C50.9782 71.8663 51.8565 72.7452 51.8565 73.844Z" fill="#FFFFFF"/>
<path d="M75.8086 73.844C75.8086 74.9427 74.9303 75.8217 73.8325 75.8217C72.7347 75.8217 71.8564 74.9427 71.8564 73.844C71.8564 72.7452 72.7347 71.8663 73.8325 71.8663C74.9303 71.8663 75.8086 72.7452 75.8086 73.844Z" fill="#FFFFFF"/>
<path d="M99.7608 73.844C99.7608 74.9427 98.8825 75.8217 97.7847 75.8217C96.6869 75.8217 95.8086 74.9427 95.8086 73.844C95.8086 72.7452 96.6869 71.8663 97.7847 71.8663C98.8825 71.8663 99.7608 72.7452 99.7608 73.844Z" fill="#FFFFFF"/>
<path d="M123.713 73.844C123.713 74.9427 122.835 75.8217 121.737 75.8217C120.639 75.8217 119.761 74.9427 119.761 73.844C119.761 72.7452 120.639 71.8663 121.737 71.8663C122.835 71.8663 123.713 72.7452 123.713 73.844Z" fill="#FFFFFF"/>
<path d="M147.665 73.844C147.665 74.9427 146.787 75.8217 145.689 75.8217C144.591 75.8217 143.713 74.9427 143.713 73.844C143.713 72.7452 144.591 71.8663 145.689 71.8663C146.787 71.8663 147.665 72.7452 147.665 73.844Z" fill="#FFFFFF"/>
<path d="M171.617 73.844C171.617 74.9427 170.739 75.8217 169.641 75.8217C168.543 75.8217 167.665 74.9427 167.665 73.844C167.665 72.7452 168.543 71.8663 169.641 71.8663C170.739 71.8663 171.617 72.7452 171.617 73.844Z" fill="#FFFFFF"/>
<path d="M1.97608 99.7771C3.06744 99.7771 3.95213 98.8916 3.95213 97.7994C3.95213 96.7071 3.06744 95.8217 1.97608 95.8217C0.884723 95.8217 0 96.7071 0 97.7994C0 98.8916 0.884723 99.7771 1.97608 99.7771Z" fill="#FFFFFF"/>
<path d="M25.9282 99.7771C27.0196 99.7771 27.9043 98.8917 27.9043 97.7994C27.9043 96.7071 27.0196 95.8217 25.9282 95.8217C24.8369 95.8217 23.9521 96.7071 23.9521 97.7994C23.9521 98.8917 24.8369 99.7771 25.9282 99.7771Z" fill="#FFFFFF"/>
<path d="M49.8804 99.7771C50.9717 99.7771 51.8565 98.8917 51.8565 97.7994C51.8565 96.7071 50.9717 95.8217 49.8804 95.8217C48.789 95.8217 47.9043 96.7071 47.9043 97.7994C47.9043 98.8917 48.789 99.7771 49.8804 99.7771Z" fill="#FFFFFF"/>
<path d="M73.8325 99.7771C74.9239 99.7771 75.8086 98.8917 75.8086 97.7994C75.8086 96.7071 74.9239 95.8217 73.8325 95.8217C72.7412 95.8217 71.8564 96.7071 71.8564 97.7994C71.8564 98.8917 72.7412 99.7771 73.8325 99.7771Z" fill="#FFFFFF"/>
<path d="M99.7608 97.7994C99.7608 98.8981 98.8825 99.7771 97.7847 99.7771C96.6869 99.7771 95.8086 98.8981 95.8086 97.7994C95.8086 96.7007 96.6869 95.8217 97.7847 95.8217C98.8825 95.8217 99.7608 96.7007 99.7608 97.7994Z" fill="#FFFFFF"/>
<path d="M121.737 99.7771C122.828 99.7771 123.713 98.8917 123.713 97.7994C123.713 96.7071 122.828 95.8217 121.737 95.8217C120.645 95.8217 119.761 96.7071 119.761 97.7994C119.761 98.8917 120.645 99.7771 121.737 99.7771Z" fill="#FFFFFF"/>
<path d="M145.689 99.7771C146.78 99.7771 147.665 98.8917 147.665 97.7994C147.665 96.7071 146.78 95.8217 145.689 95.8217C144.598 95.8217 143.713 96.7071 143.713 97.7994C143.713 98.8917 144.598 99.7771 145.689 99.7771Z" fill="#FFFFFF"/>
<path d="M169.641 99.7771C170.732 99.7771 171.617 98.8917 171.617 97.7994C171.617 96.7071 170.732 95.8217 169.641 95.8217C168.55 95.8217 167.665 96.7071 167.665 97.7994C167.665 98.8917 168.55 99.7771 169.641 99.7771Z" fill="#FFFFFF"/>
<path d="M1.97608 123.733C3.06744 123.733 3.95213 122.847 3.95213 121.755C3.95213 120.663 3.06744 119.777 1.97608 119.777C0.884723 119.777 0 120.663 0 121.755C0 122.847 0.884723 123.733 1.97608 123.733Z" fill="#FFFFFF"/>
<path d="M25.9282 123.733C27.0196 123.733 27.9043 122.847 27.9043 121.755C27.9043 120.663 27.0196 119.777 25.9282 119.777C24.8369 119.777 23.9521 120.663 23.9521 121.755C23.9521 122.847 24.8369 123.733 25.9282 123.733Z" fill="#FFFFFF"/>
<path d="M49.8804 123.733C50.9717 123.733 51.8565 122.847 51.8565 121.755C51.8565 120.663 50.9717 119.777 49.8804 119.777C48.789 119.777 47.9043 120.663 47.9043 121.755C47.9043 122.847 48.789 123.733 49.8804 123.733Z" fill="#FFFFFF"/>
<path d="M73.8325 123.733C74.9239 123.733 75.8086 122.847 75.8086 121.755C75.8086 120.663 74.9239 119.777 73.8325 119.777C72.7412 119.777 71.8564 120.663 71.8564 121.755C71.8564 122.847 72.7412 123.733 73.8325 123.733Z" fill="#FFFFFF"/>
<path d="M99.7608 121.755C99.7608 122.854 98.8825 123.733 97.7847 123.733C96.6869 123.733 95.8086 122.854 95.8086 121.755C95.8086 120.656 96.6869 119.777 97.7847 119.777C98.8825 119.777 99.7608 120.656 99.7608 121.755Z" fill="#FFFFFF"/>
<path d="M121.737 123.733C122.828 123.733 123.713 122.847 123.713 121.755C123.713 120.663 122.828 119.777 121.737 119.777C120.645 119.777 119.761 120.663 119.761 121.755C119.761 122.847 120.645 123.733 121.737 123.733Z" fill="#FFFFFF"/>
<path d="M145.689 123.733C146.78 123.733 147.665 122.847 147.665 121.755C147.665 120.663 146.78 119.777 145.689 119.777C144.598 119.777 143.713 120.663 143.713 121.755C143.713 122.847 144.598 123.733 145.689 123.733Z" fill="#FFFFFF"/>
<path d="M169.641 123.733C170.732 123.733 171.617 122.847 171.617 121.755C171.617 120.663 170.732 119.777 169.641 119.777C168.55 119.777 167.665 120.663 167.665 121.755C167.665 122.847 168.55 123.733 169.641 123.733Z" fill="#FFFFFF"/>
<path d="M1.97608 147.688C3.06744 147.688 3.95213 146.803 3.95213 145.71C3.95213 144.618 3.06744 143.733 1.97608 143.733C0.884723 143.733 0 144.618 0 145.71C0 146.803 0.884723 147.688 1.97608 147.688Z" fill="#FFFFFF"/>
<path d="M25.9282 147.688C27.0196 147.688 27.9043 146.803 27.9043 145.71C27.9043 144.618 27.0196 143.733 25.9282 143.733C24.8369 143.733 23.9521 144.618 23.9521 145.71C23.9521 146.803 24.8369 147.688 25.9282 147.688Z" fill="#FFFFFF"/>
<path d="M49.8804 147.688C50.9717 147.688 51.8565 146.803 51.8565 145.71C51.8565 144.618 50.9717 143.733 49.8804 143.733C48.789 143.733 47.9043 144.618 47.9043 145.71C47.9043 146.803 48.789 147.688 49.8804 147.688Z" fill="#FFFFFF"/>
<path d="M73.8325 147.688C74.9239 147.688 75.8086 146.803 75.8086 145.71C75.8086 144.618 74.9239 143.733 73.8325 143.733C72.7412 143.733 71.8564 144.618 71.8564 145.71C71.8564 146.803 72.7412 147.688 73.8325 147.688Z" fill="#FFFFFF"/>
<path d="M99.7608 145.71C99.7608 146.809 98.8825 147.688 97.7847 147.688C96.6869 147.688 95.8086 146.809 95.8086 145.71C95.8086 144.612 96.6869 143.733 97.7847 143.733C98.8825 143.733 99.7608 144.612 99.7608 145.71Z" fill="#FFFFFF"/>
<path d="M121.737 147.688C122.828 147.688 123.713 146.803 123.713 145.71C123.713 144.618 122.828 143.733 121.737 143.733C120.645 143.733 119.761 144.618 119.761 145.71C119.761 146.803 120.645 147.688 121.737 147.688Z" fill="#FFFFFF"/>
<path d="M145.689 147.688C146.78 147.688 147.665 146.803 147.665 145.71C147.665 144.618 146.78 143.733 145.689 143.733C144.598 143.733 143.713 144.618 143.713 145.71C143.713 146.803 144.598 147.688 145.689 147.688Z" fill="#FFFFFF"/>
<path d="M169.641 147.688C170.732 147.688 171.617 146.803 171.617 145.71C171.617 144.618 170.732 143.733 169.641 143.733C168.55 143.733 167.665 144.618 167.665 145.71C167.665 146.803 168.55 147.688 169.641 147.688Z" fill="#FFFFFF"/>
<path d="M1.97608 171.643C3.06744 171.643 3.95213 170.758 3.95213 169.666C3.95213 168.573 3.06744 167.688 1.97608 167.688C0.884723 167.688 0 168.573 0 169.666C0 170.758 0.884723 171.643 1.97608 171.643Z" fill="#FFFFFF"/>
<path d="M25.9282 171.643C27.0196 171.643 27.9043 170.758 27.9043 169.666C27.9043 168.573 27.0196 167.688 25.9282 167.688C24.8369 167.688 23.9521 168.573 23.9521 169.666C23.9521 170.758 24.8369 171.643 25.9282 171.643Z" fill="#FFFFFF"/>
<path d="M49.8804 171.643C50.9717 171.643 51.8565 170.758 51.8565 169.666C51.8565 168.573 50.9717 167.688 49.8804 167.688C48.789 167.688 47.9043 168.573 47.9043 169.666C47.9043 170.758 48.789 171.643 49.8804 171.643Z" fill="#FFFFFF"/>
<path d="M73.8325 171.643C74.9239 171.643 75.8086 170.758 75.8086 169.666C75.8086 168.573 74.9239 167.688 73.8325 167.688C72.7412 167.688 71.8564 168.573 71.8564 169.666C71.8564 170.758 72.7412 171.643 73.8325 171.643Z" fill="#FFFFFF"/>
<path d="M99.7608 169.666C99.7608 170.764 98.8825 171.643 97.7847 171.643C96.6869 171.643 95.8086 170.764 95.8086 169.666C95.8086 168.567 96.6869 167.688 97.7847 167.688C98.8825 167.688 99.7608 168.567 99.7608 169.666Z" fill="#FFFFFF"/>
<path d="M121.737 171.643C122.828 171.643 123.713 170.758 123.713 169.666C123.713 168.573 122.828 167.688 121.737 167.688C120.645 167.688 119.761 168.573 119.761 169.666C119.761 170.758 120.645 171.643 121.737 171.643Z" fill="#FFFFFF"/>
<path d="M145.689 171.643C146.78 171.643 147.665 170.758 147.665 169.666C147.665 168.573 146.78 167.688 145.689 167.688C144.598 167.688 143.713 168.573 143.713 169.666C143.713 170.758 144.598 171.643 145.689 171.643Z" fill="#FFFFFF"/>
<path d="M169.641 171.643C170.732 171.643 171.617 170.758 171.617 169.666C171.617 168.573 170.732 167.688 169.641 167.688C168.55 167.688 167.665 168.573 167.665 169.666C167.665 170.758 168.55 171.643 169.641 171.643Z" fill="#FFFFFF"/>
<path d="M1.97608 195.599C3.06744 195.599 3.95213 194.713 3.95213 193.621C3.95213 192.529 3.06744 191.643 1.97608 191.643C0.884723 191.643 0 192.529 0 193.621C0 194.713 0.884723 195.599 1.97608 195.599Z" fill="#FFFFFF"/>
<path d="M25.9282 195.599C27.0196 195.599 27.9043 194.713 27.9043 193.621C27.9043 192.529 27.0196 191.643 25.9282 191.643C24.8369 191.643 23.9521 192.529 23.9521 193.621C23.9521 194.713 24.8369 195.599 25.9282 195.599Z" fill="#FFFFFF"/>
<path d="M49.8804 195.599C50.9717 195.599 51.8565 194.713 51.8565 193.621C51.8565 192.529 50.9717 191.643 49.8804 191.643C48.789 191.643 47.9043 192.529 47.9043 193.621C47.9043 194.713 48.789 195.599 49.8804 195.599Z" fill="#FFFFFF"/>
<path d="M73.8325 195.599C74.9239 195.599 75.8086 194.713 75.8086 193.621C75.8086 192.529 74.9239 191.643 73.8325 191.643C72.7412 191.643 71.8564 192.529 71.8564 193.621C71.8564 194.713 72.7412 195.599 73.8325 195.599Z" fill="#FFFFFF"/>
<path d="M99.7608 193.621C99.7608 194.72 98.8825 195.599 97.7847 195.599C96.6869 195.599 95.8086 194.72 95.8086 193.621C95.8086 192.522 96.6869 191.643 97.7847 191.643C98.8825 191.643 99.7608 192.522 99.7608 193.621Z" fill="#FFFFFF"/>
<path d="M121.737 195.599C122.828 195.599 123.713 194.713 123.713 193.621C123.713 192.529 122.828 191.643 121.737 191.643C120.645 191.643 119.761 192.529 119.761 193.621C119.761 194.713 120.645 195.599 121.737 195.599Z" fill="#FFFFFF"/>
<path d="M145.689 195.599C146.78 195.599 147.665 194.713 147.665 193.621C147.665 192.529 146.78 191.643 145.689 191.643C144.598 191.643 143.713 192.529 143.713 193.621C143.713 194.713 144.598 195.599 145.689 195.599Z" fill="#FFFFFF"/>
<path d="M169.641 195.599C170.732 195.599 171.617 194.713 171.617 193.621C171.617 192.529 170.732 191.643 169.641 191.643C168.55 191.643 167.665 192.529 167.665 193.621C167.665 194.713 168.55 195.599 169.641 195.599Z" fill="#FFFFFF"/>
<path d="M171.952 1.97771C171.952 3.07644 171.074 3.95542 169.976 3.95542C168.878 3.95542 168 3.07644 168 1.97771C168 0.87898 168.878 0 169.976 0C171.074 0 171.952 0.87898 171.952 1.97771Z" fill="#FFFFFF"/>
<path d="M195.904 1.97774C195.904 3.07647 195.026 3.95546 193.928 3.95546C192.83 3.95546 191.952 3.07647 191.952 1.97774C191.952 0.87901 192.83 3.05176e-05 193.928 3.05176e-05C195.026 3.05176e-05 195.904 0.87901 195.904 1.97774Z" fill="#FFFFFF"/>
<path d="M219.856 1.97774C219.856 3.07647 218.978 3.95546 217.88 3.95546C216.783 3.95546 215.904 3.07647 215.904 1.97774C215.904 0.87901 216.783 3.05176e-05 217.88 3.05176e-05C218.978 3.05176e-05 219.856 0.87901 219.856 1.97774Z" fill="#FFFFFF"/>
<path d="M243.809 1.97774C243.809 3.07647 242.93 3.95546 241.833 3.95546C240.735 3.95546 239.856 3.07647 239.856 1.97774C239.856 0.87901 240.735 3.05176e-05 241.833 3.05176e-05C242.93 3.05176e-05 243.809 0.87901 243.809 1.97774Z" fill="#FFFFFF"/>
<path d="M267.761 1.97774C267.761 3.07647 266.882 3.95546 265.785 3.95546C264.687 3.95546 263.809 3.07647 263.809 1.97774C263.809 0.87901 264.687 3.05176e-05 265.785 3.05176e-05C266.882 3.05176e-05 267.761 0.87901 267.761 1.97774Z" fill="#FFFFFF"/>
<path d="M291.713 1.97774C291.713 3.07647 290.835 3.95546 289.737 3.95546C288.639 3.95546 287.761 3.07647 287.761 1.97774C287.761 0.87901 288.639 3.05176e-05 289.737 3.05176e-05C290.835 3.05176e-05 291.713 0.87901 291.713 1.97774Z" fill="#FFFFFF"/>
<path d="M315.665 1.97774C315.665 3.07647 314.787 3.95546 313.689 3.95546C312.591 3.95546 311.713 3.07647 311.713 1.97774C311.713 0.87901 312.591 3.05176e-05 313.689 3.05176e-05C314.787 3.05176e-05 315.665 0.87901 315.665 1.97774Z" fill="#FFFFFF"/>
<path d="M171.952 25.9331C171.952 27.0319 171.074 27.9108 169.976 27.9108C168.878 27.9108 168 27.0319 168 25.9331C168 24.8344 168.878 23.9554 169.976 23.9554C171.074 23.9554 171.952 24.8344 171.952 25.9331Z" fill="#FFFFFF"/>
<path d="M195.904 25.9332C195.904 27.0319 195.026 27.9109 193.928 27.9109C192.83 27.9109 191.952 27.0319 191.952 25.9332C191.952 24.8344 192.83 23.9554 193.928 23.9554C195.026 23.9554 195.904 24.8344 195.904 25.9332Z" fill="#FFFFFF"/>
<path d="M219.856 25.9332C219.856 27.0319 218.978 27.9109 217.88 27.9109C216.783 27.9109 215.904 27.0319 215.904 25.9332C215.904 24.8344 216.783 23.9554 217.88 23.9554C218.978 23.9554 219.856 24.8344 219.856 25.9332Z" fill="#FFFFFF"/>
<path d="M243.809 25.9332C243.809 27.0319 242.93 27.9109 241.833 27.9109C240.735 27.9109 239.856 27.0319 239.856 25.9332C239.856 24.8344 240.735 23.9554 241.833 23.9554C242.93 23.9554 243.809 24.8344 243.809 25.9332Z" fill="#FFFFFF"/>
<path d="M267.761 25.9332C267.761 27.0319 266.882 27.9109 265.785 27.9109C264.687 27.9109 263.809 27.0319 263.809 25.9332C263.809 24.8344 264.687 23.9554 265.785 23.9554C266.882 23.9554 267.761 24.8344 267.761 25.9332Z" fill="#FFFFFF"/>
<path d="M291.713 25.9332C291.713 27.0319 290.835 27.9109 289.737 27.9109C288.639 27.9109 287.761 27.0319 287.761 25.9332C287.761 24.8344 288.639 23.9554 289.737 23.9554C290.835 23.9554 291.713 24.8344 291.713 25.9332Z" fill="#FFFFFF"/>
<path d="M315.665 25.9332C315.665 27.0319 314.787 27.9109 313.689 27.9109C312.591 27.9109 311.713 27.0319 311.713 25.9332C311.713 24.8344 312.591 23.9554 313.689 23.9554C314.787 23.9554 315.665 24.8344 315.665 25.9332Z" fill="#FFFFFF"/>
<path d="M171.952 49.8885C171.952 50.9873 171.074 51.8662 169.976 51.8662C168.878 51.8662 168 50.9873 168 49.8885C168 48.7898 168.878 47.9108 169.976 47.9108C171.074 47.9108 171.952 48.7898 171.952 49.8885Z" fill="#FFFFFF"/>
<path d="M195.904 49.8886C195.904 50.9873 195.026 51.8663 193.928 51.8663C192.83 51.8663 191.952 50.9873 191.952 49.8886C191.952 48.7898 192.83 47.9109 193.928 47.9109C195.026 47.9109 195.904 48.7898 195.904 49.8886Z" fill="#FFFFFF"/>
<path d="M219.856 49.8886C219.856 50.9873 218.978 51.8663 217.88 51.8663C216.783 51.8663 215.904 50.9873 215.904 49.8886C215.904 48.7898 216.783 47.9109 217.88 47.9109C218.978 47.9109 219.856 48.7898 219.856 49.8886Z" fill="#FFFFFF"/>
<path d="M243.809 49.8886C243.809 50.9873 242.93 51.8663 241.833 51.8663C240.735 51.8663 239.856 50.9873 239.856 49.8886C239.856 48.7898 240.735 47.9109 241.833 47.9109C242.93 47.9109 243.809 48.7898 243.809 49.8886Z" fill="#FFFFFF"/>
<path d="M267.761 49.8886C267.761 50.9873 266.882 51.8663 265.785 51.8663C264.687 51.8663 263.809 50.9873 263.809 49.8886C263.809 48.7898 264.687 47.9109 265.785 47.9109C266.882 47.9109 267.761 48.7898 267.761 49.8886Z" fill="#FFFFFF"/>
<path d="M291.713 49.8886C291.713 50.9873 290.835 51.8663 289.737 51.8663C288.639 51.8663 287.761 50.9873 287.761 49.8886C287.761 48.7898 288.639 47.9109 289.737 47.9109C290.835 47.9109 291.713 48.7898 291.713 49.8886Z" fill="#FFFFFF"/>
<path d="M315.665 49.8886C315.665 50.9873 314.787 51.8663 313.689 51.8663C312.591 51.8663 311.713 50.9873 311.713 49.8886C311.713 48.7898 312.591 47.9109 313.689 47.9109C314.787 47.9109 315.665 48.7898 315.665 49.8886Z" fill="#FFFFFF"/>
<path d="M171.952 73.8439C171.952 74.9427 171.074 75.8217 169.976 75.8217C168.878 75.8217 168 74.9427 168 73.8439C168 72.7452 168.878 71.8662 169.976 71.8662C171.074 71.8662 171.952 72.7452 171.952 73.8439Z" fill="#FFFFFF"/>
<path d="M195.904 73.844C195.904 74.9427 195.026 75.8217 193.928 75.8217C192.83 75.8217 191.952 74.9427 191.952 73.844C191.952 72.7452 192.83 71.8663 193.928 71.8663C195.026 71.8663 195.904 72.7452 195.904 73.844Z" fill="#FFFFFF"/>
<path d="M219.856 73.844C219.856 74.9427 218.978 75.8217 217.88 75.8217C216.783 75.8217 215.904 74.9427 215.904 73.844C215.904 72.7452 216.783 71.8663 217.88 71.8663C218.978 71.8663 219.856 72.7452 219.856 73.844Z" fill="#FFFFFF"/>
<path d="M243.809 73.844C243.809 74.9427 242.93 75.8217 241.833 75.8217C240.735 75.8217 239.856 74.9427 239.856 73.844C239.856 72.7452 240.735 71.8663 241.833 71.8663C242.93 71.8663 243.809 72.7452 243.809 73.844Z" fill="#FFFFFF"/>
<path d="M267.761 73.844C267.761 74.9427 266.882 75.8217 265.785 75.8217C264.687 75.8217 263.809 74.9427 263.809 73.844C263.809 72.7452 264.687 71.8663 265.785 71.8663C266.882 71.8663 267.761 72.7452 267.761 73.844Z" fill="#FFFFFF"/>
<path d="M291.713 73.844C291.713 74.9427 290.835 75.8217 289.737 75.8217C288.639 75.8217 287.761 74.9427 287.761 73.844C287.761 72.7452 288.639 71.8663 289.737 71.8663C290.835 71.8663 291.713 72.7452 291.713 73.844Z" fill="#FFFFFF"/>
<path d="M315.665 73.844C315.665 74.9427 314.787 75.8217 313.689 75.8217C312.591 75.8217 311.713 74.9427 311.713 73.844C311.713 72.7452 312.591 71.8663 313.689 71.8663C314.787 71.8663 315.665 72.7452 315.665 73.844Z" fill="#FFFFFF"/>
<path d="M169.976 99.7771C171.067 99.7771 171.952 98.8916 171.952 97.7994C171.952 96.7071 171.067 95.8217 169.976 95.8217C168.885 95.8217 168 96.7071 168 97.7994C168 98.8916 168.885 99.7771 169.976 99.7771Z" fill="#FFFFFF"/>
<path d="M193.928 99.7771C195.02 99.7771 195.904 98.8917 195.904 97.7994C195.904 96.7071 195.02 95.8217 193.928 95.8217C192.837 95.8217 191.952 96.7071 191.952 97.7994C191.952 98.8917 192.837 99.7771 193.928 99.7771Z" fill="#FFFFFF"/>
<path d="M217.88 99.7771C218.972 99.7771 219.856 98.8917 219.856 97.7994C219.856 96.7071 218.972 95.8217 217.88 95.8217C216.789 95.8217 215.904 96.7071 215.904 97.7994C215.904 98.8917 216.789 99.7771 217.88 99.7771Z" fill="#FFFFFF"/>
<path d="M241.833 99.7771C242.924 99.7771 243.809 98.8917 243.809 97.7994C243.809 96.7071 242.924 95.8217 241.833 95.8217C240.741 95.8217 239.856 96.7071 239.856 97.7994C239.856 98.8917 240.741 99.7771 241.833 99.7771Z" fill="#FFFFFF"/>
<path d="M267.761 97.7994C267.761 98.8981 266.882 99.7771 265.785 99.7771C264.687 99.7771 263.809 98.8981 263.809 97.7994C263.809 96.7007 264.687 95.8217 265.785 95.8217C266.882 95.8217 267.761 96.7007 267.761 97.7994Z" fill="#FFFFFF"/>
<path d="M289.737 99.7771C290.828 99.7771 291.713 98.8917 291.713 97.7994C291.713 96.7071 290.828 95.8217 289.737 95.8217C288.645 95.8217 287.761 96.7071 287.761 97.7994C287.761 98.8917 288.645 99.7771 289.737 99.7771Z" fill="#FFFFFF"/>
<path d="M313.689 99.7771C314.78 99.7771 315.665 98.8917 315.665 97.7994C315.665 96.7071 314.78 95.8217 313.689 95.8217C312.598 95.8217 311.713 96.7071 311.713 97.7994C311.713 98.8917 312.598 99.7771 313.689 99.7771Z" fill="#FFFFFF"/>
<path d="M169.976 123.733C171.067 123.733 171.952 122.847 171.952 121.755C171.952 120.663 171.067 119.777 169.976 119.777C168.885 119.777 168 120.663 168 121.755C168 122.847 168.885 123.733 169.976 123.733Z" fill="#FFFFFF"/>
<path d="M193.928 123.733C195.02 123.733 195.904 122.847 195.904 121.755C195.904 120.663 195.02 119.777 193.928 119.777C192.837 119.777 191.952 120.663 191.952 121.755C191.952 122.847 192.837 123.733 193.928 123.733Z" fill="#FFFFFF"/>
<path d="M217.88 123.733C218.972 123.733 219.856 122.847 219.856 121.755C219.856 120.663 218.972 119.777 217.88 119.777C216.789 119.777 215.904 120.663 215.904 121.755C215.904 122.847 216.789 123.733 217.88 123.733Z" fill="#FFFFFF"/>
<path d="M241.833 123.733C242.924 123.733 243.809 122.847 243.809 121.755C243.809 120.663 242.924 119.777 241.833 119.777C240.741 119.777 239.856 120.663 239.856 121.755C239.856 122.847 240.741 123.733 241.833 123.733Z" fill="#FFFFFF"/>
<path d="M267.761 121.755C267.761 122.854 266.882 123.733 265.785 123.733C264.687 123.733 263.809 122.854 263.809 121.755C263.809 120.656 264.687 119.777 265.785 119.777C266.882 119.777 267.761 120.656 267.761 121.755Z" fill="#FFFFFF"/>
<path d="M289.737 123.733C290.828 123.733 291.713 122.847 291.713 121.755C291.713 120.663 290.828 119.777 289.737 119.777C288.645 119.777 287.761 120.663 287.761 121.755C287.761 122.847 288.645 123.733 289.737 123.733Z" fill="#FFFFFF"/>
<path d="M313.689 123.733C314.78 123.733 315.665 122.847 315.665 121.755C315.665 120.663 314.78 119.777 313.689 119.777C312.598 119.777 311.713 120.663 311.713 121.755C311.713 122.847 312.598 123.733 313.689 123.733Z" fill="#FFFFFF"/>
<path d="M169.976 147.688C171.067 147.688 171.952 146.803 171.952 145.71C171.952 144.618 171.067 143.733 169.976 143.733C168.885 143.733 168 144.618 168 145.71C168 146.803 168.885 147.688 169.976 147.688Z" fill="#FFFFFF"/>
<path d="M193.928 147.688C195.02 147.688 195.904 146.803 195.904 145.71C195.904 144.618 195.02 143.733 193.928 143.733C192.837 143.733 191.952 144.618 191.952 145.71C191.952 146.803 192.837 147.688 193.928 147.688Z" fill="#FFFFFF"/>
<path d="M217.88 147.688C218.972 147.688 219.856 146.803 219.856 145.71C219.856 144.618 218.972 143.733 217.88 143.733C216.789 143.733 215.904 144.618 215.904 145.71C215.904 146.803 216.789 147.688 217.88 147.688Z" fill="#FFFFFF"/>
<path d="M241.833 147.688C242.924 147.688 243.809 146.803 243.809 145.71C243.809 144.618 242.924 143.733 241.833 143.733C240.741 143.733 239.856 144.618 239.856 145.71C239.856 146.803 240.741 147.688 241.833 147.688Z" fill="#FFFFFF"/>
<path d="M267.761 145.71C267.761 146.809 266.882 147.688 265.785 147.688C264.687 147.688 263.809 146.809 263.809 145.71C263.809 144.612 264.687 143.733 265.785 143.733C266.882 143.733 267.761 144.612 267.761 145.71Z" fill="#FFFFFF"/>
<path d="M289.737 147.688C290.828 147.688 291.713 146.803 291.713 145.71C291.713 144.618 290.828 143.733 289.737 143.733C288.645 143.733 287.761 144.618 287.761 145.71C287.761 146.803 288.645 147.688 289.737 147.688Z" fill="#FFFFFF"/>
<path d="M313.689 147.688C314.78 147.688 315.665 146.803 315.665 145.71C315.665 144.618 314.78 143.733 313.689 143.733C312.598 143.733 311.713 144.618 311.713 145.71C311.713 146.803 312.598 147.688 313.689 147.688Z" fill="#FFFFFF"/>
<path d="M169.976 171.643C171.067 171.643 171.952 170.758 171.952 169.666C171.952 168.573 171.067 167.688 169.976 167.688C168.885 167.688 168 168.573 168 169.666C168 170.758 168.885 171.643 169.976 171.643Z" fill="#FFFFFF"/>
<path d="M193.928 171.643C195.02 171.643 195.904 170.758 195.904 169.666C195.904 168.573 195.02 167.688 193.928 167.688C192.837 167.688 191.952 168.573 191.952 169.666C191.952 170.758 192.837 171.643 193.928 171.643Z" fill="#FFFFFF"/>
<path d="M217.88 171.643C218.972 171.643 219.856 170.758 219.856 169.666C219.856 168.573 218.972 167.688 217.88 167.688C216.789 167.688 215.904 168.573 215.904 169.666C215.904 170.758 216.789 171.643 217.88 171.643Z" fill="#FFFFFF"/>
<path d="M241.833 171.643C242.924 171.643 243.809 170.758 243.809 169.666C243.809 168.573 242.924 167.688 241.833 167.688C240.741 167.688 239.856 168.573 239.856 169.666C239.856 170.758 240.741 171.643 241.833 171.643Z" fill="#FFFFFF"/>
<path d="M267.761 169.666C267.761 170.764 266.882 171.643 265.785 171.643C264.687 171.643 263.809 170.764 263.809 169.666C263.809 168.567 264.687 167.688 265.785 167.688C266.882 167.688 267.761 168.567 267.761 169.666Z" fill="#FFFFFF"/>
<path d="M289.737 171.643C290.828 171.643 291.713 170.758 291.713 169.666C291.713 168.573 290.828 167.688 289.737 167.688C288.645 167.688 287.761 168.573 287.761 169.666C287.761 170.758 288.645 171.643 289.737 171.643Z" fill="#FFFFFF"/>
<path d="M313.689 171.643C314.78 171.643 315.665 170.758 315.665 169.666C315.665 168.573 314.78 167.688 313.689 167.688C312.598 167.688 311.713 168.573 311.713 169.666C311.713 170.758 312.598 171.643 313.689 171.643Z" fill="#FFFFFF"/>
<path d="M169.976 195.599C171.067 195.599 171.952 194.713 171.952 193.621C171.952 192.529 171.067 191.643 169.976 191.643C168.885 191.643 168 192.529 168 193.621C168 194.713 168.885 195.599 169.976 195.599Z" fill="#FFFFFF"/>
<path d="M193.928 195.599C195.02 195.599 195.904 194.713 195.904 193.621C195.904 192.529 195.02 191.643 193.928 191.643C192.837 191.643 191.952 192.529 191.952 193.621C191.952 194.713 192.837 195.599 193.928 195.599Z" fill="#FFFFFF"/>
<path d="M217.88 195.599C218.972 195.599 219.856 194.713 219.856 193.621C219.856 192.529 218.972 191.643 217.88 191.643C216.789 191.643 215.904 192.529 215.904 193.621C215.904 194.713 216.789 195.599 217.88 195.599Z" fill="#FFFFFF"/>
<path d="M241.833 195.599C242.924 195.599 243.809 194.713 243.809 193.621C243.809 192.529 242.924 191.643 241.833 191.643C240.741 191.643 239.856 192.529 239.856 193.621C239.856 194.713 240.741 195.599 241.833 195.599Z" fill="#FFFFFF"/>
<path d="M267.761 193.621C267.761 194.72 266.882 195.599 265.785 195.599C264.687 195.599 263.809 194.72 263.809 193.621C263.809 192.522 264.687 191.643 265.785 191.643C266.882 191.643 267.761 192.522 267.761 193.621Z" fill="#FFFFFF"/>
<path d="M289.737 195.599C290.828 195.599 291.713 194.713 291.713 193.621C291.713 192.529 290.828 191.643 289.737 191.643C288.645 191.643 287.761 192.529 287.761 193.621C287.761 194.713 288.645 195.599 289.737 195.599Z" fill="#FFFFFF"/>
<path d="M313.689 195.599C314.78 195.599 315.665 194.713 315.665 193.621C315.665 192.529 314.78 191.643 313.689 191.643C312.598 191.643 311.713 192.529 311.713 193.621C311.713 194.713 312.598 195.599 313.689 195.599Z" fill="#FFFFFF"/>
</svg>
