<svg width="195" height="196" viewBox="0 0 195 196" fill="none" xmlns="http://www.w3.org/2000/svg">
<path d="M2.66505 1.97771C2.66505 3.07644 1.78679 3.95542 0.688971 3.95542C-0.408849 3.95542 -1.28711 3.07644 -1.28711 1.97771C-1.28711 0.87898 -0.408849 0 0.688971 0C1.78679 0 2.66505 0.87898 2.66505 1.97771Z" fill="#FFFFFF"/>
<path d="M26.6172 1.97771C26.6172 3.07644 25.7389 3.95542 24.6411 3.95542C23.5433 3.95542 22.665 3.07644 22.665 1.97771C22.665 0.87898 23.5433 0 24.6411 0C25.7389 0 26.6172 0.87898 26.6172 1.97771Z" fill="#FFFFFF"/>
<path d="M2.66505 25.9332C2.66505 27.0319 1.78679 27.9109 0.688971 27.9109C-0.408849 27.9109 -1.28711 27.0319 -1.28711 25.9332C-1.28711 24.8344 -0.408849 23.9554 0.688971 23.9554C1.78679 23.9554 2.66505 24.8344 2.66505 25.9332Z" fill="#FFFFFF"/>
<path d="M26.6172 25.9332C26.6172 27.0319 25.7389 27.9109 24.6411 27.9109C23.5433 27.9109 22.665 27.0319 22.665 25.9332C22.665 24.8344 23.5433 23.9554 24.6411 23.9554C25.7389 23.9554 26.6172 24.8344 26.6172 25.9332Z" fill="#FFFFFF"/>
<path d="M2.66505 49.8886C2.66505 50.9873 1.78679 51.8663 0.688971 51.8663C-0.408849 51.8663 -1.28711 50.9873 -1.28711 49.8886C-1.28711 48.7899 -0.408849 47.9109 0.688971 47.9109C1.78679 47.9109 2.66505 48.7899 2.66505 49.8886Z" fill="#FFFFFF"/>
<path d="M26.6172 49.8886C26.6172 50.9873 25.7389 51.8663 24.6411 51.8663C23.5433 51.8663 22.665 50.9873 22.665 49.8886C22.665 48.7899 23.5433 47.9109 24.6411 47.9109C25.7389 47.9109 26.6172 48.7899 26.6172 49.8886Z" fill="#FFFFFF"/>
<path d="M2.66505 73.8439C2.66505 74.9426 1.78679 75.8216 0.688971 75.8216C-0.408849 75.8216 -1.28711 74.9426 -1.28711 73.8439C-1.28711 72.7452 -0.408849 71.8662 0.688971 71.8662C1.78679 71.8662 2.66505 72.7452 2.66505 73.8439Z" fill="#FFFFFF"/>
<path d="M26.6172 73.8439C26.6172 74.9426 25.7389 75.8216 24.6411 75.8216C23.5433 75.8216 22.665 74.9426 22.665 73.8439C22.665 72.7452 23.5433 71.8662 24.6411 71.8662C25.7389 71.8662 26.6172 72.7452 26.6172 73.8439Z" fill="#FFFFFF"/>
<path d="M0.688971 99.7771C1.78033 99.7771 2.66505 98.8916 2.66505 97.7994C2.66505 96.7071 1.78033 95.8217 0.688971 95.8217C-0.402386 95.8217 -1.28711 96.7071 -1.28711 97.7994C-1.28711 98.8916 -0.402386 99.7771 0.688971 99.7771Z" fill="#FFFFFF"/>
<path d="M24.6411 99.7771C25.7325 99.7771 26.6172 98.8916 26.6172 97.7994C26.6172 96.7071 25.7325 95.8217 24.6411 95.8217C23.5498 95.8217 22.665 96.7071 22.665 97.7994C22.665 98.8916 23.5498 99.7771 24.6411 99.7771Z" fill="#FFFFFF"/>
<path d="M0.688971 123.733C1.78033 123.733 2.66505 122.847 2.66505 121.755C2.66505 120.663 1.78033 119.777 0.688971 119.777C-0.402386 119.777 -1.28711 120.663 -1.28711 121.755C-1.28711 122.847 -0.402386 123.733 0.688971 123.733Z" fill="#FFFFFF"/>
<path d="M24.6411 123.733C25.7325 123.733 26.6172 122.847 26.6172 121.755C26.6172 120.663 25.7325 119.777 24.6411 119.777C23.5498 119.777 22.665 120.663 22.665 121.755C22.665 122.847 23.5498 123.733 24.6411 123.733Z" fill="#FFFFFF"/>
<path d="M0.688971 147.688C1.78033 147.688 2.66505 146.803 2.66505 145.71C2.66505 144.618 1.78033 143.733 0.688971 143.733C-0.402386 143.733 -1.28711 144.618 -1.28711 145.71C-1.28711 146.803 -0.402386 147.688 0.688971 147.688Z" fill="#FFFFFF"/>
<path d="M24.6411 147.688C25.7325 147.688 26.6172 146.803 26.6172 145.71C26.6172 144.618 25.7325 143.733 24.6411 143.733C23.5498 143.733 22.665 144.618 22.665 145.71C22.665 146.803 23.5498 147.688 24.6411 147.688Z" fill="#FFFFFF"/>
<path d="M0.688971 171.643C1.78033 171.643 2.66505 170.758 2.66505 169.666C2.66505 168.573 1.78033 167.688 0.688971 167.688C-0.402386 167.688 -1.28711 168.573 -1.28711 169.666C-1.28711 170.758 -0.402386 171.643 0.688971 171.643Z" fill="#FFFFFF"/>
<path d="M24.6411 171.643C25.7325 171.643 26.6172 170.758 26.6172 169.666C26.6172 168.573 25.7325 167.688 24.6411 167.688C23.5498 167.688 22.665 168.573 22.665 169.666C22.665 170.758 23.5498 171.643 24.6411 171.643Z" fill="#FFFFFF"/>
<path d="M0.688971 195.599C1.78033 195.599 2.66505 194.713 2.66505 193.621C2.66505 192.529 1.78033 191.643 0.688971 191.643C-0.402386 191.643 -1.28711 192.529 -1.28711 193.621C-1.28711 194.713 -0.402386 195.599 0.688971 195.599Z" fill="#FFFFFF"/>
<path d="M24.6411 195.599C25.7325 195.599 26.6172 194.713 26.6172 193.621C26.6172 192.529 25.7325 191.643 24.6411 191.643C23.5498 191.643 22.665 192.529 22.665 193.621C22.665 194.713 23.5498 195.599 24.6411 195.599Z" fill="#FFFFFF"/>
<path d="M26.9521 1.97771C26.9521 3.07644 26.0739 3.95542 24.9761 3.95542C23.8783 3.95542 23 3.07644 23 1.97771C23 0.87898 23.8783 0 24.9761 0C26.0739 0 26.9521 0.87898 26.9521 1.97771Z" fill="#FFFFFF"/>
<path d="M50.9043 1.97771C50.9043 3.07644 50.0261 3.95542 48.9282 3.95542C47.8304 3.95542 46.9521 3.07644 46.9521 1.97771C46.9521 0.87898 47.8304 0 48.9282 0C50.0261 0 50.9043 0.87898 50.9043 1.97771Z" fill="#FFFFFF"/>
<path d="M74.8565 1.97771C74.8565 3.07644 73.9782 3.95542 72.8804 3.95542C71.7826 3.95542 70.9043 3.07644 70.9043 1.97771C70.9043 0.87898 71.7826 0 72.8804 0C73.9782 0 74.8565 0.87898 74.8565 1.97771Z" fill="#FFFFFF"/>
<path d="M98.8086 1.97771C98.8086 3.07644 97.9303 3.95542 96.8325 3.95542C95.7347 3.95542 94.8564 3.07644 94.8564 1.97771C94.8564 0.87898 95.7347 0 96.8325 0C97.9303 0 98.8086 0.87898 98.8086 1.97771Z" fill="#FFFFFF"/>
<path d="M122.761 1.97771C122.761 3.07644 121.882 3.95542 120.785 3.95542C119.687 3.95542 118.809 3.07644 118.809 1.97771C118.809 0.87898 119.687 0 120.785 0C121.882 0 122.761 0.87898 122.761 1.97771Z" fill="#FFFFFF"/>
<path d="M146.713 1.97771C146.713 3.07644 145.835 3.95542 144.737 3.95542C143.639 3.95542 142.761 3.07644 142.761 1.97771C142.761 0.87898 143.639 0 144.737 0C145.835 0 146.713 0.87898 146.713 1.97771Z" fill="#FFFFFF"/>
<path d="M170.665 1.97771C170.665 3.07644 169.787 3.95542 168.689 3.95542C167.591 3.95542 166.713 3.07644 166.713 1.97771C166.713 0.87898 167.591 0 168.689 0C169.787 0 170.665 0.87898 170.665 1.97771Z" fill="#FFFFFF"/>
<path d="M194.617 1.97771C194.617 3.07644 193.739 3.95542 192.641 3.95542C191.543 3.95542 190.665 3.07644 190.665 1.97771C190.665 0.87898 191.543 0 192.641 0C193.739 0 194.617 0.87898 194.617 1.97771Z" fill="#FFFFFF"/>
<path d="M26.9521 25.9332C26.9521 27.0319 26.0739 27.9109 24.9761 27.9109C23.8783 27.9109 23 27.0319 23 25.9332C23 24.8344 23.8783 23.9554 24.9761 23.9554C26.0739 23.9554 26.9521 24.8344 26.9521 25.9332Z" fill="#FFFFFF"/>
<path d="M50.9043 25.9332C50.9043 27.0319 50.0261 27.9109 48.9282 27.9109C47.8304 27.9109 46.9521 27.0319 46.9521 25.9332C46.9521 24.8344 47.8304 23.9554 48.9282 23.9554C50.0261 23.9554 50.9043 24.8344 50.9043 25.9332Z" fill="#FFFFFF"/>
<path d="M74.8565 25.9332C74.8565 27.0319 73.9782 27.9109 72.8804 27.9109C71.7826 27.9109 70.9043 27.0319 70.9043 25.9332C70.9043 24.8344 71.7826 23.9554 72.8804 23.9554C73.9782 23.9554 74.8565 24.8344 74.8565 25.9332Z" fill="#FFFFFF"/>
<path d="M98.8086 25.9332C98.8086 27.0319 97.9303 27.9109 96.8325 27.9109C95.7347 27.9109 94.8564 27.0319 94.8564 25.9332C94.8564 24.8344 95.7347 23.9554 96.8325 23.9554C97.9303 23.9554 98.8086 24.8344 98.8086 25.9332Z" fill="#FFFFFF"/>
<path d="M122.761 25.9332C122.761 27.0319 121.882 27.9109 120.785 27.9109C119.687 27.9109 118.809 27.0319 118.809 25.9332C118.809 24.8344 119.687 23.9554 120.785 23.9554C121.882 23.9554 122.761 24.8344 122.761 25.9332Z" fill="#FFFFFF"/>
<path d="M146.713 25.9332C146.713 27.0319 145.835 27.9109 144.737 27.9109C143.639 27.9109 142.761 27.0319 142.761 25.9332C142.761 24.8344 143.639 23.9554 144.737 23.9554C145.835 23.9554 146.713 24.8344 146.713 25.9332Z" fill="#FFFFFF"/>
<path d="M170.665 25.9332C170.665 27.0319 169.787 27.9109 168.689 27.9109C167.591 27.9109 166.713 27.0319 166.713 25.9332C166.713 24.8344 167.591 23.9554 168.689 23.9554C169.787 23.9554 170.665 24.8344 170.665 25.9332Z" fill="#FFFFFF"/>
<path d="M194.617 25.9332C194.617 27.0319 193.739 27.9109 192.641 27.9109C191.543 27.9109 190.665 27.0319 190.665 25.9332C190.665 24.8344 191.543 23.9554 192.641 23.9554C193.739 23.9554 194.617 24.8344 194.617 25.9332Z" fill="#FFFFFF"/>
<path d="M26.9521 49.8886C26.9521 50.9873 26.0739 51.8663 24.9761 51.8663C23.8783 51.8663 23 50.9873 23 49.8886C23 48.7899 23.8783 47.9109 24.9761 47.9109C26.0739 47.9109 26.9521 48.7899 26.9521 49.8886Z" fill="#FFFFFF"/>
<path d="M50.9043 49.8886C50.9043 50.9873 50.0261 51.8663 48.9282 51.8663C47.8304 51.8663 46.9521 50.9873 46.9521 49.8886C46.9521 48.7899 47.8304 47.9109 48.9282 47.9109C50.0261 47.9109 50.9043 48.7899 50.9043 49.8886Z" fill="#FFFFFF"/>
<path d="M74.8565 49.8886C74.8565 50.9873 73.9782 51.8663 72.8804 51.8663C71.7826 51.8663 70.9043 50.9873 70.9043 49.8886C70.9043 48.7899 71.7826 47.9109 72.8804 47.9109C73.9782 47.9109 74.8565 48.7899 74.8565 49.8886Z" fill="#FFFFFF"/>
<path d="M98.8086 49.8886C98.8086 50.9873 97.9303 51.8663 96.8325 51.8663C95.7347 51.8663 94.8564 50.9873 94.8564 49.8886C94.8564 48.7899 95.7347 47.9109 96.8325 47.9109C97.9303 47.9109 98.8086 48.7899 98.8086 49.8886Z" fill="#FFFFFF"/>
<path d="M122.761 49.8886C122.761 50.9873 121.882 51.8663 120.785 51.8663C119.687 51.8663 118.809 50.9873 118.809 49.8886C118.809 48.7899 119.687 47.9109 120.785 47.9109C121.882 47.9109 122.761 48.7899 122.761 49.8886Z" fill="#FFFFFF"/>
<path d="M146.713 49.8886C146.713 50.9873 145.835 51.8663 144.737 51.8663C143.639 51.8663 142.761 50.9873 142.761 49.8886C142.761 48.7899 143.639 47.9109 144.737 47.9109C145.835 47.9109 146.713 48.7899 146.713 49.8886Z" fill="#FFFFFF"/>
<path d="M170.665 49.8886C170.665 50.9873 169.787 51.8663 168.689 51.8663C167.591 51.8663 166.713 50.9873 166.713 49.8886C166.713 48.7899 167.591 47.9109 168.689 47.9109C169.787 47.9109 170.665 48.7899 170.665 49.8886Z" fill="#FFFFFF"/>
<path d="M194.617 49.8886C194.617 50.9873 193.739 51.8663 192.641 51.8663C191.543 51.8663 190.665 50.9873 190.665 49.8886C190.665 48.7899 191.543 47.9109 192.641 47.9109C193.739 47.9109 194.617 48.7899 194.617 49.8886Z" fill="#FFFFFF"/>
<path d="M26.9521 73.8439C26.9521 74.9426 26.0739 75.8216 24.9761 75.8216C23.8783 75.8216 23 74.9426 23 73.8439C23 72.7452 23.8783 71.8662 24.9761 71.8662C26.0739 71.8662 26.9521 72.7452 26.9521 73.8439Z" fill="#FFFFFF"/>
<path d="M50.9043 73.8439C50.9043 74.9426 50.0261 75.8216 48.9282 75.8216C47.8304 75.8216 46.9521 74.9426 46.9521 73.8439C46.9521 72.7452 47.8304 71.8662 48.9282 71.8662C50.0261 71.8662 50.9043 72.7452 50.9043 73.8439Z" fill="#FFFFFF"/>
<path d="M74.8565 73.8439C74.8565 74.9426 73.9782 75.8216 72.8804 75.8216C71.7826 75.8216 70.9043 74.9426 70.9043 73.8439C70.9043 72.7452 71.7826 71.8662 72.8804 71.8662C73.9782 71.8662 74.8565 72.7452 74.8565 73.8439Z" fill="#FFFFFF"/>
<path d="M98.8086 73.8439C98.8086 74.9426 97.9303 75.8216 96.8325 75.8216C95.7347 75.8216 94.8564 74.9426 94.8564 73.8439C94.8564 72.7452 95.7347 71.8662 96.8325 71.8662C97.9303 71.8662 98.8086 72.7452 98.8086 73.8439Z" fill="#FFFFFF"/>
<path d="M122.761 73.8439C122.761 74.9426 121.882 75.8216 120.785 75.8216C119.687 75.8216 118.809 74.9426 118.809 73.8439C118.809 72.7452 119.687 71.8662 120.785 71.8662C121.882 71.8662 122.761 72.7452 122.761 73.8439Z" fill="#FFFFFF"/>
<path d="M146.713 73.8439C146.713 74.9426 145.835 75.8216 144.737 75.8216C143.639 75.8216 142.761 74.9426 142.761 73.8439C142.761 72.7452 143.639 71.8662 144.737 71.8662C145.835 71.8662 146.713 72.7452 146.713 73.8439Z" fill="#FFFFFF"/>
<path d="M170.665 73.8439C170.665 74.9426 169.787 75.8216 168.689 75.8216C167.591 75.8216 166.713 74.9426 166.713 73.8439C166.713 72.7452 167.591 71.8662 168.689 71.8662C169.787 71.8662 170.665 72.7452 170.665 73.8439Z" fill="#FFFFFF"/>
<path d="M194.617 73.8439C194.617 74.9426 193.739 75.8216 192.641 75.8216C191.543 75.8216 190.665 74.9426 190.665 73.8439C190.665 72.7452 191.543 71.8662 192.641 71.8662C193.739 71.8662 194.617 72.7452 194.617 73.8439Z" fill="#FFFFFF"/>
<path d="M24.9761 99.7771C26.0674 99.7771 26.9521 98.8916 26.9521 97.7994C26.9521 96.7071 26.0674 95.8217 24.9761 95.8217C23.8847 95.8217 23 96.7071 23 97.7994C23 98.8916 23.8847 99.7771 24.9761 99.7771Z" fill="#FFFFFF"/>
<path d="M48.9282 99.7771C50.0196 99.7771 50.9043 98.8916 50.9043 97.7994C50.9043 96.7071 50.0196 95.8217 48.9282 95.8217C47.8369 95.8217 46.9521 96.7071 46.9521 97.7994C46.9521 98.8916 47.8369 99.7771 48.9282 99.7771Z" fill="#FFFFFF"/>
<path d="M72.8804 99.7771C73.9717 99.7771 74.8565 98.8916 74.8565 97.7994C74.8565 96.7071 73.9717 95.8217 72.8804 95.8217C71.789 95.8217 70.9043 96.7071 70.9043 97.7994C70.9043 98.8916 71.789 99.7771 72.8804 99.7771Z" fill="#FFFFFF"/>
<path d="M96.8325 99.7771C97.9239 99.7771 98.8086 98.8916 98.8086 97.7994C98.8086 96.7071 97.9239 95.8217 96.8325 95.8217C95.7412 95.8217 94.8564 96.7071 94.8564 97.7994C94.8564 98.8916 95.7412 99.7771 96.8325 99.7771Z" fill="#FFFFFF"/>
<path d="M122.761 97.7994C122.761 98.8981 121.882 99.7771 120.785 99.7771C119.687 99.7771 118.809 98.8981 118.809 97.7994C118.809 96.7006 119.687 95.8217 120.785 95.8217C121.882 95.8217 122.761 96.7006 122.761 97.7994Z" fill="#FFFFFF"/>
<path d="M144.737 99.7771C145.828 99.7771 146.713 98.8916 146.713 97.7994C146.713 96.7071 145.828 95.8217 144.737 95.8217C143.645 95.8217 142.761 96.7071 142.761 97.7994C142.761 98.8916 143.645 99.7771 144.737 99.7771Z" fill="#FFFFFF"/>
<path d="M168.689 99.7771C169.78 99.7771 170.665 98.8916 170.665 97.7994C170.665 96.7071 169.78 95.8217 168.689 95.8217C167.598 95.8217 166.713 96.7071 166.713 97.7994C166.713 98.8916 167.598 99.7771 168.689 99.7771Z" fill="#FFFFFF"/>
<path d="M192.641 99.7771C193.732 99.7771 194.617 98.8916 194.617 97.7994C194.617 96.7071 193.732 95.8217 192.641 95.8217C191.55 95.8217 190.665 96.7071 190.665 97.7994C190.665 98.8916 191.55 99.7771 192.641 99.7771Z" fill="#FFFFFF"/>
<path d="M24.9761 123.733C26.0674 123.733 26.9521 122.847 26.9521 121.755C26.9521 120.663 26.0674 119.777 24.9761 119.777C23.8847 119.777 23 120.663 23 121.755C23 122.847 23.8847 123.733 24.9761 123.733Z" fill="#FFFFFF"/>
<path d="M48.9282 123.733C50.0196 123.733 50.9043 122.847 50.9043 121.755C50.9043 120.663 50.0196 119.777 48.9282 119.777C47.8369 119.777 46.9521 120.663 46.9521 121.755C46.9521 122.847 47.8369 123.733 48.9282 123.733Z" fill="#FFFFFF"/>
<path d="M72.8804 123.733C73.9717 123.733 74.8565 122.847 74.8565 121.755C74.8565 120.663 73.9717 119.777 72.8804 119.777C71.789 119.777 70.9043 120.663 70.9043 121.755C70.9043 122.847 71.789 123.733 72.8804 123.733Z" fill="#FFFFFF"/>
<path d="M96.8325 123.733C97.9239 123.733 98.8086 122.847 98.8086 121.755C98.8086 120.663 97.9239 119.777 96.8325 119.777C95.7412 119.777 94.8564 120.663 94.8564 121.755C94.8564 122.847 95.7412 123.733 96.8325 123.733Z" fill="#FFFFFF"/>
<path d="M122.761 121.755C122.761 122.854 121.882 123.733 120.785 123.733C119.687 123.733 118.809 122.854 118.809 121.755C118.809 120.656 119.687 119.777 120.785 119.777C121.882 119.777 122.761 120.656 122.761 121.755Z" fill="#FFFFFF"/>
<path d="M144.737 123.733C145.828 123.733 146.713 122.847 146.713 121.755C146.713 120.663 145.828 119.777 144.737 119.777C143.645 119.777 142.761 120.663 142.761 121.755C142.761 122.847 143.645 123.733 144.737 123.733Z" fill="#FFFFFF"/>
<path d="M168.689 123.733C169.78 123.733 170.665 122.847 170.665 121.755C170.665 120.663 169.78 119.777 168.689 119.777C167.598 119.777 166.713 120.663 166.713 121.755C166.713 122.847 167.598 123.733 168.689 123.733Z" fill="#FFFFFF"/>
<path d="M192.641 123.733C193.732 123.733 194.617 122.847 194.617 121.755C194.617 120.663 193.732 119.777 192.641 119.777C191.55 119.777 190.665 120.663 190.665 121.755C190.665 122.847 191.55 123.733 192.641 123.733Z" fill="#FFFFFF"/>
<path d="M24.9761 147.688C26.0674 147.688 26.9521 146.803 26.9521 145.71C26.9521 144.618 26.0674 143.733 24.9761 143.733C23.8847 143.733 23 144.618 23 145.71C23 146.803 23.8847 147.688 24.9761 147.688Z" fill="#FFFFFF"/>
<path d="M48.9282 147.688C50.0196 147.688 50.9043 146.803 50.9043 145.71C50.9043 144.618 50.0196 143.733 48.9282 143.733C47.8369 143.733 46.9521 144.618 46.9521 145.71C46.9521 146.803 47.8369 147.688 48.9282 147.688Z" fill="#FFFFFF"/>
<path d="M72.8804 147.688C73.9717 147.688 74.8565 146.803 74.8565 145.71C74.8565 144.618 73.9717 143.733 72.8804 143.733C71.789 143.733 70.9043 144.618 70.9043 145.71C70.9043 146.803 71.789 147.688 72.8804 147.688Z" fill="#FFFFFF"/>
<path d="M96.8325 147.688C97.9239 147.688 98.8086 146.803 98.8086 145.71C98.8086 144.618 97.9239 143.733 96.8325 143.733C95.7412 143.733 94.8564 144.618 94.8564 145.71C94.8564 146.803 95.7412 147.688 96.8325 147.688Z" fill="#FFFFFF"/>
<path d="M122.761 145.71C122.761 146.809 121.882 147.688 120.785 147.688C119.687 147.688 118.809 146.809 118.809 145.71C118.809 144.612 119.687 143.733 120.785 143.733C121.882 143.733 122.761 144.612 122.761 145.71Z" fill="#FFFFFF"/>
<path d="M144.737 147.688C145.828 147.688 146.713 146.803 146.713 145.71C146.713 144.618 145.828 143.733 144.737 143.733C143.645 143.733 142.761 144.618 142.761 145.71C142.761 146.803 143.645 147.688 144.737 147.688Z" fill="#FFFFFF"/>
<path d="M168.689 147.688C169.78 147.688 170.665 146.803 170.665 145.71C170.665 144.618 169.78 143.733 168.689 143.733C167.598 143.733 166.713 144.618 166.713 145.71C166.713 146.803 167.598 147.688 168.689 147.688Z" fill="#FFFFFF"/>
<path d="M192.641 147.688C193.732 147.688 194.617 146.803 194.617 145.71C194.617 144.618 193.732 143.733 192.641 143.733C191.55 143.733 190.665 144.618 190.665 145.71C190.665 146.803 191.55 147.688 192.641 147.688Z" fill="#FFFFFF"/>
<path d="M24.9761 171.643C26.0674 171.643 26.9521 170.758 26.9521 169.666C26.9521 168.573 26.0674 167.688 24.9761 167.688C23.8847 167.688 23 168.573 23 169.666C23 170.758 23.8847 171.643 24.9761 171.643Z" fill="#FFFFFF"/>
<path d="M48.9282 171.643C50.0196 171.643 50.9043 170.758 50.9043 169.666C50.9043 168.573 50.0196 167.688 48.9282 167.688C47.8369 167.688 46.9521 168.573 46.9521 169.666C46.9521 170.758 47.8369 171.643 48.9282 171.643Z" fill="#FFFFFF"/>
<path d="M72.8804 171.643C73.9717 171.643 74.8565 170.758 74.8565 169.666C74.8565 168.573 73.9717 167.688 72.8804 167.688C71.789 167.688 70.9043 168.573 70.9043 169.666C70.9043 170.758 71.789 171.643 72.8804 171.643Z" fill="#FFFFFF"/>
<path d="M96.8325 171.643C97.9239 171.643 98.8086 170.758 98.8086 169.666C98.8086 168.573 97.9239 167.688 96.8325 167.688C95.7412 167.688 94.8564 168.573 94.8564 169.666C94.8564 170.758 95.7412 171.643 96.8325 171.643Z" fill="#FFFFFF"/>
<path d="M122.761 169.666C122.761 170.764 121.882 171.643 120.785 171.643C119.687 171.643 118.809 170.764 118.809 169.666C118.809 168.567 119.687 167.688 120.785 167.688C121.882 167.688 122.761 168.567 122.761 169.666Z" fill="#FFFFFF"/>
<path d="M144.737 171.643C145.828 171.643 146.713 170.758 146.713 169.666C146.713 168.573 145.828 167.688 144.737 167.688C143.645 167.688 142.761 168.573 142.761 169.666C142.761 170.758 143.645 171.643 144.737 171.643Z" fill="#FFFFFF"/>
<path d="M168.689 171.643C169.78 171.643 170.665 170.758 170.665 169.666C170.665 168.573 169.78 167.688 168.689 167.688C167.598 167.688 166.713 168.573 166.713 169.666C166.713 170.758 167.598 171.643 168.689 171.643Z" fill="#FFFFFF"/>
<path d="M192.641 171.643C193.732 171.643 194.617 170.758 194.617 169.666C194.617 168.573 193.732 167.688 192.641 167.688C191.55 167.688 190.665 168.573 190.665 169.666C190.665 170.758 191.55 171.643 192.641 171.643Z" fill="#FFFFFF"/>
<path d="M24.9761 195.599C26.0674 195.599 26.9521 194.713 26.9521 193.621C26.9521 192.529 26.0674 191.643 24.9761 191.643C23.8847 191.643 23 192.529 23 193.621C23 194.713 23.8847 195.599 24.9761 195.599Z" fill="#FFFFFF"/>
<path d="M48.9282 195.599C50.0196 195.599 50.9043 194.713 50.9043 193.621C50.9043 192.529 50.0196 191.643 48.9282 191.643C47.8369 191.643 46.9521 192.529 46.9521 193.621C46.9521 194.713 47.8369 195.599 48.9282 195.599Z" fill="#FFFFFF"/>
<path d="M72.8804 195.599C73.9717 195.599 74.8565 194.713 74.8565 193.621C74.8565 192.529 73.9717 191.643 72.8804 191.643C71.789 191.643 70.9043 192.529 70.9043 193.621C70.9043 194.713 71.789 195.599 72.8804 195.599Z" fill="#FFFFFF"/>
<path d="M96.8325 195.599C97.9239 195.599 98.8086 194.713 98.8086 193.621C98.8086 192.529 97.9239 191.643 96.8325 191.643C95.7412 191.643 94.8564 192.529 94.8564 193.621C94.8564 194.713 95.7412 195.599 96.8325 195.599Z" fill="#FFFFFF"/>
<path d="M122.761 193.621C122.761 194.72 121.882 195.599 120.785 195.599C119.687 195.599 118.809 194.72 118.809 193.621C118.809 192.522 119.687 191.643 120.785 191.643C121.882 191.643 122.761 192.522 122.761 193.621Z" fill="#FFFFFF"/>
<path d="M144.737 195.599C145.828 195.599 146.713 194.713 146.713 193.621C146.713 192.529 145.828 191.643 144.737 191.643C143.645 191.643 142.761 192.529 142.761 193.621C142.761 194.713 143.645 195.599 144.737 195.599Z" fill="#FFFFFF"/>
<path d="M168.689 195.599C169.78 195.599 170.665 194.713 170.665 193.621C170.665 192.529 169.78 191.643 168.689 191.643C167.598 191.643 166.713 192.529 166.713 193.621C166.713 194.713 167.598 195.599 168.689 195.599Z" fill="#FFFFFF"/>
<path d="M192.641 195.599C193.732 195.599 194.617 194.713 194.617 193.621C194.617 192.529 193.732 191.643 192.641 191.643C191.55 191.643 190.665 192.529 190.665 193.621C190.665 194.713 191.55 195.599 192.641 195.599Z" fill="#FFFFFF"/>
</svg>
